<svg width="279" height="50" viewBox="0 0 279 50" fill="none" xmlns="http://www.w3.org/2000/svg">
<rect x="0.5" y="0.5" width="278" height="49" rx="7.5" fill="#FBFBFB"/>
<rect x="0.5" y="0.5" width="278" height="49" rx="7.5" stroke="#1DA99D"/>
<g clip-path="url(#clip0_473_28114)">
<path d="M149.357 22.8571H142.071C141.835 22.8571 141.643 22.6652 141.643 22.4286V15.1429C141.643 13.9595 140.683 13 139.5 13C138.317 13 137.357 13.9595 137.357 15.1429V22.4286C137.357 22.6652 137.165 22.8571 136.929 22.8571H129.643C128.459 22.8571 127.5 23.8166 127.5 25C127.5 26.1834 128.459 27.1429 129.643 27.1429H136.929C137.165 27.1429 137.357 27.3348 137.357 27.5714V34.8571C137.357 36.0405 138.317 37 139.5 37C140.683 37 141.643 36.0405 141.643 34.8571V27.5714C141.643 27.3348 141.835 27.1429 142.071 27.1429H149.357C150.541 27.1429 151.5 26.1834 151.5 25C151.5 23.8166 150.541 22.8571 149.357 22.8571Z" fill="#1DA99D"/>
</g>
<defs>
<clipPath id="clip0_473_28114">
<rect width="24" height="24" fill="white" transform="translate(127.5 13)"/>
</clipPath>
</defs>
</svg>
