<svg width="100" height="101" viewBox="0 0 100 101" fill="none" xmlns="http://www.w3.org/2000/svg">
<path d="M45 3.67288C48.094 1.88656 51.906 1.88656 55 3.67288L88.3013 22.8994C91.3953 24.6857 93.3013 27.987 93.3013 31.5596V70.0126C93.3013 73.5853 91.3953 76.8866 88.3013 78.6729L55 97.8994C51.906 99.6857 48.094 99.6857 45 97.8994L11.6987 78.6729C8.60472 76.8866 6.69873 73.5853 6.69873 70.0126L6.69873 31.5596C6.69873 27.987 8.60472 24.6857 11.6987 22.8994L45 3.67288Z" fill="#1DA99D"/>
<g clip-path="url(#clip0_13_743)">
<path d="M69.1667 53.3578L62.0834 50.8578C61.8134 50.7611 61.52 50.7611 61.25 50.8578L54.1667 53.3578C53.6667 53.5328 53.3334 54.0061 53.3334 54.5361V60.1611C53.3334 67.1461 60.8434 70.5394 61.1617 70.6794C61.3234 70.7511 61.4934 70.7861 61.6667 70.7861C61.84 70.7861 62.01 70.7511 62.1717 70.6794C62.49 70.5394 70 67.1461 70 60.1611V54.5361C70 54.0061 69.6667 53.5328 69.1667 53.3578ZM66.24 59.2494L61.885 63.7678C61.6484 64.0128 61.3234 64.1494 60.985 64.1494C60.9734 64.1494 60.96 64.1494 60.95 64.1494C60.5984 64.1394 60.2667 63.9811 60.0367 63.7144L57.725 61.0228C57.275 60.4994 57.3367 59.7094 57.86 59.2594C58.385 58.8094 59.1717 58.8711 59.6234 59.3928L61.04 61.0428L64.4417 57.5128C64.9234 57.0144 65.715 57.0028 66.21 57.4794C66.7034 57.9611 66.7184 58.7528 66.24 59.2494Z" fill="white"/>
<path d="M45.3667 30.7861L37.2667 30.8195C36.2167 30.8195 35.2333 31.4028 34.7333 32.3195L30.5 39.9861L44.55 39.9528L45.3667 30.7861Z" fill="white"/>
<path d="M62.8 39.9195L58.5167 32.2528C58 31.3361 57.0334 30.7528 55.9667 30.7528L47.8667 30.7861L48.7167 39.9528L62.8 39.9195Z" fill="white"/>
<path d="M63.3333 47.7694L63.1999 47.7194C62.6999 47.5361 62.1833 47.4528 61.6666 47.4528C61.1499 47.4528 60.6333 47.5361 60.1333 47.7194L53.0666 50.2194C51.2333 50.8528 49.9999 52.5861 49.9999 54.5361V60.1528C49.9999 61.5861 50.2333 62.9028 50.6333 64.1194L32.6833 64.1694C32.6666 64.1694 32.6666 64.1694 32.6666 64.1694C31.2333 64.1694 30.0499 62.9861 30.0499 61.5361L29.9833 42.4861L45.3999 42.4528H47.8999L63.3166 42.4028L63.3333 47.7694Z" fill="white"/>
</g>
<defs>
<clipPath id="clip0_13_743">
<rect width="40" height="40" fill="white" transform="translate(30 30.7861)"/>
</clipPath>
</defs>
</svg>
