<svg width="220" height="125" viewBox="0 0 220 125" fill="none" xmlns="http://www.w3.org/2000/svg">
<rect y="0.786133" width="220" height="124" rx="10" fill="white"/>
<path d="M92.7099 31.9101L94.4416 29.3043L94.0698 30.0604C94.0272 30.1468 94.0487 30.2605 94.1172 30.3137C94.1858 30.3674 94.2757 30.3406 94.3183 30.2542L95.0063 28.8634L95.7026 30.2704C95.7452 30.3562 95.8347 30.3828 95.903 30.3292C95.9711 30.2759 95.992 30.1629 95.9498 30.0767L95.578 29.3206L97.27 32.0347C97.2728 34.3134 96.3875 34.9494 95.4293 35.388H94.5922C93.7028 34.8247 92.7755 34.23 92.7099 31.9101ZM109.821 34.7383L87.7406 51.5358L87.7444 18L109.821 34.7383ZM90.8028 35.5088C91.1992 35.9577 92.0851 36.1572 93.1515 36.1572C94.2177 36.1572 94.6979 35.9258 94.667 35.7501H95.3535C95.3226 35.9258 96.2399 36.199 97.0489 36.199C97.8579 36.199 98.848 35.902 99.1385 35.573C99.4289 35.2441 99.8205 33.2381 98.7983 32.0806C98.7911 32.0582 95.356 28.6443 95.356 28.6443C95.5577 28.6775 95.7603 28.7024 95.964 28.7094C96.0689 28.7151 96.1737 28.6986 96.2743 28.6606C96.5731 28.5142 96.7215 28.0901 96.6054 27.7137C96.489 27.3368 96.1524 27.1502 95.8534 27.2966C95.6049 27.4179 95.1312 28.1632 95.0392 28.3116L95.0244 28.3352C95.0151 28.3342 95.0063 28.3346 94.9972 28.3358L94.9834 28.3132C94.8871 28.1649 94.4173 27.4196 94.1692 27.2987C93.87 27.1519 93.5332 27.3382 93.4166 27.7147C93.4149 27.7198 93.4132 27.7249 93.4117 27.7304C93.2998 28.1043 93.4498 28.5215 93.7468 28.6627C93.8474 28.7001 93.9522 28.7157 94.0571 28.7096C94.2535 28.7032 94.4487 28.6802 94.6437 28.6496C94.6437 28.6496 91.2054 32.0715 91.1987 32.1165C90.1451 33.3084 90.4063 35.0599 90.8028 35.5088ZM99.2579 37.4962H95.0688H90.8727V38.1011C90.8727 38.1011 93.2839 38.1613 94.5032 41.887H95.6263C96.844 38.1615 99.258 38.1061 99.258 38.1061L99.2579 37.4962ZM94.0627 27.6332C94.0291 27.6169 93.9933 27.6089 93.9576 27.6095C93.7991 27.6063 93.6686 27.7658 93.6662 27.9655C93.6653 28.0194 93.6744 28.0724 93.6918 28.1212C93.7228 28.2093 93.78 28.2786 93.8513 28.313C94.0976 28.3494 94.3468 28.3399 94.5909 28.2843C94.441 28.0354 94.2629 27.8163 94.0627 27.6332ZM96.1692 28.3185C96.3177 28.2452 96.3911 28.0339 96.3328 27.8465C96.2744 27.6589 96.1065 27.5668 95.9578 27.6401C95.7578 27.8229 95.58 28.0418 95.4304 28.2898C95.6743 28.3449 95.9233 28.3549 96.1692 28.3185ZM79.5232 34.4457L79.0268 33.3063L78.5303 34.4457L77.4202 34.6282L78.2236 35.5151L78.034 36.7671L79.027 36.176L80.0199 36.7671L79.8303 35.5151L80.6339 34.6282L79.5232 34.4457ZM86.2285 18L86.2322 51.5358L64.1513 34.7383L86.2285 18ZM85.3401 33.1969L81.3533 29.8111L81.3329 29.6011L81.1105 29.6049L81.1061 29.6011L81.1059 29.6054L80.979 29.6077C80.7688 30.4356 79.9081 31.0568 78.8755 31.0568C77.8749 31.0568 77.0415 30.4713 76.799 29.6814L76.4941 29.6869L72.2599 33.2829L74.3771 35.9368L76.162 34.7634L75.7379 41.2454H82.4671L81.854 34.9515L83.2231 35.8515L85.3401 33.1969ZM144.962 37.4056C144.96 37.4062 144.825 37.4592 144.433 37.2879C144.149 37.1641 144.072 37.0164 144.07 36.9535C144.083 36.8189 144.001 36.6951 143.882 36.6725C143.761 36.6473 143.642 36.7437 143.621 36.8837C143.613 36.9414 143.559 37.4571 144.27 37.7675C144.547 37.8881 144.75 37.9274 144.896 37.9274C145.073 37.9274 145.168 37.8699 145.211 37.8319C145.309 37.7442 145.342 37.5723 145.265 37.4603C145.187 37.3481 145.06 37.3187 144.962 37.4056ZM157 34.7383L134.919 51.5358L134.923 18L157 34.7383ZM138.804 34.2577C138.804 34.2577 140.146 34.4829 141.27 33.3467C142.395 32.2105 142.875 30.1435 142.875 30.1435C142.875 30.1435 140.448 30.4893 139.569 31.4204C138.469 32.5861 138.804 34.2577 138.804 34.2577ZM147.536 38.3394C147.536 37.3887 147.131 36.5727 146.261 36.2239C145.984 36.1132 145.498 36.2227 145.163 36.2328C145.173 35.7511 145.154 34.6576 144.824 33.7908C144.649 33.3294 144.454 32.9755 144.298 32.6913C144.087 32.3085 143.936 32.0318 143.936 31.7094C143.936 31.7045 143.933 31.7005 143.933 31.6956C143.934 31.6156 143.936 31.5389 143.936 31.4525C143.936 30.3089 143.99 29.8211 143.99 29.816C144.006 29.6757 143.919 29.5466 143.795 29.5282C143.673 29.5101 143.557 29.6089 143.54 29.7494C143.538 29.7701 143.482 30.2679 143.482 31.4525C143.482 32.4968 143.482 32.8876 142.442 34.0642C142.122 34.4275 141.868 34.7341 141.578 35.0846L141.275 35.4503C140.858 35.951 140.391 36.7103 140.329 36.8113C139.995 36.7901 139.579 36.7492 139.349 36.8552C138.622 37.1909 138.378 37.8976 138.378 38.7146C138.378 39.8565 139.427 41.2447 140.561 41.2447C141.356 41.2447 142.182 40.5201 142.532 39.6877C142.343 39.2499 142.234 38.7845 142.234 38.3389C142.234 37.9732 142.277 37.661 142.346 37.3859C142.161 37.1383 141.915 36.9376 141.596 36.8098C141.419 36.739 141.148 36.769 140.897 36.7961C141.08 36.5123 141.357 36.1012 141.606 35.8023L141.91 35.4353C142.196 35.089 142.446 34.7861 142.763 34.4271C143.384 33.7246 143.671 33.2489 143.808 32.768C143.843 32.8325 143.876 32.8961 143.913 32.9626C144.069 33.2463 144.246 33.5679 144.408 33.9938C144.699 34.7601 144.717 35.7723 144.709 36.2159C144.369 36.1933 143.989 36.1709 143.765 36.2742C142.958 36.6469 142.688 37.4313 142.688 38.3387C142.688 39.6065 143.773 41.148 145.112 41.148C146.451 41.148 147.536 39.6074 147.536 38.3394ZM140.418 37.8496C140.417 37.8503 140.296 37.8915 139.958 37.744C139.673 37.62 139.648 37.4846 139.646 37.4662C139.657 37.3331 139.575 37.211 139.457 37.1886C139.336 37.1634 139.217 37.2598 139.196 37.3999C139.188 37.4542 139.137 37.9371 139.795 38.2236C140.047 38.333 140.232 38.3687 140.367 38.3687C140.534 38.3687 140.623 38.3138 140.664 38.2779C140.763 38.1902 140.797 38.017 140.72 37.9052C140.643 37.7932 140.518 37.7626 140.418 37.8496ZM123.314 34.781C123.21 34.781 123.125 34.8773 123.125 34.995V40.6671C123.125 40.7848 123.21 40.8809 123.314 40.8809C123.418 40.8809 123.503 40.7848 123.503 40.6671V34.995C123.503 34.8773 123.418 34.781 123.314 34.781ZM133.407 18L133.411 51.5358L111.33 34.7383L133.407 18ZM130.704 35.3159C130.704 35.6113 130.916 35.8511 131.177 35.8511C131.438 35.8511 131.649 35.6115 131.649 35.3159C131.649 35.0204 131.438 34.7808 131.177 34.7808C130.916 34.7808 130.704 35.0206 130.704 35.3159ZM129.797 34.2887C129.797 34.4662 129.924 34.6096 130.08 34.6096C130.237 34.6096 130.364 34.466 130.364 34.2887C130.364 34.1115 130.237 33.9678 130.08 33.9678C129.924 33.9678 129.797 34.1113 129.797 34.2887ZM129.325 35.4446C129.325 35.6098 129.443 35.7442 129.589 35.7442C129.735 35.7442 129.854 35.6098 129.854 35.4446C129.854 35.2789 129.735 35.1446 129.589 35.1446C129.443 35.1446 129.325 35.2789 129.325 35.4446ZM128.549 33.3682C128.549 33.5575 128.685 33.7109 128.852 33.7109C129.019 33.7109 129.154 33.5575 129.154 33.3682C129.154 33.1789 129.019 33.026 128.852 33.026C128.685 33.0258 128.549 33.1789 128.549 33.3682ZM128.001 35.4873C128.001 35.6406 128.111 35.7655 128.247 35.7655C128.382 35.7655 128.493 35.6408 128.493 35.4873C128.493 35.3335 128.383 35.209 128.247 35.209C128.111 35.2092 128.001 35.3337 128.001 35.4873ZM127.104 38.5644C126.211 38.0827 125.627 37.2881 125.627 36.3862H127.104V35.7228C127.104 34.8237 125.45 33.0473 125.45 32.1268C125.45 31.4852 125.378 29.7425 125.335 28.7451H125.648V27.4606H123.758V28.7451H124.071C124.027 29.7425 123.956 31.4852 123.956 32.1268C123.956 33.0473 122.302 34.7383 122.302 35.7228V41.2878C122.302 41.5716 122.506 41.8014 122.756 41.8014H126.65C126.9 41.8014 127.103 41.5713 127.103 41.2878C127.104 41.2878 127.104 39.9467 127.104 38.5644ZM132.188 36.7635H126.045C126.045 37.6901 127.322 38.4456 128.932 38.4997V41.2984C128.932 41.4053 127.798 41.4161 127.798 41.4161C127.679 41.4161 127.581 41.5268 127.581 41.662C127.581 41.7972 127.679 41.9083 127.798 41.9083H130.426C130.545 41.9083 130.643 41.7972 130.643 41.662C130.643 41.5268 130.545 41.4161 130.426 41.4161C130.426 41.4161 129.292 41.4053 129.292 41.2984V38.4999C130.906 38.4484 132.188 37.692 132.188 36.7635ZM87.7444 55.6287L109.821 72.3666L87.7406 89.1644L87.7444 55.6287ZM92.2013 68.9943C92.2013 69.2011 92.3735 69.3697 92.5839 69.3697H93.6334C93.8437 69.3697 94.016 69.2009 94.016 68.9943V68.6324C94.016 68.4256 93.8437 68.257 93.6334 68.257H92.5839C92.3735 68.257 92.2013 68.4258 92.2013 68.6324V68.9943ZM91.294 76.8135C91.294 77.0518 91.4662 77.2468 91.6767 77.2468H100.362C100.573 77.2468 100.745 77.0518 100.745 76.8135V70.1459C100.745 69.9076 100.573 69.7126 100.362 69.7126H99.2054C98.8885 68.8997 98.512 68.0003 98.3965 68.0003H95.2302C95.1149 68.0003 94.7382 68.8997 94.4216 69.7126H91.6768C91.4664 69.7126 91.2942 69.9076 91.2942 70.1459L91.294 76.8135ZM93.8647 73.2868C93.8647 71.4308 95.1933 69.9262 96.8321 69.9262C98.4711 69.9262 99.7998 71.4308 99.7998 73.2868C99.7998 75.1428 98.4711 76.647 96.8321 76.647C95.1933 76.6473 93.8647 75.1428 93.8647 73.2868ZM94.8347 73.2868C94.8347 74.5363 95.7293 75.5489 96.8323 75.5489C97.9356 75.5489 98.8302 74.5363 98.8302 73.2868C98.8302 72.0374 97.9356 71.0248 96.8323 71.0248C95.7291 71.0248 94.8347 72.0376 94.8347 73.2868ZM96.1707 72.8375C96.4065 72.3004 96.5748 71.8206 96.2784 71.6537C95.9819 71.4868 95.5506 71.7868 95.3147 72.3241C95.0789 72.8611 95.128 73.4316 95.4243 73.5985C95.7207 73.7651 95.9351 73.3743 96.1707 72.8375ZM86.2285 55.6287L86.2322 89.1644L64.1513 72.3666L86.2285 55.6287ZM69.539 73.485C70.3812 73.4761 72.5002 73.4381 75.1799 73.2744C75.6952 73.2429 76.2607 73.2006 76.8493 73.1525C76.8025 73.0411 76.7501 72.9243 76.687 72.803C76.3853 72.2227 75.6223 71.4366 75.6144 71.4285L75.9193 71.0482C75.9525 71.0825 76.7415 71.8956 77.0775 72.5423C77.1837 72.746 77.2652 72.9387 77.3305 73.1115C77.557 73.092 77.7852 73.072 78.0152 73.0508C77.9792 72.9703 77.9406 72.8877 77.8964 72.803C77.5952 72.2237 76.832 71.4366 76.8243 71.4285L77.1292 71.0482C77.1624 71.0825 77.951 71.8956 78.2872 72.5423C78.3717 72.7048 78.4423 72.8618 78.5005 73.0063C78.7256 72.9849 78.9501 72.9636 79.1738 72.9418C79.1521 72.896 79.1307 72.8504 79.1062 72.803C78.8051 72.2237 78.0417 71.4366 78.0342 71.4285L78.3391 71.0482C78.3723 71.0825 79.1609 71.8956 79.4971 72.5423C79.5605 72.6642 79.6137 72.7811 79.6618 72.8937C79.8867 72.8713 80.1087 72.8491 80.3277 72.8267C80.3234 72.8187 80.3204 72.8111 80.3161 72.803C80.0145 72.2227 79.2516 71.4366 79.2438 71.4285L79.5484 71.0482C79.5816 71.0825 80.3708 71.8956 80.707 72.5423C80.7484 72.6215 80.7859 72.6997 80.8208 72.7756C82.06 72.6463 83.1413 72.525 83.7887 72.4508L83.7566 72.4164C83.8158 72.334 84.0445 71.8498 83.6913 70.2452C83.6598 70.2477 83.2484 68.7448 82.9514 67.913C82.9326 67.8562 82.899 67.8199 82.8505 67.8042C82.8505 67.8042 82.2542 67.4115 81.9143 68.0214C81.574 68.6315 81.4691 69.5584 80.7799 69.6106C80.0911 69.663 79.8124 69.3621 79.6176 69.0646C79.4229 68.7676 79.3624 68.6313 79.2913 68.2942C79.2206 67.957 79.2068 67.4939 78.9794 67.395L78.7354 67.2955C78.4598 67.181 78.1715 67.3792 77.9728 67.5877C77.7745 67.7964 77.4482 68.1818 76.8954 68.4868C76.3426 68.7919 75.8435 68.8739 75.8435 68.8739L75.6342 69.1234C75.6184 69.1246 75.6195 69.1441 75.6195 69.1441L75.6204 69.1633L75.668 69.2628L75.4448 69.4492L75.2659 69.3659L75.2501 69.3672L74.9579 69.5453C74.942 69.5466 74.9441 69.5852 74.9441 69.5852L75.0133 69.6966L74.7674 69.8516L74.5715 69.7504L74.5557 69.7515L74.5398 69.7528L74.2642 69.949L74.2654 69.9685L74.3525 70.1172L74.1023 70.2581L73.9383 70.1544C73.9383 70.1544 73.9213 70.1362 73.9224 70.1556L73.6292 70.3143L73.6142 70.335L73.6154 70.3544L73.6708 70.5053L73.4467 70.6743L73.2827 70.5704L73.2668 70.5716L73.251 70.5729L72.9734 70.7305L72.9585 70.7512L72.9596 70.7704L73.0152 70.9217L72.7221 71.1036L72.5896 70.9973C72.5896 70.9973 72.5726 70.9792 72.5581 70.9999C72.4663 71.0654 72.3909 71.1488 72.3161 71.2325C72.3014 71.253 72.3014 71.253 72.3181 71.2711L72.3751 71.37C72.3167 71.4718 72.0273 71.5745 71.4463 71.9277C70.8661 72.281 69.9353 72.7732 69.539 73.485ZM83.9587 74.1689L83.8913 72.8723L83.8902 72.8525C82.3395 73.0308 78.0227 73.4239 75.1995 73.6849C71.8633 73.9933 70.2629 73.8898 69.4698 73.8974L69.4539 74.7923C69.456 74.8312 69.4728 74.8492 69.5053 74.8661L70.3215 74.9968C71.1693 75.1251 72.0446 75.1737 72.8982 75.1073L83.8996 74.2513C83.9311 74.2485 83.9606 74.2073 83.9587 74.1689ZM148.57 71.1678C148.57 70.9547 148.509 70.7943 148.376 70.662C147.979 70.2687 147.106 70.2416 146.587 70.2782C146.467 71.6089 146.127 72.8115 145.635 73.789C147.134 72.9346 148.57 71.8644 148.57 71.1678ZM134.923 55.6287L157 72.3666L134.919 89.1644L134.923 55.6287ZM141.64 65.4784C141.591 66.0568 142.338 66.5463 142.277 67.2655C142.215 67.9846 142.147 68.4355 142.147 68.4355C142.147 68.4355 142.981 67.5889 143.044 66.8616C143.106 66.1344 142.358 65.6556 142.407 65.0744C142.457 64.4937 142.537 63.9049 142.537 63.9049C142.537 63.9049 141.69 64.9003 141.64 65.4784ZM138.322 69.1986C138.322 71.8675 139.19 74.1896 140.472 75.3953H144.488C144.612 75.2782 144.729 75.142 144.846 75.0044C146.198 74.3377 149.206 72.6837 149.206 71.1678C149.206 70.7506 149.063 70.3891 148.795 70.122C148.222 69.5518 147.192 69.5216 146.624 69.5544C146.628 69.435 146.638 69.3194 146.638 69.1986H139.644C139.626 69.5681 139.636 70.0834 139.75 70.6868C139.982 71.9151 140.346 72.5134 140.349 72.5195C140.449 72.6816 140.416 72.9059 140.273 73.02C140.217 73.0646 140.153 73.0863 140.09 73.0863C139.991 73.0863 139.893 73.0339 139.832 72.9363C139.814 72.9076 139.391 72.2265 139.129 70.837C139.006 70.1797 138.99 69.6188 139.009 69.1986H138.322ZM136.951 75.7538C136.951 76.263 138.106 76.7062 139.811 76.9363H145.15C146.854 76.7062 148.009 76.263 148.009 75.7538H136.951ZM129.348 71.7832C129.397 72.0207 129.431 72.2641 129.431 72.5187C129.431 72.7525 129.404 72.9784 129.362 73.1983C129.258 73.7453 129.038 74.2428 128.725 74.6504C128.55 74.8773 128.349 75.0769 128.126 75.2419C127.675 75.5746 127.138 75.7696 126.56 75.7696C125.982 75.7696 125.445 75.5746 124.995 75.2419C124.771 75.0769 124.57 74.8773 124.396 74.6504C123.957 74.0793 123.689 73.3352 123.689 72.5187C123.689 71.7021 123.957 70.9578 124.396 70.387C124.57 70.1599 124.771 69.9604 124.995 69.7952C125.445 69.4625 125.982 69.2675 126.56 69.2675C127.138 69.2675 127.675 69.4625 128.126 69.7952C128.349 69.9604 128.55 70.1599 128.725 70.387C129.027 70.7801 129.24 71.2591 129.348 71.7832ZM128.059 71.1186C127.95 70.9772 127.76 70.9635 127.636 71.0873L126.802 71.9159C126.728 71.8777 126.647 71.8538 126.56 71.8538C126.507 71.8538 126.459 71.873 126.41 71.888L125.25 70.2839C125.145 70.1389 124.957 70.1187 124.829 70.2363C124.701 70.3551 124.682 70.5684 124.787 70.7136L125.996 72.3872C125.988 72.431 125.973 72.4722 125.973 72.5187C125.973 72.8856 126.236 73.1835 126.56 73.1835C126.884 73.1835 127.147 72.8854 127.147 72.5187C127.147 72.5056 127.141 72.4944 127.14 72.4817L128.031 71.5969C128.156 71.4737 128.168 71.2591 128.059 71.1186ZM124.995 76.1102V76.7637H128.126V76.1102C127.653 76.3747 127.123 76.5275 126.56 76.5275C125.998 76.5277 125.467 76.3747 124.995 76.1102ZM128.126 68.9271V68.2734H124.995V68.9271C125.468 68.6624 125.998 68.5099 126.56 68.5099C127.123 68.5097 127.653 68.6622 128.126 68.9271ZM133.407 55.6287L133.411 89.1644L111.33 72.3666L133.407 55.6287ZM130.62 72.4887C130.62 72.0754 130.756 71.7406 130.025 71.7184C129.852 70.7616 129.382 69.9279 128.725 69.3507V67.7516C128.725 67.6652 128.663 67.5953 128.586 67.5953H127.868V66.0779H125.252V67.5953H124.534C124.458 67.5953 124.396 67.6652 124.396 67.7516V69.3507C123.56 70.0842 123.02 71.2287 123.02 72.5187C123.02 73.8082 123.56 74.9531 124.396 75.6862V77.2853C124.396 77.3717 124.458 77.4418 124.534 77.4418H125.252V78.9589H127.868V77.4418H128.586C128.663 77.4418 128.725 77.3717 128.725 77.2853V75.6862C129.396 75.097 129.871 74.2403 130.034 73.2583C130.754 73.2334 130.62 72.9002 130.62 72.4887ZM111.333 74.4642L133.411 91.2021L111.33 108L111.333 74.4642ZM113.526 88.3768H123.877V88.0236C123.877 87.7396 123.674 87.51 123.423 87.51H120.091C118.815 87.51 118.446 85.455 116.207 85.455C114.364 85.455 113.527 87.0923 113.527 88.0238L113.526 88.3768ZM112.561 93.7565C112.604 93.8258 112.673 93.867 112.748 93.867H113.598V96.0826C113.598 96.2246 113.7 96.3395 113.825 96.3395C113.95 96.3395 114.052 96.2246 114.052 96.0826V93.867H123.578V96.0826C123.578 96.2246 123.68 96.3395 123.805 96.3395C123.931 96.3395 124.032 96.2246 124.032 96.0826V93.867H124.628C124.702 93.867 124.772 93.8258 124.814 93.7565C124.856 93.6873 124.866 93.5992 124.84 93.5206L123.92 90.7272C123.911 90.7016 123.892 90.686 123.877 90.6657V88.8264H113.527V90.6243C113.497 90.6524 113.47 90.6845 113.456 90.7274L112.535 93.5208C112.509 93.5992 112.519 93.6873 112.561 93.7565ZM123.56 91.1058H122.713L122.973 92.3795H121.253L121.139 91.1058H120.378L120.459 92.3795H118.985L118.936 91.1058H118.256L118.191 92.3795H116.717L116.798 91.1058H116.118L115.922 92.3795H114.297L114.558 91.1058H113.814L113.074 93.3532H124.3L123.56 91.1058ZM108.352 97.4632H104.749V91.6192H108.352V97.4632ZM106.777 97.1738C106.777 97.0318 106.675 96.9169 106.55 96.9169C106.425 96.9169 106.323 97.0318 106.323 97.1738C106.323 97.3158 106.425 97.4307 106.55 97.4307C106.676 97.4307 106.777 97.3158 106.777 97.1738ZM108.084 91.9513H105.017V96.8848H108.084V91.9513ZM109.818 74.4642L109.821 108L87.7406 91.2021L109.818 74.4642ZM104.345 94.0599H101.995H99.5618H95.8013V86.6746H105.756V91.1204H106.024V86.3863H95.5334V94.3485H99.562V95.8808H98.2552V96.8846H103.302V95.8808H101.995V94.3485H104.345L104.345 94.0599ZM104.345 91.1204H105.44V87.0841H96.1168V93.6509H104.345V91.1204ZM108.62 91.3308H104.48V97.7518H108.62V91.3308ZM86.0807 53.6113L64 70.4092L64.0034 36.8734L86.0807 53.6113ZM66.4569 55.8854H76.5986L75.9995 52.5989C75.971 52.4425 75.8559 52.3192 75.7057 52.2543C75.7172 52.1892 75.7068 52.1191 75.6715 52.0597L72.0754 46.0542C72.0389 45.8523 71.9318 45.6794 71.7849 45.5689L71.6728 45.3818C71.6308 45.3116 71.5603 45.2692 71.4855 45.2692H71.4849C71.4103 45.2692 71.3398 45.3112 71.2976 45.3815L71.2474 45.4648C70.9502 45.5474 70.7288 45.8489 70.7288 46.211C70.7288 46.2454 70.7338 46.2784 70.7377 46.3118L67.2791 52.0595C67.2343 52.1339 67.2327 52.2241 67.261 52.3014C67.156 52.3722 67.0784 52.4751 67.0556 52.5991L66.4569 55.8854ZM76.7734 56.8441L76.6922 56.3989H66.3634L66.2823 56.8441C66.1778 57.4183 66.6689 57.9401 67.314 57.9401H75.7419C76.3868 57.9401 76.8779 57.4185 76.7734 56.8441ZM71.4094 46.9813C71.2491 46.9813 71.1034 46.9156 70.987 46.8104L67.7413 52.204H75.2098L71.9221 46.7132C71.7971 46.8761 71.615 46.9813 71.4094 46.9813ZM141.033 52.6903C141.026 52.4776 140.869 52.3113 140.681 52.3187C140.493 52.3261 140.346 52.5044 140.353 52.717C140.359 52.9297 140.517 53.096 140.704 53.0886C140.892 53.0812 141.039 52.9033 141.033 52.6903ZM156.997 36.8734L157 70.4092L134.919 53.6113L156.997 36.8734ZM140.756 54.0186C141.624 53.2513 143.36 52.7189 144.201 52.4958C144.906 52.3086 145.722 52.2095 146.559 52.2095C147.973 52.2095 149.346 52.4789 150.426 52.9682C151.054 53.2525 151.474 53.5014 151.781 53.6831C152.13 53.8895 152.29 53.9808 152.446 53.9808C152.521 53.9808 152.611 53.9613 152.728 53.9189C152.776 53.9015 152.823 53.8893 152.871 53.8737C152.324 53.6265 151.802 53.31 152.101 53.092C152.657 52.6865 154.199 53.0597 154.199 53.0597C154.199 53.0597 153.263 51.7435 151.023 52.2892C150.192 52.4918 150.25 51.9065 148.528 51.1977C148.028 50.9915 147.416 50.847 146.827 50.7482C146.55 50.7017 146.326 49.6143 146.04 49.5913C145.626 49.5581 144.978 50.652 144.563 50.6683C143.782 50.6985 142.879 50.8008 142.206 51.0049C140.996 51.3725 139.005 52.2332 138.8 53.0115C138.694 53.4137 139.722 53.7822 140.756 54.0186ZM153.746 54.9222C154.312 54.5368 155.872 54.9222 155.872 54.9222C155.872 54.9222 154.908 53.67 152.866 54.4086C152.056 54.7018 151.959 54.2159 150.258 53.4454C148.557 52.6749 146.119 52.5144 144.304 52.9958C143.085 53.3197 140.93 54.0877 140.703 54.8582C140.476 55.6287 144.503 56.4315 144.616 56.2388C144.73 56.0461 144.73 55.0506 144.73 55.0506C144.73 55.0506 144.758 55.9498 146.005 56.913C147.253 57.8761 149.719 57.202 148.982 57.0093C148.245 56.8166 147.593 56.0138 147.593 56.0138C147.593 56.0138 148.116 56.2528 148.209 56.2754C149.871 56.6795 152.388 55.3025 152.952 55.789C153.547 56.3026 155.532 55.9817 155.532 55.9817C155.532 55.9817 153.178 55.3075 153.746 54.9222ZM142.603 54.2157C142.415 54.2157 142.263 54.3883 142.263 54.6011C142.263 54.8138 142.415 54.9862 142.603 54.9862C142.791 54.9862 142.943 54.8138 142.943 54.6011C142.943 54.3883 142.791 54.2157 142.603 54.2157ZM112.313 58.5397L110.952 64.5327L108.911 65.6457L108.986 63.1629L109.138 58.6253L107.247 58.7108L106.705 56.7161L105.49 57.9384L104.828 66.2453L101.048 63.3342L103.013 62.0501L102.838 58.3565L101.274 59.2246L100.216 55.0295L102.66 54.5816L102.56 51.0915L100.518 48.0946L102.333 47.6668L104.601 42.8721L106.038 46.8963L107.474 47.4955L107.388 48.6682L109.894 48.5227L108.684 42.7863L112.918 44.8411L111.954 48.45L114.657 47.8377L116.245 42.1874L119.949 45.2694L116.623 48.0091L119.722 48.266L120.781 51.5193L118.286 51.4337L117.984 55.1153L120.479 55.2008L121.386 58.5401L118.135 58.797L117.379 64.8756L115.413 66.3311L114.127 58.4542L112.319 58.5361L112.313 58.5397ZM113.069 52.4607L112.842 54.6013L113.063 55.0872L115.261 55.0291L114.959 51.6902L112.986 52.1732L113.069 52.4607ZM109.364 51.6902L107.701 51.7758L107.19 49.6929L105.811 51.1764V53.9161L107.928 54.0875L107.436 55.3405L109.364 55.286L109.364 51.6902Z" fill="#D31F2A"/>
</svg>
