<svg width="220" height="125" viewBox="0 0 220 125" fill="none" xmlns="http://www.w3.org/2000/svg">
<rect y="0.786133" width="220" height="124" rx="10" fill="white"/>
<g clip-path="url(#clip0_197_10347)">
<path d="M17 21.0723H28.7776L34.2379 39.1143C34.4148 39.6518 34.5943 40.2426 34.7763 40.8866C34.9583 41.5306 35.1732 42.2278 35.4209 42.9783C37.1689 48.3572 38.5623 53.8455 39.592 59.4078C40.2341 54.9708 40.77 51.8751 41.1997 50.1206L42.9137 42.7121L43.5583 39.8141L48.154 21.0723H59.7723L45.3632 68.3224V103.973H34.2379V68.3224L17 21.0723Z" fill="#333333"/>
<path d="M106.564 64.5651C106.564 79.2046 104.941 89.5999 101.695 95.7508C98.4493 101.902 93.0042 104.975 85.3597 104.97C77.3311 104.97 71.6761 101.674 68.3949 95.0814C65.144 88.5908 63.5186 77.0749 63.5186 60.5338C63.5186 45.7878 65.1238 35.352 68.3342 29.2264C71.5447 23.1008 77.0429 20.0254 84.8289 20C91.7503 20 96.8896 22.3808 100.247 27.1423C102.461 30.3268 104.066 34.855 105.062 40.7271C106.063 46.1681 106.564 54.1141 106.564 64.5651ZM94.8925 65.7441C94.8925 51.3885 94.2504 41.868 92.9662 37.1826C91.6821 32.4971 89.0581 30.1341 85.0943 30.0935C81.1305 30.0935 78.4889 32.2588 77.1693 36.5893C75.8497 40.9198 75.2076 49.6898 75.243 62.8993C75.243 75.0339 75.9205 83.4464 77.2755 88.1369C78.6658 92.5739 81.2721 94.7924 85.0943 94.7924C88.9165 94.7924 91.4874 92.7159 92.807 88.5629C94.1973 84.4504 94.8925 76.8441 94.8925 65.7441Z" fill="#333333"/>
<path d="M158.975 64.5651C158.975 79.2046 157.352 89.5999 154.106 95.7508C150.861 101.902 145.416 104.975 137.771 104.97C129.742 104.97 124.087 101.674 120.806 95.0814C117.56 88.6009 115.938 77.0926 115.938 60.5566C115.938 45.8106 117.543 35.3748 120.753 29.2492C123.964 23.1236 129.469 20.0406 137.271 20C144.192 20 149.331 22.3808 152.688 27.1423C154.903 30.3268 156.508 34.855 157.504 40.7271C158.485 46.1681 158.975 54.1141 158.975 64.5651ZM147.304 65.7441C147.304 51.3885 146.662 41.868 145.378 37.1826C144.093 32.4971 141.469 30.1341 137.506 30.0935C133.542 30.0935 130.9 32.2588 129.581 36.5893C128.261 40.9198 127.619 49.6898 127.654 62.8993C127.654 75.0339 128.332 83.4464 129.687 88.1369C131.077 92.5739 133.683 94.7924 137.506 94.7924C141.328 94.7924 143.899 92.7159 145.218 88.5629C146.609 84.4504 147.304 76.8441 147.304 65.7441Z" fill="#333333"/>
<path d="M163.313 21.0728H174.127L179.853 37.1297C182.103 43.4631 183.44 48.0979 183.865 51.0339C184.259 49.2084 184.696 47.4336 185.177 45.7095C185.657 43.9854 186.163 42.2664 186.693 40.5525L187.452 38.1337L192.76 21.0576H204.007L188.688 61.8804L204.007 103.974H192.753L187.323 88.1905C186.216 85.0415 185.323 82.2145 184.646 79.7095C184.026 77.5116 183.534 75.2792 183.175 73.0236C182.9 75.3449 182.416 77.6363 181.726 79.8692L179.853 85.7717L178.89 88.8827L174.127 103.92H162.35L177.98 61.8272L163.313 21.0728Z" fill="#333333"/>
</g>
<defs>
<clipPath id="clip0_197_10347">
<rect width="187" height="85" fill="white" transform="translate(17 20)"/>
</clipPath>
</defs>
</svg>
