<svg width="220" height="125" viewBox="0 0 220 125" fill="none" xmlns="http://www.w3.org/2000/svg">
<rect y="0.786133" width="220" height="124" rx="10" fill="white"/>
<g clip-path="url(#clip0_197_10339)">
<mask id="mask0_197_10339" style="mask-type:luminance" maskUnits="userSpaceOnUse" x="28" y="-19" width="165" height="161">
<path d="M193 -18.4541H28V141.091H193V-18.4541Z" fill="white"/>
</mask>
<g mask="url(#mask0_197_10339)">
<path d="M41.8838 33.8423C41.8838 36.1121 39.7641 37.9522 37.1494 37.9522C34.5347 37.9522 32.415 36.1121 32.415 33.8423C32.415 31.5725 34.5347 29.7324 37.1494 29.7324C39.7641 29.7324 41.8838 31.5725 41.8838 33.8423Z" fill="#FF4200"/>
<path d="M30.2594 44.1429L33.1645 39.7734C33.1645 39.7734 37.2532 42.842 38.4907 43.8833C39.7282 44.9236 41.9348 46.6924 41.8798 49.5525C41.8259 52.4137 40.9657 54.9111 40.2661 56.6278C39.5665 58.3445 34.9938 67.395 34.9938 67.395L28 63.1819C28 63.1819 34.7265 57.166 37.3071 53.506C38.1145 52.3616 39.0825 49.3451 36.3391 47.7837C33.5946 46.2233 30.2594 44.1429 30.2594 44.1429Z" fill="#FF4200"/>
<path d="M39.2441 41.5409C39.2441 41.5409 43.0633 39.1488 46.8297 29.1602C47.9055 29.5239 53.3384 30.929 53.3384 30.929L51.563 34.1018C51.563 34.1018 59.6876 31.7097 66.6803 31.7097C66.6803 31.7097 70.5006 31.5533 73.4596 32.4904C76.4186 33.4264 79.4326 35.3516 80.185 38.4723C80.9385 41.593 81.7448 51.9975 80.2389 61.4128C80.2389 61.4128 79.9155 63.5986 77.8178 65.5227C75.7201 67.4468 73.1912 68.3839 68.7263 68.3839C64.2603 68.3839 61.8931 67.5511 61.8931 67.5511L62.8083 63.9092C62.8083 63.9092 65.5517 64.8983 67.7033 64.8983C69.8549 64.8983 71.6842 64.0145 72.6533 62.9221C72.6533 62.9221 73.5146 61.6734 73.5674 60.6321C73.6213 59.5919 73.6752 39.6168 73.4596 38.9403C73.2451 38.2638 72.9756 35.7153 69.6404 35.091C66.3052 34.4666 63.6685 34.8825 62.8611 35.0389C62.0548 35.1952 56.9981 36.3908 54.4692 37.3789C55.4372 37.6916 57.3204 38.1596 57.3204 38.1596C57.3204 38.1596 56.4602 39.8763 54.8993 41.5409C57.052 41.4898 71.3619 41.5409 71.3619 41.5409V44.6627H62.1626V48.8236H71.2541V51.9454H62.1626V58.5516C62.1626 58.5516 63.6685 58.5516 65.874 56.887C65.7134 55.7426 65.7662 55.5862 65.2294 53.9216C66.6275 53.61 69.4259 52.674 69.4259 52.674L72.9228 61.049L67.7033 63.0253L66.7353 59.644C66.7353 59.644 65.1755 61.3607 61.3552 62.453C56.0367 63.9751 52.641 63.9102 51.7258 63.8581C51.7258 63.8581 49.1441 63.9613 47.5832 63.2848C46.0223 62.6094 43.7629 61.049 43.7629 56.5743C43.7629 55.0672 44.1402 53.8184 44.1402 53.8184L50.7028 53.8695C50.7028 53.8695 50.3805 56.1074 50.3805 56.6786C50.3805 57.2508 49.8965 59.6961 54.6298 59.644C54.6298 56.3669 54.577 51.8933 54.577 51.8933L45.216 51.8411V48.7194H54.5231V44.7658H52.1559C52.1559 44.7658 49.5742 47.108 48.1211 48.512L45.4316 46.223C45.4316 46.223 48.5358 43.1023 50.65 38.5765C49.4125 39.0445 47.2609 39.9805 47.2609 39.9805C47.2609 39.9805 45.7539 41.8536 43.8707 43.7777C42.5265 43.0502 39.2441 41.5409 39.2441 41.5409Z" fill="#FF4200"/>
<path d="M95.9477 38.8363L95.8938 41.8028H126.075C126.075 41.8028 129.356 39.8776 129.356 38.0046C129.356 36.1315 126.828 35.6114 125.105 35.5082C123.384 35.404 118.543 35.3519 114.561 35.8199C110.581 36.2879 101.435 37.3281 95.9477 38.8363ZM88.4688 46.0159V33.2714H95.8399V34.8839C95.8399 34.8839 106.385 33.4788 107.513 33.4788V29.8369H115.852V32.5949C115.852 32.5949 121.178 32.1259 124.675 32.1259C128.172 32.1259 132.26 32.6981 133.821 33.2182C135.382 33.7394 137.265 35.0392 137.265 37.7451C137.265 40.4499 135.166 43.2589 130.97 45.9638C129.678 44.7151 128.711 43.8312 128.711 43.8312L128.764 45.0267H115.961V49.2408H130.647V52.57H115.961V62.5054H135.92V66.6153H88.416V62.5054H107.353V52.6743H94.279V49.2408H107.406V45.0788H95.9477V46.0159H88.4688Z" fill="#FF4200"/>
<path d="M130.005 57.6153C130.005 59.8564 127.91 61.6731 125.325 61.6731C122.741 61.6731 120.646 59.8564 120.646 57.6153C120.646 55.3753 122.741 53.5586 125.325 53.5586C127.91 53.5586 130.005 55.3753 130.005 57.6153Z" fill="#FF4200"/>
<path d="M157.707 47.7319C155.771 44.9228 153.027 43.154 153.027 43.154C153.027 43.154 154.48 41.5936 155.233 40.3971C156.794 41.4373 158.461 42.5818 160.236 43.8305C161.796 41.282 163.84 36.8083 163.84 36.8083C163.84 36.8083 168.898 39.2526 169.867 39.7216C169.383 41.2299 168.95 41.75 168.95 41.75C168.95 41.75 172.125 43.7784 174.062 44.9749C176.268 40.9172 177.237 36.184 177.237 36.184L183.853 40.0854C183.853 40.0854 183.853 37.6922 183.747 36.7041C183.639 33.2186 179.712 32.8027 177.613 32.8548C175.515 32.9059 170.888 33.7387 165.67 34.831C160.452 35.9234 152.219 39.4611 152.219 39.4611V52.7267C155.125 51.009 156.255 49.6571 157.707 47.7319ZM152.273 54.1307V66.5636H143.989V31.9177H152.219V34.9353C152.219 34.9353 160.236 31.9709 165.67 30.8775C171.103 29.7852 174.224 29.7852 175.515 29.7852C176.806 29.7852 182.133 30.3574 185.145 31.4497C188.158 32.5421 190.309 34.7268 191.17 37.0679C192.031 39.4089 192.085 45.8067 192.085 48.7721C192.085 51.7375 191.87 60.8412 191.547 62.609C191.224 64.3789 190.47 66.4072 188.856 67.5517C187.243 68.6962 184.929 68.4356 182.831 68.0197C180.733 67.6038 178.259 66.7199 176.16 65.6276V62.1931C176.16 62.1931 178.204 63.5982 180.249 63.5982C182.293 63.5982 183.908 62.4016 183.908 59.7489C183.908 57.0961 184.176 45.7035 183.961 41.0214C182.617 43.1019 179.818 46.7948 178.581 48.1478C180.249 49.2922 182.24 51.0621 183.423 52.414C181.862 53.7659 177.667 57.0961 177.667 57.0961C177.667 57.0961 175.192 53.4543 174.6 52.7778C173.954 53.5064 169.973 57.7716 163.733 61.3092C162.657 59.801 161.15 57.9279 161.15 57.9279C161.15 57.9279 165.831 56.3676 171.533 49.0327C170.297 47.784 168.468 45.4951 166.854 44.4548C166.207 45.3398 164.324 47.2639 164.324 47.2639C164.324 47.2639 166.046 48.5126 167.284 50.6973C166.207 51.7375 162.872 55.0667 162.872 55.0667L160.182 51.0621C160.182 51.0621 157.223 54.0786 154.479 56.0027C153.135 54.7551 152.273 54.1307 152.273 54.1307Z" fill="#FF4200"/>
<path d="M31.5527 78.3793C31.5527 78.3793 32.3535 75.5521 35.4907 75.6659C38.6279 75.7797 40.939 75.9393 42.7551 75.9393C44.5712 75.9393 48.6984 75.5521 49.1461 75.3926C48.9338 76.236 47.9438 77.8549 46.4808 77.8549H43.1555C43.1555 77.8549 42.3778 77.8326 42.3778 78.7675V89.9187C42.3778 89.9187 42.5901 91.4471 44.1224 91.0823C43.6274 92.382 42.3536 93.1351 40.8675 93.1351C39.3825 93.1351 37.9206 92.2225 37.9206 90.9674V78.5856C37.9206 77.9464 37.826 77.7868 36.6468 77.7411C35.9395 77.7134 34.5755 77.6496 33.3919 77.7868C32.6274 77.8751 32.0246 78.1474 31.5527 78.3793Z" fill="#FF4200"/>
<path d="M53.8405 85.0603C52.3555 85.0603 51.1521 86.4292 51.1521 88.1172C51.1521 89.8041 52.3555 91.172 53.8405 91.172C55.3255 91.172 56.53 89.8041 56.53 88.1172C56.53 86.4292 55.3255 85.0603 53.8405 85.0603ZM48.2283 81.3206C48.368 80.8494 48.6287 80.0442 49.666 79.473C50.8166 78.8412 52.5194 78.8125 53.1332 78.8125C53.747 78.8125 55.6808 78.9274 56.2704 79.0859C56.8589 79.2454 60.2315 79.7485 60.2315 83.3276V90.0775C60.2315 90.0775 60.3734 91.4921 61.8595 91.0358C61.6472 92.4271 60.2315 93.1344 59.2184 93.1344C58.2042 93.1344 56.5531 92.5409 56.5531 91.3326C56.5531 91.3326 55.892 93.3609 52.3555 93.3386C48.8179 93.3163 46.9072 91.2634 46.9072 88.2076C46.9072 85.1518 49.1941 83.0319 52.5678 83.0319C53.6997 83.0319 55.7039 83.4648 56.5531 84.7646C56.5608 83.1692 56.2561 80.9972 53.7184 80.7685C52.416 80.6888 49.809 80.7419 48.2283 81.3206Z" fill="#FF4200"/>
<path d="M105.053 85.0603C103.568 85.0603 102.364 86.4292 102.364 88.1172C102.364 89.8041 103.568 91.172 105.053 91.172C106.538 91.172 107.741 89.8041 107.741 88.1172C107.741 86.4292 106.538 85.0603 105.053 85.0603ZM99.4393 81.3206C99.579 80.8494 99.8408 80.0442 100.878 79.473C102.028 78.8412 103.731 78.8125 104.345 78.8125C104.958 78.8125 106.893 78.9274 107.481 79.0859C108.071 79.2454 111.444 79.7485 111.444 83.3276V90.0775C111.444 90.0775 111.585 91.4921 113.07 91.0358C112.859 92.4271 111.444 93.1344 110.429 93.1344C109.415 93.1344 107.765 92.5409 107.765 91.3326C107.765 91.3326 107.104 93.3609 103.566 93.3386C100.029 93.3163 98.1182 91.2634 98.1182 88.2076C98.1182 85.1518 100.406 83.0319 103.779 83.0319C104.911 83.0319 106.916 83.4648 107.765 84.7646C107.773 83.1692 107.467 80.9972 104.93 80.7685C103.627 80.6888 101.021 80.7419 99.4393 81.3206Z" fill="#FF4200"/>
<path d="M70.727 80.9799C69.1254 80.9799 67.8263 83.2763 67.8263 86.1109C67.8263 88.9444 69.1254 91.2408 70.727 91.2408C72.3297 91.2408 73.6277 88.9444 73.6277 86.1109C73.6277 83.2763 72.3297 80.9799 70.727 80.9799ZM78.0849 86.1109C78.0849 90.1793 74.7904 93.4766 70.727 93.4766C66.6636 93.4766 63.3691 90.1793 63.3691 86.1109C63.3691 82.0425 66.6636 78.7441 70.727 78.7441C74.7904 78.7441 78.0849 82.0425 78.0849 86.1109Z" fill="#FF4200"/>
<path d="M121.793 80.9799C120.192 80.9799 118.894 83.2763 118.894 86.1109C118.894 88.9444 120.192 91.2408 121.793 91.2408C123.396 91.2408 124.694 88.9444 124.694 86.1109C124.694 83.2763 123.396 80.9799 121.793 80.9799ZM129.152 86.1109C129.152 90.1793 125.858 93.4766 121.793 93.4766C117.73 93.4766 114.436 90.1793 114.436 86.1109C114.436 82.0425 117.73 78.7441 121.793 78.7441C125.858 78.7441 129.152 82.0425 129.152 86.1109Z" fill="#FF4200"/>
<path d="M159.622 80.9799C158.019 80.9799 156.721 83.2763 156.721 86.1109C156.721 88.9444 158.019 91.2408 159.622 91.2408C161.223 91.2408 162.522 88.9444 162.522 86.1109C162.522 83.2763 161.223 80.9799 159.622 80.9799ZM166.98 86.1109C166.98 90.1793 163.685 93.4766 159.622 93.4766C155.557 93.4766 152.263 90.1793 152.263 86.1109C152.263 82.0425 155.557 78.7441 159.622 78.7441C163.685 78.7441 166.98 82.0425 166.98 86.1109Z" fill="#FF4200"/>
<path d="M85.211 83.2116C84.7699 84.5188 85.0053 88.1012 85.211 88.784C85.4178 89.4658 86.1812 91.1719 88.1513 91.1719C90.1214 91.1719 90.7979 89.2956 90.9442 88.6702C91.0916 88.0448 91.3853 86.3951 90.8562 83.552C90.3271 80.7099 88.093 80.9376 88.093 80.9376C86.476 80.9663 85.6521 81.9044 85.211 83.2116ZM79.3018 75.9906C79.3018 75.9906 79.5955 73.8867 82.0947 73.8867C84.5939 73.8867 85.0944 75.4226 85.0944 75.8204V80.5387C85.0944 80.5387 86.1526 79.0039 89.3866 79.0039C92.6206 79.0039 95.5895 81.2226 95.5895 85.4006C95.5895 85.4006 96.266 93.2183 89.2106 93.2183C86.9171 93.2183 85.5938 92.4791 84.9173 91.3995C84.4762 92.5078 83.4466 93.1332 82.2124 93.1332C80.9782 93.1332 79.5075 92.394 79.5075 91.0581C80.0366 91.1144 81.0365 91.0857 81.0365 89.8349V76.9862C81.0365 76.9862 80.9188 75.9906 79.3018 75.9906Z" fill="#FF4200"/>
<path d="M135.161 91.3138C135.161 92.3976 134.24 93.2751 133.103 93.2751C131.967 93.2751 131.046 92.3976 131.046 91.3138C131.046 90.231 131.967 89.3535 133.103 89.3535C134.24 89.3535 135.161 90.231 135.161 91.3138Z" fill="#FF4200"/>
<path d="M150.184 91.1148C150.184 91.1148 149.449 90.3479 148.773 90.3766C148.098 90.4043 147.744 90.6319 147.362 90.7744C146.98 90.9159 146.156 91.1999 145.421 91.1999C144.686 91.1999 143.335 90.9159 142.335 89.4374C141.325 87.9441 141.334 85.0308 141.658 83.8087C141.982 82.5855 142.746 81.6484 143.627 81.1081C144.509 80.5688 146.186 80.7677 146.774 81.2219C147.362 81.6771 147.627 82.5291 148.715 82.5291C149.803 82.5291 150.419 81.2793 150.244 80.4252C150.244 80.4252 148.479 79.034 144.834 79.0042C141.423 78.9766 139.483 80.7667 138.865 81.4772C138.247 82.1877 137.072 83.8938 137.072 86.1678C137.072 88.4429 138.248 90.7457 139.659 91.7976C141.061 92.8421 143.129 93.3612 144.657 93.3612C146.186 93.3612 148.539 92.8496 150.184 91.1148Z" fill="#FF4200"/>
<path d="M168.355 81.1657C168.355 81.1657 168.679 79.0331 171.207 79.0331C173.294 79.0331 173.853 80.5403 173.853 80.5403C173.853 80.5403 175.147 78.8906 177.852 78.8906C180.557 78.8906 181.792 80.1415 182.291 80.7956C183.172 79.9713 184.084 78.9193 186.554 78.9193C189.023 78.9193 191.111 79.7447 191.347 82.1326C191.582 84.5194 191.494 90.3758 191.494 90.3758C191.494 90.3758 191.699 91.5139 192.993 91.0299C193.11 92.3095 191.728 93.1338 190.347 93.1338C188.965 93.1338 187.583 92.3382 187.583 90.6608V82.6729C187.583 82.6729 187.613 80.8243 185.349 80.8243C183.084 80.8243 182.849 82.842 182.849 83.4685V93.0487H178.822V82.7006C178.822 82.7006 178.792 80.7956 176.706 80.7956C174.618 80.7956 174.059 82.4729 174.059 83.2973V92.9636H170.06V82.3591C170.06 82.3591 170.148 81.1945 168.355 81.1657Z" fill="#FF4200"/>
</g>
</g>
<defs>
<clipPath id="clip0_197_10339">
<rect width="165" height="91" fill="white" transform="translate(28 17)"/>
</clipPath>
</defs>
</svg>
