<svg width="160" height="100" viewBox="0 0 160 100" fill="none" xmlns="http://www.w3.org/2000/svg">
<rect width="160" height="100" rx="10" fill="white"/>
<path fill-rule="evenodd" clip-rule="evenodd" d="M95.349 63.4893C87.8686 68.4608 77.0026 71.0903 67.6693 71.0903C54.5615 71.0903 42.7804 66.7351 33.836 59.5039C33.1268 58.9287 33.7673 58.1686 34.6137 58.6C44.2445 63.6331 56.1628 66.6735 68.4471 66.6735C76.751 66.6735 85.8784 65.1327 94.251 61.928C95.532 61.435 96.6072 62.6675 95.349 63.4893Z" fill="#FF9900"/>
<path fill-rule="evenodd" clip-rule="evenodd" d="M98.4833 60.2845C97.5225 59.1752 92.1467 59.7709 89.7447 60.0174C89.0127 60.0996 88.8983 59.5244 89.5617 59.1135C93.8395 56.4018 100.862 57.1825 101.686 58.0864C102.509 58.9903 101.48 65.3176 97.4539 68.3375C96.8362 68.81 96.2415 68.5635 96.516 67.9472C97.4081 65.9339 99.4441 61.3938 98.4833 60.2845Z" fill="#FF9900"/>
<path fill-rule="evenodd" clip-rule="evenodd" d="M89.9047 40.0288V37.3993C89.9047 37.0089 90.2479 36.7419 90.6368 36.7419H103.745C104.156 36.7419 104.499 37.0089 104.499 37.3993V39.659C104.499 40.0288 104.133 40.5218 103.516 41.3025L96.7217 50.0129C99.2381 49.9512 101.915 50.3005 104.202 51.4509C104.728 51.7179 104.866 52.0877 104.888 52.4781V55.2719C104.888 55.6623 104.408 56.1142 103.928 55.8677C99.9015 53.9777 94.5485 53.7517 90.0649 55.8882C89.6073 56.1142 89.127 55.6623 89.127 55.2719V52.6013C89.127 52.1699 89.127 51.4509 89.6073 50.7935L97.4766 40.6657H90.6368C90.2479 40.6862 89.9047 40.4191 89.9047 40.0288Z" fill="#212121"/>
<path fill-rule="evenodd" clip-rule="evenodd" d="M42.0714 56.4224H38.091C37.7021 56.4018 37.4047 56.1348 37.3818 55.8266V37.4403C37.3818 37.0706 37.725 36.783 38.1596 36.783H41.8655C42.2544 36.8035 42.5746 37.0706 42.5975 37.3993V39.8028H42.6662C43.6269 37.4814 45.457 36.3926 47.9047 36.3926C50.3982 36.3926 51.9537 37.4814 53.0746 39.8028C54.0354 37.4814 56.2315 36.3926 58.5877 36.3926C60.2577 36.3926 62.0877 37.0089 63.2086 38.4059C64.4668 39.9466 64.2152 42.2064 64.2152 44.1785V55.7855C64.2152 56.1553 63.872 56.4429 63.4374 56.4429H59.457C59.0681 56.4224 58.7478 56.1348 58.7478 55.7855V46.048C58.7478 45.2673 58.8165 43.3363 58.6335 42.5967C58.3361 41.3641 57.4439 41.0149 56.2773 41.0149C55.3165 41.0149 54.3099 41.5901 53.8982 42.5145C53.4864 43.439 53.5322 45.0003 53.5322 46.0274V55.765C53.5322 56.1347 53.189 56.4224 52.7544 56.4224H48.774C48.3851 56.4018 48.0648 56.1142 48.0648 55.765V46.0274C48.0648 43.9731 48.4309 40.9533 45.6171 40.9533C42.7577 40.9533 42.872 43.8909 42.872 46.0274V55.765C42.8492 56.1347 42.506 56.4224 42.0714 56.4224Z" fill="#212121"/>
<path fill-rule="evenodd" clip-rule="evenodd" d="M115.8 36.3926C121.725 36.3926 124.928 40.9533 124.928 46.767C124.928 52.3753 121.382 56.8332 115.8 56.8332C109.99 56.8332 106.833 52.2726 106.833 46.5821C106.833 40.83 110.036 36.3926 115.8 36.3926ZM115.823 40.1521C112.872 40.1521 112.689 43.7471 112.689 45.9864C112.689 48.2256 112.643 53.0327 115.777 53.0327C118.866 53.0327 119.026 49.1706 119.026 46.8081C119.026 45.2674 118.957 43.3979 118.431 41.9393C117.996 40.6451 117.104 40.1521 115.823 40.1521Z" fill="#212121"/>
<path fill-rule="evenodd" clip-rule="evenodd" d="M132.591 56.4224H128.611C128.222 56.4018 127.901 56.1142 127.901 55.765V37.3787C127.924 37.05 128.267 36.783 128.656 36.783H132.362C132.705 36.8035 133.003 37.0089 133.071 37.2965V40.111H133.14C134.261 37.6047 135.816 36.3926 138.584 36.3926C140.369 36.3926 142.13 36.9679 143.228 38.5497C144.28 40.0288 144.28 42.494 144.28 44.2813V55.8471C144.235 56.1758 143.914 56.4224 143.526 56.4224H139.522C139.156 56.4018 138.859 56.1553 138.813 55.8471V45.8631C138.813 43.8499 139.065 40.9122 136.32 40.9122C135.359 40.9122 134.467 41.4874 134.009 42.3913C133.46 43.5212 133.369 44.6305 133.369 45.8631V55.765C133.369 56.1348 133.026 56.4224 132.591 56.4224Z" fill="#212121"/>
<path fill-rule="evenodd" clip-rule="evenodd" d="M79.4501 47.6504C79.4501 49.0473 79.4959 50.2183 78.6952 51.4509C78.0547 52.4575 77.0482 53.0738 75.9273 53.0738C74.3946 53.0738 73.5024 52.0261 73.5024 50.4854C73.5024 47.4449 76.5449 46.8903 79.4273 46.8903V47.6504H79.4501ZM83.4763 56.3813C83.2018 56.5867 82.8358 56.6073 82.5384 56.4635C81.2116 55.4774 80.9828 55.0254 80.2508 54.0804C78.0547 56.0731 76.4992 56.6894 73.6854 56.6894C70.3227 56.6894 67.7148 54.82 67.7148 51.1017C67.7148 48.1845 69.4763 46.2123 71.9697 45.2468C74.1429 44.384 77.1626 44.2402 79.473 44.0142V43.5417C79.473 42.6789 79.5416 41.6723 78.9926 40.9533C78.5122 40.2959 77.5743 40.0288 76.7508 40.0288C75.241 40.0288 73.8684 40.7273 73.5482 42.1859C73.4795 42.5146 73.2279 42.8227 72.8619 42.8432L68.9959 42.4735C68.6756 42.4118 68.3096 42.1653 68.4011 41.7339C69.2933 37.5225 73.5253 36.2488 77.3227 36.2488C79.2671 36.2488 81.8064 36.7213 83.339 38.0361C85.2835 39.659 85.1005 41.8366 85.1005 44.1991V49.7458C85.1005 51.4303 85.8782 52.1699 86.6103 53.0738C86.8619 53.4025 86.9305 53.7928 86.5874 54.0188C85.7181 54.6146 84.2769 55.7444 83.4763 56.3813Z" fill="#212121"/>
<path fill-rule="evenodd" clip-rule="evenodd" d="M27.1562 47.6504C27.1562 49.0473 27.2019 50.2183 26.4013 51.4509C25.7608 52.4575 24.7542 53.0738 23.6333 53.0738C22.1006 53.0738 21.2085 52.0261 21.2085 50.4854C21.2085 47.4449 24.251 46.8903 27.1333 46.8903V47.6504H27.1562ZM31.1823 56.3813C30.9078 56.5867 30.5418 56.6073 30.2444 56.4635C28.9176 55.4774 28.6889 55.0254 27.9568 54.0804C25.7608 56.0731 24.2281 56.6894 21.3915 56.6894C18.0287 56.6894 15.4209 54.82 15.4209 51.1017C15.4209 48.1845 17.1823 46.2123 19.6758 45.2468C21.849 44.384 24.8686 44.2402 27.1791 44.0142V43.5417C27.1791 42.6789 27.2477 41.6723 26.6987 40.9533C26.2183 40.2959 25.2804 40.0288 24.4568 40.0288C22.947 40.0288 21.5745 40.7273 21.2542 42.1859C21.1856 42.5146 20.934 42.8227 20.568 42.8432L16.7019 42.4735C16.3817 42.4118 16.0157 42.1653 16.1072 41.7339C16.9993 37.5225 21.2314 36.2488 25.0287 36.2488C26.9732 36.2488 29.5124 36.7213 31.0451 38.0361C32.9895 39.659 32.8065 41.8366 32.8065 44.1991V49.7458C32.8065 51.4303 33.5843 52.1699 34.3163 53.0738C34.568 53.4025 34.6366 53.7928 34.2934 54.0188C33.447 54.6146 31.983 55.7444 31.1823 56.3813Z" fill="#212121"/>
</svg>
