<svg width="160" height="100" viewBox="0 0 160 100" fill="none" xmlns="http://www.w3.org/2000/svg">
<rect width="160" height="100" rx="10" fill="white"/>
<g clip-path="url(#clip0_220_17724)">
<mask id="mask0_220_17724" style="mask-type:luminance" maskUnits="userSpaceOnUse" x="10" y="-20" width="140" height="144">
<path d="M150 -19.7602H10V123.924H150V-19.7602Z" fill="white"/>
</mask>
<g mask="url(#mask0_220_17724)">
<path fill-rule="evenodd" clip-rule="evenodd" d="M71.4507 44.7158C70.4399 44.1315 68.9176 43.8537 66.826 43.8537C63.9663 43.8537 61.3063 44.4821 60.3104 44.8758C60.0369 44.9514 59.8409 45.1986 59.826 45.4888V45.577L60.1107 47.0521V47.0809C60.2105 47.373 60.4523 47.5186 60.68 47.5186L60.8508 47.4899L61.3203 47.373C62.5719 47.0521 64.4507 46.555 66.5563 46.555C67.8368 46.555 68.6899 46.6718 69.2592 46.9199C70.1981 47.3002 70.2121 47.9276 70.2271 48.9641V50.5274H69.6577C68.6189 50.5274 66.5983 50.5705 64.6065 50.9067C61.562 51.3885 59.0579 52.1481 59.0579 56.5132C59.0579 62.0623 63.9952 62.0623 66.3715 62.0767C67.9787 62.0767 69.458 61.8286 70.4399 61.6246C72.6453 61.0843 73.2147 60.3544 73.1857 58.0612V48.8328C73.1857 47.4314 73.1857 45.6794 71.4507 44.7158ZM70.2411 58.9664C68.9988 59.3697 67.7024 59.567 66.3995 59.5507C64.2229 59.5507 62.0884 59.2883 62.0884 56.382C62.0884 54.0754 63.284 53.7976 64.7773 53.4623L64.8772 53.4327C66.2007 53.1405 69.5439 53.0821 70.2411 53.0677V58.9664ZM97.8425 48.8328V58.0612C97.8845 60.3544 97.3161 61.0843 95.0967 61.6102C94.1288 61.8286 92.6495 62.0767 91.0413 62.0767C88.6651 62.0767 83.7287 62.0623 83.7287 56.5132C83.7147 52.1481 86.2179 51.3885 89.2773 50.9067C91.2691 50.5705 93.2897 50.512 94.3136 50.512H94.8829V48.9794C94.8829 47.942 94.8689 47.3146 93.93 46.9352C93.3607 46.6862 92.5067 46.5703 91.2261 46.5703C89.1205 46.5703 87.2427 47.0665 85.9911 47.3874L85.5067 47.5042C85.3583 47.5541 85.1959 47.5378 85.0587 47.4602C84.9205 47.3835 84.8207 47.2514 84.7815 47.0952V47.0665L84.4968 45.5913V45.5042C84.4968 45.1679 84.7385 44.9486 84.9663 44.8758C85.9761 44.4964 88.6371 43.8681 91.4968 43.8681C93.5884 43.8681 95.0967 44.1602 96.1205 44.7445C97.8565 45.6938 97.8565 47.4458 97.8425 48.8482V48.8328ZM94.9109 53.0677C94.1997 53.0677 90.8705 53.1405 89.548 53.4327L89.4341 53.4623C87.9399 53.7976 86.7592 54.0754 86.7443 56.382C86.7443 59.2883 88.8788 59.5507 91.0703 59.5651V59.6973V59.5507C92.3723 59.567 93.6696 59.3697 94.9109 58.9664V53.0677ZM142.531 43.8537C135.658 43.8537 135.075 48.5704 135.075 52.9796C135.075 57.3753 135.658 62.0623 142.531 62.0767C149.403 62.0623 149.986 57.3897 150 52.9796C150 48.3654 149.403 43.8681 142.531 43.8537ZM142.531 59.4923C138.362 59.4923 138.149 57.2441 138.121 52.9796C138.163 48.6872 138.362 46.4534 142.531 46.4237C146.699 46.4534 146.913 48.6872 146.941 52.9796C146.913 57.2441 146.699 59.4779 142.531 59.4923ZM130.196 61.4196L130.025 61.478C129.057 61.7261 127.748 62.0623 125.429 62.0623C119.069 62.0623 117.818 58.7183 117.818 52.9508C117.818 46.3212 119.837 43.8681 125.244 43.8537C127.151 43.8537 128.474 44.1171 129.413 44.3499V39.0211C129.399 38.7874 129.498 38.4799 130.025 38.3784L131.718 37.9253H131.818C132.201 37.9253 132.344 38.2903 132.344 38.5968V58.6311C132.358 59.9013 132.215 60.9818 130.21 61.4196H130.196ZM129.399 46.9199C128.829 46.7743 127.265 46.395 125.486 46.395C122.243 46.4237 120.862 47.3433 120.833 52.9796C120.876 59.1714 122.64 59.5067 125.529 59.5364V59.6676V59.522C127.322 59.522 128.858 59.1417 129.399 58.9817V46.9199ZM114.232 61.6533H112.724C112.332 61.6533 112.012 61.3267 112.012 60.9234V49.0081C111.984 47.0081 111.401 46.4381 109.309 46.4094C106.976 46.4094 104.586 47.0224 103.804 47.2561V60.8946C103.804 61.3324 103.519 61.6389 103.135 61.6389H101.584C101.191 61.6389 100.872 61.3123 100.872 60.909V47.577C100.858 46.3509 100.958 45.5042 102.651 44.9342C104.258 44.3499 107.346 43.8537 109.38 43.8537C113.265 43.8537 114.929 45.3145 114.929 48.7457V60.9234C114.929 61.3267 114.611 61.6533 114.218 61.6533H114.232ZM80.0009 61.9752C80.8829 61.9598 81.5232 61.7845 81.7649 61.478C81.8517 61.3899 81.8975 61.2682 81.8928 61.1427C81.8928 61.0403 81.8928 61.0403 81.6511 59.8726V59.8429C81.5801 59.5507 81.3813 59.4051 81.2105 59.4051H80.7551C80.1288 59.3898 79.6164 59.2883 79.6164 58.3534V38.5968C79.6164 38.2759 79.4176 37.9253 79.048 37.9253H78.9481L77.2411 38.3784C76.9564 38.4071 76.6717 38.6265 76.6717 39.0211V58.4118C76.6717 60.704 77.8664 61.9752 80.0009 61.9752ZM56.0992 61.6533H43.9771C43.5841 61.6533 43.2659 61.3267 43.2659 60.9234V59.3754C43.2659 58.9961 43.3797 58.8208 43.6075 58.5287L53.2535 46.8471H43.7923C43.3993 46.8471 43.0811 46.5205 43.0811 46.1172V45.007C43.0811 44.5836 43.3937 44.2771 43.7923 44.2771H56.0423C56.4548 44.2771 56.7535 44.5989 56.7535 45.007V46.5847C56.7535 46.8768 56.6676 47.1105 56.4548 47.373L46.7799 59.0833H56.1132C56.5117 59.0833 56.8244 59.4051 56.8244 59.8141V60.9234C56.8244 61.3267 56.5061 61.6533 56.1132 61.6533H56.0992Z" fill="#1D1D1B"/>
<path fill-rule="evenodd" clip-rule="evenodd" d="M15.6215 66.5596C14.5827 66.5596 14.0143 66.2971 13.7156 66.1218C13.2881 65.8584 12.506 65.2166 11.8088 63.3037C10.574 59.7077 9.96172 55.9164 10.0019 52.104V52.0896C10.0299 47.6794 10.6991 43.9264 11.8088 40.8602C12.534 38.9626 13.2881 38.2902 13.7156 38.0421C14.0143 37.8524 14.5827 37.6043 15.6075 37.6043C16.006 37.6043 16.4615 37.6484 17.0019 37.7355C20.1173 38.2614 23.5464 39.5316 27.2452 41.707C30.4503 43.5883 33.3025 46.0405 35.6685 48.9496C36.9061 50.556 37.048 51.5781 37.048 52.0743C37.048 52.5858 36.9061 53.6079 35.6685 55.1999C33.3025 58.109 30.4503 60.5612 27.2452 62.4416H27.2312C24.0821 64.3909 20.6176 65.7415 17.0019 66.4283C16.4615 66.5155 16.006 66.5452 15.6215 66.5452" fill="#FF6900"/>
</g>
</g>
<defs>
<clipPath id="clip0_220_17724">
<rect width="140" height="70" fill="white" transform="translate(10 15)"/>
</clipPath>
</defs>
</svg>
