<svg width="160" height="100" viewBox="0 0 160 100" fill="none" xmlns="http://www.w3.org/2000/svg">
<rect width="160" height="100" rx="10" fill="white"/>
<g clip-path="url(#clip0_220_17714)">
<path d="M130.505 65.8237C127.302 66.2136 123.845 65.2876 122.675 62.3634C122.014 60.8038 121.912 58.9518 122.421 57.2947C123.59 53.347 124.912 49.3018 126.031 45.3541C126.692 43.1609 127.353 40.919 127.912 38.7258C128.014 38.1897 128.065 37.7023 128.014 37.1662C128.014 36.7763 127.76 36.4351 127.353 36.4351C127.251 36.4351 127.099 36.4351 127.048 36.5326C126.387 36.7763 125.827 37.0687 125.217 37.5561C123.59 39.3106 122.167 41.2114 120.997 43.2584C118.862 46.8162 116.726 50.374 114.489 53.8344C113.675 55.0041 112.658 56.125 111.591 57.0998C111.082 57.4897 110.523 57.8308 109.862 57.977C108.896 58.3669 107.726 57.8308 107.32 56.8561C107.32 56.7586 107.218 56.6124 107.218 56.5637C106.964 55.5402 106.913 54.5167 107.065 53.4932C107.37 50.4228 108.489 47.5472 109.303 44.623C109.557 43.697 109.811 42.7223 109.964 41.6988C110.065 41.2114 109.862 40.7728 109.557 40.4316C109.048 40.2854 108.591 40.3341 108.133 40.5778C107.167 41.3576 106.252 42.1374 105.387 43.1121C103.099 46.2801 101.015 49.6917 99.1843 53.152C97.964 55.4427 96.6928 57.7334 95.4725 60.024C95.3708 60.2677 95.2183 60.4139 95.1674 60.5601C94.659 61.1937 94.5064 62.2172 93.5912 62.3147C92.015 62.5583 90.5405 62.0222 89.4727 60.9013C88.5575 59.8778 88.3032 58.4644 88.71 57.0998C89.371 54.7116 90.2862 52.421 91.0998 50.1303C92.0658 47.4985 93.337 45.0129 93.8454 42.2349C93.998 41.3576 94.0997 40.4316 93.998 39.5543C93.998 38.1409 93.0319 36.8738 91.5065 36.4839C90.032 36.094 88.4558 36.094 86.9813 36.4839C87.2355 37.4099 87.4897 38.3846 87.5406 39.2619C87.8456 41.8937 87.388 44.4768 86.2186 46.8649C83.6763 52.6159 79.3544 57.4409 73.863 60.7063C72.236 61.8273 70.3038 62.3634 68.3208 62.3634C65.8294 62.4609 63.6939 60.6089 63.5413 58.172C63.2362 55.7839 63.6939 53.347 64.8633 51.1538C66.9988 46.8162 70.2021 43.1121 74.1681 40.0904C75.4901 39.067 76.9646 38.0922 78.2866 37.1662L78.7951 36.8738C77.9815 36.3377 76.9646 36.094 75.9985 36.3377C74.2698 36.7276 72.6936 37.4586 71.3716 38.6283C67.9141 41.3089 65.3718 44.7205 62.8803 48.2783C59.4736 53.347 57.2873 58.9518 55.3043 64.6541C53.5755 69.7227 51.7451 74.7914 49.9655 79.8114C49.5587 80.9323 48.9994 81.9558 48.4909 82.9793C48.2367 83.4667 47.6774 83.7591 47.0673 83.6129C46.6605 83.5154 46.2537 83.5154 45.8978 83.4667C43.1521 82.8331 41.9318 80.8349 42.7454 78.2518C43.5589 75.6687 44.5758 73.0369 45.5419 70.4051C48.1859 63.6306 50.8807 56.9048 53.5247 50.0816C54.8467 46.6212 55.9144 43.0634 56.6771 39.5056C57.0839 37.751 57.1856 35.9478 56.8297 34.1932C56.728 33.8033 56.5754 33.3159 56.4229 32.926C58.8126 32.3899 61.3549 33.4622 62.4227 35.6066C63.3379 37.5074 63.643 39.7005 63.2362 41.7962L63.1345 42.4298L63.2871 42.5273L63.8464 41.7962C65.9311 39.2619 68.3717 37.0687 71.1682 35.3142C73.9139 33.6571 77.1172 32.7798 80.4221 32.8773C81.8458 32.8773 83.2187 33.2672 84.439 33.9983C84.6932 34.0957 84.9983 34.0957 85.3542 33.9983C87.5914 33.2185 89.9812 32.8286 92.4218 32.8773C95.4725 32.9748 97.964 33.9983 99.3368 36.7276C99.9978 38.1409 100.405 39.6518 100.405 41.2114C100.506 42.4786 100.405 43.7457 100.405 45.0616L100.964 44.1844C102.286 41.9912 104.116 39.993 106.15 38.3359C107.625 37.2149 109.455 36.5813 111.336 36.5326C112.811 36.4351 114.235 37.2637 114.794 38.5796C115.607 40.3829 115.963 42.4298 115.76 44.4281C115.76 44.818 115.76 45.2079 115.862 45.549L116.929 43.7457C118.353 41.0652 120.133 38.5308 122.217 36.3377C123.692 34.5831 125.777 33.5109 128.065 32.926C131.675 32.2925 134.319 34.3394 134.42 37.8973C134.319 40.0417 133.912 42.1861 133.2 44.1356C132.031 47.5472 130.912 50.9101 129.793 54.3217C129.132 56.3687 128.726 58.5131 128.726 60.6576C128.777 62.6071 129.387 64.4104 130.505 65.8237ZM80.473 39.2619C80.2188 39.3594 80.1679 39.4081 80.0662 39.5056C75.3884 42.3324 71.4733 46.2801 68.6767 50.9101C67.609 52.5672 66.948 54.3705 66.7955 56.2712C66.6429 57.051 66.948 57.8308 67.5581 58.2695C68.3208 58.6594 69.1852 58.6594 69.8462 58.172C70.7614 57.6359 71.6767 56.9048 72.4902 56.1738C75.9477 52.7621 78.49 48.522 79.812 43.9407C80.2188 42.4298 80.473 40.8702 80.473 39.2619Z" fill="#AF4444"/>
<path d="M56.8809 18.2561C53.2708 18.4023 49.8133 19.3771 46.6608 21.0342C41.4746 23.7147 36.9493 27.6137 33.5426 32.2437C32.0681 34.1445 30.8986 36.2889 29.5766 38.3359C29.4241 38.5796 29.3224 38.872 29.1699 39.1157L29.3224 39.2619C29.4749 39.1157 29.6275 38.872 29.8309 38.7258C32.5765 35.899 36.0849 33.9008 40.0509 33.121C41.6271 32.8286 43.2542 32.8286 44.8304 33.121C47.7794 33.8521 49.4574 35.8016 50.0167 38.5796C50.5251 41.4064 50.1692 44.3306 48.8472 46.9624C46.2032 53.2983 41.1695 58.4157 34.8138 61.4374C32.3223 62.6071 29.4749 62.8508 26.831 62.071C22.865 60.95 20.7294 58.2695 19.7634 54.6629C18.9498 51.1051 19.0007 47.4498 20.0685 43.9894C22.0514 36.3377 26.17 29.2708 32.0172 23.666C35.068 20.5955 38.7797 18.0612 42.8982 16.4041C45.3897 15.3806 48.0845 14.8932 50.8302 14.8932C52.9149 14.8932 54.847 15.7705 56.169 17.3301C56.3724 17.5251 56.5249 17.8662 56.8809 18.2561ZM25.9666 53.7369C25.9666 55.0041 26.2716 56.2712 26.9326 57.4409C27.5936 58.5619 28.9156 59.098 30.2376 58.8056C31.7122 58.5132 33.1358 57.7821 34.2544 56.7586C37.6611 53.9319 40.2034 50.2766 41.6779 46.2314C42.644 44.0869 43.1016 41.7475 42.8474 39.3594C42.5932 36.9713 41.1186 35.899 38.7289 36.3377C37.8137 36.4839 36.8984 36.8251 36.0849 37.2637C33.4409 38.7745 31.2037 40.919 29.5766 43.4533C27.4411 46.5725 26.1191 50.1303 25.9666 53.7369Z" fill="#AF4444"/>
</g>
<defs>
<clipPath id="clip0_220_17714">
<rect width="140" height="80" fill="white" transform="translate(10 10)"/>
</clipPath>
</defs>
</svg>
