<svg width="50" height="30" viewBox="0 0 50 30" fill="none" xmlns="http://www.w3.org/2000/svg">
<g clip-path="url(#clip0_197_10106)">
<path d="M0.862109 29.9752H49.138C49.6141 29.9752 50.0001 29.6223 50.0001 29.187V0.812628C50.0001 0.37736 49.6141 0.0244141 49.138 0.0244141H0.862109C0.386035 0.0245033 0 0.37736 0 0.812628V29.187C0 29.6224 0.386035 29.9752 0.862109 29.9752Z" fill="#C8414B"/>
<path d="M50 6.33008H0V23.6703H50V6.33008Z" fill="#FFD250"/>
<path d="M21.1206 15L21.8516 11.9928C21.9189 11.7158 21.6884 11.4531 21.378 11.4531H20.8632C20.5529 11.4531 20.3225 11.7158 20.3896 11.9928L21.1206 15Z" fill="#C8414B"/>
<path d="M21.9829 13.4229H20.2588V20.122H21.9829V13.4229Z" fill="#F5F5F5"/>
<path d="M22.4134 12.6357H19.8271V13.424H22.4134V12.6357Z" fill="#FAB446"/>
<path d="M22.4141 15H18.1035V15.7882H22.4141V15Z" fill="#C8414B"/>
<path d="M22.4134 18.1525L19.8271 17.3644V16.5762L22.4134 17.3644V18.1525Z" fill="#C8414B"/>
<path d="M8.18944 15L8.9204 11.9928C8.98778 11.7158 8.75722 11.4531 8.44687 11.4531H7.93202C7.62177 11.4531 7.3913 11.7158 7.45849 11.9928L8.18944 15Z" fill="#C8414B"/>
<path d="M11.2068 12.6357C10.7308 12.6357 10.3447 12.9887 10.3447 13.424V18.5471C10.3447 19.5047 11.3223 21.3057 14.6551 21.3057C17.9879 21.3057 18.9654 19.5048 18.9654 18.5471V13.424C18.9654 12.9887 18.5794 12.6357 18.1033 12.6357H11.2068Z" fill="#F5F5F5"/>
<path d="M14.6551 16.5766H10.3447V13.424C10.3447 12.9887 10.7308 12.6357 11.2068 12.6357H14.6551V16.5766Z" fill="#C8414B"/>
<path d="M14.6553 16.5762H18.9656V18.5466C18.9656 19.6349 18.0008 20.5171 16.8104 20.5171C15.6201 20.5171 14.6553 19.6349 14.6553 18.5466V16.5762Z" fill="#C8414B"/>
<path d="M10.3447 16.5762H14.6551V18.5466C14.6551 19.6349 13.6902 20.5171 12.4999 20.5171C11.3096 20.5171 10.3447 19.6349 10.3447 18.5466V16.5762Z" fill="#FAB446"/>
<path d="M13.7933 20.1141V16.5762H12.9312V20.4773C13.2519 20.4179 13.5416 20.288 13.7933 20.1141Z" fill="#C8414B"/>
<path d="M12.0691 20.4773V16.5762H11.207V20.1141C11.4588 20.288 11.7485 20.4179 12.0691 20.4773Z" fill="#C8414B"/>
<path d="M13.7933 15H11.207V15.7882H13.7933V15Z" fill="#FFB441"/>
<path d="M13.7933 13.4229H11.207V14.2111H13.7933V13.4229Z" fill="#FAB446"/>
<path d="M13.3618 13.8916H11.6377V15.3195H13.3618V13.8916Z" fill="#FAB446"/>
<path d="M9.05127 13.4229H7.32715V20.122H9.05127V13.4229Z" fill="#F5F5F5"/>
<path d="M9.48271 19.7295H6.89648V20.5177H9.48271V19.7295Z" fill="#FAB446"/>
<path d="M9.48271 12.6357H6.89648V13.424H9.48271V12.6357Z" fill="#FAB446"/>
<path d="M9.91406 20.5166H6.46582V21.3048H9.91406V20.5166Z" fill="#5064AA"/>
<path d="M22.845 19.7295H20.2588V20.5177H22.845V19.7295Z" fill="#FAB446"/>
<path d="M22.8447 20.5166H19.3965V21.3048H22.8447V20.5166Z" fill="#5064AA"/>
<path d="M17.2418 11.8477H12.0693V12.6359H17.2418V11.8477Z" fill="#FAB446"/>
<path d="M15.0867 9.4834H14.2246V11.848H15.0867V9.4834Z" fill="#FFB441"/>
<path d="M13.7931 10.6652C13.08 10.6652 12.5 10.1349 12.5 9.48301C12.5 8.83105 13.0801 8.30078 13.7931 8.30078C14.5062 8.30078 15.0861 8.83114 15.0861 9.48301C15.0862 10.1349 14.5062 10.6652 13.7931 10.6652ZM13.7931 9.08891C13.5553 9.08891 13.362 9.26551 13.362 9.48301C13.362 9.70042 13.5552 9.87712 13.7931 9.87712C14.031 9.87712 14.2241 9.70051 14.2241 9.48301C14.2241 9.2656 14.031 9.08891 13.7931 9.08891Z" fill="#F5F5F5"/>
<path d="M15.5172 10.6652C14.8041 10.6652 14.2241 10.1349 14.2241 9.48301C14.2241 8.83105 14.8042 8.30078 15.5172 8.30078C16.2303 8.30078 16.8103 8.83114 16.8103 9.48301C16.8103 10.1349 16.2302 10.6652 15.5172 10.6652ZM15.5172 9.08891C15.2794 9.08891 15.0861 9.26551 15.0861 9.48301C15.0861 9.70042 15.2793 9.87712 15.5172 9.87712C15.755 9.87712 15.9482 9.70051 15.9482 9.48301C15.9481 9.2656 15.755 9.08891 15.5172 9.08891Z" fill="#F5F5F5"/>
<path d="M17.2413 11.4533C16.5282 11.4533 15.9482 10.923 15.9482 10.2711C15.9482 9.61913 16.5283 9.08887 17.2413 9.08887C17.9544 9.08887 18.5344 9.61922 18.5344 10.2711C18.5344 10.923 17.9543 11.4533 17.2413 11.4533ZM17.2413 9.87699C17.0035 9.87699 16.8103 10.0536 16.8103 10.2711C16.8103 10.4885 17.0034 10.6652 17.2413 10.6652C17.4791 10.6652 17.6724 10.4886 17.6724 10.2711C17.6724 10.0536 17.4791 9.87699 17.2413 9.87699Z" fill="#F5F5F5"/>
<path d="M12.0689 11.4533C11.3559 11.4533 10.7759 10.923 10.7759 10.2711C10.7759 9.61913 11.356 9.08887 12.0689 9.08887C12.782 9.08887 13.362 9.61922 13.362 10.2711C13.3621 10.923 12.782 11.4533 12.0689 11.4533ZM12.0689 9.87699C11.8312 9.87699 11.6379 10.0536 11.6379 10.2711C11.6379 10.4885 11.8311 10.6652 12.0689 10.6652C12.3068 10.6652 12.5 10.4885 12.5 10.271C12.5 10.0536 12.3068 9.87699 12.0689 9.87699Z" fill="#F5F5F5"/>
<path d="M17.2413 18.1524V18.5465C17.2413 18.7638 17.048 18.9406 16.8103 18.9406C16.5726 18.9406 16.3792 18.7638 16.3792 18.5465V18.1524H17.2413ZM18.1033 17.3643H15.5171V18.5465C15.5171 19.1985 16.0972 19.7287 16.8102 19.7287C17.5232 19.7287 18.1032 19.1984 18.1032 18.5465L18.1033 17.3643Z" fill="#FAB446"/>
<path d="M16.8104 15.7885C16.3343 15.7885 15.9482 15.4355 15.9482 15.0003V14.212C15.9482 13.7768 16.3343 13.4238 16.8104 13.4238C17.2864 13.4238 17.6725 13.7768 17.6725 14.212V15.0003C17.6725 15.4355 17.2864 15.7885 16.8104 15.7885Z" fill="#FFA0D2"/>
<path d="M14.6554 17.758C15.3695 17.758 15.9484 17.2287 15.9484 16.5758C15.9484 15.9229 15.3695 15.3936 14.6554 15.3936C13.9412 15.3936 13.3623 15.9229 13.3623 16.5758C13.3623 17.2287 13.9412 17.758 14.6554 17.758Z" fill="#5064AA"/>
<path d="M15.0867 7.90625H14.2246V10.2708H15.0867V7.90625Z" fill="#FAB446"/>
<path d="M12.0691 11.847L11.207 11.0588L11.712 10.5971C12.4926 9.8834 13.5514 9.48242 14.6554 9.48242C15.7594 9.48242 16.8181 9.8834 17.5987 10.5971L18.1037 11.0588L17.2416 11.847H12.0691Z" fill="#C8414B"/>
<path d="M14.6552 11.4533C14.8932 11.4533 15.0862 11.2768 15.0862 11.0591C15.0862 10.8415 14.8932 10.665 14.6552 10.665C14.4171 10.665 14.2241 10.8415 14.2241 11.0591C14.2241 11.2768 14.4171 11.4533 14.6552 11.4533Z" fill="#FFD250"/>
<path d="M12.9306 11.4533C13.1686 11.4533 13.3616 11.2768 13.3616 11.0591C13.3616 10.8415 13.1686 10.665 12.9306 10.665C12.6925 10.665 12.4995 10.8415 12.4995 11.0591C12.4995 11.2768 12.6925 11.4533 12.9306 11.4533Z" fill="#FFD250"/>
<path d="M16.3788 11.4533C16.6169 11.4533 16.8099 11.2768 16.8099 11.0591C16.8099 10.8415 16.6169 10.665 16.3788 10.665C16.1407 10.665 15.9478 10.8415 15.9478 11.0591C15.9478 11.2768 16.1407 11.4533 16.3788 11.4533Z" fill="#FFD250"/>
<path d="M11.207 15H6.89648V15.7882H11.207V15Z" fill="#C8414B"/>
<path d="M6.89648 18.1525L9.48262 17.3644V16.5762L6.89648 17.3644V18.1525Z" fill="#C8414B"/>
</g>
<defs>
<clipPath id="clip0_197_10106">
<rect width="50" height="30" rx="2" fill="white"/>
</clipPath>
</defs>
</svg>
