<svg width="40" height="24" viewBox="0 0 40 24" fill="none" xmlns="http://www.w3.org/2000/svg">
<g clip-path="url(#clip0_78_2049)">
<path d="M0 0H40V24H0V0Z" fill="#E74C3C"/>
<path d="M6.51095 2.79565L7.31356 5.01749H9.9116L7.80996 6.39372L8.61068 8.61898L6.51095 7.24274L4.40742 8.61898L5.21003 6.39372L3.1084 5.01749H5.70643L6.51095 2.79565Z" fill="#F1C40F"/>
<path d="M13.2819 1.6333L13.2286 2.40187L14.0217 2.68602L13.1944 2.87602L13.1373 3.64459L12.6809 2.99413L11.8535 3.18413L12.3994 2.59187L11.9429 1.94141L12.736 2.22727L13.2819 1.6333Z" fill="#F1C40F"/>
<path d="M16.2012 4.12563L15.8113 4.81032L16.4142 5.35637L15.5717 5.23312L15.1799 5.91953L15.0486 5.15781L14.2041 5.03621L14.9649 4.68872L14.8355 3.92871L15.4366 4.47304L16.2011 4.12556" fill="#F1C40F"/>
<path d="M15.3243 7.24434L15.5849 7.97696L16.4427 7.97833L15.7485 8.42852L16.0128 9.16114L15.3224 8.70924L14.6282 9.16114L14.8945 8.42852L14.2041 7.97662L15.0581 7.97799L15.3243 7.24365" fill="#F1C40F"/>
<path d="M13.2778 9.59277L13.2207 10.3613L14.0157 10.6472L13.1865 10.8355L13.1314 11.6041L12.6749 10.9536L11.8457 11.1436L12.3916 10.5531L11.9351 9.90088L12.7301 10.1867L13.2779 9.59277" fill="#F1C40F"/>
</g>
<defs>
<clipPath id="clip0_78_2049">
<rect width="40" height="24" rx="4" fill="white"/>
</clipPath>
</defs>
</svg>
