<svg width="280" height="270" viewBox="0 0 280 270" fill="none" xmlns="http://www.w3.org/2000/svg">
<g clip-path="url(#clip0_78_1627)">
<mask id="mask0_78_1627" style="mask-type:luminance" maskUnits="userSpaceOnUse" x="0" y="0" width="280" height="270">
<path d="M280 0H0V270H280V0Z" fill="white"/>
</mask>
<g mask="url(#mask0_78_1627)">
<path fill-rule="evenodd" clip-rule="evenodd" d="M271.671 164.898C270.896 166.435 269.769 167.306 268.27 167.472H268.227C266.392 167.472 265.132 166.417 264.425 164.29C263.947 162.94 263.723 161.172 263.723 158.971C263.723 156.672 263.956 154.737 264.501 153.194C265.27 150.984 266.521 149.828 268.27 149.722H268.518C270.075 149.722 271.174 150.509 271.828 152.084C272.483 153.637 272.817 155.862 272.817 158.749C272.817 161.314 272.44 163.377 271.671 164.898ZM277.818 150.169C279.265 152.199 280 154.87 280 158.206C280 162.221 279.011 165.321 277.043 167.555C275.253 169.558 272.974 170.534 270.265 170.534C269.539 170.534 268.877 170.471 268.27 170.336C267.592 170.185 267.004 169.945 266.487 169.627C265.5 169 264.645 168.163 263.956 167.108V182.182C262.743 182.021 261.63 181.951 260.633 181.951C259.616 181.951 258.507 182.021 257.275 182.182V147.143C257.624 147.143 258.235 147.146 259.09 147.22C259.95 147.303 260.407 147.317 260.514 147.317C260.867 147.317 261.402 147.303 262.123 147.22C262.825 147.146 263.364 147.143 263.723 147.143V151.283C264.296 149.841 265.175 148.723 266.282 147.899C266.885 147.465 267.544 147.143 268.27 146.939C268.923 146.741 269.612 146.664 270.357 146.664C273.633 146.664 276.142 147.834 277.818 150.169ZM237.186 161.613C238.819 159.619 240.505 157.34 242.288 154.755C243.621 152.804 245.23 150.266 247.154 147.146L249.7 147.267L252.127 147.146V170.134C251.759 170.134 251.132 170.093 250.243 170.005C249.366 169.931 248.864 169.889 248.778 169.889C248.214 169.889 247.779 169.907 247.503 169.931C247.216 169.94 246.523 170.005 245.411 170.134V155.497C243.51 157.837 241.694 160.31 239.932 162.904C238.357 165.215 236.876 167.643 235.433 170.134C235.277 170.134 234.909 170.093 234.373 170.005C233.824 169.931 233.365 169.889 233.007 169.889C232.409 169.889 231.918 169.931 231.416 170.005C230.953 170.093 230.643 170.134 230.49 170.134V147.137C231.416 147.199 232.114 147.249 232.572 147.267C233.025 147.323 233.451 147.341 233.834 147.341C234.778 147.341 235.467 147.323 235.911 147.303C236.509 147.199 236.923 147.146 237.186 147.146V161.613ZM216.649 153.806C214.924 157.975 213.644 161.258 212.733 163.696C211.878 166.14 211.18 168.264 210.717 170.111C210.426 170.111 209.981 170.078 209.393 169.996C208.802 169.931 208.348 169.895 208.036 169.895C207.711 169.895 207.239 169.931 206.614 169.996C205.989 170.078 205.544 170.111 205.272 170.111L199.325 153.806C198.785 156.155 198.255 158.868 197.697 161.935C197.105 164.999 196.655 167.729 196.293 170.111H192.466C193.542 166.37 194.602 162.562 195.662 158.708C196.726 154.838 197.734 150.97 198.684 147.087C198.962 147.087 199.416 147.119 199.998 147.202C200.581 147.303 201.016 147.346 201.322 147.346C201.604 147.346 202.095 147.303 202.75 147.202C203.409 147.119 203.786 147.087 203.896 147.087L209.78 162.797C211.747 157.565 213.763 152.338 215.779 147.087C216.07 147.087 216.5 147.119 217.093 147.202C217.676 147.303 218.124 147.346 218.449 147.346C218.751 147.346 219.18 147.303 219.738 147.202C220.345 147.119 220.795 147.087 221.081 147.087C221.978 151.693 222.805 155.534 223.498 158.616C224.448 162.562 225.518 166.385 226.716 170.111C226.326 170.111 225.738 170.078 224.954 169.996C224.19 169.931 223.587 169.895 223.164 169.895C222.766 169.895 222.159 169.931 221.344 169.996C220.565 170.078 219.944 170.111 219.567 170.111L216.649 153.806ZM161.812 161.613C163.466 159.629 165.146 157.34 166.904 154.755C168.241 152.804 169.885 150.266 171.795 147.146L174.317 147.303L176.762 147.146V170.134C176.4 170.134 175.775 170.093 174.89 170.005C173.992 169.931 173.495 169.889 173.404 169.889C172.865 169.889 172.441 169.907 172.153 169.931C171.853 169.94 171.136 170.005 170.061 170.134V155.497C168.155 157.855 166.337 160.328 164.56 162.904C163.007 165.215 161.487 167.643 160.07 170.134C159.897 170.134 159.544 170.093 158.999 170.005C158.446 169.931 157.993 169.889 157.634 169.889C157.056 169.889 156.535 169.931 156.053 170.005C155.585 170.093 155.269 170.134 155.116 170.134V147.137C156.053 147.199 156.746 147.249 157.194 147.267C157.644 147.323 158.079 147.341 158.465 147.341C159.406 147.341 160.117 147.323 160.561 147.303C161.134 147.199 161.551 147.146 161.812 147.146V161.613ZM157.69 138.807C158.977 139.999 160.298 140.911 161.674 141.511C163.031 142.123 164.41 142.43 165.835 142.43C168.739 142.43 171.528 141.219 174.225 138.807L175.76 140.884C174.369 142.214 172.831 143.228 171.102 143.942C169.35 144.646 167.602 145.001 165.786 145.001C163.996 145.001 162.277 144.684 160.666 144.002C159.033 143.348 157.509 142.33 156.087 140.953L157.69 138.807ZM134.77 161.595C136.394 159.606 138.094 157.307 139.866 154.737C141.174 152.78 142.809 150.242 144.725 147.143L147.25 147.258L149.686 147.143V170.111C149.328 170.111 148.717 170.078 147.808 169.996C146.916 169.907 146.423 169.88 146.337 169.88C145.779 169.88 145.363 169.88 145.062 169.907C144.767 169.927 144.079 169.996 142.961 170.111V155.484C141.088 157.824 139.265 160.277 137.53 162.875C135.94 165.197 134.45 167.605 133.017 170.111C132.854 170.111 132.492 170.06 131.957 169.996C131.398 169.907 130.945 169.88 130.586 169.88C130.008 169.88 129.474 169.907 129 169.996C128.552 170.06 128.227 170.111 128.068 170.111V147.119C129 147.193 129.698 147.235 130.151 147.258C130.605 147.281 131.016 147.303 131.417 147.303C132.358 147.303 133.047 147.303 133.51 147.276C134.077 147.166 134.497 147.143 134.77 147.143V161.595ZM102.45 147.146C103.52 147.272 104.225 147.346 104.595 147.364C104.966 147.373 105.377 147.373 105.788 147.373C106.792 147.373 107.914 147.303 109.14 147.143V157.261C109.25 157.349 109.379 157.363 109.59 157.293C111.067 155.801 112.642 154.181 114.251 152.411C116.295 150.1 117.863 148.354 118.946 147.143C119.181 147.143 119.51 147.193 119.959 147.24C120.428 147.303 120.781 147.346 121.033 147.346C121.283 147.346 121.608 147.303 122.08 147.24C122.534 147.193 122.858 147.143 123.082 147.143V147.429C122.218 148.502 121.234 149.593 120.122 150.656C116.917 153.806 115.179 155.534 114.919 155.862L118.86 161.885C120.518 164.479 122.114 167.099 123.627 169.798V170.134C123.245 170.134 122.552 170.093 121.531 170.01C120.518 169.931 119.978 169.895 119.93 169.895C119.497 169.895 118.89 169.931 118.078 170.01C117.26 170.093 116.626 170.134 116.219 170.134C115.283 168.403 114.38 166.828 113.525 165.409C112.418 163.562 111.429 161.968 110.507 160.628C110.283 160.274 110.081 159.988 109.866 159.763C109.682 159.545 109.428 159.305 109.14 159.095V170.134C108.793 170.134 108.166 170.093 107.246 170.01C106.351 169.931 105.855 169.895 105.788 169.895C105.429 169.895 104.804 169.931 103.902 170.01C102.993 170.093 102.506 170.134 102.45 170.134V147.146ZM97.1488 153.679H96.0251C95.8347 152.264 95.3288 151.117 94.5112 150.242C93.6189 149.27 92.4523 148.759 91.0056 148.759C88.9616 148.759 87.3955 149.879 86.3296 152.084C85.4747 153.826 85.0491 155.857 85.0491 158.182C85.0491 161.152 85.6464 163.438 86.8131 165.046C87.9928 166.68 89.8445 167.476 92.4187 167.476C93.408 167.476 94.3544 167.269 95.2765 166.882C96.1968 166.453 96.9565 165.906 97.5352 165.202L98.3659 165.87L97.1488 168.674C96.5608 169.25 95.5864 169.72 94.22 170.028C92.8349 170.359 91.6309 170.534 90.6285 170.534C86.7589 170.534 83.6976 169.576 81.4333 167.596C79.0552 165.542 77.8624 162.691 77.8624 159.039C77.8624 155.266 79.0272 152.237 81.3531 150.021C83.664 147.778 86.7739 146.664 90.6715 146.664C92.1816 146.664 93.6413 146.821 95.1085 147.146C96.5608 147.488 97.86 148.003 99.0155 148.759L97.1488 153.679ZM70.2669 149.891V170.116C69.9141 170.116 69.2739 170.078 68.404 169.996C67.5024 169.927 67.0301 169.88 66.9144 169.88C66.5747 169.88 65.9213 169.927 65.0328 169.996C64.1069 170.078 63.6328 170.116 63.5563 170.116V149.891C61.3984 149.891 59.9461 149.947 59.1827 149.994C58.0832 150.145 57.0752 150.251 56.14 150.316C56.14 150.142 56.1773 149.841 56.2445 149.418C56.336 149.017 56.364 148.777 56.364 148.709C56.364 148.493 56.336 148.189 56.2445 147.778C56.1773 147.382 56.14 147.193 56.14 147.143H77.7653C77.7653 147.341 77.7224 147.645 77.6272 148.009C77.5656 148.423 77.5133 148.644 77.5133 148.709C77.5133 148.934 77.5656 149.256 77.6272 149.643C77.7224 150.035 77.7653 150.269 77.7653 150.316C76.5147 150.205 75.4264 150.1 74.5472 150.021C73.6736 149.947 72.24 149.891 70.2669 149.891ZM51.24 166.91C52.2125 166.518 53.1403 165.989 53.9765 165.321L54.4917 165.735L53.4557 168.403C51.3632 169.83 49.0653 170.534 46.4968 170.534C45.9368 170.534 45.3843 170.503 44.8635 170.471C41.6192 170.185 39.0544 169.135 37.1448 167.233C34.8992 165.049 33.796 161.991 33.796 158.063C33.796 154.64 34.8227 151.877 36.8667 149.791C38.8491 147.778 41.5147 146.732 44.8635 146.664H45.2163C48.8077 146.664 51.464 147.802 53.1832 150.086C54.6877 152.057 55.4269 154.903 55.4269 158.596H40.9995C40.9995 161.273 41.5333 163.377 42.6515 164.898C43.2395 165.731 43.9843 166.358 44.8635 166.781C45.8173 167.26 46.9597 167.472 48.2589 167.472C49.2669 167.472 50.2787 167.283 51.24 166.91ZM41.7723 151.592C41.2608 152.908 40.9995 154.503 40.9995 156.326H48.7275C48.7275 154.503 48.5221 152.908 48.0909 151.592C47.4805 149.708 46.5341 148.759 45.2443 148.759C45.1211 148.759 44.9867 148.759 44.8635 148.777C43.4877 148.93 42.4555 149.861 41.7723 151.592ZM31.8192 169.011C31.8192 169.313 31.8285 169.756 31.9107 170.35C31.976 170.912 32.0432 171.317 32.1197 171.571H31.3693C30.8056 170.876 29.8032 170.415 28.3509 170.194C26.9285 169.996 25.2803 169.898 23.4043 169.898H9.04213C6.80213 169.898 5.01947 169.978 3.67733 170.161C2.32213 170.336 1.34213 170.811 0.701867 171.571H0C0.0858667 171.18 0.1568 170.811 0.196 170.424C0.2296 170.037 0.242667 169.573 0.242667 169.011C0.242667 168.509 0.205333 167.989 0.1568 167.519C0.0709333 167.049 0.0429333 166.694 0 166.477H2.0776C3.50187 163.282 4.90933 160.067 6.2664 156.874C7.89973 153.13 9.24747 149.929 10.3077 147.272C11.4389 144.522 12.628 141.437 13.8749 138.028C13.9664 137.821 14.0317 137.632 14.1083 137.439C14.3285 137.439 14.6813 137.466 15.1256 137.522C15.5755 137.587 15.904 137.623 16.1485 137.623C16.4155 137.623 16.7645 137.587 17.2331 137.522C17.6811 137.466 18.0245 137.439 18.2355 137.439C19.9024 141.883 21.7653 146.765 23.8765 152.03C25.7339 156.681 27.6883 161.503 29.7603 166.477H32.1197C32.0432 166.928 31.9965 167.366 31.9387 167.863C31.9107 168.332 31.8528 168.707 31.8192 169.011ZM17.6475 166.606C19.0848 166.574 20.3803 166.518 21.5507 166.477C20.4699 163.345 19.2771 160.043 17.9779 156.616C16.6544 153.194 15.3701 149.809 14.1083 146.437L13.8749 146.968C12.5085 150.289 11.2187 153.443 10.0352 156.427C8.54933 160.067 7.29307 163.406 6.2328 166.453C6.86747 166.491 8.03413 166.541 9.72907 166.588C11.4203 166.642 12.7045 166.657 13.5651 166.657H13.8749C15.0883 166.657 16.3445 166.642 17.6475 166.606Z" fill="#0071BB"/>
<path fill-rule="evenodd" clip-rule="evenodd" d="M218.381 110.813C216.782 115.065 215.154 118.168 213.888 120.251C212.593 122.382 210.062 123.507 207.579 123.032C205.195 122.585 201.785 121.756 197.396 120.242C193.015 118.726 189.84 117.27 187.71 116.161C185.483 115.004 184.285 112.592 184.714 110.155C185.136 107.779 185.952 104.398 187.557 100.147C189.161 95.8914 190.79 92.7918 192.05 90.7092C193.346 88.578 195.877 87.453 198.365 87.9228C200.74 88.3746 204.154 89.199 208.533 90.7146C212.923 92.2338 216.099 93.69 218.23 94.8006C220.455 95.9562 221.654 98.3736 221.224 100.805C220.808 103.181 219.987 106.562 218.381 110.813Z" fill="#00ADEF"/>
<path fill-rule="evenodd" clip-rule="evenodd" d="M176.762 100.082C178.386 104.319 179.217 107.696 179.648 110.063C180.087 112.494 178.901 114.908 176.686 116.073C174.565 117.192 171.399 118.656 167.029 120.195C162.658 121.728 159.253 122.567 156.884 123.028C154.405 123.51 151.874 122.405 150.565 120.278C149.294 118.206 147.651 115.115 146.033 110.878C144.409 106.635 143.576 103.264 143.147 100.897C142.708 98.4651 143.892 96.0531 146.11 94.8831C148.23 93.7671 151.39 92.2983 155.762 90.7611C160.132 89.2311 163.542 88.3887 165.911 87.9279C168.39 87.4491 170.925 88.5597 172.23 90.6819C173.501 92.7537 175.138 95.8443 176.762 100.082Z" fill="#00A550"/>
<path fill-rule="evenodd" clip-rule="evenodd" d="M135.238 110.813C133.638 115.065 132.009 118.168 130.743 120.251C129.449 122.382 126.918 123.507 124.434 123.032C122.056 122.585 118.641 121.756 114.251 120.242C109.872 118.726 106.695 117.27 104.57 116.161C102.34 115.004 101.141 112.592 101.571 110.155C101.985 107.779 102.808 104.398 104.412 100.147C106.017 95.8914 107.647 92.7918 108.907 90.7092C110.2 88.578 112.733 87.453 115.222 87.9228C117.594 88.3746 121.01 89.199 125.395 90.7146C129.778 92.2338 132.955 93.69 135.085 94.8006C137.31 95.9562 138.51 98.3736 138.079 100.805C137.665 103.181 136.843 106.562 135.238 110.813Z" fill="#FDB833"/>
<path fill-rule="evenodd" clip-rule="evenodd" d="M93.6191 100.082C95.2431 104.319 96.0737 107.696 96.5031 110.063C96.9436 112.494 95.7583 114.908 93.5425 116.073C91.422 117.192 88.2543 118.656 83.8844 120.195C79.5145 121.728 76.1097 122.567 73.7391 123.028C71.2601 123.51 68.7252 122.405 67.4204 120.278C66.1511 118.206 64.5121 115.115 62.8881 110.878C61.2641 106.635 60.4335 103.264 60.0041 100.897C59.5636 98.4651 60.7489 96.0531 62.9647 94.8831C65.0852 93.7671 68.2473 92.2983 72.6172 90.7611C76.9927 89.2311 80.3975 88.3887 82.7663 87.9279C85.2452 87.4491 87.782 88.5597 89.0849 90.6819C90.3561 92.7537 91.9951 95.8443 93.6191 100.082Z" fill="#ED1C23"/>
</g>
</g>
<defs>
<clipPath id="clip0_78_1627">
<rect width="280" height="270" fill="white"/>
</clipPath>
</defs>
</svg>
