<svg width="280" height="270" viewBox="0 0 280 270" fill="none" xmlns="http://www.w3.org/2000/svg">
<g clip-path="url(#clip0_78_1262)">
<mask id="mask0_78_1262" style="mask-type:luminance" maskUnits="userSpaceOnUse" x="0" y="0" width="280" height="270">
<path d="M280 0H0V270H280V0Z" fill="white"/>
</mask>
<g mask="url(#mask0_78_1262)">
<path d="M31.1399 98.33L23.8308 119.986H0L19.2375 133.38L12.0125 155.144L31.1399 141.75L50.3498 155.144L43.0407 133.38L62.1665 119.986H38.4474L31.1399 98.33Z" fill="#E22130"/>
<path d="M129.036 118.07C127.581 116.665 126.013 115.64 124.024 115.045C122.148 114.343 119.935 114.046 117.556 114.046C115.148 114.046 112.963 114.45 110.75 115.37C108.567 116.287 106.775 117.583 105.319 118.987L105.207 119.095C104.479 119.905 103.835 120.715 103.33 121.606C102.91 122.416 102.49 123.118 102.294 123.713C102.098 123.307 101.763 122.605 101.342 121.904C100.614 120.581 99.9696 119.582 99.4663 119.176C98.0096 117.556 96.3296 116.45 94.1447 115.558C91.9613 114.639 89.6647 114.235 87.033 114.235C85.353 114.235 82.9447 114.424 80.3405 115.64C77.3155 117.043 74.7955 119.257 73.0314 122.497V115.26H70.623V155.657H73.0314V132.678C73.0314 130.059 73.3389 127.844 73.983 125.818C74.5997 123.794 75.5514 122.282 76.8122 120.77C77.848 119.365 79.4163 118.258 81.208 117.556C82.9722 116.746 84.8772 116.34 86.8372 116.45C89.2455 116.557 91.3172 116.962 93.2221 117.772C94.9863 118.583 96.4704 119.797 97.7021 121.202C98.738 122.605 99.4663 123.821 99.8855 125.225C100.502 126.927 100.725 128.951 100.725 131.787V155.576H103.134V132.813C103.134 130.004 103.247 127.682 103.75 125.765C104.283 123.957 105.011 122.552 106.466 120.715C107.727 119.095 109.295 117.988 111.479 117.178C113.243 116.584 115.232 116.18 117.108 116.18C119.209 116.18 120.973 116.476 122.653 117.097C124.333 117.718 125.565 118.61 126.741 119.716C128.196 121.121 129.261 122.848 129.876 125.063C130.605 127.278 130.914 129.789 130.914 132.921V155.576H133.322L133.741 132.813C133.741 129.491 133.322 126.575 132.482 124.145C131.754 121.715 130.689 119.582 129.036 118.07Z" fill="#231F20"/>
<path d="M176.558 125.522C175.297 122.714 172.889 119.878 169.753 117.853C166.085 115.423 161.717 114.235 157.123 114.235C148.778 114.235 143.654 117.853 140.713 120.985C137.158 124.82 135.086 130.059 135.086 135.406C135.086 140.751 137.185 145.99 140.713 149.825C143.543 152.848 148.751 156.575 157.123 156.575C161.408 156.575 165.273 155.576 168.717 153.66C171.965 151.634 174.569 149.015 176.558 145.503V155.684H178.965V115.37H176.558V125.522ZM175.213 127.844C175.634 128.951 176.053 130.059 176.249 131.165C176.558 132.381 176.67 133.677 176.67 134.785C176.782 136.107 176.67 137.296 176.474 138.402C176.277 139.726 175.942 140.832 175.521 141.831C174.15 145.558 171.769 148.772 168.521 150.905C165.384 153.118 161.408 154.226 157.348 154.226C151.298 154.226 146.286 152.119 142.618 148.285C139.482 144.856 137.494 140.13 137.494 135.189C137.494 129.842 139.593 125.118 143.122 121.58C146.791 118.151 151.692 116.152 157.123 116.152C161.1 116.152 164.965 117.26 168.1 119.176C171.348 121.498 173.841 124.415 175.213 127.844Z" fill="#231F20"/>
<path d="M188.18 121.391C190.363 119.473 192.575 118.258 194.76 117.367C196.944 116.557 199.352 116.044 202.293 116.044H202.489C206.044 116.044 209.684 117.043 212.737 118.772C216.294 120.985 219.01 124.01 220.467 127.844L220.579 128.033H223.294L223.099 127.629C221.419 123.092 218.282 119.365 214.109 116.962C210.665 114.937 206.493 113.938 202.404 113.938C196.356 113.938 190.811 116.152 186.723 120.094C182.635 124.036 180.338 129.464 180.338 135.297C180.338 140.725 182.523 145.964 186.079 149.797C190.167 154.119 195.908 156.441 202.796 156.441C207.278 156.441 211.674 155.117 215.229 152.714C218.787 150.31 221.503 146.963 223.071 142.939L223.267 142.534H220.551L220.438 142.722C219.402 145.639 217.189 148.475 214.278 150.473C210.945 152.984 206.661 154.2 202.265 154.2C199.66 154.2 197.14 153.686 194.731 152.795C192.323 151.796 190.335 150.473 188.46 148.853C186.584 147.044 185.211 145.018 184.175 142.615C183.138 140.292 182.607 137.674 182.607 135.055C182.607 132.434 183.222 129.708 184.175 127.304C185.043 125.037 186.5 123.011 188.18 121.391ZM216.379 121.202C218.254 122.903 219.823 125.144 220.859 127.763C219.823 125.225 218.254 123.118 216.379 121.202Z" fill="#231F20"/>
<path d="M257.123 115.153H254.405L254.294 115.342C254.294 115.53 250.205 124.712 246.145 133.975L238.109 152.2L230.492 133.975C225.591 121.876 222.762 115.423 222.762 115.342L222.65 115.153H219.935L236.652 155.361L229.12 171.67H231.835L231.947 171.481C231.947 171.481 232.143 170.968 232.48 170.158C233.74 167.349 237.185 159.573 241.161 150.824C242.197 148.502 243.26 146.098 244.409 143.668L254.239 121.795C255.919 118.07 256.954 115.64 256.954 115.558L257.123 115.153Z" fill="#231F20"/>
<path d="M275.939 135.999C273.644 134.379 270.815 133.569 267.987 132.974L267.678 132.867C264.43 131.949 262.358 131.058 260.986 130.059C259.417 128.735 258.577 127.142 258.466 124.712C258.466 123.605 258.577 122.497 258.998 121.58C259.306 120.581 259.95 119.771 260.678 118.961C261.518 118.043 262.554 117.448 263.59 116.935C264.851 116.421 266.11 116.233 267.455 116.233H267.651C268.911 116.233 270.059 116.421 270.983 116.827C272.019 117.231 272.971 117.826 273.699 118.528C274.427 119.231 275.071 120.148 275.463 121.147C275.884 122.146 276.08 123.254 276.08 124.468V124.767H278.488V124.523C278.488 121.606 277.339 118.987 275.463 117.071C273.476 115.153 270.76 114.261 267.427 114.261C264.514 114.261 261.686 115.181 259.586 116.773C257.177 118.691 256.03 121.417 256.03 124.738C256.141 127.871 257.289 130.167 259.362 131.894C261.546 133.595 264.486 134.515 267.398 135.215C270.956 136.025 273.448 137.133 275.015 138.538C276.696 140.158 277.423 142.075 277.536 144.775V145.073C277.536 146.395 277.339 147.692 276.808 148.69C276.275 149.797 275.659 150.797 274.707 151.607C273.867 152.525 272.72 153.227 271.571 153.713C270.311 154.226 268.966 154.415 267.594 154.415C264.571 154.415 261.855 153.497 259.977 151.796C258.101 149.986 257.15 147.556 257.066 144.64V144.342L254.657 144.452V144.963C254.657 145.073 254.657 145.152 254.657 145.262C254.657 146.665 254.965 147.988 255.497 149.285C256.03 150.607 256.758 151.796 257.794 152.714C259.053 153.93 260.51 154.928 262.19 155.522C263.87 156.116 265.634 156.52 267.623 156.52C269.387 156.52 271.067 156.116 272.635 155.522C274.204 154.819 275.547 153.902 276.724 152.795C277.76 151.687 278.711 150.365 279.244 148.96C279.86 147.556 280.084 146.043 279.972 144.423C279.804 140.536 278.431 137.836 275.939 135.999Z" fill="#231F20"/>
<path d="M255.75 112.128L258.578 110.212L261.407 112.128L260.258 108.916L263.171 106.89H259.727L258.578 103.758L257.542 106.89H254.098L256.813 108.916L255.75 112.128Z" fill="#231F20"/>
</g>
</g>
<defs>
<clipPath id="clip0_78_1262">
<rect width="280" height="270" fill="white"/>
</clipPath>
</defs>
</svg>
