<svg width="280" height="270" viewBox="0 0 280 270" fill="none" xmlns="http://www.w3.org/2000/svg">
<g clip-path="url(#clip0_78_1981)">
<path fill-rule="evenodd" clip-rule="evenodd" d="M0 0H280V270H0V0Z" fill="white"/>
<path fill-rule="evenodd" clip-rule="evenodd" d="M142.374 125.286H126.69V133.119H141.128V136.144H126.69V144.675H142.575V147.74H123.152V122.262H142.374V125.286ZM150.817 122.262V144.675H164.25V147.74H147.358V122.262H150.817ZM181.583 122.262V134.594L194.33 122.262H199.274L188.297 132.616L199.555 147.74H195.012L185.681 134.941L181.582 138.821V147.74H177.962V122.262H181.583ZM202.09 126.216C200.28 128.659 199.354 131.568 199.354 134.98C199.354 138.432 200.28 141.34 202.09 143.783C204.382 146.885 207.721 148.436 212.224 148.436C216.73 148.436 220.066 146.885 222.279 143.783C224.169 141.34 225.095 138.432 225.095 134.98C225.095 131.568 224.169 128.659 222.279 126.216C220.067 123.115 216.73 121.563 212.224 121.563C207.721 121.564 204.382 123.115 202.09 126.216ZM212.224 124.588C215.04 124.588 217.252 125.636 218.94 127.613C220.589 129.513 221.393 131.956 221.393 134.98C221.393 138.044 220.587 140.565 218.94 142.425C217.252 144.441 215.038 145.41 212.224 145.41C209.331 145.41 207.117 144.442 205.509 142.425C203.86 140.565 203.057 138.042 203.057 134.98C203.057 131.956 203.86 129.513 205.509 127.613C207.197 125.636 209.409 124.588 212.224 124.588ZM229.797 122.262V147.74H233.338V136.804H241.983C245.12 136.804 246.73 138.276 246.73 141.34C246.73 144.442 246.929 146.576 247.292 147.738H251.715V147.156C250.831 146.691 250.43 145.838 250.43 144.636L250.146 140.02C250.107 138.43 249.747 137.189 249.102 136.49C248.739 136.025 248.015 135.56 247.012 135.172C249.423 133.816 250.629 131.76 250.629 129.124C250.629 124.51 247.735 122.26 241.984 122.26L229.797 122.262ZM233.338 125.17H242.185C245.402 125.17 247.01 126.604 247.01 129.435C247.01 132.421 245.2 133.895 241.662 133.895H233.338V125.17ZM265.307 124.588C261.205 124.588 259.193 126.062 259.193 129.048C259.193 130.715 260.28 131.763 262.372 132.229L269.932 133.896C273.873 134.866 275.885 137.114 275.885 140.681C275.885 143.474 274.759 145.452 272.427 146.81C270.617 147.934 268.324 148.437 265.589 148.437C262.17 148.437 259.478 147.584 257.588 145.994C255.778 144.444 254.933 142.309 254.933 139.519H258.272C258.272 141.649 259.076 143.204 260.604 144.249C261.889 145.064 263.497 145.452 265.509 145.452C270.134 145.452 272.427 144.054 272.427 141.146C272.427 139.828 272.024 138.859 271.26 138.276C270.537 137.696 269.048 137.114 266.837 136.687L261.407 135.447C257.668 134.594 255.778 132.615 255.778 129.435C255.778 127.303 256.541 125.479 257.948 124.084C259.597 122.378 261.889 121.564 264.905 121.564C271.421 121.564 274.838 124.279 275.24 129.707H271.862C271.822 127.961 271.019 126.604 269.611 125.674C268.445 124.976 266.995 124.588 265.307 124.588ZM25.9543 126.334L18.5155 147.74H14.9755L7.61653 126.334H7.45529L7.61653 147.74H4.11719V122.262H9.22458L16.7041 143.784H16.8653L24.3448 122.262H29.4522V147.74H25.9529L26.0342 126.334H25.9543ZM50.0822 127.187C48.4335 128.97 47.6302 131.491 47.6302 134.748C47.6302 141.843 50.4846 145.41 56.3154 145.41C60.4176 145.41 62.951 143.085 63.9155 138.355H67.3742C66.7307 142.425 64.8408 145.333 61.7438 147C60.0152 147.971 58.0048 148.436 55.7925 148.436C52.4936 148.436 49.7598 147.388 47.6288 145.333C45.1346 142.928 43.929 139.44 43.929 134.863C43.929 130.907 45.0141 127.688 47.2264 125.285C49.4373 122.765 52.4544 121.561 56.1934 121.561C59.4109 121.561 62.0242 122.454 64.0346 124.199C65.7632 125.673 66.7684 127.572 67.1301 129.899H63.6322C62.9074 126.331 60.4161 124.586 56.1919 124.586C53.7022 124.588 51.6903 125.441 50.0822 127.187ZM75.2967 122.262V132.809H89.0907V122.262H92.5886V147.74H89.0907V135.833H75.2967V147.74H71.6768V122.262H75.2967ZM105.94 122.262L95.9267 147.74H99.6265L102.36 140.372H112.978L115.631 147.74H119.452L109.96 122.262H105.94ZM107.75 126.062L111.691 137.307H103.527L107.67 126.062H107.75ZM35.405 122.262H38.9843V147.74H35.405V122.262Z" fill="black"/>
</g>
<defs>
<clipPath id="clip0_78_1981">
<rect width="280" height="270" fill="white"/>
</clipPath>
</defs>
</svg>
