<svg width="280" height="270" viewBox="0 0 280 270" fill="none" xmlns="http://www.w3.org/2000/svg">
<path d="M86.4383 41.7302L91.6521 33.9129L90.5326 36.1813C90.4046 36.4405 90.4692 36.7815 90.6753 36.9412C90.882 37.1022 91.1528 37.0217 91.2808 36.7625L93.3524 32.5901L95.4487 36.8113C95.5768 37.0686 95.8464 37.1485 96.052 36.9875C96.257 36.8277 96.3199 36.4887 96.193 36.2301L95.0735 33.9617L100.168 42.1042C100.176 48.9404 97.5108 50.8481 94.6258 52.1639H92.1054C89.4278 50.4742 86.636 48.69 86.4383 41.7302ZM137.957 50.2149L71.4772 100.607L71.4884 0L137.957 50.2149ZM80.6965 52.5264C81.8902 53.8732 84.5572 54.4715 87.7679 54.4715C90.9781 54.4715 92.4239 53.7775 92.3307 53.2502H94.3978C94.3045 53.7775 97.0665 54.597 99.502 54.597C101.938 54.597 104.919 53.7059 105.793 52.7191C106.668 51.7322 107.847 45.7143 104.769 42.2417C104.747 42.1745 94.4051 31.9329 94.4051 31.9329C95.0123 32.0324 95.6223 32.1072 96.2357 32.1281C96.5514 32.1452 96.8671 32.0958 97.1698 31.9817C98.0697 31.5425 98.5162 30.2704 98.1668 29.141C97.8163 28.0103 96.803 27.4506 95.9026 27.8899C95.1544 28.2537 93.7282 30.4897 93.4513 30.9347L93.4069 31.0056C93.3788 31.0025 93.3524 31.0037 93.3249 31.0075L93.2833 30.9397C92.9935 30.4948 91.5791 28.2587 90.832 27.8962C89.9311 27.4557 88.9172 28.0147 88.5661 29.1442C88.561 29.1594 88.556 29.1746 88.5515 29.1911C88.2145 30.3129 88.6661 31.5646 89.5603 31.988C89.8631 32.1002 90.1788 32.1471 90.4944 32.1287C91.0859 32.1097 91.6735 32.0406 92.2605 31.9487C92.2605 31.9487 81.9087 42.2144 81.8885 42.3494C78.7165 45.9254 79.5029 51.1796 80.6965 52.5264ZM106.153 58.4886H93.5406H80.9072V60.3032C80.9072 60.3032 88.1667 60.4838 91.8375 71.6609H95.219C98.8853 60.4844 106.153 60.3184 106.153 60.3184L106.153 58.4886ZM90.5113 28.8995C90.4102 28.8507 90.3023 28.8266 90.1951 28.8285C89.7176 28.819 89.325 29.2975 89.3177 29.8965C89.3148 30.0581 89.3424 30.2172 89.3946 30.3636C89.4879 30.6279 89.6603 30.8358 89.8749 30.9391C90.6163 31.0481 91.3668 31.0196 92.1015 30.8529C91.6504 30.1063 91.114 29.449 90.5113 28.8995ZM96.8536 30.9556C97.3007 30.7356 97.5214 30.1018 97.3462 29.5396C97.1704 28.9768 96.6648 28.7005 96.2171 28.9204C95.615 29.4687 95.0797 30.1253 94.6292 30.8694C95.3633 31.0348 96.1132 31.0646 96.8536 30.9556ZM46.7366 49.3371L45.2419 45.919L43.7472 49.3371L40.405 49.8847L42.8237 52.5454L42.253 56.3013L45.2424 54.528L48.2319 56.3013L47.6612 52.5454L50.0805 49.8847L46.7366 49.3371ZM66.9245 0L66.9357 100.607L0.45555 50.2149L66.9245 0ZM64.2496 45.5907L52.2464 35.4334L52.1852 34.8034L51.5156 34.8148L51.5022 34.8034L51.5016 34.8161L51.1196 34.823C50.4866 37.3069 47.8954 39.1703 44.7863 39.1703C41.7739 39.1703 39.2647 37.414 38.5345 35.0442L37.6167 35.0607L24.8686 45.8487L31.2429 53.8105L36.6168 50.2903L35.34 69.7361H55.5998L53.7541 50.8544L57.8759 53.5544L64.2496 45.5907ZM243.756 58.2167C243.751 58.2186 243.344 58.3777 242.164 57.8637C241.309 57.4922 241.077 57.0492 241.072 56.8604C241.111 56.4566 240.864 56.0852 240.505 56.0174C240.141 55.942 239.782 56.231 239.72 56.6512C239.694 56.8242 239.532 58.3713 241.673 59.3024C242.508 59.6643 243.118 59.7822 243.558 59.7822C244.092 59.7822 244.376 59.6098 244.505 59.4957C244.803 59.2327 244.901 58.7168 244.67 58.3808C244.434 58.0443 244.052 57.9562 243.756 58.2167ZM280 50.2149L213.52 100.607L213.532 0L280 50.2149ZM225.216 48.773C225.216 48.773 229.258 49.4487 232.642 46.0401C236.026 42.6315 237.472 36.4304 237.472 36.4304C237.472 36.4304 230.167 37.4679 227.52 40.2611C224.207 43.7584 225.216 48.773 225.216 48.773ZM251.507 61.0181C251.507 58.166 250.285 55.7182 247.666 54.6718C246.832 54.3397 245.372 54.668 244.363 54.6985C244.393 53.2534 244.334 49.9728 243.342 47.3723C242.814 45.9881 242.228 44.9265 241.757 44.074C241.123 42.9256 240.666 42.0953 240.666 41.1281C240.666 41.1135 240.659 41.1015 240.658 41.0869C240.662 40.8467 240.666 40.6166 240.666 40.3574C240.666 36.9266 240.829 35.4632 240.831 35.4479C240.88 35.0271 240.615 34.6399 240.242 34.5847C239.876 34.5302 239.525 34.8268 239.476 35.2483C239.47 35.3104 239.3 36.8037 239.3 40.3574C239.3 43.4903 239.3 44.6628 236.171 48.1925C235.205 49.2826 234.441 50.2023 233.569 51.2537L232.656 52.3508C231.401 53.853 229.994 56.1309 229.808 56.4338C228.803 56.3704 227.55 56.2475 226.857 56.5656C224.668 57.5727 223.935 59.6928 223.935 62.1437C223.935 65.5694 227.093 69.7342 230.508 69.7342C232.898 69.7342 235.386 67.5602 236.44 65.063C235.87 63.7498 235.544 62.3535 235.544 61.0168C235.544 59.9197 235.674 58.983 235.88 58.1578C235.325 57.4149 234.583 56.8128 233.622 56.4294C233.09 56.217 232.273 56.307 231.516 56.3882C232.069 55.537 232.902 54.3036 233.652 53.4068L234.567 52.3059C235.428 51.267 236.181 50.3582 237.137 49.2813C239.006 47.1739 239.869 45.7466 240.283 44.3041C240.386 44.4974 240.488 44.6882 240.598 44.8878C241.067 45.739 241.6 46.7037 242.087 47.9814C242.964 50.2802 243.019 53.3168 242.995 54.6477C241.972 54.5799 240.826 54.5127 240.153 54.8227C237.724 55.9407 236.909 58.294 236.909 61.0162C236.909 64.8196 240.177 69.4439 244.208 69.4439C248.24 69.4439 251.507 64.8222 251.507 61.0181ZM230.077 59.5489C230.073 59.5508 229.709 59.6744 228.69 59.232C227.832 58.86 227.757 58.4537 227.751 58.3986C227.784 57.9993 227.538 57.633 227.182 57.5658C226.818 57.4903 226.459 57.7794 226.397 58.1996C226.373 58.3625 226.22 59.8113 228.2 60.6708C228.957 60.9991 229.515 61.1062 229.921 61.1062C230.426 61.1062 230.694 60.9414 230.817 60.8337C231.115 60.5706 231.218 60.0509 230.984 59.7156C230.754 59.3797 230.376 59.2878 230.077 59.5489ZM178.579 50.343C178.266 50.343 178.01 50.632 178.01 50.985V68.0013C178.01 68.3544 178.266 68.6428 178.579 68.6428C178.891 68.6428 179.148 68.3544 179.148 68.0013V50.985C179.148 50.632 178.892 50.343 178.579 50.343ZM208.968 0L208.979 100.607L142.499 50.2149L208.968 0ZM200.83 51.9478C200.83 52.8338 201.467 53.5532 202.253 53.5532C203.039 53.5532 203.676 52.8344 203.676 51.9478C203.676 51.0611 203.039 50.3423 202.253 50.3423C201.467 50.3423 200.83 51.0617 200.83 51.9478ZM198.099 48.8662C198.099 49.3986 198.481 49.8289 198.952 49.8289C199.423 49.8289 199.805 49.398 199.805 48.8662C199.805 48.3344 199.423 47.9034 198.952 47.9034C198.481 47.9034 198.099 48.3338 198.099 48.8662ZM196.676 52.3337C196.676 52.8294 197.032 53.2325 197.473 53.2325C197.912 53.2325 198.269 52.8294 198.269 52.3337C198.269 51.8368 197.912 51.4337 197.473 51.4337C197.032 51.4337 196.676 51.8368 196.676 52.3337ZM194.342 46.1047C194.342 46.6726 194.75 47.1327 195.252 47.1327C195.756 47.1327 196.164 46.6726 196.164 46.1047C196.164 45.5368 195.756 45.0779 195.252 45.0779C194.751 45.0773 194.342 45.5368 194.342 46.1047ZM192.692 52.4618C192.692 52.9219 193.023 53.2965 193.432 53.2965C193.84 53.2965 194.172 52.9225 194.172 52.4618C194.172 52.0004 193.84 51.627 193.432 51.627C193.024 51.6277 192.692 52.001 192.692 52.4618ZM189.989 61.6931C187.303 60.248 185.543 57.8643 185.543 55.1586H189.989V53.1685C189.989 50.471 185.01 45.142 185.01 42.3805C185.01 40.4556 184.795 35.2274 184.665 32.2352H185.607V28.3817H179.917V32.2352H180.858C180.727 35.2274 180.514 40.4556 180.514 42.3805C180.514 45.142 175.534 50.2149 175.534 53.1685V69.8635C175.534 70.7147 176.146 71.4042 176.9 71.4042H188.623C189.377 71.4042 189.989 70.714 189.989 69.8635C189.989 69.8635 189.989 65.8401 189.989 61.6931ZM205.298 56.2906H186.802C186.802 59.0704 190.648 61.3369 195.495 61.4992V69.8951C195.495 70.2158 192.08 70.2482 192.08 70.2482C191.721 70.2482 191.427 70.5803 191.427 70.9859C191.427 71.3915 191.721 71.7249 192.08 71.7249H199.991C200.352 71.7249 200.646 71.3915 200.646 70.9859C200.646 70.5803 200.352 70.2482 199.991 70.2482C199.991 70.2482 196.577 70.2158 196.577 69.8951V61.4998C201.437 61.3451 205.298 59.0761 205.298 56.2906ZM71.4884 112.886L137.957 163.1L71.4772 213.493L71.4884 112.886ZM84.9071 152.983C84.9071 153.603 85.4256 154.109 86.0592 154.109H89.2188C89.8518 154.109 90.3709 153.603 90.3709 152.983V151.897C90.3709 151.277 89.8518 150.771 89.2188 150.771H86.0592C85.4256 150.771 84.9071 151.277 84.9071 151.897V152.983ZM82.1755 176.441C82.1755 177.155 82.694 177.74 83.3276 177.74H109.478C110.112 177.74 110.63 177.155 110.63 176.441V156.438C110.63 155.723 110.112 155.138 109.478 155.138H105.995C105.041 152.699 103.907 150.001 103.559 150.001H94.0265C93.6793 150.001 92.5452 152.699 91.592 155.138H83.3281C82.6945 155.138 82.1761 155.723 82.1761 156.438L82.1755 176.441ZM89.9153 165.86C89.9153 160.293 93.9153 155.779 98.8493 155.779C103.784 155.779 107.784 160.293 107.784 165.86C107.784 171.428 103.784 175.941 98.8493 175.941C93.9153 175.942 89.9153 171.428 89.9153 165.86ZM92.8357 165.86C92.8357 169.609 95.5291 172.647 98.8499 172.647C102.172 172.647 104.865 169.609 104.865 165.86C104.865 162.112 102.172 159.074 98.8499 159.074C95.5285 159.074 92.8357 162.113 92.8357 165.86ZM96.8581 164.512C97.5681 162.901 98.0747 161.462 97.1822 160.961C96.2896 160.46 94.9909 161.36 94.2809 162.972C93.5709 164.583 93.7187 166.295 94.6107 166.795C95.5032 167.295 96.1486 166.123 96.8581 164.512ZM66.9245 112.886L66.9357 213.493L0.45555 163.1L66.9245 112.886ZM16.6766 166.455C19.2122 166.428 25.5921 166.314 33.66 165.823C35.2114 165.729 36.914 165.602 38.6862 165.457C38.5452 165.123 38.3873 164.773 38.1975 164.409C37.2892 162.668 34.9918 160.31 34.9682 160.286L35.886 159.145C35.986 159.247 38.3615 161.687 39.3731 163.627C39.6927 164.238 39.9382 164.816 40.1348 165.334C40.8167 165.276 41.5037 165.216 42.1963 165.153C42.0879 164.911 41.9716 164.663 41.8385 164.409C40.9319 162.671 38.6339 160.31 38.6109 160.286L39.5287 159.145C39.6287 159.247 42.0031 161.687 43.0153 163.627C43.2697 164.114 43.482 164.585 43.6573 165.019C44.3353 164.955 45.011 164.891 45.6845 164.825C45.6194 164.688 45.5548 164.551 45.4812 164.409C44.5746 162.671 42.2761 160.31 42.2536 160.286L43.1714 159.145C43.2714 159.247 45.6458 161.687 46.658 163.627C46.8489 163.993 47.009 164.343 47.154 164.681C47.8308 164.614 48.4993 164.547 49.1587 164.48C49.1458 164.456 49.1368 164.433 49.1239 164.409C48.2156 162.668 45.9188 160.31 45.8952 160.286L46.8124 159.145C46.9124 159.247 49.2884 161.687 50.3007 163.627C50.4254 163.865 50.5383 164.099 50.6433 164.327C54.3742 163.939 57.6299 163.575 59.579 163.353L59.4824 163.249C59.6604 163.002 60.3491 161.549 59.2858 156.736C59.1909 156.743 57.9523 152.234 57.058 149.739C57.0013 149.569 56.9002 149.46 56.7542 149.413C56.7542 149.413 54.9589 148.234 53.9355 150.064C52.9109 151.895 52.5952 154.675 50.5203 154.832C48.4464 154.989 47.6073 154.086 47.0208 153.194C46.4344 152.303 46.2524 151.894 46.0384 150.882C45.8255 149.871 45.7839 148.482 45.0992 148.185L44.3645 147.886C43.5348 147.543 42.667 148.137 42.0688 148.763C41.4717 149.389 40.4893 150.545 38.8249 151.46C37.1606 152.376 35.658 152.622 35.658 152.622L35.0277 153.37C34.98 153.374 34.9833 153.432 34.9833 153.432L34.9862 153.49L35.1294 153.788L34.4576 154.347L33.9189 154.098L33.8712 154.102L32.9915 154.636C32.9438 154.64 32.95 154.756 32.95 154.756L33.1584 155.09L32.418 155.555L31.8282 155.251L31.7805 155.254L31.7327 155.258L30.9031 155.847L30.9065 155.905L31.1688 156.352L30.4155 156.774L29.9218 156.463C29.9218 156.463 29.8707 156.409 29.874 156.467L28.991 156.943L28.9461 157.005L28.9495 157.063L29.1163 157.516L28.4417 158.023L27.9479 157.711L27.9002 157.715L27.8524 157.719L27.0166 158.191L26.9717 158.254L26.975 158.311L27.1424 158.765L26.26 159.311L25.8612 158.992C25.8612 158.992 25.81 158.937 25.7662 159C25.4899 159.196 25.2629 159.446 25.0377 159.697C24.9933 159.759 24.9933 159.759 25.0439 159.813L25.2152 160.11C25.0394 160.415 24.1682 160.724 22.419 161.783C20.6721 162.843 17.8697 164.32 16.6766 166.455ZM60.0907 168.507L59.8879 164.617L59.8846 164.557C55.2156 165.092 42.2188 166.272 33.719 167.055C23.6744 167.98 18.8561 167.669 16.4682 167.692L16.4205 170.377C16.4267 170.494 16.4772 170.547 16.575 170.598L19.0325 170.99C21.5849 171.375 24.2204 171.521 26.7902 171.322L59.9127 168.754C60.0076 168.746 60.0963 168.622 60.0907 168.507ZM254.62 159.503C254.62 158.864 254.434 158.383 254.035 157.986C252.841 156.806 250.212 156.725 248.648 156.835C248.287 160.827 247.263 164.434 245.783 167.367C250.296 164.804 254.62 161.593 254.62 159.503ZM213.532 112.886L280 163.1L213.52 213.493L213.532 112.886ZM233.756 142.435C233.607 144.17 235.857 145.639 235.671 147.796C235.486 149.954 235.282 151.307 235.282 151.307C235.282 151.307 237.792 148.767 237.981 146.585C238.169 144.403 235.915 142.967 236.065 141.223C236.215 139.481 236.454 137.715 236.454 137.715C236.454 137.715 233.906 140.701 233.756 142.435ZM223.764 153.596C223.764 161.603 226.38 168.569 230.239 172.186H242.329C242.704 171.835 243.056 171.426 243.406 171.013C247.478 169.013 256.533 164.051 256.533 159.503C256.533 158.252 256.105 157.167 255.296 156.366C253.57 154.656 250.469 154.565 248.76 154.663C248.772 154.305 248.804 153.958 248.804 153.596H227.746C227.691 154.704 227.723 156.25 228.065 158.06C228.762 161.745 229.859 163.54 229.869 163.559C230.17 164.045 230.069 164.718 229.64 165.06C229.472 165.194 229.279 165.259 229.088 165.259C228.79 165.259 228.496 165.102 228.311 164.809C228.256 164.723 226.983 162.679 226.196 158.511C225.823 156.539 225.777 154.856 225.833 153.596H223.764ZM219.639 173.261C219.639 174.789 223.116 176.119 228.247 176.809H244.321C249.452 176.119 252.929 174.789 252.929 173.261H219.639ZM196.748 161.35C196.895 162.062 196.998 162.792 196.998 163.556C196.998 164.258 196.915 164.935 196.789 165.595C196.476 167.236 195.812 168.728 194.87 169.951C194.344 170.632 193.739 171.231 193.066 171.726C191.71 172.724 190.093 173.309 188.353 173.309C186.613 173.309 184.996 172.724 183.64 171.726C182.967 171.231 182.362 170.632 181.837 169.951C180.515 168.238 179.709 166.006 179.709 163.556C179.709 161.106 180.515 158.873 181.837 157.161C182.362 156.48 182.967 155.881 183.64 155.386C184.996 154.387 186.613 153.802 188.353 153.802C190.093 153.802 191.71 154.387 193.066 155.386C193.739 155.881 194.344 156.48 194.87 157.161C195.779 158.34 196.421 159.777 196.748 161.35ZM192.865 159.356C192.537 158.932 191.965 158.891 191.593 159.262L189.081 161.748C188.858 161.633 188.614 161.561 188.353 161.561C188.193 161.561 188.048 161.619 187.901 161.664L184.409 156.852C184.091 156.417 183.525 156.356 183.14 156.709C182.756 157.065 182.699 157.705 183.014 158.141L186.656 163.162C186.631 163.293 186.585 163.417 186.585 163.556C186.585 164.657 187.376 165.551 188.352 165.551C189.329 165.551 190.12 164.656 190.12 163.556C190.12 163.517 190.102 163.483 190.1 163.445L192.781 160.791C193.157 160.421 193.194 159.777 192.865 159.356ZM183.641 174.331V176.291H193.067V174.331C191.644 175.124 190.049 175.582 188.353 175.582C186.659 175.583 185.063 175.124 183.641 174.331ZM193.067 152.781V150.82H183.641V152.781C185.064 151.987 186.66 151.53 188.354 151.53C190.049 151.529 191.644 151.987 193.067 152.781ZM208.968 112.886L208.979 213.493L142.499 163.1L208.968 112.886ZM200.576 163.466C200.576 162.226 200.986 161.222 198.784 161.155C198.265 158.285 196.85 155.784 194.87 154.052V149.255C194.87 148.996 194.683 148.786 194.454 148.786H192.292V144.234H184.415V148.786H182.253C182.024 148.786 181.838 148.996 181.838 149.255V154.052C179.321 156.253 177.694 159.686 177.694 163.556C177.694 167.425 179.321 170.859 181.838 173.059V177.856C181.838 178.115 182.024 178.325 182.253 178.325H184.415V182.877H192.292V178.325H194.454C194.683 178.325 194.87 178.115 194.87 177.856V173.059C196.891 171.291 198.322 168.721 198.812 165.775C200.98 165.7 200.576 164.701 200.576 163.466ZM142.509 169.393L208.979 219.606L142.498 270L142.509 169.393ZM149.112 211.13H180.274V210.071C180.274 209.219 179.664 208.53 178.909 208.53H168.877C165.035 208.53 163.924 202.365 157.181 202.365C151.633 202.365 149.112 207.277 149.112 210.071L149.112 211.13ZM146.206 227.27C146.334 227.478 146.543 227.601 146.767 227.601H149.328V234.248C149.328 234.674 149.634 235.019 150.011 235.019C150.389 235.019 150.694 234.674 150.694 234.248V227.601H179.376V234.248C179.376 234.674 179.681 235.019 180.059 235.019C180.436 235.019 180.742 234.674 180.742 234.248V227.601H182.535C182.759 227.601 182.969 227.478 183.097 227.27C183.223 227.062 183.253 226.797 183.175 226.562L180.404 218.182C180.378 218.105 180.319 218.058 180.276 217.997V212.479H149.113V217.873C149.024 217.957 148.942 218.054 148.9 218.182L146.128 226.562C146.049 226.797 146.079 227.062 146.206 227.27ZM179.321 219.317H176.769L177.555 223.139H172.376L172.032 219.317H169.739L169.984 223.139H165.545L165.399 219.317H163.352L163.156 223.139H158.716L158.961 219.317H156.915L156.325 223.139H151.432L152.217 219.317H149.979L147.749 226.06H181.547L179.321 219.317ZM133.533 238.39H122.684V220.857H133.533V238.39ZM128.791 237.521C128.791 237.095 128.485 236.751 128.108 236.751C127.731 236.751 127.425 237.095 127.425 237.521C127.425 237.947 127.731 238.292 128.108 238.292C128.486 238.292 128.791 237.947 128.791 237.521ZM132.726 221.854H123.491V236.654H132.726V221.854ZM137.947 169.393L137.957 270L71.4772 219.606L137.947 169.393ZM121.468 228.18H114.394H107.068H95.7459V206.024H125.716V219.361H126.523V205.159H94.9393V229.046H107.068V233.643H103.134V236.654H118.329V233.643H114.395V229.046H121.469L121.468 228.18ZM121.468 219.361H124.766V207.252H96.6957V226.953H121.468V219.361ZM134.339 219.992H121.876V239.256H134.339V219.992ZM66.4796 106.834L0 157.227L0.0101138 56.6202L66.4796 106.834ZM7.39717 113.656H37.9312L36.1276 103.797C36.0416 103.328 35.695 102.957 35.2429 102.763C35.2777 102.568 35.2462 102.357 35.1401 102.179L24.3131 84.1627C24.203 83.5568 23.8806 83.0383 23.4385 82.7068L23.1009 82.1453C22.9745 81.9349 22.7622 81.8075 22.537 81.8075H22.5353C22.3106 81.8075 22.0983 81.9336 21.9713 82.1446L21.8202 82.3944C20.9254 82.6422 20.2587 83.5466 20.2587 84.633C20.2587 84.7363 20.2738 84.8351 20.2856 84.9353L9.87263 102.179C9.73782 102.402 9.73276 102.672 9.81814 102.904C9.5019 103.117 9.26823 103.425 9.19971 103.797L7.39717 113.656ZM38.4575 116.532L38.2132 115.197H7.11575L6.8714 116.532C6.55684 118.255 8.03527 119.82 9.97766 119.82H35.3518C37.2937 119.82 38.7721 118.256 38.4575 116.532ZM22.3078 86.9438C21.8253 86.9438 21.3866 86.7467 21.0361 86.4311L11.264 102.612H33.7498L23.8514 86.1395C23.475 86.6282 22.9268 86.9438 22.3078 86.9438ZM231.926 104.071C231.906 103.433 231.432 102.934 230.867 102.956C230.302 102.978 229.859 103.513 229.879 104.151C229.898 104.789 230.372 105.288 230.937 105.266C231.502 105.244 231.945 104.71 231.926 104.071ZM279.99 56.6202L280 157.227L213.52 106.834L279.99 56.6202ZM231.095 108.056C233.707 105.754 238.932 104.157 241.464 103.487C243.589 102.926 246.043 102.629 248.566 102.629C252.821 102.629 256.956 103.437 260.209 104.905C262.099 105.758 263.363 106.504 264.287 107.049C265.338 107.669 265.821 107.942 266.288 107.942C266.516 107.942 266.787 107.884 267.139 107.757C267.283 107.705 267.424 107.668 267.568 107.621C265.922 106.879 264.351 105.93 265.25 105.276C266.924 104.06 271.567 105.179 271.567 105.179C271.567 105.179 268.75 101.23 262.006 102.867C259.503 103.475 259.678 101.72 254.494 99.5932C252.986 98.9746 251.146 98.5411 249.372 98.2445C248.537 98.1051 247.864 94.8429 247.002 94.7738C245.755 94.6743 243.804 97.9561 242.556 98.0049C240.205 98.0956 237.485 98.4023 235.459 99.0146C231.815 100.117 225.822 102.7 225.205 105.034C224.886 106.241 227.982 107.347 231.095 108.056ZM270.202 110.767C271.908 109.611 276.603 110.767 276.603 110.767C276.603 110.767 273.702 107.01 267.555 109.226C265.116 110.106 264.823 108.648 259.701 106.336C254.58 104.025 247.239 103.543 241.776 104.988C238.104 105.959 231.617 108.263 230.935 110.575C230.252 112.886 242.374 115.294 242.715 114.716C243.057 114.138 243.057 111.152 243.057 111.152C243.057 111.152 243.142 113.849 246.898 116.739C250.654 119.628 258.08 117.606 255.861 117.028C253.642 116.45 251.678 114.041 251.678 114.041C251.678 114.041 253.252 114.758 253.532 114.826C258.536 116.039 266.113 111.907 267.811 113.367C269.604 114.908 275.579 113.945 275.579 113.945C275.579 113.945 268.494 111.923 270.202 110.767ZM236.654 108.647C236.089 108.647 235.63 109.165 235.63 109.803C235.63 110.441 236.089 110.959 236.654 110.959C237.22 110.959 237.678 110.441 237.678 109.803C237.678 109.165 237.22 108.647 236.654 108.647ZM145.458 121.619L141.361 139.598L135.215 142.937L135.443 135.489L135.898 121.876L130.207 122.133L128.575 116.148L124.916 119.815L122.923 144.736L111.541 136.003L117.46 132.15L116.933 121.07L112.224 123.674L109.037 111.089L116.396 109.745L116.094 99.2744L109.947 90.2839L115.41 89.0005L122.24 74.6163L126.565 86.689L130.89 88.4865L130.63 92.0047L138.174 91.568L134.531 74.359L147.279 80.5234L144.378 91.35L152.515 89.5132L157.295 72.5622L168.449 81.8081L158.433 90.0273L167.766 90.798L170.953 100.558L163.441 100.301L162.531 111.346L170.043 111.603L172.774 121.62L162.987 122.391L160.71 140.627L154.791 144.993L150.921 121.362L145.477 121.608L145.458 121.619ZM147.734 103.382L147.051 109.804L147.717 111.262L154.335 111.087L153.425 101.071L147.486 102.52L147.734 103.382ZM136.581 101.071L131.572 101.327L130.034 95.0787L125.882 99.5292V107.748L132.256 108.262L130.775 112.021L136.581 111.858L136.581 101.071Z" fill="#D31F2A"/>
</svg>
