<svg width="40" height="24" viewBox="0 0 40 24" fill="none" xmlns="http://www.w3.org/2000/svg">
<g clip-path="url(#clip0_78_2064)">
<path d="M0.689687 23.9804H39.3104C39.6912 23.9804 40.0001 23.6981 40.0001 23.3498V0.650347C40.0001 0.302132 39.6912 0.0197754 39.3104 0.0197754H0.689687C0.308828 0.0198468 0 0.302132 0 0.650347V23.3498C0 23.6981 0.308828 23.9804 0.689687 23.9804Z" fill="#C8414B"/>
<path d="M40 5.06445H0V18.9366H40V5.06445Z" fill="#FFD250"/>
<path d="M16.8969 12.0001L17.4816 9.59431C17.5355 9.37274 17.3511 9.1626 17.1028 9.1626H16.6909C16.4427 9.1626 16.2584 9.37274 16.3121 9.59431L16.8969 12.0001Z" fill="#C8414B"/>
<path d="M17.5863 10.7385H16.207V16.0978H17.5863V10.7385Z" fill="#F5F5F5"/>
<path d="M17.9303 10.1086H15.8613V10.7392H17.9303V10.1086Z" fill="#FAB446"/>
<path d="M17.9318 12H14.4834V12.6306H17.9318V12Z" fill="#C8414B"/>
<path d="M17.9313 14.5223L15.8623 13.8918V13.2612L17.9313 13.8918V14.5223Z" fill="#C8414B"/>
<path d="M6.55214 12.0001L7.13691 9.59431C7.19081 9.37274 7.00636 9.1626 6.75808 9.1626H6.3462C6.098 9.1626 5.91362 9.37274 5.96737 9.59431L6.55214 12.0001Z" fill="#C8414B"/>
<path d="M8.96508 10.1084C8.58422 10.1084 8.27539 10.3908 8.27539 10.739V14.8375C8.27539 15.6035 9.05742 17.0444 11.7237 17.0444C14.3899 17.0444 15.172 15.6036 15.172 14.8375V10.739C15.172 10.3908 14.8631 10.1084 14.4823 10.1084H8.96508Z" fill="#F5F5F5"/>
<path d="M11.7237 13.2611H8.27539V10.739C8.27539 10.3908 8.58422 10.1084 8.96508 10.1084H11.7237V13.2611Z" fill="#C8414B"/>
<path d="M11.7236 13.2612H15.1719V14.8376C15.1719 15.7082 14.4 16.4139 13.4478 16.4139C12.4955 16.4139 11.7236 15.7082 11.7236 14.8376V13.2612Z" fill="#C8414B"/>
<path d="M8.27539 13.2612H11.7237V14.8376C11.7237 15.7082 10.9518 16.4139 9.99953 16.4139C9.04727 16.4139 8.27539 15.7082 8.27539 14.8376V13.2612Z" fill="#FAB446"/>
<path d="M11.0344 16.0916V13.2612H10.3447V16.3822C10.6013 16.3346 10.8331 16.2307 11.0344 16.0916Z" fill="#C8414B"/>
<path d="M9.65551 16.3822V13.2612H8.96582V16.0916C9.16723 16.2307 9.39902 16.3346 9.65551 16.3822Z" fill="#C8414B"/>
<path d="M11.0348 12H8.96582V12.6306H11.0348V12Z" fill="#FFB441"/>
<path d="M11.0348 10.7385H8.96582V11.3691H11.0348V10.7385Z" fill="#FAB446"/>
<path d="M10.6898 11.1135H9.31055V12.2558H10.6898V11.1135Z" fill="#FAB446"/>
<path d="M7.24062 10.7385H5.86133V16.0978H7.24062V10.7385Z" fill="#F5F5F5"/>
<path d="M7.58656 15.7837H5.51758V16.4143H7.58656V15.7837Z" fill="#FAB446"/>
<path d="M7.58656 10.1086H5.51758V10.7392H7.58656V10.1086Z" fill="#FAB446"/>
<path d="M7.93145 16.4136H5.17285V17.0441H7.93145V16.4136Z" fill="#5064AA"/>
<path d="M18.276 15.7837H16.207V16.4143H18.276V15.7837Z" fill="#FAB446"/>
<path d="M18.2762 16.4136H15.5176V17.0441H18.2762V16.4136Z" fill="#5064AA"/>
<path d="M13.7932 9.47803H9.65527V10.1086H13.7932V9.47803Z" fill="#FAB446"/>
<path d="M12.0696 7.58643H11.3799V9.47807H12.0696V7.58643Z" fill="#FFB441"/>
<path d="M11.0345 8.53195C10.464 8.53195 10 8.10767 10 7.58617C10 7.0646 10.4641 6.64038 11.0345 6.64038C11.6049 6.64038 12.0689 7.06467 12.0689 7.58617C12.069 8.10767 11.6049 8.53195 11.0345 8.53195ZM11.0345 7.27088C10.8442 7.27088 10.6896 7.41217 10.6896 7.58617C10.6896 7.7601 10.8441 7.90145 11.0345 7.90145C11.2248 7.90145 11.3793 7.76017 11.3793 7.58617C11.3793 7.41224 11.2248 7.27088 11.0345 7.27088Z" fill="#F5F5F5"/>
<path d="M12.4143 8.53195C11.8439 8.53195 11.3799 8.10767 11.3799 7.58617C11.3799 7.0646 11.8439 6.64038 12.4143 6.64038C12.9848 6.64038 13.4488 7.06467 13.4488 7.58617C13.4488 8.10767 12.9847 8.53195 12.4143 8.53195ZM12.4143 7.27088C12.2241 7.27088 12.0695 7.41217 12.0695 7.58617C12.0695 7.7601 12.224 7.90145 12.4143 7.90145C12.6046 7.90145 12.7592 7.76017 12.7592 7.58617C12.7591 7.41224 12.6046 7.27088 12.4143 7.27088Z" fill="#F5F5F5"/>
<path d="M13.7932 9.16257C13.2228 9.16257 12.7588 8.73828 12.7588 8.21678C12.7588 7.69521 13.2229 7.271 13.7932 7.271C14.3637 7.271 14.8277 7.69528 14.8277 8.21678C14.8277 8.73828 14.3636 9.16257 13.7932 9.16257ZM13.7932 7.9015C13.603 7.9015 13.4484 8.04278 13.4484 8.21678C13.4484 8.39071 13.6029 8.53207 13.7932 8.53207C13.9835 8.53207 14.1381 8.39078 14.1381 8.21678C14.1381 8.04278 13.9835 7.9015 13.7932 7.9015Z" fill="#F5F5F5"/>
<path d="M9.65555 9.16257C9.08508 9.16257 8.62109 8.73828 8.62109 8.21678C8.62109 7.69521 9.08516 7.271 9.65555 7.271C10.226 7.271 10.69 7.69528 10.69 8.21678C10.6901 8.73828 10.226 9.16257 9.65555 9.16257ZM9.65555 7.9015C9.46531 7.9015 9.3107 8.04278 9.3107 8.21678C9.3107 8.39071 9.46523 8.53207 9.65555 8.53207C9.84586 8.53207 10.0004 8.39071 10.0004 8.21671C10.0004 8.04278 9.84586 7.9015 9.65555 7.9015Z" fill="#F5F5F5"/>
<path d="M13.7934 14.5221V14.8374C13.7934 15.0112 13.6388 15.1527 13.4486 15.1527C13.2584 15.1527 13.1038 15.0112 13.1038 14.8374V14.5221H13.7934ZM14.483 13.8916H12.4141V14.8374C12.4141 15.359 12.8781 15.7832 13.4485 15.7832C14.019 15.7832 14.483 15.3589 14.483 14.8374L14.483 13.8916Z" fill="#FAB446"/>
<path d="M13.4485 12.6307C13.0676 12.6307 12.7588 12.3484 12.7588 12.0002V11.3696C12.7588 11.0214 13.0676 10.739 13.4485 10.739C13.8293 10.739 14.1382 11.0214 14.1382 11.3696V12.0002C14.1382 12.3484 13.8293 12.6307 13.4485 12.6307Z" fill="#FFA0D2"/>
<path d="M11.7239 14.2065C12.2952 14.2065 12.7584 13.7831 12.7584 13.2607C12.7584 12.7384 12.2952 12.3149 11.7239 12.3149C11.1526 12.3149 10.6895 12.7384 10.6895 13.2607C10.6895 13.7831 11.1526 14.2065 11.7239 14.2065Z" fill="#5064AA"/>
<path d="M12.0696 6.32495H11.3799V8.21659H12.0696V6.32495Z" fill="#FAB446"/>
<path d="M9.65551 9.47782L8.96582 8.84725L9.3698 8.4779C9.99426 7.90697 10.8413 7.58618 11.7245 7.58618C12.6077 7.58618 13.4546 7.90697 14.0792 8.4779L14.4832 8.84725L13.7935 9.47782H9.65551Z" fill="#C8414B"/>
<path d="M11.7247 9.16255C11.9152 9.16255 12.0696 9.02139 12.0696 8.84727C12.0696 8.67314 11.9152 8.53198 11.7247 8.53198C11.5343 8.53198 11.3799 8.67314 11.3799 8.84727C11.3799 9.02139 11.5343 9.16255 11.7247 9.16255Z" fill="#FFD250"/>
<path d="M10.3448 9.16255C10.5353 9.16255 10.6897 9.02139 10.6897 8.84727C10.6897 8.67314 10.5353 8.53198 10.3448 8.53198C10.1544 8.53198 10 8.67314 10 8.84727C10 9.02139 10.1544 9.16255 10.3448 9.16255Z" fill="#FFD250"/>
<path d="M13.1036 9.16255C13.2941 9.16255 13.4485 9.02139 13.4485 8.84727C13.4485 8.67314 13.2941 8.53198 13.1036 8.53198C12.9132 8.53198 12.7588 8.67314 12.7588 8.84727C12.7588 9.02139 12.9132 9.16255 13.1036 9.16255Z" fill="#FFD250"/>
<path d="M8.96602 12H5.51758V12.6306H8.96602V12Z" fill="#C8414B"/>
<path d="M5.51758 14.5221L7.58648 13.8916V13.261L5.51758 13.8916V14.5221Z" fill="#C8414B"/>
</g>
<defs>
<clipPath id="clip0_78_2064">
<rect width="40" height="24" rx="4" fill="white"/>
</clipPath>
</defs>
</svg>
