<svg width="40" height="24" viewBox="0 0 40 24" fill="none" xmlns="http://www.w3.org/2000/svg">
<g clip-path="url(#clip0_78_916)">
<path d="M40 0H0V24H40V0Z" fill="#B22234"/>
<path fill-rule="evenodd" clip-rule="evenodd" d="M40 3.49125H0V1.60034H40V3.49125ZM0 5.38216H40V7.27307H0V5.38216ZM40 11.0549H0V9.16398H40V11.0549ZM0 12.9458H40V14.8367H0V12.9458ZM40 18.6185H0V16.7276H40V18.6185ZM0 20.5094H40V22.4003H0V20.5094Z" fill="white"/>
<path d="M18.24 0H0V12.9231H18.24V0Z" fill="#3C3B6E"/>
<path d="M1.51872 0.442871L1.95278 1.77876L0.816406 0.953135H2.22104L1.08467 1.77876L1.51872 0.442871Z" fill="white"/>
<path d="M4.548 0.442871L4.98206 1.77876L3.84568 0.953135H5.25032L4.11395 1.77876L4.548 0.442871Z" fill="white"/>
<path d="M7.57728 0.442871L8.01134 1.77876L6.87496 0.953135H8.2796L7.14322 1.77876L7.57728 0.442871Z" fill="white"/>
<path d="M16.6651 0.442871L17.0992 1.77876L15.9628 0.953135H17.3674L16.2311 1.77876L16.6651 0.442871Z" fill="white"/>
<path d="M13.6358 0.442871L14.0699 1.77876L12.9335 0.953135H14.3382L13.2018 1.77876L13.6358 0.442871Z" fill="white"/>
<path d="M10.6066 0.442871L11.0406 1.77876L9.90424 0.953135H11.3089L10.1725 1.77876L10.6066 0.442871Z" fill="white"/>
<path d="M1.51872 3.11467L1.95278 4.45056L0.816406 3.62494H2.22104L1.08467 4.45056L1.51872 3.11467Z" fill="white"/>
<path d="M4.548 3.11467L4.98206 4.45056L3.84568 3.62494H5.25032L4.11395 4.45056L4.548 3.11467Z" fill="white"/>
<path d="M7.57728 3.11467L8.01134 4.45056L6.87496 3.62494H8.2796L7.14322 4.45056L7.57728 3.11467Z" fill="white"/>
<path d="M16.6651 3.11467L17.0992 4.45056L15.9628 3.62494H17.3674L16.2311 4.45056L16.6651 3.11467Z" fill="white"/>
<path d="M13.6358 3.11467L14.0699 4.45056L12.9335 3.62494H14.3382L13.2018 4.45056L13.6358 3.11467Z" fill="white"/>
<path d="M10.6066 3.11467L11.0406 4.45056L9.90424 3.62494H11.3089L10.1725 4.45056L10.6066 3.11467Z" fill="white"/>
<path d="M1.51872 5.78648L1.95278 7.12237L0.816406 6.29674H2.22104L1.08467 7.12237L1.51872 5.78648Z" fill="white"/>
<path d="M4.548 5.78648L4.98206 7.12237L3.84568 6.29674H5.25032L4.11395 7.12237L4.548 5.78648Z" fill="white"/>
<path d="M7.57728 5.78648L8.01134 7.12237L6.87496 6.29674H8.2796L7.14322 7.12237L7.57728 5.78648Z" fill="white"/>
<path d="M16.6651 5.78648L17.0992 7.12237L15.9628 6.29674H17.3674L16.2311 7.12237L16.6651 5.78648Z" fill="white"/>
<path d="M13.6358 5.78648L14.0699 7.12237L12.9335 6.29674H14.3382L13.2018 7.12237L13.6358 5.78648Z" fill="white"/>
<path d="M10.6066 5.78648L11.0406 7.12237L9.90424 6.29674H11.3089L10.1725 7.12237L10.6066 5.78648Z" fill="white"/>
<path d="M1.51872 8.45828L1.95278 9.79417L0.816406 8.96854H2.22104L1.08467 9.79417L1.51872 8.45828Z" fill="white"/>
<path d="M4.548 8.45828L4.98206 9.79417L3.84568 8.96854H5.25032L4.11395 9.79417L4.548 8.45828Z" fill="white"/>
<path d="M7.57728 8.45828L8.01134 9.79417L6.87496 8.96854H8.2796L7.14322 9.79417L7.57728 8.45828Z" fill="white"/>
<path d="M16.6651 8.45828L17.0992 9.79417L15.9628 8.96854H17.3674L16.2311 9.79417L16.6651 8.45828Z" fill="white"/>
<path d="M13.6358 8.45828L14.0699 9.79417L12.9335 8.96854H14.3382L13.2018 9.79417L13.6358 8.45828Z" fill="white"/>
<path d="M10.6066 8.45828L11.0406 9.79417L9.90424 8.96854H11.3089L10.1725 9.79417L10.6066 8.45828Z" fill="white"/>
<path d="M1.51872 11.1301L1.95278 12.466L0.816406 11.6403H2.22104L1.08467 12.466L1.51872 11.1301Z" fill="white"/>
<path d="M4.548 11.1301L4.98206 12.466L3.84568 11.6403H5.25032L4.11395 12.466L4.548 11.1301Z" fill="white"/>
<path d="M7.57728 11.1301L8.01134 12.466L6.87496 11.6403H8.2796L7.14322 12.466L7.57728 11.1301Z" fill="white"/>
<path d="M16.6651 11.1301L17.0992 12.466L15.9628 11.6403H17.3674L16.2311 12.466L16.6651 11.1301Z" fill="white"/>
<path d="M13.6358 11.1301L14.0699 12.466L12.9335 11.6403H14.3382L13.2018 12.466L13.6358 11.1301Z" fill="white"/>
<path d="M10.6066 11.1301L11.0406 12.466L9.90424 11.6403H11.3089L10.1725 12.466L10.6066 11.1301Z" fill="white"/>
<path d="M3.02716 1.77877L3.46122 3.11466L2.32484 2.28904H3.72948L2.59311 3.11466L3.02716 1.77877Z" fill="white"/>
<path d="M6.05644 1.77877L6.4905 3.11466L5.35412 2.28904H6.75876L5.62238 3.11466L6.05644 1.77877Z" fill="white"/>
<path d="M9.08572 1.77877L9.51978 3.11466L8.3834 2.28904H9.78804L8.65166 3.11466L9.08572 1.77877Z" fill="white"/>
<path d="M15.1443 1.77877L15.5783 3.11466L14.442 2.28904H15.8466L14.7102 3.11466L15.1443 1.77877Z" fill="white"/>
<path d="M12.115 1.77877L12.5491 3.11466L11.4127 2.28904H12.8173L11.6809 3.11466L12.115 1.77877Z" fill="white"/>
<path d="M3.02716 4.45057L3.46122 5.78646L2.32484 4.96084H3.72948L2.59311 5.78646L3.02716 4.45057Z" fill="white"/>
<path d="M6.05644 4.45057L6.4905 5.78646L5.35412 4.96084H6.75876L5.62238 5.78646L6.05644 4.45057Z" fill="white"/>
<path d="M9.08572 4.45057L9.51978 5.78646L8.3834 4.96084H9.78804L8.65166 5.78646L9.08572 4.45057Z" fill="white"/>
<path d="M15.1443 4.45057L15.5783 5.78646L14.442 4.96084H15.8466L14.7102 5.78646L15.1443 4.45057Z" fill="white"/>
<path d="M12.115 4.45057L12.5491 5.78646L11.4127 4.96084H12.8173L11.6809 5.78646L12.115 4.45057Z" fill="white"/>
<path d="M3.02716 7.12238L3.46122 8.45827L2.32484 7.63264H3.72948L2.59311 8.45827L3.02716 7.12238Z" fill="white"/>
<path d="M6.05644 7.12238L6.4905 8.45827L5.35412 7.63264H6.75876L5.62238 8.45827L6.05644 7.12238Z" fill="white"/>
<path d="M9.08572 7.12238L9.51978 8.45827L8.3834 7.63264H9.78804L8.65166 8.45827L9.08572 7.12238Z" fill="white"/>
<path d="M15.1443 7.12238L15.5783 8.45827L14.442 7.63264H15.8466L14.7102 8.45827L15.1443 7.12238Z" fill="white"/>
<path d="M12.115 7.12238L12.5491 8.45827L11.4127 7.63264H12.8173L11.6809 8.45827L12.115 7.12238Z" fill="white"/>
<path d="M3.02716 9.79418L3.46122 11.1301L2.32484 10.3044H3.72948L2.59311 11.1301L3.02716 9.79418Z" fill="white"/>
<path d="M6.05644 9.79418L6.4905 11.1301L5.35412 10.3044H6.75876L5.62238 11.1301L6.05644 9.79418Z" fill="white"/>
<path d="M9.08572 9.79418L9.51978 11.1301L8.3834 10.3044H9.78804L8.65166 11.1301L9.08572 9.79418Z" fill="white"/>
<path d="M15.1443 9.79418L15.5783 11.1301L14.442 10.3044H15.8466L14.7102 11.1301L15.1443 9.79418Z" fill="white"/>
<path d="M12.115 9.79418L12.5491 11.1301L11.4127 10.3044H12.8173L11.6809 11.1301L12.115 9.79418Z" fill="white"/>
</g>
<defs>
<clipPath id="clip0_78_916">
<rect width="40" height="24" rx="4" fill="white"/>
</clipPath>
</defs>
</svg>
