<svg width="280" height="270" viewBox="0 0 280 270" fill="none" xmlns="http://www.w3.org/2000/svg">
<g clip-path="url(#clip0_78_2537)">
<mask id="mask0_78_2537" style="mask-type:luminance" maskUnits="userSpaceOnUse" x="0" y="0" width="280" height="270">
<path d="M280 0H0V270H280V0Z" fill="white"/>
</mask>
<g mask="url(#mask0_78_2537)">
<mask id="mask1_78_2537" style="mask-type:luminance" maskUnits="userSpaceOnUse" x="0" y="99" width="280" height="72">
<path d="M280 99H0V171H280V99Z" fill="white"/>
</mask>
<g mask="url(#mask1_78_2537)">
<path d="M8.69297 150.174L0.145508 119.794H5.75111L12.318 143.129L19.3554 119.792L24.582 119.794L31.6436 143.251L38.2404 119.801L43.846 119.792L35.2948 150.169L28.797 150.163L21.9706 127.474L15.1386 150.169L8.69297 150.174Z" fill="#BE11A5"/>
<path d="M47.7119 119.81H53.0487V150.154H47.7119V119.81Z" fill="#BE11A5"/>
<path d="M64.4581 145.395H77.4501V150.154H59.2314V119.81H64.4581V145.395Z" fill="#BE11A5"/>
<path d="M93.8631 119.846C98.2441 119.846 101.888 121.315 104.757 124.22C107.665 127.125 109.138 130.73 109.138 135C109.138 139.235 107.665 142.839 104.757 145.78C101.888 148.685 98.2441 150.154 93.8631 150.154H81.3135V119.81H93.8631V119.846ZM93.8631 145.429C96.8815 145.429 99.3473 144.45 101.188 142.49C103.101 140.53 104.059 138.01 104.059 135.034C104.059 131.99 103.101 129.541 101.188 127.58C99.31 125.62 96.8441 124.639 93.8631 124.639H86.5775V145.429H93.8631Z" fill="#BE11A5"/>
<path d="M137.292 141.485C137.292 143.973 136.373 146.039 134.496 147.685C132.62 149.33 130.411 150.17 127.688 150.17H114.033V119.81H126.693C129.306 119.81 131.515 120.65 133.318 122.225C135.158 123.836 136.041 125.833 136.041 128.214C136.041 130.876 134.938 132.907 132.803 134.413C135.601 135.814 137.292 138.334 137.292 141.485ZM119.295 124.502V132.487H126.73C129.049 132.487 130.815 130.736 130.815 128.495C130.815 126.254 129.049 124.502 126.73 124.502H119.295ZM127.723 145.478C130.152 145.478 132.067 143.622 132.067 141.241C132.067 138.859 130.152 137.003 127.723 137.003H119.295V145.514H127.723V145.478Z" fill="#BE11A5"/>
<path d="M147.487 145.408H161.62V150.17H142.261V119.81H161.4V124.573H147.487V132.451H160.259V137.18H147.487V145.408Z" fill="#BE11A5"/>
<path d="M184.512 150.17L177.74 139.104H171.556V150.17H166.331V119.81H179.101C181.972 119.81 184.4 120.755 186.351 122.681C188.339 124.537 189.369 126.848 189.369 129.58C189.369 133.432 186.829 136.969 183.04 138.37L190.29 150.17H184.512ZM171.556 124.502V134.658H179.065C181.862 134.658 184.07 132.417 184.07 129.58C184.07 126.779 181.824 124.502 179.065 124.502H171.556Z" fill="#BE11A5"/>
<path d="M212.445 150.17L205.71 139.099H199.526V150.17H194.301V119.794H207.071C209.942 119.794 212.372 120.74 214.323 122.666C216.309 124.524 217.339 126.837 217.339 129.569C217.339 133.423 214.801 136.962 211.009 138.364L218.259 150.17H212.445ZM199.526 124.49V134.649H207.035C209.831 134.649 212.04 132.408 212.04 129.569C212.04 126.767 209.796 124.49 207.035 124.49H199.526Z" fill="#BE11A5"/>
<path d="M222.089 119.797H227.316V150.17H222.089V119.797Z" fill="#BE11A5"/>
<path d="M238.723 145.408H252.857V150.17H233.496V119.81H252.635V124.573H238.723V132.451H251.495V137.18H238.723V145.408Z" fill="#BE11A5"/>
<path d="M256.5 143.26L261.027 140.74C262.315 144.169 264.928 145.85 268.938 145.85C272.914 145.85 274.864 144.239 274.864 141.86C274.864 140.6 274.312 139.691 273.281 139.061C272.251 138.395 270.338 137.66 267.614 136.89C264.558 136.015 263.05 135.455 260.915 134.125C258.856 132.725 257.823 130.73 257.823 128C257.823 125.305 258.817 123.205 260.842 121.63C262.83 120.02 265.258 119.25 268.092 119.25C273.209 119.25 277.145 121.77 279.208 125.935L274.79 128.351C273.464 125.55 271.221 124.115 268.092 124.115C265.036 124.115 263.086 125.584 263.086 127.895C263.086 130.135 264.631 131.186 269.527 132.62C270.743 133.006 271.626 133.285 272.176 133.495C272.766 133.67 273.539 133.985 274.532 134.37C275.564 134.755 276.374 135.211 276.852 135.596C278.545 136.856 280.347 138.92 280.126 141.826C280.126 144.554 279.096 146.759 276.998 148.37C274.937 149.98 272.214 150.75 268.829 150.75C262.645 150.716 258.156 147.915 256.5 143.26Z" fill="#BE11A5"/>
</g>
</g>
</g>
<defs>
<clipPath id="clip0_78_2537">
<rect width="280" height="270" fill="white"/>
</clipPath>
</defs>
</svg>
