<svg width="280" height="270" viewBox="0 0 280 270" fill="none" xmlns="http://www.w3.org/2000/svg">
<g clip-path="url(#clip0_78_2561)">
<path d="M265.638 261.958L224.154 0.22915L224.126 0.0559082H223.307L214.765 53.8403L199.213 151.756L199.176 151.679C193.786 140.78 186.182 133.967 176.605 131.43L173.684 130.739L176.581 129.888C192.375 123.384 202.992 100.526 202.992 72.9874C202.992 35.2233 187.492 8.86427 165.289 8.86427H119.093V10.7763H132.516V205.91L99.916 0.228508L99.8866 0.0559082H99.0679L90.5251 53.8403L57.5764 261.285L57.3737 261.339C56.8106 261.498 56.2537 261.624 55.7026 261.72C54.8738 261.869 54.0498 261.958 53.2232 261.958H19.9312L83.2149 10.7757L83.6853 8.88801H6.28684V86.59H7.10808C7.25368 48.7425 16.8722 10.7757 38.1237 10.7757H63.7619L0 263.84H85.8995V189.396H85.0783C84.9663 222.384 76.806 253.716 59.0607 260.791L58.4965 261.011L72.011 175.889H109.869L123.511 261.958H110.054V263.84H162.872V261.958H149.357V132.127H164.951C180.82 132.127 189.921 148.373 189.921 176.686V199.716C189.921 202.254 189.997 205.964 190.08 209.067V209.18L181.698 261.946H170.749V263.828H193.414V261.946H182.582L190.215 213.897C190.231 214.361 190.239 214.641 190.239 214.641L190.449 218.971L190.652 221.835C191.925 239.553 194.883 252.578 199.439 260.546L200.094 261.636C203.556 267.151 207.857 269.944 212.886 269.944C219.547 269.944 223.988 266.139 227.655 257.182L227.175 256.145C223.796 263.292 220.961 266.187 217.408 266.187C211.355 266.187 208.187 249.362 208.187 232.77V200.502C208.219 192.496 207.672 184.532 206.568 176.936L206.417 175.936V175.9H234.108L247.75 261.97H234.293V263.852H280V261.97L265.638 261.958ZM72.3122 174.006L90.9622 56.5923L109.57 174.006H72.3122ZM149.365 130.239V10.7757H161.268C177.169 10.7757 185.563 32.436 185.563 73.3929C185.563 116.952 180.744 130.239 164.951 130.239H149.365ZM206.095 174.006L206.014 173.542C204.783 166.674 202.992 160.407 200.735 155.079L199.956 153.292L199.873 153.114L215.191 56.5923L233.799 174.006H206.095Z" fill="black"/>
</g>
<defs>
<clipPath id="clip0_78_2561">
<rect width="280" height="270" fill="white"/>
</clipPath>
</defs>
</svg>
