<svg width="24" height="24" viewBox="0 0 24 24" fill="none" xmlns="http://www.w3.org/2000/svg">
<g clip-path="url(#clip0_473_18478)">
<path d="M23 11H3.41406L7.20701 7.20701C7.38984 7.01854 7.4912 6.76571 7.4892 6.50314C7.4872 6.24056 7.38201 5.98931 7.19634 5.80364C7.01066 5.61796 6.75941 5.51277 6.49683 5.51077C6.23426 5.50877 5.98144 5.61013 5.79296 5.79296L0.293609 11.2923C0.24692 11.3391 0.204966 11.3904 0.168359 11.4455C0.152009 11.4699 0.140859 11.4963 0.126909 11.5218C0.108363 11.5527 0.0915372 11.5847 0.076509 11.6176C0.064254 11.6506 0.0537889 11.6843 0.045159 11.7185C0.036709 11.7472 0.025659 11.7745 0.019759 11.8042C-0.0059353 11.9334 -0.0059353 12.0665 0.019759 12.1958C0.025659 12.2255 0.036709 12.2528 0.045159 12.2815C0.0537889 12.3157 0.064254 12.3494 0.076509 12.3824C0.0915372 12.4152 0.108363 12.4472 0.126909 12.4782C0.140859 12.5037 0.151909 12.5301 0.168359 12.5545C0.204966 12.6096 0.24692 12.6609 0.293609 12.7077L5.79296 18.207C5.98144 18.3898 6.23426 18.4912 6.49683 18.4892C6.75941 18.4872 7.01066 18.382 7.19634 18.1963C7.38201 18.0107 7.4872 17.7594 7.4892 17.4968C7.4912 17.2343 7.38984 16.9814 7.20701 16.793L3.41406 13H23C23.2652 13 23.5196 12.8946 23.7071 12.7071C23.8947 12.5195 24 12.2652 24 12C24 11.7347 23.8947 11.4804 23.7071 11.2929C23.5196 11.1053 23.2652 11 23 11Z" fill="#848484"/>
</g>
<defs>
<clipPath id="clip0_473_18478">
<rect width="24" height="24" fill="white"/>
</clipPath>
</defs>
</svg>
