<svg width="20" height="20" viewBox="0 0 20 20" fill="none" xmlns="http://www.w3.org/2000/svg">
<path fill-rule="evenodd" clip-rule="evenodd" d="M6.04102 3.12533C6.04102 1.97473 6.97376 1.04199 8.12435 1.04199H11.8743C13.0249 1.04199 13.9577 1.97473 13.9577 3.12533V3.54199H18.1243C18.5846 3.54199 18.9577 3.91509 18.9577 4.37533C18.9577 4.83556 18.5846 5.20866 18.1243 5.20866H17.0827V15.6253C17.0827 17.4663 15.5903 18.9587 13.7493 18.9587H6.24935C4.4084 18.9587 2.91602 17.4663 2.91602 15.6253V5.20866H1.87435C1.41411 5.20866 1.04102 4.83556 1.04102 4.37533C1.04102 3.91509 1.41411 3.54199 1.87435 3.54199H6.04102V3.12533ZM7.70768 3.54199H12.291V3.12533C12.291 2.89521 12.1045 2.70866 11.8743 2.70866H8.12435C7.89423 2.70866 7.70768 2.89521 7.70768 3.12533V3.54199ZM4.58268 5.20866V15.6253C4.58268 16.5458 5.32887 17.292 6.24935 17.292H13.7493C14.6698 17.292 15.416 16.5458 15.416 15.6253V5.20866H4.58268ZM9.99935 6.66699C10.4596 6.66699 10.8327 7.04009 10.8327 7.50033L10.8327 15.0003C10.8327 15.4606 10.4596 15.8337 9.99935 15.8337C9.53911 15.8337 9.16602 15.4606 9.16602 15.0003L9.16602 7.50033C9.16602 7.04009 9.53911 6.66699 9.99935 6.66699Z" fill="#FF4242"/>
</svg>
