<svg width="66" height="40" viewBox="0 0 66 40" fill="none" xmlns="http://www.w3.org/2000/svg">
<g clip-path="url(#clip0_197_14576)">
<path d="M66 0H0V40H66V0Z" fill="#B22234"/>
<path fill-rule="evenodd" clip-rule="evenodd" d="M66 5.81851H0V2.66699H66V5.81851ZM0 8.97002H66V12.1215H0V8.97002ZM66 18.4246H0V15.2731H66V18.4246ZM0 21.5761H66V24.7276H0V21.5761ZM66 31.0306H0V27.8791H66V31.0306ZM0 34.1821H66V37.3337H0V34.1821Z" fill="white"/>
<path d="M30.096 0H0V21.5385H30.096V0Z" fill="#3C3B6E"/>
<path d="M2.50648 0.738281L3.22268 2.96476L1.34766 1.58872H3.66531L1.79029 2.96476L2.50648 0.738281Z" fill="white"/>
<path d="M7.50479 0.738281L8.22099 2.96476L6.34597 1.58872H8.66362L6.7886 2.96476L7.50479 0.738281Z" fill="white"/>
<path d="M12.5031 0.738281L13.2193 2.96476L11.3443 1.58872H13.6619L11.7869 2.96476L12.5031 0.738281Z" fill="white"/>
<path d="M27.498 0.738281L28.2142 2.96476L26.3392 1.58872H28.6569L26.7818 2.96476L27.498 0.738281Z" fill="white"/>
<path d="M22.4997 0.738281L23.2159 2.96476L21.3409 1.58872H23.6585L21.7835 2.96476L22.4997 0.738281Z" fill="white"/>
<path d="M17.5014 0.738281L18.2176 2.96476L16.3426 1.58872H18.6602L16.7852 2.96476L17.5014 0.738281Z" fill="white"/>
<path d="M2.50648 5.19129L3.22268 7.41777L1.34766 6.04173H3.66531L1.79029 7.41777L2.50648 5.19129Z" fill="white"/>
<path d="M7.50479 5.19129L8.22099 7.41777L6.34597 6.04173H8.66362L6.7886 7.41777L7.50479 5.19129Z" fill="white"/>
<path d="M12.5031 5.19129L13.2193 7.41777L11.3443 6.04173H13.6619L11.7869 7.41777L12.5031 5.19129Z" fill="white"/>
<path d="M27.498 5.19129L28.2142 7.41777L26.3392 6.04173H28.6569L26.7818 7.41777L27.498 5.19129Z" fill="white"/>
<path d="M22.4997 5.19129L23.2159 7.41777L21.3409 6.04173H23.6585L21.7835 7.41777L22.4997 5.19129Z" fill="white"/>
<path d="M17.5014 5.19129L18.2176 7.41777L16.3426 6.04173H18.6602L16.7852 7.41777L17.5014 5.19129Z" fill="white"/>
<path d="M2.50648 9.64429L3.22268 11.8708L1.34766 10.4947H3.66531L1.79029 11.8708L2.50648 9.64429Z" fill="white"/>
<path d="M7.50479 9.64429L8.22099 11.8708L6.34597 10.4947H8.66362L6.7886 11.8708L7.50479 9.64429Z" fill="white"/>
<path d="M12.5031 9.64429L13.2193 11.8708L11.3443 10.4947H13.6619L11.7869 11.8708L12.5031 9.64429Z" fill="white"/>
<path d="M27.498 9.64429L28.2142 11.8708L26.3392 10.4947H28.6569L26.7818 11.8708L27.498 9.64429Z" fill="white"/>
<path d="M22.4997 9.64429L23.2159 11.8708L21.3409 10.4947H23.6585L21.7835 11.8708L22.4997 9.64429Z" fill="white"/>
<path d="M17.5014 9.64429L18.2176 11.8708L16.3426 10.4947H18.6602L16.7852 11.8708L17.5014 9.64429Z" fill="white"/>
<path d="M2.50648 14.0973L3.22268 16.3238L1.34766 14.9477H3.66531L1.79029 16.3238L2.50648 14.0973Z" fill="white"/>
<path d="M7.50479 14.0973L8.22099 16.3238L6.34597 14.9477H8.66362L6.7886 16.3238L7.50479 14.0973Z" fill="white"/>
<path d="M12.5031 14.0973L13.2193 16.3238L11.3443 14.9477H13.6619L11.7869 16.3238L12.5031 14.0973Z" fill="white"/>
<path d="M27.498 14.0973L28.2142 16.3238L26.3392 14.9477H28.6569L26.7818 16.3238L27.498 14.0973Z" fill="white"/>
<path d="M22.4997 14.0973L23.2159 16.3238L21.3409 14.9477H23.6585L21.7835 16.3238L22.4997 14.0973Z" fill="white"/>
<path d="M17.5014 14.0973L18.2176 16.3238L16.3426 14.9477H18.6602L16.7852 16.3238L17.5014 14.0973Z" fill="white"/>
<path d="M2.50648 18.5503L3.22268 20.7768L1.34766 19.4007H3.66531L1.79029 20.7768L2.50648 18.5503Z" fill="white"/>
<path d="M7.50479 18.5503L8.22099 20.7768L6.34597 19.4007H8.66362L6.7886 20.7768L7.50479 18.5503Z" fill="white"/>
<path d="M12.5031 18.5503L13.2193 20.7768L11.3443 19.4007H13.6619L11.7869 20.7768L12.5031 18.5503Z" fill="white"/>
<path d="M27.498 18.5503L28.2142 20.7768L26.3392 19.4007H28.6569L26.7818 20.7768L27.498 18.5503Z" fill="white"/>
<path d="M22.4997 18.5503L23.2159 20.7768L21.3409 19.4007H23.6585L21.7835 20.7768L22.4997 18.5503Z" fill="white"/>
<path d="M17.5014 18.5503L18.2176 20.7768L16.3426 19.4007H18.6602L16.7852 20.7768L17.5014 18.5503Z" fill="white"/>
<path d="M4.9954 2.96478L5.7116 5.19127L3.83658 3.81522H6.15423L4.27921 5.19127L4.9954 2.96478Z" fill="white"/>
<path d="M9.99371 2.96478L10.7099 5.19127L8.83489 3.81522H11.1525L9.27752 5.19127L9.99371 2.96478Z" fill="white"/>
<path d="M14.992 2.96478L15.7082 5.19127L13.8332 3.81522H16.1508L14.2758 5.19127L14.992 2.96478Z" fill="white"/>
<path d="M24.9886 2.96478L25.7048 5.19127L23.8298 3.81522H26.1475L24.2724 5.19127L24.9886 2.96478Z" fill="white"/>
<path d="M19.9903 2.96478L20.7065 5.19127L18.8315 3.81522H21.1492L19.2741 5.19127L19.9903 2.96478Z" fill="white"/>
<path d="M4.9954 7.41779L5.7116 9.64427L3.83658 8.26823H6.15423L4.27921 9.64427L4.9954 7.41779Z" fill="white"/>
<path d="M9.99371 7.41779L10.7099 9.64427L8.83489 8.26823H11.1525L9.27752 9.64427L9.99371 7.41779Z" fill="white"/>
<path d="M14.992 7.41779L15.7082 9.64427L13.8332 8.26823H16.1508L14.2758 9.64427L14.992 7.41779Z" fill="white"/>
<path d="M24.9886 7.41779L25.7048 9.64427L23.8298 8.26823H26.1475L24.2724 9.64427L24.9886 7.41779Z" fill="white"/>
<path d="M19.9903 7.41779L20.7065 9.64427L18.8315 8.26823H21.1492L19.2741 9.64427L19.9903 7.41779Z" fill="white"/>
<path d="M4.9954 11.8708L5.7116 14.0973L3.83658 12.7212H6.15423L4.27921 14.0973L4.9954 11.8708Z" fill="white"/>
<path d="M9.99371 11.8708L10.7099 14.0973L8.83489 12.7212H11.1525L9.27752 14.0973L9.99371 11.8708Z" fill="white"/>
<path d="M14.992 11.8708L15.7082 14.0973L13.8332 12.7212H16.1508L14.2758 14.0973L14.992 11.8708Z" fill="white"/>
<path d="M24.9886 11.8708L25.7048 14.0973L23.8298 12.7212H26.1475L24.2724 14.0973L24.9886 11.8708Z" fill="white"/>
<path d="M19.9903 11.8708L20.7065 14.0973L18.8315 12.7212H21.1492L19.2741 14.0973L19.9903 11.8708Z" fill="white"/>
<path d="M4.9954 16.3238L5.7116 18.5503L3.83658 17.1742H6.15423L4.27921 18.5503L4.9954 16.3238Z" fill="white"/>
<path d="M9.99371 16.3238L10.7099 18.5503L8.83489 17.1742H11.1525L9.27752 18.5503L9.99371 16.3238Z" fill="white"/>
<path d="M14.992 16.3238L15.7082 18.5503L13.8332 17.1742H16.1508L14.2758 18.5503L14.992 16.3238Z" fill="white"/>
<path d="M24.9886 16.3238L25.7048 18.5503L23.8298 17.1742H26.1475L24.2724 18.5503L24.9886 16.3238Z" fill="white"/>
<path d="M19.9903 16.3238L20.7065 18.5503L18.8315 17.1742H21.1492L19.2741 18.5503L19.9903 16.3238Z" fill="white"/>
</g>
<defs>
<clipPath id="clip0_197_14576">
<rect width="66" height="40" rx="2" fill="white"/>
</clipPath>
</defs>
</svg>
