<svg width="20" height="20" viewBox="0 0 20 20" fill="none" xmlns="http://www.w3.org/2000/svg">
<g clip-path="url(#clip0_197_14002)">
<mask id="mask0_197_14002" style="mask-type:luminance" maskUnits="userSpaceOnUse" x="0" y="0" width="20" height="20">
<path d="M0 0H20V20H0V0Z" fill="white"/>
</mask>
<g mask="url(#mask0_197_14002)">
<path fill-rule="evenodd" clip-rule="evenodd" d="M2.14286 0C0.95939 0 0 0.95939 0 2.14286V17.8571C0 19.0406 0.95939 20 2.14286 20H12.1429C13.3263 20 14.2857 19.0406 14.2857 17.8571V15.0877C13.7105 14.6271 13.3299 13.9563 13.2366 13.2143H8.21429C6.43909 13.2143 5 11.7752 5 9.99997C5 8.22476 6.43909 6.78569 8.21429 6.78569H13.2366C13.3299 6.04361 13.7105 5.37289 14.2857 4.91233V2.14286C14.2857 0.95939 13.3263 0 12.1429 0L2.14286 0Z" fill="#268E83"/>
<path fill-rule="evenodd" clip-rule="evenodd" d="M14.9994 7.14275C14.9994 6.7094 15.2604 6.31872 15.6609 6.15287C16.0612 5.98705 16.522 6.0787 16.8284 6.38513L19.6856 9.24227C20.104 9.66069 20.104 10.3391 19.6856 10.7575L16.8284 13.6146C16.522 13.9211 16.0612 14.0127 15.6609 13.8469C15.2604 13.6811 14.9994 13.2904 14.9994 12.857V11.4285H8.21373C7.42476 11.4285 6.78516 10.7889 6.78516 9.99989C6.78516 9.21092 7.42476 8.57132 8.21373 8.57132H14.9994V7.14275Z" fill="#268E83"/>
</g>
</g>
<defs>
<clipPath id="clip0_197_14002">
<rect width="19.9999" height="20" fill="white"/>
</clipPath>
</defs>
</svg>
