<svg width="20" height="20" viewBox="0 0 20 20" fill="none" xmlns="http://www.w3.org/2000/svg">
<g clip-path="url(#clip0_197_13998)">
<path d="M4.3459 2.77148L0.737812 4.68645C0.676016 4.71883 0.617656 4.7557 0.5625 4.79605L9.78871 9.60711L13.6522 7.69617L4.3459 2.77148Z" fill="#268E83"/>
<path d="M19.9976 5.86426L15.3819 8.14723V10.7192C15.3819 11.0427 15.1196 11.305 14.7961 11.305C14.4727 11.305 14.2104 11.0427 14.2104 10.7192V8.72668L10.3672 10.6276V19.936C10.3792 19.9304 10.3914 19.9252 10.4033 19.9193L19.2386 15.4425C19.7079 15.2079 19.9994 14.7363 19.9994 14.2113V5.91602C19.9994 5.89863 19.9982 5.88148 19.9976 5.86426Z" fill="#268E83"/>
<path d="M19.2401 4.68496L10.4085 0.21008L10.4048 0.208244C10.0116 0.0124632 9.54434 0.0168382 9.15477 0.219963L5.59766 2.10781L14.948 7.05582L19.4613 4.82352C19.3928 4.77133 19.3193 4.72449 19.2401 4.68496Z" fill="#268E83"/>
<path d="M0.00277344 5.8252C0.00121094 5.85203 0 5.87891 0 5.90602V14.2217C0 14.7358 0.282812 15.2029 0.738125 15.4412L9.15004 19.9058L9.15383 19.9078C9.16781 19.9151 9.18211 19.9215 9.19629 19.9283V10.6192L0.00277344 5.8252Z" fill="#268E83"/>
</g>
<defs>
<clipPath id="clip0_197_13998">
<rect width="19.9999" height="20" fill="white"/>
</clipPath>
</defs>
</svg>
