<svg width="100" height="108" viewBox="0 0 100 108" fill="none" xmlns="http://www.w3.org/2000/svg">
<path d="M80.1552 50.3984L80.7671 82.8846L49.8662 72.1208L48.4199 44.8635L57.2924 33.46L88.3324 36.9923L80.1552 50.3984Z" fill="url(#paint0_linear_197_14251)"/>
<path d="M49.8697 72.121L15.3253 59.6605L0 52.0674L33.9047 38.1328L48.4234 44.8637L49.8697 72.121Z" fill="url(#paint1_linear_197_14251)"/>
<path d="M43.7235 49.5081L43.5288 46.7268C43.3694 43.6593 43.829 40.5911 44.8803 37.7049C45.9315 34.8188 47.5529 32.1738 49.6477 29.9274C53.5695 25.2825 56.1283 21.5833 56.1283 17.6616C56.1283 13.7399 52.596 9.56786 46.8108 9.31754C43.8599 9.25636 40.9568 10.0692 38.4667 11.6539L34.6562 4.25547C39.5124 1.51018 44.9873 0.0457381 50.5656 0C63.3042 0.139068 69.1172 7.53747 69.1172 15.8815C69.1172 23.3078 64.5836 28.4811 60.1613 33.5153C58.353 35.3449 56.9292 37.5179 55.9738 39.9063C55.0185 42.2947 54.5509 44.8501 54.5986 47.4221L54.7654 52.3451L43.7235 49.5081ZM41.1368 63.8321C41.1751 62.2897 41.6675 60.7928 42.5523 59.5288C43.4371 58.2649 44.675 57.2899 46.1111 56.726C47.5473 56.1621 49.1178 56.0343 50.6263 56.3585C52.1347 56.6828 53.514 57.4448 54.5915 58.549C55.669 59.6533 56.397 61.0509 56.6841 62.5668C56.9713 64.0827 56.8051 65.6497 56.2061 67.0716C55.6072 68.4935 54.6022 69.7071 53.3169 70.5607C52.0316 71.4142 50.5231 71.8697 48.9802 71.8702C47.9259 71.8984 46.8771 71.7083 45.8998 71.3118C44.9225 70.9152 44.0377 70.3209 43.3011 69.566C42.5645 68.8111 41.992 67.912 41.6195 66.9253C41.2471 65.9385 41.0827 64.8854 41.1368 63.8321Z" fill="url(#paint2_linear_197_14251)"/>
<path d="M53.2897 108L18.9678 96.1234L17.1877 78.2949L15.3242 59.6599L52.0659 68.1986L80.1576 50.4258L80.7695 82.8842L53.2897 108Z" fill="url(#paint3_linear_197_14251)"/>
<path d="M52.0664 68.1991L73.4828 76.265L99.9891 55.1267L80.1581 50.3984L52.0664 68.1991Z" fill="url(#paint4_linear_197_14251)"/>
<path d="M50.1757 86.75V86.4718H50.0367H49.8142H48.5347V86.2215H48.2844H47.9507H47.6169H46.8659H46.5322H46.1706H45.9759H45.6699V86.3884V86.0825V85.9156H45.5309H45.1693H44.7243H44.3349V85.7209H44.0846H43.6952H41.3032H40.7191H40.5523H40.2741H40.4132C40.4132 85.7209 40.5523 85.7209 40.5801 85.7209C40.5801 85.7209 40.5801 85.7209 40.5801 85.8878H40.0794H39.2728H39.0503H38.8278H38.6609H38.5219H38.2994H38.049H37.604C37.5809 85.8695 37.5622 85.8463 37.5493 85.8198C37.5364 85.7933 37.5298 85.7642 37.5298 85.7348C37.5298 85.7053 37.5364 85.6763 37.5493 85.6498C37.5622 85.6233 37.5809 85.6 37.604 85.5818H38.049H37.8822H37.5206H35.7405L35.518 85.7487L35.3789 85.9434H35.1286H34.9339H35.2677V86.3884H35.4346V86.2493H35.5736H35.4067V86.4162V86.5831H35.6014H35.7961H35.2121V85.4149H35.0174H34.8505V85.248H34.6836H33.7936H33.6545H33.4876H33.3485H32.9592V85.4149H32.681H32.4863V85.7209H32.6532H33.0704H33.2651H33.4598H33.7936H33.9883V85.9156V86.0825H34.1551H34.2942V86.2493H34.7949H35.0174H35.2121H35.5736H35.1564H34.322H35.7405H35.9908V88.1963H35.5458H35.3789H35.2121H35.0174H33.877H33.6545V88.4744V88.6691V88.8082H33.7936H33.9883H34.2108V89.0029H32.9592V89.1698V89.7817V90.0598V90.2545V90.5048V90.7273V91.1167H33.5154V90.9498H33.6545V90.6717H33.8492V90.477V90.1154H33.9883H34.1273H33.5989H33.4598V89.8651V89.6982V89.1976V89.0307V89.1698V89.3366V89.6148V90.032H34.6836H34.9339H34.6558H34.7949V90.2267H34.9895H35.1286H35.4624H35.6849V91.228C35.6849 91.228 35.824 91.228 35.8518 91.228H36.1855H36.6305V91.4783V91.7286V90.9776V91.1445V91.4227H36.7696V91.673V91.4783V90.9776H36.9643V90.7829H37.2703H37.4371V90.6439H37.6875H37.9656H38.1881C38.1881 90.6439 38.3272 90.6439 38.3828 90.6439H38.2159V90.7829H38.3828H44.0846V90.5604V90.3657H44.2236V88.1963H45.1971H45.6421H45.8646H46.0037H46.1428H46.3375H46.4765H46.2262V88.4466L46.8659 88.1963H47.0328V88.0572H47.45H47.6725H47.8672H48.201V87.7791H48.4235H49.6473H49.8698L50.1757 86.75Z" fill="#C17F49"/>
<path d="M29.008 89.9495H28.8133H28.4239H28.2849H28.118H27.812H27.367H27.0611V89.7826H24.6135V87.0847H23.946V86.89V86.5006H24.3354H24.9473V86.7231V86.4728H25.3366V85.4159H25.7538H27.3948H28.1458H28.3683H28.2014H27.8399H28.0902H27.8955V83.4689H27.3948V83.2186H27.2002V82.6345H26.922H26.7829V82.9127H26.4492V82.718H26.171H25.726H25.587V82.6345H26.3101H26.7829H26.6161H26.477H26.2545V82.412H26.0876V82.6345H25.8373H25.5592H25.3366V80.9657H24.9194H24.7247H24.2519H23.9182H23.7513H21.8321V80.7988H21.6931H21.4984H21.3037H21.109H20.8587H20.6083H19.0508H19.5236H19.3289V80.9657H19.6349H19.4958H19.6627H19.8852H20.0799H20.2468H20.0521H20.219H20.6362H20.803V82.6345V82.8848V83.1352V83.3021V85.4159V85.6662V85.8887H20.9699V86.1668H21.1924H21.4706H21.6096H21.8321V86.4728V86.6397V86.89V87.2238V87.3628V90.9786V91.2011V91.368V91.5349V93.7599H22.0546V93.5931H22.2215V93.3149H22.6387V91.813H22.8891H23.0559V91.5627H23.3897L29.008 89.9495Z" fill="#C17F49"/>
<path d="M45.0295 95.1504V94.9001V94.7332V94.5664V93.7598V93.9267H44.0838H43.5832V93.7598H43.4441H43.166H42.3594V93.9545V94.3995H43.0825H43.7501V94.5385H43.8891V94.7889H44.0838H44.3063V95.1504H45.0295Z" fill="#C17F49"/>
<path opacity="0.4" d="M52.0662 68.1984L44.0837 83.7461L34.1543 80.6588L48.7286 67.6143L52.0662 68.1984Z" fill="url(#paint5_linear_197_14251)"/>
<path d="M38.2433 84.5533L0.945312 73.3722L15.3249 59.6602L52.0666 68.1989L38.2433 84.5533Z" fill="url(#paint6_linear_197_14251)"/>
<defs>
<linearGradient id="paint0_linear_197_14251" x1="61.826" y1="79.547" x2="69.892" y2="33.7381" gradientUnits="userSpaceOnUse">
<stop offset="0.14" stop-color="#824923"/>
<stop offset="0.32" stop-color="#92562D"/>
<stop offset="0.66" stop-color="#B97746"/>
<stop offset="0.68" stop-color="#D79B63"/>
<stop offset="1" stop-color="#F0B97B"/>
</linearGradient>
<linearGradient id="paint1_linear_197_14251" x1="21.5277" y1="42.4717" x2="37.2423" y2="77.7393" gradientUnits="userSpaceOnUse">
<stop stop-color="#F0B97B"/>
<stop offset="0.32" stop-color="#D79B63"/>
<stop offset="0.37" stop-color="#B97746"/>
<stop offset="0.68" stop-color="#92562D"/>
<stop offset="0.86" stop-color="#824923"/>
</linearGradient>
<linearGradient id="paint2_linear_197_14251" x1="27.675" y1="53.9305" x2="70.7026" y2="10.9307" gradientUnits="userSpaceOnUse">
<stop stop-color="#F20301"/>
<stop offset="1" stop-color="#CF0B04"/>
</linearGradient>
<linearGradient id="paint3_linear_197_14251" x1="16.0752" y1="80.9929" x2="81.1589" y2="78.7122" gradientUnits="userSpaceOnUse">
<stop stop-color="#F0B97B"/>
<stop offset="0.55" stop-color="#D79B63"/>
<stop offset="0.57" stop-color="#B97746"/>
<stop offset="0.85" stop-color="#92562D"/>
<stop offset="1" stop-color="#824923"/>
</linearGradient>
<linearGradient id="paint4_linear_197_14251" x1="70.5068" y1="54.3201" x2="82.1328" y2="69.7567" gradientUnits="userSpaceOnUse">
<stop stop-color="#F0B97B"/>
<stop offset="0.74" stop-color="#D79B63"/>
</linearGradient>
<linearGradient id="paint5_linear_197_14251" x1="48.2836" y1="79.0734" x2="41.2746" y2="72.7598" gradientUnits="userSpaceOnUse">
<stop stop-color="#B97746"/>
<stop offset="0.07" stop-color="#B07040"/>
<stop offset="0.39" stop-color="#8F542B"/>
<stop offset="0.57" stop-color="#824923"/>
</linearGradient>
<linearGradient id="paint6_linear_197_14251" x1="28.8701" y1="61.9965" x2="23.8637" y2="80.715" gradientUnits="userSpaceOnUse">
<stop stop-color="#F0B97B"/>
<stop offset="1" stop-color="#D79B63"/>
</linearGradient>
</defs>
</svg>
