<svg width="50" height="30" viewBox="0 0 50 30" fill="none" xmlns="http://www.w3.org/2000/svg">
<g clip-path="url(#clip0_197_10129)">
<path d="M0 0H50V30H0V0Z" fill="#E74C3C"/>
<path d="M8.13893 3.49512L9.1422 6.27241H12.3897L9.7627 7.9927L10.7636 10.7743L8.13893 9.05398L5.50952 10.7743L6.51278 7.9927L3.88574 6.27241H7.13328L8.13893 3.49512Z" fill="#F1C40F"/>
<path d="M16.6023 2.04199L16.5358 3.0027L17.5271 3.35789L16.493 3.59539L16.4216 4.5561L15.8511 3.74303L14.8169 3.98053L15.4992 3.2402L14.9286 2.42713L15.92 2.78445L16.6023 2.04199Z" fill="#F1C40F"/>
<path d="M20.2517 5.15728L19.7644 6.01315L20.518 6.6957L19.4648 6.54164L18.9751 7.39965L18.8109 6.4475L17.7554 6.2955L18.7063 5.86115L18.5447 4.91113L19.2959 5.59155L20.2517 5.15719" fill="#F1C40F"/>
<path d="M19.1557 9.05555L19.4814 9.97133L20.5536 9.97304L19.6858 10.5358L20.0163 11.4515L19.1533 10.8867L18.2855 11.4515L18.6184 10.5358L17.7554 9.9709L18.8228 9.97261L19.1557 9.05469" fill="#F1C40F"/>
<path d="M16.5977 11.9912L16.5264 12.9519L17.5201 13.3092L16.4836 13.5446L16.4147 14.5053L15.8442 13.6922L14.8076 13.9297L15.4899 13.1916L14.9194 12.3763L15.9131 12.7337L16.5978 11.9912" fill="#F1C40F"/>
</g>
<defs>
<clipPath id="clip0_197_10129">
<rect width="50" height="30" rx="2" fill="white"/>
</clipPath>
</defs>
</svg>
