<svg width="50" height="50" viewBox="0 0 50 50" fill="none" xmlns="http://www.w3.org/2000/svg">
<rect width="50" height="50" rx="8" fill="#FF1B1B"/>
<path d="M15.568 18.754H34.4305C35.4527 18.7758 35.4527 17.2307 34.4305 17.254H30.0347V15.3775C30.0347 14.4985 29.3147 13.75 28.429 13.75H21.5695C20.6837 13.75 19.9637 14.4985 19.9637 15.3775V17.254H15.532C14.5195 17.323 14.5892 18.7787 15.568 18.754ZM17.6395 19.879C17.2555 19.9173 16.9622 20.2405 16.963 20.626V33.7525C16.963 35.116 18.0662 36.25 19.4267 36.25H30.5725C31.933 36.25 33.0347 35.116 33.0347 33.7525V20.626C33.0332 20.2113 32.6965 19.8775 32.2817 19.879H17.6395ZM21.4915 23.7257C21.6947 23.7273 21.889 23.8105 22.0292 23.9598L25 26.9897L27.9692 23.959C28.1042 23.818 28.2895 23.7325 28.4852 23.725C29.1722 23.6943 29.5337 24.5275 29.0432 25.0098L26.0522 28.0623L29.0432 31.1163C29.7152 31.831 28.6712 32.8532 27.9692 32.1677L25 29.1385L22.0292 32.1693C21.328 32.8547 20.284 31.8325 20.9552 31.1178L23.9462 28.0637L20.9552 25.0112C20.4737 24.5357 20.8157 23.7168 21.4915 23.7257Z" fill="white"/>
</svg>
