<svg width="100" height="101" viewBox="0 0 100 101" fill="none" xmlns="http://www.w3.org/2000/svg">
<path d="M45 3.67288C48.094 1.88656 51.906 1.88656 55 3.67288L88.3013 22.8994C91.3953 24.6857 93.3013 27.987 93.3013 31.5596V70.0126C93.3013 73.5853 91.3953 76.8866 88.3013 78.6729L55 97.8994C51.906 99.6857 48.094 99.6857 45 97.8994L11.6987 78.6729C8.60472 76.8866 6.69873 73.5853 6.69873 70.0126L6.69873 31.5596C6.69873 27.987 8.60472 24.6857 11.6987 22.8994L45 3.67288Z" fill="#1DA99D"/>
<g clip-path="url(#clip0_13_736)">
<path d="M78.8212 49.9861L74.4296 39.9861C74.2758 39.6315 74.0231 39.3294 73.7022 39.1164C73.3812 38.9034 73.0057 38.7887 72.6213 38.7861H61.99L62.6259 33.0061C62.6572 32.7255 62.6291 32.4415 62.5435 32.1726C62.4578 31.9037 62.3166 31.6561 62.1291 31.4461C61.9433 31.2389 61.7165 31.0732 61.4633 30.9595C61.21 30.8459 60.9359 30.7868 60.6586 30.7861H33.2955C32.7685 30.7861 32.2631 30.9968 31.8904 31.3719C31.5177 31.747 31.3084 32.2557 31.3084 32.7861C31.3084 33.3166 31.5177 33.8253 31.8904 34.2003C32.2631 34.5754 32.7685 34.7861 33.2955 34.7861H43.2313C43.7583 34.7861 44.2638 34.9968 44.6364 35.3719C45.0091 35.747 45.2184 36.2557 45.2184 36.7861C45.2184 37.3166 45.0091 37.8253 44.6364 38.2003C44.2638 38.5754 43.7583 38.7861 43.2313 38.7861H29.3212C28.7942 38.7861 28.2888 38.9968 27.9161 39.3719C27.5434 39.747 27.3341 40.2557 27.3341 40.7861C27.3341 41.3166 27.5434 41.8253 27.9161 42.2003C28.2888 42.5754 28.7942 42.7861 29.3212 42.7861H49.1927C49.7198 42.7861 50.2252 42.9968 50.5979 43.3719C50.9705 43.747 51.1799 44.2557 51.1799 44.7861C51.1799 45.3166 50.9705 45.8253 50.5979 46.2003C50.2252 46.5754 49.7198 46.7861 49.1927 46.7861H35.2827C34.7557 46.7861 34.2502 46.9968 33.8776 47.3719C33.5049 47.747 33.2955 48.2557 33.2955 48.7861C33.2955 49.3166 33.5049 49.8253 33.8776 50.2003C34.2502 50.5754 34.7557 50.7861 35.2827 50.7861H43.2313C43.7583 50.7861 44.2638 50.9968 44.6364 51.3719C45.0091 51.747 45.2184 52.2557 45.2184 52.7861C45.2184 53.3166 45.0091 53.8253 44.6364 54.2003C44.2638 54.5754 43.7583 54.7861 43.2313 54.7861H27.3341C26.8071 54.7861 26.3016 54.9968 25.9289 55.3719C25.5563 55.747 25.3469 56.2557 25.3469 56.7861C25.3469 57.3166 25.5563 57.8253 25.9289 58.2003C26.3016 58.5754 26.8071 58.7861 27.3341 58.7861H31.3084C31.8354 58.7861 32.3408 58.9968 32.7135 59.3719C33.0862 59.747 33.2955 60.2557 33.2955 60.7861C33.2955 61.3166 33.0862 61.8253 32.7135 62.2003C32.3408 62.5754 31.8354 62.7861 31.3084 62.7861H29.3212C28.7942 62.7861 28.2888 62.9968 27.9161 63.3719C27.5434 63.747 27.3341 64.2557 27.3341 64.7861C27.3341 65.3166 27.5434 65.8253 27.9161 66.2003C28.2888 66.5754 28.7942 66.7861 29.3212 66.7861H34.9846C35.1992 67.6296 35.6076 68.4106 36.1769 69.0661C36.6593 69.609 37.2505 70.043 37.9115 70.3394C38.5726 70.6359 39.2884 70.7881 40.0121 70.7861C41.2367 70.7509 42.4237 70.3525 43.4241 69.6409C44.4246 68.9293 45.194 67.9362 45.6357 66.7861H60.8176C61.0322 67.6296 61.4406 68.4106 62.0099 69.0661C62.4923 69.609 63.0835 70.043 63.7445 70.3394C64.4055 70.6359 65.1214 70.7881 65.8451 70.7861C67.0697 70.7509 68.2566 70.3525 69.2571 69.6409C70.2576 68.9293 71.0269 67.9362 71.4687 66.7861H75.443C75.9343 66.7891 76.4092 66.6089 76.7762 66.2802C77.1432 65.9514 77.3761 65.4976 77.4302 65.0061L78.9603 51.0061C79.0148 50.6598 78.9664 50.3049 78.8212 49.9861ZM40.0121 66.7861C39.8473 66.7933 39.6831 66.7628 39.5316 66.697C39.3802 66.6312 39.2456 66.5318 39.1378 66.4061C38.9818 66.2119 38.8676 65.9871 38.8026 65.7461C38.7376 65.5051 38.7232 65.2531 38.7602 65.0061C38.811 64.4446 39.0518 63.9176 39.4425 63.5135C39.8332 63.1094 40.35 62.8526 40.9063 62.7861C41.0711 62.779 41.2354 62.8094 41.3868 62.8752C41.5382 62.941 41.6729 63.0405 41.7807 63.1661C41.9367 63.3604 42.0508 63.5851 42.1158 63.8262C42.1808 64.0672 42.1952 64.3192 42.1582 64.5661C42.1075 65.1277 41.8666 65.6546 41.4759 66.0588C41.0852 66.4629 40.5684 66.7197 40.0121 66.7861ZM65.8451 66.7861C65.6803 66.7933 65.516 66.7628 65.3646 66.697C65.2132 66.6312 65.0785 66.5318 64.9707 66.4061C64.8147 66.2119 64.7006 65.9871 64.6356 65.7461C64.5706 65.5051 64.5562 65.2531 64.5932 65.0061C64.6439 64.4446 64.8848 63.9176 65.2755 63.5135C65.6662 63.1094 66.183 62.8526 66.7393 62.7861C66.9041 62.779 67.0683 62.8094 67.2198 62.8752C67.3712 62.941 67.5058 63.0405 67.6136 63.1661C67.7696 63.3604 67.8838 63.5851 67.9488 63.8262C68.0138 64.0672 68.0282 64.3192 67.9912 64.5661C67.9404 65.1277 67.6996 65.6546 67.3089 66.0588C66.9182 66.4629 66.4014 66.7197 65.8451 66.7861ZM74.7873 52.7861H66.0041C65.7268 52.7855 65.4527 52.7264 65.1994 52.6127C64.9462 52.4991 64.7193 52.3333 64.5336 52.1261C64.346 51.9161 64.2048 51.6686 64.1192 51.3997C64.0336 51.1308 64.0055 50.8467 64.0368 50.5661L64.6925 44.5661C64.7511 44.0783 64.9861 43.6293 65.3526 43.3047C65.7191 42.98 66.1915 42.8026 66.6797 42.8061H71.3097L75.0257 51.1061L74.7873 52.7861Z" fill="white"/>
<path d="M27.334 50.7861C27.8611 50.7861 28.3665 50.5754 28.7392 50.2003C29.1118 49.8253 29.3212 49.3166 29.3212 48.7861C29.3212 48.2557 29.1118 47.747 28.7392 47.3719C28.3665 46.9968 27.8611 46.7861 27.334 46.7861H25.3469C24.8199 46.7861 24.3144 46.9968 23.9418 47.3719C23.5691 47.747 23.3597 48.2557 23.3597 48.7861C23.3597 49.3166 23.5691 49.8253 23.9418 50.2003C24.3144 50.5754 24.8199 50.7861 25.3469 50.7861H27.334Z" fill="white"/>
</g>
<defs>
<clipPath id="clip0_13_736">
<rect width="58" height="40" fill="white" transform="translate(21 30.7861)"/>
</clipPath>
</defs>
</svg>
