<svg width="50" height="30" viewBox="0 0 50 30" fill="none" xmlns="http://www.w3.org/2000/svg">
<g clip-path="url(#clip0_197_10096)">
<path d="M50 0H0V30H50V0Z" fill="#B22234"/>
<path fill-rule="evenodd" clip-rule="evenodd" d="M50 4.36461H0V2.00098H50V4.36461ZM0 6.72825H50V9.09189H0V6.72825ZM50 13.8192H0V11.4555H50V13.8192ZM0 16.1828H50V18.5464H0V16.1828ZM50 23.2737H0V20.9101H50V23.2737ZM0 25.6373H50V28.001H0V25.6373Z" fill="white"/>
<path d="M22.8 0H0V16.1538H22.8V0Z" fill="#3C3B6E"/>
<path d="M1.89889 0.553711L2.44147 2.22357L1.021 1.19154H2.77679L1.35632 2.22357L1.89889 0.553711Z" fill="white"/>
<path d="M5.68549 0.553711L6.22806 2.22357L4.80759 1.19154H6.56339L5.14292 2.22357L5.68549 0.553711Z" fill="white"/>
<path d="M9.47209 0.553711L10.0147 2.22357L8.59419 1.19154H10.35L8.92952 2.22357L9.47209 0.553711Z" fill="white"/>
<path d="M20.8319 0.553711L21.3745 2.22357L19.954 1.19154H21.7098L20.2893 2.22357L20.8319 0.553711Z" fill="white"/>
<path d="M17.0453 0.553711L17.5879 2.22357L16.1674 1.19154H17.9232L16.5027 2.22357L17.0453 0.553711Z" fill="white"/>
<path d="M13.2587 0.553711L13.8013 2.22357L12.3808 1.19154H14.1366L12.7161 2.22357L13.2587 0.553711Z" fill="white"/>
<path d="M1.89889 3.89346L2.44147 5.56333L1.021 4.53129H2.77679L1.35632 5.56333L1.89889 3.89346Z" fill="white"/>
<path d="M5.68549 3.89346L6.22806 5.56333L4.80759 4.53129H6.56339L5.14292 5.56333L5.68549 3.89346Z" fill="white"/>
<path d="M9.47209 3.89346L10.0147 5.56333L8.59419 4.53129H10.35L8.92952 5.56333L9.47209 3.89346Z" fill="white"/>
<path d="M20.8319 3.89346L21.3745 5.56333L19.954 4.53129H21.7098L20.2893 5.56333L20.8319 3.89346Z" fill="white"/>
<path d="M17.0453 3.89346L17.5879 5.56333L16.1674 4.53129H17.9232L16.5027 5.56333L17.0453 3.89346Z" fill="white"/>
<path d="M13.2587 3.89346L13.8013 5.56333L12.3808 4.53129H14.1366L12.7161 5.56333L13.2587 3.89346Z" fill="white"/>
<path d="M1.89889 7.23322L2.44147 8.90308L1.021 7.87105H2.77679L1.35632 8.90308L1.89889 7.23322Z" fill="white"/>
<path d="M5.68549 7.23322L6.22806 8.90308L4.80759 7.87105H6.56339L5.14292 8.90308L5.68549 7.23322Z" fill="white"/>
<path d="M9.47209 7.23322L10.0147 8.90308L8.59419 7.87105H10.35L8.92952 8.90308L9.47209 7.23322Z" fill="white"/>
<path d="M20.8319 7.23322L21.3745 8.90308L19.954 7.87105H21.7098L20.2893 8.90308L20.8319 7.23322Z" fill="white"/>
<path d="M17.0453 7.23322L17.5879 8.90308L16.1674 7.87105H17.9232L16.5027 8.90308L17.0453 7.23322Z" fill="white"/>
<path d="M13.2587 7.23322L13.8013 8.90308L12.3808 7.87105H14.1366L12.7161 8.90308L13.2587 7.23322Z" fill="white"/>
<path d="M1.89889 10.573L2.44147 12.2428L1.021 11.2108H2.77679L1.35632 12.2428L1.89889 10.573Z" fill="white"/>
<path d="M5.68549 10.573L6.22806 12.2428L4.80759 11.2108H6.56339L5.14292 12.2428L5.68549 10.573Z" fill="white"/>
<path d="M9.47209 10.573L10.0147 12.2428L8.59419 11.2108H10.35L8.92952 12.2428L9.47209 10.573Z" fill="white"/>
<path d="M20.8319 10.573L21.3745 12.2428L19.954 11.2108H21.7098L20.2893 12.2428L20.8319 10.573Z" fill="white"/>
<path d="M17.0453 10.573L17.5879 12.2428L16.1674 11.2108H17.9232L16.5027 12.2428L17.0453 10.573Z" fill="white"/>
<path d="M13.2587 10.573L13.8013 12.2428L12.3808 11.2108H14.1366L12.7161 12.2428L13.2587 10.573Z" fill="white"/>
<path d="M1.89889 13.9127L2.44147 15.5826L1.021 14.5506H2.77679L1.35632 15.5826L1.89889 13.9127Z" fill="white"/>
<path d="M5.68549 13.9127L6.22806 15.5826L4.80759 14.5506H6.56339L5.14292 15.5826L5.68549 13.9127Z" fill="white"/>
<path d="M9.47209 13.9127L10.0147 15.5826L8.59419 14.5506H10.35L8.92952 15.5826L9.47209 13.9127Z" fill="white"/>
<path d="M20.8319 13.9127L21.3745 15.5826L19.954 14.5506H21.7098L20.2893 15.5826L20.8319 13.9127Z" fill="white"/>
<path d="M17.0453 13.9127L17.5879 15.5826L16.1674 14.5506H17.9232L16.5027 15.5826L17.0453 13.9127Z" fill="white"/>
<path d="M13.2587 13.9127L13.8013 15.5826L12.3808 14.5506H14.1366L12.7161 15.5826L13.2587 13.9127Z" fill="white"/>
<path d="M3.78444 2.22359L4.32701 3.89345L2.90654 2.86142H4.66234L3.24187 3.89345L3.78444 2.22359Z" fill="white"/>
<path d="M7.57104 2.22359L8.11361 3.89345L6.69314 2.86142H8.44894L7.02847 3.89345L7.57104 2.22359Z" fill="white"/>
<path d="M11.3576 2.22359L11.9002 3.89345L10.4797 2.86142H12.2355L10.8151 3.89345L11.3576 2.22359Z" fill="white"/>
<path d="M18.9308 2.22359L19.4734 3.89345L18.0529 2.86142H19.8087L18.3883 3.89345L18.9308 2.22359Z" fill="white"/>
<path d="M15.1442 2.22359L15.6868 3.89345L14.2663 2.86142H16.0221L14.6017 3.89345L15.1442 2.22359Z" fill="white"/>
<path d="M3.78444 5.56334L4.32701 7.2332L2.90654 6.20117H4.66234L3.24187 7.2332L3.78444 5.56334Z" fill="white"/>
<path d="M7.57104 5.56334L8.11361 7.2332L6.69314 6.20117H8.44894L7.02847 7.2332L7.57104 5.56334Z" fill="white"/>
<path d="M11.3576 5.56334L11.9002 7.2332L10.4797 6.20117H12.2355L10.8151 7.2332L11.3576 5.56334Z" fill="white"/>
<path d="M18.9308 5.56334L19.4734 7.2332L18.0529 6.20117H19.8087L18.3883 7.2332L18.9308 5.56334Z" fill="white"/>
<path d="M15.1442 5.56334L15.6868 7.2332L14.2663 6.20117H16.0221L14.6017 7.2332L15.1442 5.56334Z" fill="white"/>
<path d="M3.78444 8.90309L4.32701 10.573L2.90654 9.54093H4.66234L3.24187 10.573L3.78444 8.90309Z" fill="white"/>
<path d="M7.57104 8.90309L8.11361 10.573L6.69314 9.54093H8.44894L7.02847 10.573L7.57104 8.90309Z" fill="white"/>
<path d="M11.3576 8.90309L11.9002 10.573L10.4797 9.54093H12.2355L10.8151 10.573L11.3576 8.90309Z" fill="white"/>
<path d="M18.9308 8.90309L19.4734 10.573L18.0529 9.54093H19.8087L18.3883 10.573L18.9308 8.90309Z" fill="white"/>
<path d="M15.1442 8.90309L15.6868 10.573L14.2663 9.54093H16.0221L14.6017 10.573L15.1442 8.90309Z" fill="white"/>
<path d="M3.78444 12.2428L4.32701 13.9127L2.90654 12.8807H4.66234L3.24187 13.9127L3.78444 12.2428Z" fill="white"/>
<path d="M7.57104 12.2428L8.11361 13.9127L6.69314 12.8807H8.44894L7.02847 13.9127L7.57104 12.2428Z" fill="white"/>
<path d="M11.3576 12.2428L11.9002 13.9127L10.4797 12.8807H12.2355L10.8151 13.9127L11.3576 12.2428Z" fill="white"/>
<path d="M18.9308 12.2428L19.4734 13.9127L18.0529 12.8807H19.8087L18.3883 13.9127L18.9308 12.2428Z" fill="white"/>
<path d="M15.1442 12.2428L15.6868 13.9127L14.2663 12.8807H16.0221L14.6017 13.9127L15.1442 12.2428Z" fill="white"/>
</g>
<defs>
<clipPath id="clip0_197_10096">
<rect width="50" height="30" rx="2" fill="white"/>
</clipPath>
</defs>
</svg>
