<svg width="100" height="101" viewBox="0 0 100 101" fill="none" xmlns="http://www.w3.org/2000/svg">
<path d="M45 3.67288C48.094 1.88656 51.906 1.88656 55 3.67288L88.3013 22.8994C91.3953 24.6857 93.3013 27.987 93.3013 31.5596V70.0126C93.3013 73.5853 91.3953 76.8866 88.3013 78.6729L55 97.8994C51.906 99.6857 48.094 99.6857 45 97.8994L11.6987 78.6729C8.60472 76.8866 6.69873 73.5853 6.69873 70.0126L6.69873 31.5596C6.69873 27.987 8.60472 24.6857 11.6987 22.8994L45 3.67288Z" fill="#1DA99D"/>
<g clip-path="url(#clip0_13_751)">
<path d="M59.1667 70.7861C58.905 70.7861 58.6434 70.7045 58.4217 70.5395C57.3884 69.7711 48.3334 62.8695 48.3334 57.0161C48.3334 53.5811 51.1367 50.7861 54.5834 50.7861C56.355 50.7861 58.0067 51.5295 59.1667 52.7761C60.3267 51.5295 61.9784 50.7861 63.75 50.7861C67.1967 50.7861 70 53.5811 70 57.0161C70 62.8695 60.945 69.7711 59.9117 70.5395C59.69 70.7045 59.4284 70.7861 59.1667 70.7861Z" fill="white"/>
<path d="M45.3667 30.7861L37.2667 30.8195C36.2167 30.8195 35.2333 31.4028 34.7333 32.3195L30.5 39.9861L44.55 39.9528L45.3667 30.7861Z" fill="white"/>
<path d="M62.8 39.9195L58.5167 32.2528C58 31.3361 57.0334 30.7528 55.9667 30.7528L47.8667 30.7861L48.7167 39.9528L62.8 39.9195Z" fill="white"/>
<path d="M63.3333 47.4694C61.8666 47.5194 60.4499 47.9361 59.1666 48.6194C57.7666 47.8694 56.1999 47.4528 54.5833 47.4528C49.2999 47.4528 44.9999 51.7361 44.9999 57.0194C44.9999 59.4528 46.0166 61.8861 47.4833 64.1194L32.6833 64.1694C32.6666 64.1694 32.6666 64.1694 32.6666 64.1694C31.2333 64.1694 30.0499 62.9861 30.0499 61.5361L29.9833 42.4861L45.3999 42.4528H47.8999L63.3166 42.4028L63.3333 47.4694Z" fill="white"/>
</g>
<defs>
<clipPath id="clip0_13_751">
<rect width="40" height="40" fill="white" transform="translate(30 30.7861)"/>
</clipPath>
</defs>
</svg>
