<svg width="220" height="125" viewBox="0 0 220 125" fill="none" xmlns="http://www.w3.org/2000/svg">
<rect y="0.786133" width="220" height="124" rx="10" fill="white"/>
<g clip-path="url(#clip0_197_10351)">
<mask id="mask0_197_10351" style="mask-type:luminance" maskUnits="userSpaceOnUse" x="16" y="-29" width="185" height="179">
<path d="M201 -28.9482H16V149.582H201V-28.9482Z" fill="white"/>
</mask>
<g mask="url(#mask0_197_10351)">
<path d="M62.165 70.491V43.0059H78.9988V46.4518H65.6506V54.9027H77.6382V58.3486H65.6506V66.9632H79.9338V70.4092H62.165V70.491Z" fill="#E43225"/>
<path d="M97.6172 70.4915L91.8357 63.1898L86.0546 70.4915H81.9739L89.8804 60.7281L81.5488 50.6367H86.1395L91.8357 58.1849L97.6172 50.6367H102.123L94.2165 60.7281L101.698 70.4915H97.6172Z" fill="#E43225"/>
<path d="M107.31 67.5374V81.0747H103.824V60.8097C103.824 55.6406 107.905 50.1436 114.282 50.1436C120.743 50.1436 125.589 54.082 125.589 60.5637C125.589 66.8811 120.658 71.2294 115.047 71.2294C112.326 71.2294 108.67 70.0806 107.31 67.5374ZM121.933 60.5637C121.933 56.1331 118.958 53.5076 113.686 53.7537C111.136 53.836 107.225 55.6406 107.565 61.9581C107.65 64.0096 109.861 67.8653 114.707 67.8653C118.873 67.8653 121.933 65.5682 121.933 60.5637Z" fill="#E43225"/>
<path d="M128.564 70.4906V50.6358H132.05V52.7688C133.75 50.8819 136.386 50.2256 139.192 50.2256V53.8357C138.767 53.7534 134.6 53.2613 132.05 58.5123V70.5728H128.564V70.4906Z" fill="#E43225"/>
<path d="M140.127 60.5637C140.127 54.8202 144.378 50.1436 150.244 50.1436C157.556 50.1436 160.277 54.8201 160.277 60.8097V62.4506H143.953C144.208 66.2244 147.694 68.1937 150.925 68.1118C153.305 68.0295 154.92 67.3732 156.621 65.7323L158.916 68.0295C156.791 69.9987 154.07 71.3113 150.755 71.3113C144.548 71.2294 140.127 66.7988 140.127 60.5637ZM149.989 53.5076C146.673 53.5076 144.123 56.2973 143.953 59.333H156.621C156.621 56.3792 154.41 53.5076 149.989 53.5076Z" fill="#E43225"/>
<path d="M162.062 67.7021L164.612 65.4869C164.527 65.4869 165.887 66.7994 166.057 66.8817C166.653 67.3738 167.248 67.7021 168.013 67.8659C170.223 68.4403 174.219 68.2765 174.56 65.3227C174.729 63.6818 173.454 62.7795 172.009 62.2051C170.139 61.5484 168.098 61.3024 166.228 60.4819C164.102 59.5796 162.742 58.0206 162.742 55.7235C162.742 49.7339 171.584 48.7497 175.579 51.539C175.75 51.7031 177.705 53.4263 177.62 53.4263L175.069 55.3951C173.794 53.9184 172.604 53.1798 169.883 53.1798C168.523 53.1798 166.653 53.7542 166.312 55.1491C165.802 57.1183 168.098 57.8564 169.628 58.2667C171.669 58.7592 173.879 59.0871 175.665 60.154C178.13 61.6307 178.725 64.8306 177.79 67.2919C176.77 69.9993 173.709 71.0658 170.989 71.1481C167.758 71.3118 164.952 70.3276 162.657 68.1124C162.487 68.1124 162.062 67.7021 162.062 67.7021Z" fill="#E43225"/>
<path d="M180 67.7021L182.551 65.4869C182.466 65.4869 183.826 66.7994 183.996 66.8817C184.591 67.3738 185.186 67.7021 185.952 67.8659C188.162 68.4403 192.158 68.2765 192.498 65.3227C192.668 63.6818 191.392 62.7795 189.947 62.2051C188.077 61.5484 186.036 61.3024 184.166 60.4819C182.041 59.5796 180.68 58.0206 180.68 55.7235C180.68 49.7339 189.522 48.7497 193.518 51.539C193.688 51.7031 195.643 53.4263 195.558 53.4263L193.008 55.3951C191.733 53.9184 190.542 53.1798 187.822 53.1798C186.462 53.1798 184.591 53.7542 184.251 55.1491C183.741 57.1183 186.036 57.8564 187.567 58.2667C189.607 58.7592 191.818 59.0871 193.603 60.154C196.068 61.6307 196.664 64.8306 195.729 67.2919C194.708 69.9993 191.648 71.0658 188.927 71.1481C185.696 71.3118 182.891 70.3276 180.595 68.1124C180.425 68.1124 180 67.7021 180 67.7021Z" fill="#E43225"/>
<path d="M196.579 50.6364V48.503H195.813V48.0928H197.854V48.503H197.089V50.6364H196.579Z" fill="#E43225"/>
<path d="M200.405 50.6364V48.6672L199.639 50.6364H199.47L198.704 48.6672V50.6364H198.279V48.0928H198.959L199.639 49.816L200.32 48.0928H201V50.6364H200.405Z" fill="#E43225"/>
<path d="M38.53 70.491L35.9794 63.9275H22.2062L19.6556 70.491H16L27.0522 43.0059H31.0481L42.0155 70.491H38.53ZM28.9227 46.9443L23.7368 60.5639H34.5341L28.9227 46.9443Z" fill="#F7971D"/>
<path d="M44.3105 70.491V43.0059H47.8814V70.491H44.3105Z" fill="#F7971D"/>
<path d="M53.2383 70.4904V51.0459H56.8091V70.4904H53.2383Z" fill="#F7971D"/>
<path d="M60.2093 44.7287C60.2093 44.6464 60.2093 44.6464 60.2093 44.5645C60.2093 44.4826 60.2093 44.4826 60.2093 44.4003C57.4887 44.3185 55.2779 42.1851 55.1931 39.5596C55.1078 39.5596 55.023 39.5596 54.9381 39.5596C54.8529 39.5596 54.768 39.5596 54.6827 39.5596C54.5979 42.1851 52.3872 44.3185 49.667 44.4003C49.667 44.4826 49.667 44.4826 49.667 44.5645C49.667 44.6464 49.667 44.6464 49.667 44.7287C52.3872 44.8106 54.5979 46.944 54.6827 49.5695C54.768 49.5695 54.8529 49.5695 54.9381 49.5695C55.023 49.5695 55.1078 49.5695 55.1931 49.5695C55.2779 46.944 57.4887 44.8106 60.2093 44.7287Z" fill="#F7971D"/>
</g>
</g>
<defs>
<clipPath id="clip0_197_10351">
<rect width="185" height="81" fill="white" transform="translate(16 16.7861)"/>
</clipPath>
</defs>
</svg>
