<svg width="160" height="100" viewBox="0 0 160 100" fill="none" xmlns="http://www.w3.org/2000/svg">
<rect width="160" height="100" rx="10" fill="white"/>
<g clip-path="url(#clip0_220_17720)">
<mask id="mask0_220_17720" style="mask-type:luminance" maskUnits="userSpaceOnUse" x="10" y="-24" width="140" height="144">
<path d="M150 -23.14H10V119.96H150V-23.14Z" fill="white"/>
</mask>
<g mask="url(#mask0_220_17720)">
<path d="M26.2606 59.5088C20.9042 60.1785 16.4223 55.5984 17.0785 50.235C17.5153 46.5478 20.4665 43.5312 24.0738 43.0838C29.4302 42.4141 33.9121 46.9942 33.2559 52.3576C32.8191 56.0448 29.9771 59.0614 26.2606 59.5088ZM26.8066 35.8219C17.0785 34.8164 9.09847 43.0838 10.0822 52.9167C10.8475 60.1785 16.6407 66.1009 23.7462 66.7707C33.3651 67.7771 41.4543 59.5088 40.4706 49.6759C39.7053 42.4141 33.9121 36.4916 26.8066 35.8219Z" fill="#0054FF"/>
<path d="M48.5602 36.3801C46.3734 36.3801 44.6253 38.3912 45.0621 40.738C45.3897 42.4142 47.0295 43.6429 48.6694 43.6429H58.6169L43.2038 64.5365C42.6569 65.2071 43.2038 66.2127 43.9691 66.2127H68.2358C69.9849 66.2127 71.5155 64.9839 71.8431 63.3077C72.2809 60.9609 70.5318 58.9499 68.345 58.9499H56.2117L71.6247 38.0563C72.1707 37.3856 71.6247 36.3801 70.7502 36.3801H48.5602Z" fill="#0054FF"/>
<path d="M145.519 36.2684C143.879 36.6033 142.786 38.1678 142.786 39.9556V52.0228L123.438 36.38C122.782 35.8219 121.798 36.38 121.798 37.1623V62.1905C121.798 63.8657 122.892 65.4303 124.64 65.8777C126.936 66.3242 129.013 64.5364 129.013 62.3021V50.1234L148.361 65.7651C149.017 66.3242 150 65.7651 150 64.9838V39.844C149.891 37.6097 147.815 35.8219 145.519 36.2684Z" fill="#0054FF"/>
<path d="M95.3448 35.5978C83.539 35.5978 74.0293 42.6373 74.0293 51.2405C74.0293 59.8437 83.6482 66.7707 95.454 66.7707C107.26 66.7707 116.769 59.7321 116.769 51.1289C116.66 42.5257 107.15 35.5978 95.3448 35.5978ZM95.3448 42.8606C103.543 42.8606 109.555 47.2185 109.555 51.1289C109.555 55.0393 103.433 59.5088 95.3448 59.5088C87.1464 59.5088 81.1338 55.151 81.1338 51.2405C81.1338 47.2185 87.2556 42.8606 95.3448 42.8606Z" fill="#0054FF"/>
<path d="M110.429 36.2684L109.664 46.6594C109.555 47.7765 109.227 48.8937 108.68 49.9001L101.138 64.0899L88.1299 63.5309L98.7326 44.3135C99.2795 43.308 100.045 42.4141 101.029 41.7434L109.445 35.822C109.882 35.3745 110.429 35.7094 110.429 36.2684Z" fill="#0B845F"/>
<path d="M101.029 41.6318L109.446 35.7094C109.883 35.3745 110.539 35.7094 110.43 36.2684L109.664 46.6594C109.555 47.7765 109.227 48.8937 108.68 49.9001L108.571 50.1234C108.571 50.1234 108.462 50.1234 108.462 50.0118C108.024 49.7876 107.588 49.3411 107.478 48.8937C106.385 49.6759 104.855 49.9001 103.653 49.1179C102.34 48.3356 101.685 46.8826 101.904 45.4306C101.357 45.5423 100.7 45.5423 100.045 45.2074C99.6075 44.9832 99.1707 44.5367 99.0615 44.0893C99.3891 43.0838 100.154 42.3015 101.029 41.6318Z" fill="#F7E36F"/>
<path d="M107.805 39.5091C107.149 39.1733 106.603 38.5027 106.275 37.9446L109.336 35.8219C109.773 35.4861 110.429 35.8219 110.32 36.38L109.992 39.9556C109.336 39.9556 108.57 39.844 107.805 39.5091Z" fill="#0B845F"/>
<path d="M95.5633 30.5702L97.3124 40.8495C97.5308 41.9667 97.4216 43.0838 97.2032 44.2019L91.956 64.648L81.2432 60.1785L86.1628 41.1844C86.4904 40.0673 87.0373 38.9501 87.8017 38.0562L94.4704 30.1237C94.798 29.7879 95.4541 30.0111 95.5633 30.5702Z" fill="#FF0050"/>
<path d="M87.6926 38.1679L94.3613 30.2354C94.6889 29.7879 95.4542 30.0112 95.4542 30.5702L97.2033 40.8496C97.4217 41.9667 97.3125 43.0838 97.0941 44.2019L96.984 44.4252H96.8748C96.3288 44.3135 95.891 43.9777 95.5634 43.5313C94.6889 44.6484 93.2674 45.0949 91.8469 44.76C90.3162 44.3135 89.3325 43.0838 89.2233 41.6318C88.6764 41.9667 88.0212 42.0783 87.365 41.8551C86.8181 41.7435 86.3813 41.4086 86.0537 40.9612C86.4905 39.9557 87.0374 38.9502 87.6926 38.1679Z" fill="#F7E36F"/>
<path d="M93.8143 34.2574C93.049 34.0341 92.503 33.5867 91.9561 33.0286L94.3613 30.2353C94.6889 29.7879 95.4542 30.0111 95.4542 30.5702L96.0002 34.1458C95.4542 34.369 94.6889 34.4806 93.8143 34.2574Z" fill="#FF0050"/>
<path d="M109.227 52.8051C107.806 56.1565 102.34 59.3973 95.3449 59.3973C88.3487 59.3973 82.8831 56.1565 81.4625 52.8051H74.1387C75.2316 60.626 84.4137 66.7707 95.4541 66.6591C106.495 66.6591 115.457 60.5144 116.66 52.8051H109.227Z" fill="#0054FF"/>
</g>
</g>
<defs>
<clipPath id="clip0_220_17720">
<rect width="140" height="53" fill="white" transform="translate(10 23.5)"/>
</clipPath>
</defs>
</svg>
