<svg width="160" height="100" viewBox="0 0 160 100" fill="none" xmlns="http://www.w3.org/2000/svg">
<rect width="160" height="100" rx="10" fill="white"/>
<g clip-path="url(#clip0_220_17728)">
<mask id="mask0_220_17728" style="mask-type:luminance" maskUnits="userSpaceOnUse" x="10" y="-63" width="140" height="228">
<path d="M150 -62.421H10V164.947H150V-62.421Z" fill="white"/>
</mask>
<g mask="url(#mask0_220_17728)">
<mask id="mask1_220_17728" style="mask-type:luminance" maskUnits="userSpaceOnUse" x="10" y="20" width="140" height="62">
<path d="M150 20.9474H10V81.579H150V20.9474Z" fill="white"/>
</mask>
<g mask="url(#mask1_220_17728)">
<path d="M14.347 64.0412L10.0732 38.4578H12.876L16.1595 58.1084L19.6782 38.4562L22.2915 38.4578L25.8223 58.2115L29.1207 38.4638L31.9235 38.4562L27.6479 64.0367L24.399 64.0322L20.9858 44.9256L17.5698 64.0367L14.347 64.0412Z" fill="#BE11A5"/>
<path d="M33.8564 38.4714H36.5248V64.0246H33.8564V38.4714Z" fill="#BE11A5"/>
<path d="M42.2295 60.0167H48.7255V64.0244H39.6162V38.4713H42.2295V60.0167Z" fill="#BE11A5"/>
<path d="M56.932 38.5016C59.1226 38.5016 60.9444 39.7385 62.379 42.1849C63.8331 44.6314 64.5695 47.6676 64.5695 51.263C64.5695 54.8297 63.8331 57.8643 62.379 60.3411C60.9444 62.7876 59.1226 64.0244 56.932 64.0244H50.6572V38.4713H56.932V38.5016ZM56.932 60.0455C58.4412 60.0455 59.6742 59.2209 60.5944 57.5702C61.5511 55.9195 62.0299 53.7974 62.0299 51.2918C62.0299 48.7286 61.5511 46.6656 60.5944 45.0149C59.6555 43.3642 58.4226 42.5381 56.932 42.5381H53.2892V60.0455H56.932Z" fill="#BE11A5"/>
<path d="M78.6459 56.7244C78.6459 58.8192 78.1867 60.5593 77.2478 61.9448C76.3098 63.3302 75.2057 64.0381 73.8439 64.0381H67.0166V38.4713H73.3465C74.6531 38.4713 75.7573 39.1791 76.6589 40.5054C77.5791 41.8621 78.0206 43.5431 78.0206 45.5485C78.0206 47.7903 77.469 49.5001 76.4013 50.7689C77.8003 51.9481 78.6459 54.0702 78.6459 56.7244ZM69.6477 42.4229V49.147H73.3651C74.5243 49.147 75.4073 47.6721 75.4073 45.7849C75.4073 43.8978 74.5243 42.4229 73.3651 42.4229H69.6477ZM73.8617 60.0864C75.0759 60.0864 76.0335 58.5236 76.0335 56.5183C76.0335 54.5129 75.0759 52.9501 73.8617 52.9501H69.6477V60.1167H73.8617V60.0864Z" fill="#BE11A5"/>
<path d="M83.7442 60.0274H90.8105V64.0382H81.1309V38.4714H90.7003V42.4822H83.7442V49.1168H90.1301V53.0987H83.7442V60.0274Z" fill="#BE11A5"/>
<path d="M102.257 64.0381L98.8705 54.719H95.7784V64.0381H93.166V38.4713H99.5509C100.986 38.4713 102.201 39.267 103.176 40.8889C104.17 42.4517 104.685 44.398 104.685 46.699C104.685 49.9428 103.415 52.9213 101.52 54.1006L105.145 64.0381H102.257ZM95.7784 42.4229V50.975H99.5332C100.931 50.975 102.035 49.0878 102.035 46.699C102.035 44.3404 100.913 42.4229 99.5332 42.4229H95.7784Z" fill="#BE11A5"/>
<path d="M116.223 64.0382L112.856 54.7146H109.764V64.0382H107.151V38.4578H113.536C114.972 38.4578 116.187 39.2551 117.162 40.877C118.155 42.4413 118.671 44.389 118.671 46.69C118.671 49.9353 117.401 52.9154 115.506 54.0962L119.131 64.0382H116.223ZM109.764 42.4125V50.9676H113.519C114.917 50.9676 116.021 49.0804 116.021 46.69C116.021 44.3299 114.899 42.4125 113.519 42.4125H109.764Z" fill="#BE11A5"/>
<path d="M121.045 38.4609H123.658V64.0383H121.045V38.4609Z" fill="#BE11A5"/>
<path d="M129.362 60.0273H136.43V64.0381H126.749V38.4713H136.318V42.482H129.362V49.1166H135.748V53.0986H129.362V60.0273Z" fill="#BE11A5"/>
<path d="M138.251 58.2191L140.514 56.097C141.158 58.9846 142.465 60.4003 144.47 60.4003C146.458 60.4003 147.433 59.0437 147.433 57.0398C147.433 55.9788 147.157 55.2133 146.642 54.6828C146.126 54.1219 145.17 53.5035 143.808 52.8547C142.28 52.1181 141.526 51.6467 140.458 50.5265C139.429 49.3472 138.913 47.6677 138.913 45.3683C138.913 43.0991 139.409 41.3302 140.422 40.0039C141.416 38.6488 142.63 38 144.047 38C146.605 38 148.574 40.1221 149.605 43.6296L147.396 45.6638C146.733 43.3053 145.611 42.0972 144.047 42.0972C142.519 42.0972 141.544 43.3341 141.544 45.2803C141.544 47.166 142.317 48.0512 144.765 49.2593C145.372 49.5837 145.814 49.8186 146.089 49.996C146.384 50.143 146.77 50.4083 147.267 50.7326C147.783 51.057 148.188 51.4405 148.427 51.7649C149.274 52.8259 150.174 54.5645 150.064 57.011C150.064 59.309 149.549 61.1658 148.5 62.5224C147.47 63.8776 146.108 64.5263 144.416 64.5263C141.324 64.4975 139.079 62.1389 138.251 58.2191Z" fill="#BE11A5"/>
</g>
</g>
</g>
<defs>
<clipPath id="clip0_220_17728">
<rect width="140" height="80" fill="white" transform="translate(10 10)"/>
</clipPath>
</defs>
</svg>
