<svg width="751" height="583" viewBox="0 0 751 583" fill="none" xmlns="http://www.w3.org/2000/svg">
<path d="M101.78 189.856C98.4986 189.373 95.3998 188.035 92.7946 185.977C90.1894 183.919 88.1695 181.212 86.9376 178.13L61.3717 114.135C60.5005 111.951 59.0753 110.031 57.237 108.564C55.3986 107.097 53.2106 106.135 50.8892 105.772L24.946 101.7C18.4809 100.688 12.3249 98.2279 6.93748 94.5038L3.44128 92.0848C2.80874 91.6506 2.31039 91.0477 2.00303 90.3447C1.69566 89.6418 1.59161 88.867 1.70276 88.1086C1.81391 87.3503 2.13575 86.6389 2.63166 86.0554C3.12757 85.472 3.7776 85.04 4.50769 84.8086L8.54444 83.4994C14.7646 81.4884 21.3609 80.907 27.8428 81.7985L53.8719 85.4013C56.1993 85.722 58.5687 85.4304 60.7465 84.5554C62.9244 83.6804 64.8355 82.2521 66.2915 80.4114L108.946 26.4754C111.001 23.876 113.704 21.8648 116.785 20.6439C119.865 19.4229 123.215 19.0352 126.496 19.5197C108.863 43.1284 96.2856 74.0071 91.4353 86.9565C91.281 87.3701 91.2218 87.8134 91.2622 88.2534C91.3026 88.6935 91.4415 89.119 91.6686 89.4984C91.8957 89.8778 92.2052 90.2013 92.5741 90.4449C92.943 90.6886 93.3619 90.8461 93.7995 90.9057L96.0176 85.6521C96.5359 84.4161 97.5027 83.4229 98.7239 82.8719C99.9451 82.3208 101.33 82.2526 102.602 82.681L109.691 85.0753C110.65 85.3982 111.476 86.0305 112.037 86.8728C112.623 87.7505 113.494 88.3988 114.502 88.7077L117.069 89.4972L114.059 89.5811C113.123 89.6061 112.219 89.9203 111.469 90.4804L110.202 91.4222L108.143 92.8973L113.658 93.6574C117.201 94.1474 120.669 95.0843 123.979 96.4459L140.629 103.302L150.246 85.6604C151.249 83.8278 152.843 82.3896 154.769 81.5793C156.694 80.7689 158.838 80.634 160.853 81.1964L167.126 82.9465L153.133 108.439L157.767 110.35C157.932 110.416 158.069 110.535 158.158 110.689C158.247 110.842 158.281 111.02 158.256 111.195C158.231 111.371 158.148 111.532 158.02 111.654C157.892 111.776 157.726 111.851 157.55 111.867L152.565 112.358L158.726 140.809L152.165 140.673C150.086 140.63 148.081 139.889 146.471 138.569C144.862 137.249 143.741 135.427 143.29 133.396L138.908 113.679L121.216 115.435C117.658 115.786 114.068 115.684 110.534 115.13L105.031 114.266L106.587 116.274L107.531 117.544C108.09 118.296 108.868 118.858 109.758 119.151L112.617 120.104L109.934 120.123C108.881 120.13 107.864 120.501 107.055 121.174C106.277 121.818 105.306 122.185 104.296 122.218L96.8031 122.452C95.4629 122.495 94.1549 122.03 93.1414 121.149C92.1279 120.269 91.484 119.038 91.3388 117.704L90.7198 112.023C90.2836 111.953 89.8374 111.982 89.4145 112.108C88.9916 112.235 88.603 112.455 88.2776 112.754C87.9522 113.052 87.6985 113.42 87.5354 113.83C87.3723 114.24 87.304 114.682 87.3356 115.123C88.3174 128.934 91.5913 162.147 101.78 189.856Z" fill="#1DA99D" fill-opacity="0.2"/>
<g clip-path="url(#clip0_338_9521)">
<path d="M481.961 232.5C481.961 231.862 482.479 231.328 483.129 231.328H483.706V273.059H483.129C482.493 273.059 481.961 272.54 481.961 271.887V232.485V232.5Z" fill="#1C1C61"/>
<path d="M481.961 179.515C481.961 178.878 482.479 178.344 483.129 178.344H483.706V220.074H483.129C482.493 220.074 481.961 219.555 481.961 218.903V179.5V179.515Z" fill="#1C1C61"/>
<path d="M481 139.937C481 139.299 481.518 138.766 482.168 138.766H483.721V159.334H482.168C481.532 159.334 481 158.815 481 158.163V139.922V139.937Z" fill="#1C1C61"/>
<path d="M749.258 207.281H749.835C750.471 207.281 751.003 207.8 751.003 208.453V271.909C751.003 272.546 750.485 273.08 749.835 273.08H749.258V207.296V207.281Z" fill="#1C1C61"/>
<path d="M483.703 138.961V159.441" stroke="black" stroke-width="0.250971"/>
<path d="M483.703 178.555V219.989" stroke="black" stroke-width="0.250971"/>
<path d="M700.667 33H532.287C505.455 33 483.703 54.8105 483.703 81.7152V534.285C483.703 561.189 505.455 583 532.287 583H700.667C727.5 583 749.251 561.189 749.251 534.285V81.7152C749.251 54.8105 727.5 33 700.667 33Z" fill="#1C1C61"/>
<path d="M697.559 39.2422H534.592C509.9 39.2422 489.883 59.3132 489.883 84.072V531.214C489.883 555.973 509.9 576.044 534.592 576.044H697.559C722.251 576.044 742.268 555.973 742.268 531.214V84.072C742.268 59.3132 722.251 39.2422 697.559 39.2422Z" fill="#FBF5E2" stroke="black" stroke-width="10.0967"/>
<path d="M637.374 305.173L609.255 289.854C608.781 289.596 608.239 289.455 607.684 289.446C607.129 289.436 606.581 289.559 606.097 289.801C605.612 290.043 605.209 290.396 604.929 290.823C604.648 291.25 604.5 291.736 604.5 292.231V322.87C604.5 323.365 604.649 323.851 604.929 324.277C605.21 324.704 605.613 325.057 606.097 325.298C606.581 325.54 607.129 325.663 607.684 325.654C608.239 325.645 608.781 325.504 609.255 325.246L637.374 309.928C637.83 309.679 638.208 309.33 638.47 308.913C638.731 308.497 638.869 308.028 638.869 307.55C638.869 307.073 638.731 306.604 638.47 306.187C638.208 305.771 637.83 305.422 637.374 305.173V305.173Z" fill="#353432"/>
<rect x="581.359" y="59.1875" width="69.4241" height="19.9875" rx="9.99373" fill="black"/>
<path d="M539.445 579.992L543.32 580.096V583.003H539.445V579.992Z" fill="black"/>
<path d="M746.359 90.8359H749.258V94.7213H746.359V90.8359Z" fill="black"/>
<path d="M746.354 523.031H749.252V526.917H746.25L746.354 523.031Z" fill="black"/>
<path d="M645.312 35.9062C645.209 37.2113 644.129 38.2345 642.798 38.2345H590.147C588.816 38.2345 587.736 37.2113 587.633 35.9062H645.298H645.312Z" fill="black" stroke="#272727" stroke-width="0.501941"/>
<path d="M690.039 33H693.914V36.0104L690.039 35.8176V33Z" fill="black"/>
<path d="M483.71 91.6094H486.609L486.505 95.3909L483.695 95.4947V91.6094H483.71Z" fill="black"/>
<path d="M483.703 523.031H486.513L486.617 526.917H483.718V523.031H483.703Z" fill="black"/>
</g>
<path d="M248.251 231.834C248.902 232.294 249.588 232.739 250.278 233.144C250.577 233.317 250.932 233.364 251.266 233.276C251.599 233.188 251.884 232.971 252.058 232.673C252.145 232.525 252.202 232.362 252.225 232.192C252.248 232.023 252.237 231.85 252.193 231.684C252.149 231.519 252.073 231.363 251.969 231.228C251.865 231.092 251.734 230.977 251.586 230.892C249.224 229.519 247.1 227.773 245.296 225.721C245.184 225.593 245.048 225.487 244.896 225.41C244.743 225.334 244.578 225.288 244.408 225.276C244.238 225.264 244.067 225.285 243.905 225.339C243.743 225.393 243.594 225.478 243.465 225.589C243.336 225.701 243.231 225.836 243.155 225.989C243.078 226.141 243.033 226.307 243.021 226.477C243.009 226.647 243.03 226.818 243.084 226.98C243.138 227.141 243.223 227.291 243.334 227.42C244.786 229.087 246.438 230.569 248.251 231.834ZM258.158 236.268C258.293 236.364 258.445 236.433 258.606 236.473C261.523 237.19 264.534 237.442 267.529 237.221C267.699 237.207 267.865 237.16 268.016 237.083C268.168 237.005 268.303 236.899 268.413 236.769C268.524 236.64 268.608 236.489 268.66 236.327C268.712 236.165 268.732 235.994 268.719 235.825C268.705 235.655 268.658 235.489 268.581 235.337C268.503 235.186 268.396 235.051 268.267 234.94C268.137 234.829 267.987 234.745 267.825 234.693C267.663 234.64 267.492 234.62 267.322 234.634C264.585 234.836 261.834 234.607 259.168 233.955C258.998 233.913 258.821 233.906 258.649 233.934C258.476 233.961 258.311 234.023 258.162 234.115C258.014 234.207 257.885 234.328 257.784 234.471C257.683 234.613 257.611 234.775 257.573 234.945C257.528 235.199 257.56 235.46 257.664 235.696C257.768 235.931 257.94 236.13 258.158 236.268ZM239.276 220.277C239.448 220.395 239.646 220.471 239.853 220.497C240.06 220.524 240.271 220.5 240.467 220.428C240.628 220.371 240.776 220.283 240.902 220.168C241.029 220.053 241.131 219.914 241.203 219.759C241.275 219.604 241.316 219.437 241.323 219.266C241.329 219.095 241.302 218.925 241.242 218.765C240.303 216.194 239.767 213.493 239.653 210.759C239.646 210.589 239.606 210.421 239.534 210.267C239.462 210.112 239.361 209.973 239.236 209.857C239.11 209.741 238.963 209.651 238.803 209.593C238.643 209.534 238.473 209.507 238.303 209.514C238.132 209.521 237.965 209.561 237.81 209.633C237.656 209.704 237.516 209.805 237.401 209.931C237.285 210.056 237.196 210.203 237.137 210.363C237.078 210.523 237.052 210.693 237.059 210.864C237.171 213.871 237.75 216.843 238.774 219.674C238.878 219.902 239.042 220.097 239.247 220.24L239.276 220.277ZM275.009 234.814C275.194 234.955 275.413 235.043 275.644 235.07C275.875 235.097 276.108 235.061 276.32 234.965C278.719 233.801 280.877 232.195 282.68 230.231C282.946 229.936 283.205 229.648 283.453 229.344C283.562 229.213 283.644 229.062 283.695 228.898C283.746 228.735 283.764 228.564 283.748 228.394C283.733 228.224 283.684 228.058 283.604 227.907C283.525 227.756 283.416 227.621 283.285 227.512C283.154 227.403 283.002 227.32 282.839 227.269C282.676 227.219 282.504 227.2 282.334 227.216C282.164 227.231 281.999 227.28 281.848 227.359C281.697 227.439 281.563 227.547 281.453 227.678L280.764 228.475C279.181 230.198 277.286 231.607 275.181 232.629C275.027 232.703 274.89 232.807 274.777 232.935C274.664 233.063 274.577 233.211 274.521 233.373C274.466 233.534 274.443 233.705 274.453 233.875C274.464 234.046 274.508 234.212 274.583 234.366C274.68 234.533 274.817 234.674 274.981 234.777L275.009 234.814ZM238.479 203.306C238.616 203.398 238.767 203.468 238.927 203.511C239.097 203.552 239.273 203.56 239.446 203.532C239.619 203.504 239.784 203.442 239.933 203.349C240.081 203.255 240.209 203.133 240.309 202.99C240.409 202.846 240.479 202.684 240.515 202.513C241.148 199.814 242.099 197.201 243.349 194.727C243.473 194.423 243.477 194.082 243.361 193.774C243.245 193.467 243.017 193.214 242.723 193.066C242.429 192.919 242.09 192.888 241.775 192.98C241.459 193.072 241.189 193.279 241.02 193.561C239.684 196.219 238.666 199.025 237.987 201.921C237.924 202.166 237.935 202.425 238.017 202.664C238.099 202.904 238.249 203.114 238.45 203.269L238.479 203.306ZM409.879 311.136C410.158 311.337 410.506 311.419 410.846 311.364C411.186 311.309 411.491 311.121 411.692 310.841C411.893 310.562 411.975 310.213 411.919 309.873C411.864 309.533 411.675 309.229 411.396 309.027C409.217 307.421 406.979 305.634 404.78 303.686C404.517 303.464 404.178 303.354 403.835 303.379C403.492 303.403 403.173 303.562 402.945 303.819C402.833 303.948 402.748 304.098 402.694 304.26C402.64 304.422 402.618 304.594 402.631 304.764C402.643 304.935 402.689 305.101 402.766 305.254C402.843 305.407 402.95 305.543 403.08 305.654C405.363 307.618 407.649 309.45 409.883 311.097L409.879 311.136ZM417.043 315.923L417.095 315.989C419.602 317.495 422.195 318.855 424.859 320.062C425.171 320.181 425.516 320.176 425.824 320.048C426.132 319.92 426.379 319.68 426.515 319.375C426.651 319.071 426.666 318.726 426.556 318.411C426.445 318.096 426.219 317.835 425.923 317.682C423.352 316.522 420.851 315.212 418.433 313.76C418.137 313.584 417.782 313.533 417.448 313.617C417.114 313.702 416.826 313.915 416.649 314.211C416.485 314.493 416.435 314.826 416.509 315.144C416.582 315.462 416.773 315.74 417.043 315.923ZM396.799 299.94C396.93 300.049 397.082 300.13 397.244 300.18C397.407 300.23 397.578 300.248 397.748 300.231C397.917 300.215 398.082 300.166 398.233 300.086C398.383 300.006 398.516 299.898 398.625 299.766C398.733 299.635 398.814 299.484 398.864 299.321C398.914 299.158 398.931 298.987 398.915 298.817C398.899 298.648 398.849 298.483 398.77 298.332C398.69 298.182 398.581 298.049 398.45 297.94C397.386 296.914 396.302 295.832 395.208 294.723C394.294 293.78 393.362 292.816 392.438 291.846C392.194 291.626 391.875 291.507 391.547 291.511C391.219 291.516 390.904 291.644 390.666 291.87C390.428 292.097 390.284 292.404 390.263 292.732C390.242 293.06 390.345 293.384 390.552 293.639C391.482 294.617 392.425 295.596 393.358 296.547C394.458 297.664 395.567 298.762 396.648 299.81C396.695 299.857 396.745 299.9 396.799 299.94ZM285.825 221.996C285.927 222.064 286.036 222.122 286.15 222.167C286.477 222.275 286.834 222.251 287.143 222.099C287.452 221.948 287.689 221.681 287.804 221.356C288.757 218.506 289.289 215.533 289.383 212.529C289.375 212.196 289.239 211.878 289.005 211.642C288.77 211.405 288.454 211.267 288.121 211.255C287.789 211.244 287.464 211.36 287.214 211.58C286.964 211.8 286.808 212.108 286.777 212.439C286.7 215.187 286.215 217.908 285.338 220.513C285.249 220.779 285.248 221.068 285.335 221.335C285.423 221.602 285.595 221.834 285.825 221.996ZM432.737 322.913C432.857 322.991 432.986 323.053 433.121 323.097C434.535 323.5 435.967 323.865 437.394 324.163C438.82 324.461 440.286 324.704 441.761 324.868C441.934 324.892 442.11 324.881 442.278 324.836C442.446 324.79 442.604 324.711 442.74 324.602C442.877 324.494 442.99 324.359 443.073 324.205C443.156 324.052 443.206 323.883 443.222 323.709C443.244 323.537 443.231 323.362 443.184 323.195C443.137 323.027 443.057 322.871 442.949 322.735C442.841 322.598 442.707 322.485 442.555 322.401C442.403 322.318 442.235 322.265 442.062 322.247C440.682 322.088 439.31 321.861 437.951 321.565C436.596 321.282 435.223 320.93 433.874 320.535C433.578 320.451 433.261 320.474 432.981 320.601C432.7 320.728 432.473 320.949 432.341 321.227C432.208 321.505 432.177 321.821 432.255 322.119C432.332 322.417 432.513 322.678 432.764 322.856L432.737 322.913ZM384.945 287.439C385.204 287.633 385.526 287.723 385.848 287.691C386.169 287.66 386.468 287.509 386.684 287.269C386.901 287.029 387.019 286.716 387.017 286.393C387.015 286.069 386.892 285.758 386.672 285.521C384.823 283.414 382.935 281.184 381.145 278.971C380.92 278.733 380.615 278.587 380.288 278.563C379.962 278.539 379.639 278.639 379.382 278.842C379.126 279.045 378.955 279.338 378.904 279.661C378.853 279.984 378.925 280.315 379.107 280.588C380.892 282.839 382.797 285.045 384.692 287.21C384.768 287.295 384.852 287.372 384.945 287.439ZM246.051 187.975C246.317 188.173 246.65 188.261 246.979 188.222C247.308 188.182 247.61 188.018 247.821 187.762C249.585 185.628 251.593 183.707 253.804 182.041C254.079 181.833 254.26 181.524 254.308 181.183C254.356 180.841 254.267 180.494 254.06 180.218C253.959 180.08 253.831 179.964 253.685 179.877C253.539 179.789 253.376 179.731 253.207 179.706C253.038 179.682 252.866 179.691 252.701 179.734C252.536 179.776 252.38 179.852 252.245 179.955C249.867 181.745 247.711 183.811 245.821 186.109C245.711 186.24 245.628 186.391 245.578 186.554C245.527 186.717 245.51 186.889 245.526 187.059C245.542 187.229 245.592 187.394 245.673 187.544C245.753 187.695 245.863 187.828 245.996 187.936C246.017 187.959 246.042 187.98 246.068 187.997L246.051 187.975ZM374.08 274.069C374.333 274.254 374.644 274.341 374.955 274.315C375.267 274.288 375.559 274.15 375.777 273.925C375.994 273.7 376.123 273.404 376.139 273.092C376.156 272.779 376.059 272.471 375.866 272.224C374.156 269.948 372.466 267.608 370.855 265.277C370.762 265.125 370.639 264.994 370.493 264.891C370.348 264.789 370.183 264.718 370.008 264.681C369.834 264.645 369.654 264.645 369.48 264.68C369.306 264.716 369.141 264.787 368.995 264.889C368.849 264.991 368.726 265.121 368.632 265.272C368.539 265.424 368.477 265.593 368.451 265.769C368.425 265.945 368.436 266.124 368.482 266.296C368.528 266.468 368.608 266.629 368.718 266.769C370.354 269.116 372.061 271.478 373.794 273.784C373.871 273.895 373.968 273.992 374.08 274.069ZM449.746 324.823C449.993 324.99 450.287 325.071 450.583 325.053C453.526 324.853 456.445 324.391 459.306 323.673C459.58 323.542 459.799 323.319 459.925 323.043C460.052 322.767 460.079 322.456 460.001 322.163C459.923 321.869 459.746 321.612 459.499 321.435C459.252 321.258 458.951 321.173 458.649 321.193C455.942 321.879 453.178 322.317 450.392 322.501C450.221 322.512 450.054 322.557 449.901 322.633C449.748 322.709 449.611 322.814 449.499 322.943C449.386 323.072 449.301 323.222 449.246 323.384C449.192 323.546 449.171 323.718 449.183 323.888C449.204 324.081 449.266 324.266 449.367 324.432C449.467 324.597 449.603 324.738 449.764 324.845L449.746 324.823ZM364.261 259.918C364.508 260.089 364.807 260.169 365.106 260.145C365.405 260.122 365.687 259.996 365.904 259.789C366.121 259.582 366.26 259.306 366.298 259.008C366.336 258.71 366.269 258.409 366.111 258.154C365.536 257.264 364.976 256.362 364.415 255.461C363.502 253.994 362.593 252.487 361.626 250.848C361.451 250.551 361.165 250.336 360.831 250.25C360.497 250.164 360.143 250.215 359.846 250.39C359.55 250.565 359.335 250.851 359.249 251.185C359.164 251.518 359.214 251.873 359.389 252.169C360.345 253.794 361.288 255.344 362.206 256.832C362.772 257.74 363.338 258.649 363.919 259.546C364.007 259.692 364.124 259.818 364.261 259.918ZM286.528 204.967C286.743 205.114 286.998 205.194 287.258 205.195C287.519 205.197 287.774 205.12 287.991 204.975C288.207 204.83 288.376 204.624 288.474 204.382C288.572 204.141 288.596 203.875 288.542 203.62C288.167 201.9 287.669 200.209 287.052 198.561C286.635 197.45 286.161 196.326 285.608 195.239C285.445 194.953 285.18 194.74 284.866 194.641C284.552 194.542 284.212 194.565 283.914 194.706C283.617 194.847 283.384 195.095 283.262 195.401C283.14 195.707 283.138 196.047 283.256 196.355C283.747 197.394 284.196 198.456 284.572 199.515C285.138 201.054 285.593 202.631 285.935 204.234C286.036 204.543 286.247 204.804 286.528 204.967ZM157.406 112.213C157.523 112.295 157.653 112.357 157.79 112.397C160.521 113.185 163.26 114.013 165.978 114.919C166.305 115.025 166.662 114.998 166.969 114.841C167.275 114.685 167.508 114.413 167.614 114.086C167.72 113.758 167.692 113.402 167.536 113.095C167.379 112.788 167.107 112.555 166.78 112.449C164.048 111.555 161.272 110.695 158.509 109.897C158.211 109.805 157.891 109.824 157.606 109.949C157.321 110.074 157.091 110.297 156.957 110.578C156.823 110.859 156.795 111.179 156.877 111.479C156.96 111.779 157.147 112.039 157.406 112.213ZM355.468 245.109C355.709 245.28 356.001 245.365 356.296 245.347C356.591 245.33 356.872 245.212 357.091 245.013C357.31 244.815 357.454 244.547 357.5 244.255C357.546 243.963 357.49 243.663 357.343 243.407C356.047 241.112 354.772 238.8 353.49 236.494L353.155 235.89C353.073 235.74 352.963 235.607 352.829 235.5C352.696 235.392 352.543 235.312 352.379 235.264C352.215 235.216 352.043 235.201 351.873 235.22C351.703 235.239 351.538 235.291 351.389 235.374C351.088 235.543 350.866 235.824 350.771 236.156C350.675 236.488 350.714 236.844 350.879 237.147L351.215 237.75C352.502 240.064 353.777 242.376 355.079 244.678C355.172 244.851 355.305 244.999 355.468 245.109ZM173.791 117.583C173.884 117.654 173.987 117.708 174.098 117.745C176.768 118.712 179.465 119.741 182.106 120.791C182.426 120.919 182.784 120.916 183.101 120.781C183.417 120.645 183.668 120.39 183.796 120.07C183.924 119.75 183.92 119.393 183.785 119.076C183.65 118.759 183.394 118.508 183.074 118.38C180.395 117.312 177.68 116.274 174.965 115.283C174.668 115.169 174.339 115.169 174.042 115.282C173.745 115.395 173.5 115.614 173.353 115.896C173.207 116.179 173.169 116.505 173.248 116.813C173.326 117.122 173.516 117.391 173.78 117.569L173.791 117.583ZM259.718 177.779C259.903 177.909 260.119 177.988 260.344 178.008C260.569 178.029 260.795 177.989 261 177.895C263.05 177.013 265.17 176.304 267.338 175.774C267.506 175.986 267.733 176.151 267.923 176.346C268.16 176.564 268.468 176.686 268.79 176.691C269.111 176.695 269.423 176.581 269.665 176.369C269.907 176.158 270.063 175.865 270.102 175.546C270.142 175.227 270.062 174.904 269.879 174.64C269.981 174.4 270.007 174.134 269.953 173.879C269.883 173.544 269.683 173.25 269.398 173.062C269.112 172.873 268.764 172.805 268.429 172.872L268.13 172.93L267.854 172.673C266.413 171.291 264.919 169.903 263.413 168.573C263.156 168.345 262.82 168.226 262.477 168.242C262.134 168.258 261.811 168.408 261.577 168.659C261.462 168.785 261.373 168.933 261.315 169.093C261.257 169.254 261.231 169.424 261.239 169.595C261.247 169.766 261.289 169.933 261.362 170.087C261.435 170.242 261.538 170.38 261.665 170.495C262.818 171.545 263.977 172.615 265.126 173.705C263.367 174.209 261.642 174.826 259.961 175.55C259.748 175.64 259.563 175.786 259.426 175.973C259.288 176.159 259.203 176.379 259.179 176.609C259.156 176.84 259.194 177.072 259.29 177.283C259.387 177.494 259.538 177.675 259.728 177.807L259.718 177.779ZM279.396 189.447C279.648 189.616 279.95 189.693 280.252 189.663C280.554 189.634 280.836 189.501 281.05 189.286C281.263 189.071 281.396 188.789 281.424 188.487C281.453 188.185 281.375 187.883 281.205 187.632C279.527 185.238 277.709 182.945 275.76 180.766C275.531 180.509 275.209 180.353 274.865 180.333C274.521 180.313 274.184 180.431 273.927 180.66C273.67 180.889 273.514 181.211 273.495 181.555C273.475 181.899 273.593 182.237 273.822 182.494C275.7 184.599 277.454 186.81 279.075 189.118C279.165 189.244 279.273 189.355 279.396 189.447ZM189.794 123.972C189.864 124.023 189.939 124.068 190.018 124.104C192.622 125.242 195.247 126.436 197.814 127.663C198.125 127.812 198.482 127.831 198.806 127.717C199.13 127.602 199.396 127.364 199.544 127.053C199.693 126.743 199.712 126.386 199.597 126.062C199.483 125.737 199.244 125.471 198.933 125.323C196.341 124.079 193.692 122.87 191.063 121.715C190.765 121.568 190.422 121.54 190.105 121.637C189.787 121.735 189.52 121.951 189.357 122.241C189.194 122.53 189.149 122.871 189.23 123.193C189.311 123.515 189.513 123.794 189.794 123.972ZM205.34 131.39C205.389 131.424 205.441 131.454 205.495 131.481C208.015 132.782 210.553 134.151 213.042 135.535C213.191 135.619 213.355 135.671 213.524 135.691C213.693 135.711 213.864 135.697 214.028 135.651C214.192 135.605 214.345 135.527 214.478 135.421C214.612 135.315 214.723 135.185 214.806 135.036C214.889 134.887 214.942 134.724 214.962 134.555C214.981 134.385 214.967 134.214 214.921 134.05C214.874 133.886 214.796 133.733 214.691 133.6C214.585 133.466 214.454 133.355 214.305 133.271C211.798 131.866 209.228 130.486 206.684 129.168C206.388 129.016 206.045 128.983 205.725 129.075C205.405 129.167 205.133 129.378 204.964 129.664C204.794 129.95 204.741 130.291 204.814 130.616C204.887 130.941 205.081 131.225 205.357 131.412L205.34 131.39ZM347.089 230.042C347.288 230.19 347.527 230.277 347.776 230.292C348.024 230.306 348.271 230.248 348.487 230.124C348.635 230.04 348.766 229.928 348.87 229.794C348.975 229.659 349.053 229.506 349.098 229.341C349.144 229.177 349.156 229.005 349.135 228.836C349.114 228.667 349.06 228.503 348.976 228.355C347.399 225.556 345.995 223.096 344.643 220.881C344.556 220.735 344.44 220.607 344.304 220.505C344.167 220.403 344.012 220.328 343.846 220.286C343.681 220.245 343.509 220.236 343.34 220.26C343.171 220.285 343.009 220.342 342.863 220.429C342.716 220.516 342.588 220.632 342.486 220.768C342.385 220.905 342.311 221.061 342.269 221.226C342.227 221.391 342.218 221.563 342.243 221.732C342.267 221.901 342.325 222.063 342.412 222.21C343.731 224.427 345.145 226.855 346.717 229.634C346.807 229.797 346.934 229.937 347.089 230.042ZM255.331 164.895C255.603 165.105 255.948 165.198 256.289 165.154C256.63 165.11 256.94 164.933 257.15 164.66C257.36 164.388 257.453 164.043 257.409 163.702C257.365 163.361 257.187 163.051 256.915 162.84C254.744 160.989 252.488 159.134 250.231 157.339C250.098 157.233 249.945 157.154 249.781 157.107C249.617 157.06 249.446 157.045 249.276 157.065C249.107 157.084 248.943 157.136 248.794 157.219C248.645 157.301 248.514 157.412 248.408 157.546C248.302 157.679 248.223 157.832 248.176 157.996C248.129 158.16 248.115 158.331 248.135 158.501C248.154 158.67 248.207 158.834 248.289 158.983C248.372 159.132 248.483 159.263 248.616 159.369C250.86 161.163 253.074 162.98 255.245 164.831L255.331 164.895ZM220.388 139.786L220.44 139.852C222.88 141.323 225.327 142.848 227.712 144.399C228.002 144.586 228.354 144.65 228.691 144.577C229.028 144.504 229.323 144.3 229.509 144.009C229.696 143.719 229.759 143.367 229.686 143.03C229.613 142.693 229.409 142.398 229.118 142.211C226.7 140.663 224.265 139.093 221.779 137.623C221.489 137.435 221.138 137.37 220.801 137.442C220.464 137.514 220.169 137.717 219.982 138.006C219.794 138.295 219.73 138.647 219.802 138.984C219.874 139.321 220.077 139.616 220.366 139.803L220.388 139.786ZM241.851 154.17C242.131 154.372 242.479 154.454 242.819 154.399C243.159 154.343 243.463 154.155 243.665 153.876C243.866 153.596 243.948 153.248 243.892 152.908C243.837 152.568 243.648 152.263 243.369 152.062C241.045 150.332 238.684 148.631 236.341 147.012C236.058 146.814 235.708 146.737 235.369 146.798C235.03 146.858 234.728 147.051 234.531 147.333C234.334 147.616 234.257 147.966 234.318 148.305C234.378 148.645 234.571 148.946 234.854 149.144C237.19 150.769 239.527 152.44 241.815 154.14L241.851 154.17ZM276.474 174.269C276.699 174.427 276.969 174.509 277.244 174.504C280.039 174.447 282.835 174.62 285.603 175.021C285.779 175.064 285.962 175.07 286.141 175.038C286.319 175.005 286.489 174.936 286.639 174.834C286.789 174.733 286.916 174.6 287.012 174.446C287.108 174.292 287.17 174.12 287.195 173.94C287.22 173.76 287.206 173.577 287.156 173.403C287.106 173.229 287.02 173.067 286.903 172.928C286.786 172.789 286.642 172.676 286.479 172.596C286.316 172.517 286.138 172.472 285.956 172.465C283.047 172.03 280.107 171.837 277.166 171.886C276.894 171.894 276.63 171.988 276.414 172.154C276.197 172.32 276.038 172.55 275.959 172.811C275.88 173.073 275.885 173.352 275.973 173.611C276.061 173.869 276.227 174.094 276.449 174.253L276.474 174.269ZM338.223 215.277C338.437 215.427 338.69 215.51 338.951 215.515C339.212 215.52 339.468 215.448 339.687 215.307C339.83 215.214 339.952 215.094 340.048 214.953C340.144 214.812 340.211 214.654 340.246 214.487C340.28 214.32 340.282 214.148 340.25 213.981C340.218 213.813 340.153 213.654 340.06 213.511L339.614 212.829C338.14 210.58 336.637 208.401 335.133 206.354C335.034 206.215 334.909 206.098 334.764 206.008C334.619 205.918 334.457 205.859 334.289 205.832C334.121 205.806 333.949 205.814 333.784 205.855C333.618 205.896 333.463 205.97 333.327 206.072C333.188 206.171 333.07 206.297 332.98 206.442C332.89 206.587 332.83 206.749 332.803 206.917C332.776 207.086 332.783 207.258 332.824 207.424C332.864 207.59 332.937 207.747 333.039 207.884C334.514 209.894 335.993 212.044 337.445 214.251L337.885 214.926C337.971 215.065 338.084 215.187 338.216 215.283L338.223 215.277ZM328.029 201.388C328.287 201.566 328.6 201.646 328.911 201.611C329.222 201.577 329.51 201.431 329.722 201.201C329.934 200.97 330.055 200.671 330.063 200.358C330.072 200.045 329.966 199.739 329.767 199.498C327.846 197.21 325.872 195.036 323.897 193.041C323.777 192.92 323.634 192.824 323.476 192.758C323.319 192.692 323.15 192.657 322.979 192.657C322.808 192.656 322.639 192.689 322.481 192.754C322.323 192.819 322.18 192.914 322.059 193.034C321.938 193.154 321.841 193.297 321.776 193.455C321.71 193.612 321.676 193.781 321.675 193.952C321.675 194.123 321.708 194.292 321.773 194.45C321.837 194.608 321.933 194.751 322.053 194.873C323.974 196.815 325.919 198.952 327.783 201.167C327.848 201.256 327.929 201.333 328.022 201.394L328.029 201.388ZM293.455 176.714C293.565 176.794 293.688 176.853 293.82 176.889C296.505 177.714 299.126 178.737 301.661 179.948C301.971 180.097 302.328 180.116 302.652 180.002C302.977 179.887 303.242 179.649 303.391 179.338C303.539 179.028 303.558 178.671 303.443 178.347C303.329 178.022 303.09 177.756 302.78 177.608C300.13 176.334 297.388 175.264 294.577 174.407C294.28 174.312 293.959 174.328 293.673 174.45C293.387 174.573 293.155 174.795 293.019 175.075C292.882 175.354 292.852 175.674 292.932 175.975C293.012 176.276 293.198 176.538 293.455 176.714ZM315.887 189.199C316.161 189.408 316.506 189.5 316.847 189.455C317.189 189.41 317.498 189.231 317.707 188.958C317.917 188.684 318.009 188.339 317.963 187.998C317.918 187.656 317.739 187.347 317.465 187.137C315.823 185.772 314.16 184.47 312.449 183.303C311.779 182.833 311.095 182.375 310.422 181.932C310.279 181.839 310.119 181.776 309.951 181.745C309.783 181.714 309.611 181.716 309.444 181.752C309.277 181.787 309.119 181.855 308.979 181.952C308.838 182.049 308.718 182.172 308.625 182.315C308.532 182.458 308.469 182.618 308.438 182.786C308.407 182.954 308.41 183.126 308.445 183.293C308.481 183.46 308.549 183.618 308.646 183.759C308.743 183.9 308.866 184.02 309.009 184.113C309.657 184.54 310.317 184.981 310.968 185.442C312.573 186.551 314.219 187.83 315.807 189.143L315.887 189.199Z" fill="#196E7E" fill-opacity="0.4" stroke="#176D7E" stroke-opacity="0.4" stroke-width="0.148566" stroke-miterlimit="10"/>
<defs>
<clipPath id="clip0_338_9521">
<rect width="270" height="550" fill="white" transform="translate(481 33)"/>
</clipPath>
</defs>
</svg>
