<svg width="12" height="59" viewBox="0 0 12 59" fill="none" xmlns="http://www.w3.org/2000/svg">
<path d="M6 59L11.7735 49L0.226498 49L6 59ZM7 1L7 4.37114e-08L5 -4.37114e-08L5 1L7 1ZM7 57.0667L7 56.0667L5 56.0667L5 57.0667L7 57.0667ZM5 49.3333L5 50.3333L7 50.3333L7 49.3333L5 49.3333ZM7 45.4667L7 44.4667L5 44.4667L5 45.4667L7 45.4667ZM5 37.7333L5 38.7333L7 38.7333L7 37.7333L5 37.7333ZM7 33.8667L7 32.8667L5 32.8667L5 33.8667L7 33.8667ZM5 26.1333L5 27.1333L7 27.1333L7 26.1333L5 26.1333ZM7 22.2667L7 21.2667L5 21.2667L5 22.2667L7 22.2667ZM5 14.5333L5 15.5333L7 15.5333L7 14.5333L5 14.5333ZM7 10.6667L7 9.66667L5 9.66667L5 10.6667L7 10.6667ZM5 2.93334L5 3.93334L7 3.93334L7 2.93334L5 2.93334ZM7 49.3333L7 45.4667L5 45.4667L5 49.3333L7 49.3333ZM7 37.7333L7 33.8667L5 33.8667L5 37.7333L7 37.7333ZM7 26.1333L7 22.2667L5 22.2667L5 26.1333L7 26.1333ZM7 14.5333L7 10.6667L5 10.6667L5 14.5333L7 14.5333ZM7 2.93334L7 1L5 1L5 2.93334L7 2.93334Z" fill="url(#paint0_linear_197_10393)"/>
<defs>
<linearGradient id="paint0_linear_197_10393" x1="6.99996" y1="-2.60767e-06" x2="6.99995" y2="60" gradientUnits="userSpaceOnUse">
<stop offset="0.0364583" stop-color="#26AA9D"/>
<stop offset="1" stop-opacity="0.15"/>
</linearGradient>
</defs>
</svg>
