<svg width="280" height="270" viewBox="0 0 280 270" fill="none" xmlns="http://www.w3.org/2000/svg">
<g clip-path="url(#clip0_78_1644)">
<mask id="mask0_78_1644" style="mask-type:luminance" maskUnits="userSpaceOnUse" x="0" y="0" width="280" height="270">
<path d="M280 0H0V270H280V0Z" fill="white"/>
</mask>
<g mask="url(#mask0_78_1644)">
<path d="M69.8711 150.386V108.819H95.3492V114.03H75.1465V126.811H93.29V132.022H75.1465V145.05H96.7643V150.262H69.8711V150.386Z" fill="#E43225"/>
<path d="M123.529 150.386L114.778 139.343L106.029 150.386H99.8523L111.819 135.62L99.209 120.358H106.157L114.778 131.774L123.529 120.358H130.348L118.382 135.62L129.705 150.386H123.529Z" fill="#E43225"/>
<path d="M138.198 145.919V166.392H132.922V135.744C132.922 127.927 139.099 119.614 148.749 119.614C158.528 119.614 165.863 125.57 165.863 135.372C165.863 144.927 158.4 151.503 149.907 151.503C145.79 151.503 140.256 149.765 138.198 145.919ZM160.33 135.372C160.33 128.672 155.826 124.701 147.849 125.073C143.988 125.198 138.069 127.927 138.584 137.481C138.712 140.584 142.058 146.415 149.393 146.415C155.698 146.415 160.33 142.941 160.33 135.372Z" fill="#E43225"/>
<path d="M170.367 150.386V120.358H175.643V123.584C178.216 120.731 182.205 119.738 186.452 119.738V125.198C185.808 125.073 179.503 124.329 175.643 132.27V150.51H170.367V150.386Z" fill="#E43225"/>
<path d="M187.867 135.372C187.867 126.686 194.301 119.614 203.18 119.614C214.246 119.614 218.364 126.686 218.364 135.744V138.226H193.658C194.044 143.933 199.319 146.912 204.21 146.788C207.812 146.663 210.257 145.671 212.831 143.189L216.305 146.663C213.088 149.641 208.97 151.626 203.952 151.626C194.558 151.503 187.867 144.802 187.867 135.372ZM202.794 124.701C197.775 124.701 193.915 128.92 193.658 133.511H212.831C212.831 129.044 209.485 124.701 202.794 124.701Z" fill="#E43225"/>
<path d="M221.065 146.167L224.926 142.817C224.797 142.817 226.856 144.802 227.113 144.927C228.014 145.671 228.915 146.167 230.073 146.415C233.419 147.284 239.466 147.036 239.981 142.569C240.238 140.087 238.308 138.723 236.12 137.854C233.29 136.861 230.202 136.489 227.371 135.248C224.154 133.883 222.095 131.526 222.095 128.051C222.095 118.993 235.477 117.505 241.525 121.723C241.782 121.971 244.742 124.577 244.613 124.577L240.753 127.555C238.823 125.322 237.021 124.205 232.904 124.205C230.845 124.205 228.014 125.073 227.499 127.183C226.727 130.161 230.202 131.277 232.518 131.898C235.606 132.643 238.951 133.138 241.654 134.752C245.385 136.985 246.286 141.825 244.871 145.547C243.327 149.641 238.694 151.254 234.577 151.379C229.687 151.626 225.441 150.138 221.966 146.788C221.709 146.788 221.065 146.167 221.065 146.167Z" fill="#E43225"/>
<path d="M248.217 146.167L252.077 142.817C251.949 142.817 254.007 144.802 254.265 144.927C255.165 145.671 256.066 146.167 257.225 146.415C260.57 147.284 266.618 147.036 267.133 142.569C267.39 140.087 265.459 138.723 263.272 137.854C260.442 136.861 257.353 136.489 254.522 135.248C251.305 133.883 249.247 131.526 249.247 128.051C249.247 118.993 262.628 117.505 268.676 121.723C268.934 121.971 271.893 124.577 271.765 124.577L267.905 127.555C265.974 125.322 264.173 124.205 260.055 124.205C257.996 124.205 255.165 125.073 254.651 127.183C253.879 130.161 257.353 131.277 259.669 131.898C262.758 132.643 266.103 133.138 268.805 134.752C272.537 136.985 273.437 141.825 272.022 145.547C270.478 149.641 265.846 151.254 261.728 151.379C256.838 151.626 252.592 150.138 249.118 146.788C248.86 146.788 248.217 146.167 248.217 146.167Z" fill="#E43225"/>
<path d="M273.309 120.359V117.132H272.15V116.512H275.239V117.132H274.081V120.359H273.309Z" fill="#E43225"/>
<path d="M279.099 120.359V117.38L277.94 120.359H277.684L276.525 117.38V120.359H275.882V116.512H276.911L277.94 119.118L278.97 116.512H280V120.359H279.099Z" fill="#E43225"/>
<path d="M34.0994 150.386L30.2392 140.459H9.3931L5.53287 150.386H0L16.7277 108.819H22.7755L39.3748 150.386H34.0994ZM19.5587 114.775L11.7098 135.372H28.0516L19.5587 114.775Z" fill="#F7971D"/>
<path d="M42.8496 150.386V108.819H48.2541V150.386H42.8496Z" fill="#F7971D"/>
<path d="M56.3604 150.386V120.979H61.7648V150.386H56.3604Z" fill="#F7971D"/>
<path d="M66.912 111.425C66.912 111.3 66.912 111.3 66.912 111.176C66.912 111.053 66.912 111.053 66.912 110.928C62.7942 110.804 59.4483 107.578 59.3199 103.607C59.1908 103.607 59.0624 103.607 58.934 103.607C58.8049 103.607 58.6765 103.607 58.5475 103.607C58.419 107.578 55.0731 110.804 50.9561 110.928C50.9561 111.053 50.9561 111.053 50.9561 111.176C50.9561 111.3 50.9561 111.3 50.9561 111.425C55.0731 111.548 58.419 114.775 58.5475 118.746C58.6765 118.746 58.8049 118.746 58.934 118.746C59.0624 118.746 59.1908 118.746 59.3199 118.746C59.4483 114.775 62.7942 111.548 66.912 111.425Z" fill="#F7971D"/>
</g>
</g>
<defs>
<clipPath id="clip0_78_1644">
<rect width="280" height="270" fill="white"/>
</clipPath>
</defs>
</svg>
