<svg width="280" height="270" viewBox="0 0 280 270" fill="none" xmlns="http://www.w3.org/2000/svg">
<path fill-rule="evenodd" clip-rule="evenodd" d="M170.699 162.309C155.738 172.985 134.006 178.632 115.34 178.632C89.1239 178.632 65.5618 169.279 47.6729 153.75C46.2546 152.515 47.5356 150.882 49.2285 151.809C68.4899 162.618 92.3265 169.147 116.895 169.147C133.503 169.147 151.758 165.838 168.503 158.956C171.065 157.897 173.215 160.544 170.699 162.309Z" fill="#FF9900"/>
<path fill-rule="evenodd" clip-rule="evenodd" d="M176.967 155.427C175.045 153.044 164.293 154.324 159.489 154.853C158.025 155.029 157.797 153.794 159.123 152.912C167.679 147.088 181.725 148.765 183.372 150.706C185.019 152.647 182.96 166.235 174.908 172.721C173.672 173.735 172.483 173.206 173.032 171.882C174.816 167.559 178.888 157.809 176.967 155.427Z" fill="#FF9900"/>
<path fill-rule="evenodd" clip-rule="evenodd" d="M159.81 111.926V106.279C159.81 105.441 160.497 104.868 161.274 104.868H187.49C188.314 104.868 189 105.441 189 106.279V111.132C189 111.926 188.268 112.985 187.033 114.662L173.444 133.368C178.477 133.235 183.83 133.985 188.405 136.456C189.457 137.029 189.732 137.824 189.778 138.662V144.662C189.778 145.5 188.817 146.471 187.856 145.941C179.804 141.882 169.098 141.397 160.131 145.985C159.216 146.471 158.255 145.5 158.255 144.662V138.926C158.255 138 158.255 136.456 159.216 135.044L174.954 113.294H161.274C160.497 113.338 159.81 112.765 159.81 111.926Z" fill="black"/>
<path fill-rule="evenodd" clip-rule="evenodd" d="M64.1437 147.132H56.183C55.4052 147.088 54.8104 146.515 54.7646 145.853V106.368C54.7646 105.574 55.4509 104.956 56.3202 104.956H63.732C64.5097 105 65.1503 105.574 65.196 106.279V111.441H65.3333C67.2548 106.456 70.915 104.118 75.8104 104.118C80.7973 104.118 83.9084 106.456 86.1503 111.441C88.0718 106.456 92.464 104.118 97.1764 104.118C100.516 104.118 104.176 105.441 106.418 108.441C108.935 111.75 108.431 116.603 108.431 120.838V145.765C108.431 146.559 107.745 147.177 106.876 147.177H98.915C98.1372 147.132 97.4967 146.515 97.4967 145.765V124.853C97.4967 123.177 97.6339 119.029 97.2679 117.441C96.6731 114.794 94.8888 114.044 92.5555 114.044C90.6339 114.044 88.6209 115.279 87.7973 117.265C86.9738 119.25 87.0653 122.603 87.0653 124.809V145.721C87.0653 146.515 86.379 147.132 85.5097 147.132H77.549C76.7712 147.088 76.1307 146.471 76.1307 145.721V124.809C76.1307 120.397 76.8627 113.912 71.2352 113.912C65.5163 113.912 65.745 120.221 65.745 124.809V145.721C65.6993 146.515 65.013 147.132 64.1437 147.132Z" fill="black"/>
<path fill-rule="evenodd" clip-rule="evenodd" d="M211.601 104.118C223.45 104.118 229.856 113.912 229.856 126.397C229.856 138.441 222.764 148.015 211.601 148.015C199.98 148.015 193.666 138.221 193.666 126C193.666 113.647 200.071 104.118 211.601 104.118ZM211.646 112.191C205.744 112.191 205.378 119.912 205.378 124.721C205.378 129.529 205.287 139.853 211.555 139.853C217.731 139.853 218.052 131.559 218.052 126.485C218.052 123.177 217.914 119.162 216.862 116.029C215.993 113.25 214.209 112.191 211.646 112.191Z" fill="black"/>
<path fill-rule="evenodd" clip-rule="evenodd" d="M245.183 147.132H237.222C236.444 147.088 235.804 146.471 235.804 145.721V106.235C235.849 105.529 236.536 104.956 237.314 104.956H244.725C245.412 105 246.006 105.441 246.144 106.059V112.103H246.281C248.523 106.721 251.634 104.118 257.17 104.118C260.738 104.118 264.261 105.353 266.457 108.75C268.562 111.926 268.562 117.221 268.562 121.059V145.897C268.47 146.603 267.83 147.132 267.052 147.132H259.046C258.314 147.088 257.719 146.559 257.627 145.897V124.456C257.627 120.132 258.131 113.824 252.64 113.824C250.719 113.824 248.934 115.059 248.019 117C246.921 119.427 246.738 121.809 246.738 124.456V145.721C246.738 146.515 246.052 147.132 245.183 147.132Z" fill="black"/>
<path fill-rule="evenodd" clip-rule="evenodd" d="M138.901 128.294C138.901 131.294 138.993 133.809 137.391 136.456C136.11 138.618 134.097 139.941 131.856 139.941C128.79 139.941 127.006 137.691 127.006 134.382C127.006 127.853 133.091 126.662 138.855 126.662V128.294H138.901ZM146.954 147.044C146.405 147.485 145.672 147.529 145.078 147.221C142.424 145.103 141.967 144.132 140.503 142.103C136.11 146.382 132.999 147.706 127.372 147.706C120.646 147.706 115.431 143.691 115.431 135.706C115.431 129.441 118.954 125.206 123.94 123.132C128.287 121.279 134.326 120.971 138.947 120.485V119.471C138.947 117.618 139.084 115.456 137.986 113.912C137.025 112.5 135.15 111.926 133.503 111.926C130.483 111.926 127.738 113.426 127.097 116.559C126.96 117.265 126.457 117.926 125.725 117.971L117.993 117.176C117.352 117.044 116.62 116.515 116.803 115.588C118.588 106.544 127.052 103.809 134.646 103.809C138.535 103.809 143.614 104.824 146.679 107.647C150.568 111.132 150.202 115.809 150.202 120.882V132.794C150.202 136.412 151.757 138 153.222 139.941C153.725 140.647 153.862 141.485 153.176 141.971C151.437 143.25 148.555 145.676 146.954 147.044Z" fill="black"/>
<path fill-rule="evenodd" clip-rule="evenodd" d="M34.3134 128.294C34.3134 131.294 34.4049 133.809 32.8036 136.456C31.5225 138.618 29.5094 139.941 27.2676 139.941C24.2022 139.941 22.4179 137.691 22.4179 134.382C22.4179 127.853 28.5029 126.662 34.2676 126.662V128.294H34.3134ZM42.3656 147.044C41.8166 147.485 41.0846 147.529 40.4898 147.221C37.8362 145.103 37.3787 144.132 35.9147 142.103C31.5225 146.382 28.4572 147.706 22.7839 147.706C16.0585 147.706 10.8428 143.691 10.8428 135.706C10.8428 129.441 14.3656 125.206 19.3526 123.132C23.699 121.279 29.7382 120.971 34.3591 120.485V119.471C34.3591 117.618 34.4964 115.456 33.3983 113.912C32.4375 112.5 30.5617 111.926 28.9147 111.926C25.8951 111.926 23.15 113.426 22.5094 116.559C22.3722 117.265 21.8689 117.926 21.1369 117.971L13.4049 117.176C12.7643 117.044 12.0323 116.515 12.2153 115.588C13.9996 106.544 22.4637 103.809 30.0585 103.809C33.9473 103.809 39.0258 104.824 42.0911 107.647C45.98 111.132 45.614 115.809 45.614 120.882V132.794C45.614 136.412 47.1696 138 48.6336 139.941C49.1369 140.647 49.2741 141.485 48.5879 141.971C46.8951 143.25 43.967 145.676 42.3656 147.044Z" fill="black"/>
</svg>
