<svg width="280" height="270" viewBox="0 0 280 270" fill="none" xmlns="http://www.w3.org/2000/svg">
<g clip-path="url(#clip0_78_1342)">
<mask id="mask0_78_1342" style="mask-type:luminance" maskUnits="userSpaceOnUse" x="0" y="0" width="280" height="270">
<path d="M280 0H0V270H280V0Z" fill="white"/>
</mask>
<g mask="url(#mask0_78_1342)">
<path fill-rule="evenodd" clip-rule="evenodd" d="M185.311 83.088H176.945L190.456 112.766L202.47 90.2232C203.325 88.2594 203.754 87.1218 203.754 86.3982C203.754 85.1562 203.325 84.5352 202.681 84.0186C201.718 83.502 200.325 83.088 197.966 83.088H194.96V81.2286H216.625V83.088H213.409C211.262 83.088 209.653 83.6064 208.369 84.8484C207.081 85.8816 205.901 87.7428 204.398 90.5346L191.531 114.836L214.482 164.266H222.63V166.232H193.566V164.266H202.683L185.099 126.419L167.403 160.132C167.082 160.853 166.867 161.575 166.867 162.094C166.867 163.645 168.368 164.264 171.048 164.264H175.874V166.232H152.389V164.264H154.961C157.642 164.164 159.787 163.75 161.179 163.229C163.111 162.403 164.722 160.645 166.008 158.062L184.238 124.349L164.72 83.088H156.033V81.2286H185.311V83.088ZM279.143 189.086L279.358 191.876V192.083H278.929C278.929 190.534 277.855 189.603 275.925 189.603H273.459V194.668H274.533C275.389 194.668 276.143 194.254 276.463 193.428V192.6H276.784V197.255H276.463L276.143 195.701C275.925 195.287 275.389 195.187 274.533 195.187H273.459V200.354H275.606L278.822 199.944L279.464 198.805L279.681 197.563V197.255H280V200.666H279.895V200.975H270.028V200.666V200.354H271.423V189.601H270.028V189.085L279.143 189.086ZM231.959 189.086L238.396 197.564V190.534C238.396 190.015 238.073 189.603 237.537 189.603H236.57V189.293H236.785V189.086H240.328V189.293H240.219V189.603H239.469C239.146 189.603 238.931 189.81 238.717 190.017V200.668H238.612V200.975H238.396L230.354 190.121V199.426C230.354 199.944 230.673 200.354 231.426 200.354H231.961V200.666V200.975H228.422V200.666V200.354H228.958C229.359 200.369 229.749 200.219 230.029 199.944V189.601H228.422V189.085L231.959 189.086ZM213.942 188.775L210.192 199.426L209.119 200.354H208.583V200.666H209.227H208.369V200.975H211.908V200.666V200.354H211.049C210.515 200.354 210.297 200.151 210.297 199.944L211.262 197.255H215.014L216.087 200.354H214.48V200.666V200.975H219.412V200.666H218.019H219.626V200.354H218.019L213.942 188.775ZM212.979 191.876L214.801 196.529H211.37L212.979 191.876ZM255.015 189.086L257.161 189.603H257.376L255.229 189.086H253.941H255.015ZM259.306 189.086V192.6H259.091V192.911H258.987C258.772 192.083 258.449 191.155 257.914 190.534C256.947 189.603 256.09 189.292 255.017 189.292C253.409 189.292 252.551 190.12 252.013 192.083C251.703 192.947 251.63 193.873 251.798 194.773C251.584 198.598 252.872 200.459 255.229 200.666C256.626 200.459 257.484 200.151 257.699 199.323L257.914 198.909V197.563H256.303V197.255H256.411V196.839H261.128V197.563H259.627V199.424C258.242 200.327 256.669 200.927 255.017 201.182C253.409 201.182 252.123 200.666 251.265 199.631C250.191 198.391 249.657 197.046 249.872 195.187L249.977 193.219C250.191 192.188 250.731 191.362 251.477 190.634C252.336 189.499 253.624 188.773 255.229 188.773L257.376 189.292L258.449 190.015L258.987 189.601V189.499L259.091 189.085L259.306 189.086ZM255.229 200.873L253.941 200.666L255.015 200.975L256.838 200.459L255.229 200.873ZM171.692 189.086H172.766C173.514 189.086 174.266 189.293 174.8 189.603L175.34 190.017C174.586 189.5 173.837 189.088 172.98 189.088H171.692V189.086ZM151.743 189.086V189.293H151.529V189.603H150.455L152.602 193.428L154.532 190.327L154.747 190.015C154.747 189.808 154.424 189.601 153.89 189.601H153.35V189.085H157.106V189.292H156.891V189.601H156.354C155.818 189.601 155.495 190.015 154.961 190.634L152.815 193.738L156.677 200.354H158.178V200.666H156.567H157.963V200.975H152.923V200.666H154.53H153.134V200.354H154.422L151.529 195.494L148.635 200.151L149.384 200.354H150.138V200.666V200.975H145.953V200.666H147.026H146.167V200.354H146.49C147.454 200.354 148.098 199.944 148.312 199.426L151.53 195.187L148.098 189.601H146.705V189.085L151.743 189.086ZM169.223 190.634C170.081 189.499 171.369 188.773 172.978 188.773C173.512 188.773 174.266 188.98 174.909 189.499L175.982 190.015L176.518 189.601V189.292H176.947V192.704H176.732V193.118H176.518C176.518 192.19 176.193 191.362 175.444 190.534C174.8 189.603 173.837 189.292 172.764 189.292C171.153 189.292 170.294 190.12 169.76 192.083C169.546 192.703 169.437 193.633 169.437 194.773C169.437 198.598 170.617 200.459 172.978 200.666C173.837 200.459 174.8 200.151 175.444 199.323L176.518 197.77V196.528H176.947V200.459H176.732V200.666H176.518C176.518 200.151 176.411 199.84 175.982 199.944L174.909 200.459L172.764 201.182C171.367 201.182 170.079 200.666 169.012 199.424C167.938 198.288 167.401 196.735 167.401 195.185L167.83 193.219C167.938 192.188 168.368 191.362 169.223 190.634ZM199.573 189.086V189.293H199.468V189.603H197.966V200.356H199.575V200.668H197.966H199.468V200.975H194.639V200.668H196.25H194.749V200.356H196.25V195.188H190.139V200.356H191.746V200.668V200.975H186.706V200.668H188.313H186.921V200.356H188.313V189.603H186.706V189.293H186.921V189.086H191.746V189.603H190.139V194.668H196.25V189.603H194.639V189.293H194.747V189.086H199.573ZM142.199 176.573H143.81V68.8176H142.199V176.573ZM98.6608 79.3656L77.2128 157.028C76.2477 160.335 75.3891 162.405 74.5323 163.231C73.78 163.75 72.4939 164.164 70.7784 164.266H67.5603V166.232H88.2579V164.266H83.1115C80.0016 164.165 78.6072 163.13 78.6072 161.165C78.6072 159.611 79.1411 157.028 80.2144 153.821L84.1829 138.62H105.631L112.922 164.266H103.057V166.232H132.44V164.266H123.969L99.7323 79.3656H98.6608ZM94.9069 100.152L105.093 136.76H84.8269L94.4776 100.152H94.9069ZM108.313 189.086V189.603H106.813V200.356H108.313V200.668V200.975H103.486V200.668V200.356H104.879V189.603H103.486V189.086H108.313ZM85.8984 189.086L92.3328 197.564V190.534C92.3328 190.015 92.0117 189.603 91.4741 189.603H90.7237V189.086H94.4776V189.293H94.3693V189.603H93.6189C93.0832 189.603 92.8685 189.81 92.7603 190.017V200.977H92.5456L84.2875 190.123V199.427C84.2875 199.946 84.7168 200.356 85.3589 200.356H86.1093V200.668V200.975H82.3573V200.668V200.356H83.1077C83.6453 200.356 83.7517 200.153 83.9664 199.944V189.603H82.3573V189.086H85.8984ZM125.578 200.668H127.185H125.791V200.356H127.185V189.603H125.578V189.293H125.791V189.086H134.691L135.121 191.876H134.906V192.083H134.585C134.585 190.534 133.513 189.603 131.473 189.603H128.793V194.668H130.293C131.152 194.668 131.688 194.254 132.011 193.635V192.6H132.44V197.255H132.011C132.011 196.324 131.902 195.808 131.688 195.701C131.473 195.287 130.937 195.187 130.079 195.187H128.793V200.354H131.367L134.37 199.944C134.691 199.631 134.906 199.323 135.121 198.805L135.227 197.563V197.255H135.656V200.975H125.576L125.578 200.668ZM43.4299 189.086L46.9691 197.771L50.4019 189.086H53.6181V189.603H52.1173V200.356H53.6181V200.668V200.975H48.7928V200.668V200.356H50.4019V190.121H50.1872L46.1123 200.668H45.8957L41.8208 190.636V198.911L41.9272 199.946L42.8923 200.358H43.5363V200.669H42.3565H43.428V200.977H39.9952V200.669V200.358H40.5328C40.8539 200.358 41.0685 200.153 41.2832 199.946H41.3896V189.603H39.9952V189.088H43.4299V189.086ZM20.3747 189.086V189.603H21.9837V200.356H20.3747V200.668V200.975H25.3083V200.668V200.356H23.6992V195.188H24.7725C26.2733 195.188 26.9173 195.808 27.1301 197.05L27.3448 198.085L27.8805 200.153C27.9869 200.669 28.7392 200.977 29.596 200.977L31.0968 200.876V200.462L30.3464 200.669H30.0253L31.0968 200.462V200.358L30.3464 200.462C29.8088 200.462 29.4877 200.153 29.4877 199.427L29.2731 197.357C29.0584 196.324 28.7373 195.703 28.2016 195.289C27.748 195.093 27.2813 194.922 26.8072 194.773C28.4144 194.461 29.2731 193.739 29.4877 192.704L29.5941 192.083C29.5941 190.121 28.2016 189.086 25.5192 189.086H20.3747ZM27.6677 192.911C27.3448 194.153 26.2752 194.668 24.6643 194.668H23.7011V189.603H24.7725C26.8109 189.603 27.6696 190.534 27.6696 192.19V192.911H27.6677ZM67.8832 188.775L64.3421 199.426C63.9147 199.944 63.5917 200.354 63.2707 200.354H62.5221V200.666V200.975H65.9531V200.666H64.8797H66.0595V200.354H65.2027C64.6651 200.354 64.4504 200.151 64.4504 199.944L65.4155 197.255H68.9547L70.0261 200.354H68.6336V200.666V200.975H73.5672V200.666V200.354H72.1728L68.0979 188.773H67.8832V188.775ZM67.1328 191.876L68.7419 196.529H65.5256L67.1328 191.876ZM5.46747 188.775L1.71547 199.426C1.60907 199.944 1.17973 200.354 0.644 200.354H0.1064V200.666H0.858667H0V200.975H3.5392V200.666V200.354H2.68053C2.1448 200.354 1.93013 200.151 1.93013 199.944L2.78693 197.255H6.43253L7.61227 200.354H6.00507V200.666V200.975H11.0451V200.666V200.354H9.65067L5.46747 188.775ZM6.4344 196.529H3.0016L4.61067 191.876L6.4344 196.529Z" fill="black"/>
</g>
</g>
<defs>
<clipPath id="clip0_78_1342">
<rect width="280" height="270" fill="white"/>
</clipPath>
</defs>
</svg>
