<svg width="24" height="24" viewBox="0 0 24 24" fill="none" xmlns="http://www.w3.org/2000/svg">
<path d="M12 24C18.6168 24 24 18.6167 24 12C24 5.38321 18.6168 0 12 0C5.38321 0 0 5.38313 0 12C0 18.6169 5.38321 24 12 24ZM12 0.91636C13.1746 0.91636 14.3065 1.1016 15.3696 1.44171C15.0661 1.87383 15.0198 1.27037 14.926 1.52235C14.8297 1.78049 14.5925 1.85826 14.5238 1.85484C14.3883 2.05916 14.264 2.27375 14.1298 2.47323C13.9878 2.49903 13.8566 2.52547 13.7244 2.54549C13.6703 2.55375 13.6306 2.57428 13.5954 2.61629C13.4509 2.78831 13.3022 2.95691 13.1576 3.12893C13.0308 3.27986 12.9077 3.43396 12.7826 3.58608C12.7656 3.60662 12.7454 3.62433 12.7271 3.64302C12.6308 3.60794 12.555 3.55297 12.4855 3.4879C12.3653 3.3753 12.2809 3.23853 12.2174 3.08825C12.1326 2.88718 12.0845 2.67695 12.0603 2.46001C12.0531 2.39494 12.0584 2.33672 12.0826 2.2761C12.1602 2.08235 12.2323 1.88641 12.3108 1.69304C12.3334 1.63713 12.3259 1.5955 12.2805 1.55191C12.1433 1.55901 12.0027 1.52038 11.8583 1.56551C11.8726 1.59914 11.884 1.62823 11.8969 1.65646C11.9413 1.75306 11.9867 1.84928 12.0305 1.9463C12.0395 1.96645 12.0425 1.98951 12.0488 2.01266C11.926 2.10716 11.8049 2.19529 11.6897 2.29047C11.5749 2.38536 11.4731 2.49561 11.3524 2.58972C11.2952 2.48003 11.2059 2.40932 11.114 2.34194C10.9602 2.22895 11.0137 2.24833 10.8226 2.25475C10.693 2.25907 10.5639 2.26733 10.4419 2.3214C10.376 2.35058 10.3037 2.34955 10.2323 2.34575C10.1781 2.34288 10.1331 2.32247 10.1003 2.27845C10.0909 2.26592 10.0831 2.25189 10.0735 2.23944C10.0432 2.20016 10.002 2.18981 9.95731 2.205C9.92039 2.21758 9.88309 2.2334 9.851 2.25526C9.79586 2.29295 9.74157 2.33317 9.69271 2.37843C9.63158 2.43511 9.56587 2.48423 9.49597 2.52885C9.38966 2.59653 9.2848 2.66669 9.17785 2.73347C9.13832 2.75819 9.11423 2.78793 9.10752 2.83546C9.09717 2.90942 9.07676 2.98219 9.06919 3.05642C9.05909 3.15447 9.05622 3.25334 9.08857 3.34925C9.13177 3.47755 9.24185 3.53385 9.36925 3.48683C9.52151 3.43053 9.66431 3.35554 9.79179 3.25393C9.87624 3.18664 9.94615 3.10771 9.98491 3.00457C9.99171 2.98621 9.99996 2.96803 10.0106 2.95169C10.0335 2.91618 10.0627 2.90716 10.1013 2.92405C10.1338 2.93821 10.1647 2.95575 10.1966 2.97107C10.277 3.00957 10.3571 3.00773 10.4341 2.96363C10.475 2.94035 10.5139 2.9131 10.5505 2.88341C10.584 2.85616 10.6134 2.82382 10.6438 2.79293C10.6942 2.74159 10.7525 2.70168 10.8188 2.67473C10.9437 2.6242 11.0332 2.64735 11.105 2.75969C11.1597 2.84521 11.2299 2.91062 11.3126 2.96628C11.3483 2.99036 11.3833 3.0168 11.4145 3.04653C11.4638 3.09355 11.4794 3.15152 11.4633 3.21933C11.4456 3.29368 11.4087 3.35811 11.3689 3.42172C11.3355 3.47515 11.3011 3.52816 11.2711 3.58352C11.2564 3.6106 11.2477 3.64191 11.2417 3.67241C11.2353 3.70476 11.2651 3.73748 11.2978 3.73197C11.3401 3.72491 11.3811 3.71036 11.4227 3.69898C11.4474 3.69231 11.472 3.68551 11.509 3.67541C11.4951 3.92084 11.4581 4.14775 11.3402 4.35481C11.319 4.39211 11.2923 4.42796 11.2617 4.4577C11.174 4.54279 11.0703 4.57812 10.9478 4.54813C10.8627 4.52734 10.7848 4.49667 10.7179 4.43558C10.5868 4.31579 10.4657 4.32978 10.3478 4.45821C10.3109 4.49838 10.2784 4.54488 10.2534 4.59331C10.2273 4.64383 10.1894 4.66869 10.1374 4.68285C9.90687 4.74518 9.67359 4.77162 9.43573 4.74005C9.39582 4.7347 9.35903 4.73663 9.31988 4.74843C9.16921 4.79387 9.01764 4.83588 8.86628 4.87896C8.80553 4.89624 8.7482 4.92007 8.69374 4.95344C8.59282 5.01547 8.48622 5.06693 8.37315 5.10253C8.25832 5.13863 8.14273 5.15827 8.03176 5.07819C7.67125 5.3794 7.27013 5.5996 6.82282 5.74218C6.79638 5.90963 6.77071 6.07245 6.74492 6.23544C6.71364 6.4339 6.68276 6.63236 6.6508 6.83069C6.64267 6.8807 6.62227 6.90008 6.57615 6.90765C6.5222 6.91642 6.47129 6.9071 6.4357 6.8647C6.40062 6.82295 6.36738 6.77777 6.34261 6.72947C6.27925 6.60562 6.241 6.47185 6.2265 6.33465C6.20605 6.14274 6.10501 6.01311 5.9394 5.93025C5.72173 5.8212 5.48854 5.78466 5.24978 5.82672C4.85731 5.89572 4.52165 6.07908 4.25158 6.37208C4.0233 6.61961 4.02578 6.61961 3.962 6.9622C3.93975 7.08173 3.93701 7.20554 3.97522 7.32532C4.01449 7.44827 4.095 7.52442 4.223 7.5518C4.28965 7.56605 4.35511 7.57234 4.42197 7.55809C4.49504 7.54252 4.68939 7.50402 4.70882 7.51176C4.76405 7.53405 4.81303 7.5678 4.84965 7.61597C4.89598 7.67698 4.90907 7.74269 4.8766 7.81546C4.852 7.87073 4.81718 7.91865 4.77213 7.95711C4.71532 8.00553 4.5412 8.12861 4.51844 8.14979C4.42167 8.24023 4.42326 8.34876 4.52221 8.43492C4.54578 8.45546 4.57303 8.4721 4.59947 8.48913C4.62197 8.50367 4.6458 8.51608 4.67254 8.53126C4.66599 8.60275 4.66142 8.66923 4.65342 8.73537C4.63275 8.90829 4.63181 9.08189 4.6411 9.25507C4.64999 9.42067 4.72161 9.56035 4.85671 9.65866C4.94561 9.72335 5.04075 9.78029 5.13739 9.83291C5.19185 9.86264 5.2538 9.88095 5.31425 9.89682C5.49243 9.94328 5.65174 9.90337 5.78081 9.77194C5.8354 9.71646 5.87951 9.64955 5.92131 9.58315C5.99852 9.46037 6.11099 9.40865 6.25251 9.43719C6.32858 9.4525 6.39429 9.48981 6.44729 9.54255C6.51339 9.60814 6.59236 9.64938 6.67403 9.68865C6.78398 9.74153 6.8929 9.79663 7.00353 9.84822C7.04228 9.86627 7.08374 9.87988 7.12528 9.89049C7.43642 9.96903 7.70325 10.1193 7.90012 10.3775C7.94098 10.4309 7.98757 10.4607 8.04908 10.4823C8.3414 10.5848 8.60989 10.7321 8.84998 10.9286C9.15265 11.1764 9.3799 11.4783 9.49669 11.8553C9.5242 11.9438 9.56347 12.0184 9.63021 12.0852C9.69357 12.1487 9.74632 12.2248 9.79398 12.3015C9.85823 12.405 9.91325 12.5144 9.97237 12.6212C9.9873 12.6481 10.0027 12.6749 10.016 12.6979C10.0728 12.7093 10.123 12.7183 10.1729 12.7294C10.5062 12.8038 10.8205 12.9245 11.1054 13.1158C11.2534 13.2152 11.3857 13.3325 11.5002 13.4699C11.5317 13.5078 11.5501 13.5464 11.5508 13.5974C11.5576 14.0467 11.3946 14.4117 11.0198 14.6712C10.9716 14.7046 10.9428 14.7448 10.9229 14.7991C10.8264 15.0616 10.7277 15.3232 10.6276 15.5842C10.6095 15.6313 10.5854 15.6776 10.5563 15.7189C10.4244 15.9055 10.2882 16.0894 10.1568 16.2763C10.1147 16.3362 10.0641 16.3827 9.99996 16.4161C9.95111 16.4415 9.90255 16.468 9.85284 16.4915C9.6706 16.5777 9.47988 16.639 9.28258 16.6796C9.23047 16.6904 9.18949 16.7104 9.15548 16.7555C9.02495 16.9286 8.88998 17.0984 8.75702 17.2696C8.74247 17.2882 8.72741 17.3069 8.71629 17.3276C8.58868 17.5638 8.43235 17.7818 8.28562 18.0059C8.25251 18.0566 8.21165 18.0961 8.16138 18.1295C7.94786 18.2709 7.73477 18.4131 7.52322 18.5578C7.46183 18.5998 7.40331 18.6474 7.34898 18.6983C7.24254 18.798 7.13888 18.9008 7.03625 19.0043C7.00913 19.0318 6.98376 19.0639 6.96763 19.0985C6.86813 19.3128 6.77247 19.5289 6.67296 19.7434C6.65174 19.789 6.64798 19.8326 6.65713 19.8807C6.7243 20.2368 6.79091 20.5928 6.85679 20.9492C6.86436 20.9906 6.87313 21.0326 6.87262 21.0749C6.78256 21.0785 6.78231 21.0788 6.69653 21.0423C6.54612 20.9785 6.41431 20.8857 6.29294 20.7779C6.01555 20.5313 5.8052 20.2324 5.6197 19.9142C5.60242 19.8846 5.59365 19.8482 5.58864 19.8137C5.54757 19.533 5.50762 19.2523 5.46886 18.9714C5.46389 18.9349 5.45183 18.904 5.43155 18.8737C5.38484 18.8037 5.36387 18.7241 5.34843 18.642C5.31202 18.4487 5.3335 18.2572 5.36191 18.0656C5.39557 17.8396 5.42997 17.6138 5.46402 17.388C5.46886 17.3561 5.4665 17.3273 5.44571 17.299C5.3901 17.2231 5.37359 17.1346 5.36832 17.0426C5.3584 16.8671 5.38899 16.6974 5.43339 16.5289C5.44935 16.4681 5.46364 16.4066 5.47279 16.3445C5.50291 16.1419 5.53093 15.939 5.55865 15.7361C5.57029 15.6507 5.57919 15.5651 5.58877 15.4841C5.57042 15.4674 5.55917 15.4563 5.54715 15.4462C5.43365 15.351 5.36738 15.2293 5.33966 15.0847C5.32002 14.9828 5.32015 14.8809 5.33885 14.7793C5.35301 14.7029 5.37106 14.6272 5.38757 14.5502C5.34775 14.5227 5.3119 14.4989 5.27669 14.474C5.10535 14.3529 4.94578 14.2183 4.81235 14.0556C4.67489 13.888 4.53885 13.7191 4.40666 13.5474C4.35404 13.4791 4.30664 13.4051 4.26775 13.3283C4.20439 13.2028 4.17312 13.0691 4.20516 12.9277C4.21261 12.8949 4.20606 12.8663 4.19524 12.8359C4.11408 12.6085 4.10424 12.3733 4.12272 12.1357C4.13543 11.9722 4.17885 11.818 4.27194 11.6802C4.32927 11.5954 4.38373 11.5085 4.44264 11.4247C4.54685 11.2764 4.6526 11.129 4.75943 10.9826C4.8639 10.8394 4.92306 10.6792 4.95369 10.5058C4.96755 10.4273 4.97607 10.3492 4.96837 10.2705C4.95647 10.1488 4.91416 10.0418 4.80892 9.96694C4.69346 9.88488 4.58219 9.79663 4.46514 9.71676C4.40465 9.67552 4.37637 9.62238 4.36041 9.55419C4.32272 9.39316 4.27832 9.23372 4.24182 9.07244C4.22886 9.01524 4.20491 8.97139 4.15986 8.93447C4.08983 8.87685 4.02304 8.81546 3.95537 8.75513C3.92931 8.73182 3.90454 8.70722 3.87969 8.68352C3.88491 8.53379 3.92538 8.39201 3.92786 8.24352C3.88833 8.22688 3.85244 8.21199 3.81684 8.19681C3.63866 8.12048 3.46981 8.02821 3.31832 7.90607C3.22561 7.83133 3.14266 7.74744 3.07918 7.64609C2.99721 7.51518 2.95665 7.37461 2.98044 7.21841C2.99708 7.10937 3.00979 6.9998 3.02365 6.89037C3.03464 6.80438 3.04538 6.71835 3.05492 6.63223C3.0565 6.61837 3.05924 6.59951 3.0361 6.59702C3.0361 6.59702 3.11255 6.4609 2.78172 6.05311C2.75687 6.02248 2.73565 5.98988 2.71614 5.95651C4.6962 2.92517 8.11698 0.91636 12 0.91636ZM17.7405 21.4782C17.996 21.2109 18.1755 20.9236 18.0077 20.6998C17.915 20.6107 17.9223 20.5041 17.9591 20.3942C17.9803 20.3308 17.9996 20.2662 18.0265 20.2052C18.1078 20.0217 18.1925 19.8395 18.2761 19.657C18.368 19.4566 18.46 19.2561 18.5522 19.0558C18.6089 18.9329 18.6167 18.8066 18.5878 18.6751C18.5542 18.5213 18.5251 18.3664 18.4941 18.212C18.4633 18.0586 18.4614 17.906 18.5143 17.757C18.6142 17.4757 18.7489 17.2153 18.9667 17.004C19.0345 16.9383 19.0974 16.8671 19.1586 16.7951C19.2383 16.7013 19.2989 16.5955 19.3421 16.48C19.3971 16.3331 19.4169 16.1841 19.3862 16.0277C19.3625 15.9069 19.3194 15.7933 19.2795 15.678C19.2462 15.5813 19.2107 15.4852 19.1822 15.387C19.1362 15.2289 19.1296 15.0677 19.173 14.9081C19.2009 14.8058 19.2372 14.7055 19.2727 14.6053C19.3097 14.5016 19.3518 14.3996 19.3889 14.2958C19.4371 14.1608 19.4644 14.0213 19.4505 13.8779C19.4411 13.7804 19.4242 13.6827 19.4008 13.5875C19.3756 13.4853 19.3321 13.4669 19.2366 13.5046C19.2001 13.519 19.1647 13.5367 19.1286 13.5521C19.0164 13.6002 18.9455 13.5793 18.8895 13.498C18.8477 13.4376 18.786 13.4013 18.7155 13.3828C18.6547 13.3669 18.5936 13.347 18.5316 13.3425C18.3229 13.3274 18.1141 13.3358 17.9053 13.3484C17.752 13.3576 17.5983 13.3623 17.4449 13.3651C17.3983 13.3659 17.3512 13.3554 17.3049 13.3469C17.1802 13.3238 17.0632 13.2781 16.949 13.2238C16.7413 13.1251 16.5536 12.9955 16.3738 12.8536C16.0824 12.6234 15.821 12.3603 15.554 12.1035C15.5182 12.069 15.4959 12.0279 15.4841 11.9822C15.4693 11.9253 15.4572 11.867 15.4521 11.8084C15.4289 11.539 15.4621 11.2734 15.5114 11.0092C15.5641 10.7263 15.6373 10.4484 15.7178 10.1724C15.7633 10.0166 15.7884 9.85755 15.7872 9.69455C15.7867 9.62662 15.7817 9.56022 15.7457 9.50067C15.7142 9.44844 15.7156 9.39423 15.7392 9.342C15.778 9.25601 15.815 9.16805 15.8643 9.08818C16.0313 8.81785 16.2734 8.6445 16.5792 8.56219C16.647 8.54388 16.6993 8.51325 16.7438 8.45841C16.8578 8.3174 16.9784 8.18166 17.0919 8.0404C17.1311 7.99154 17.1762 7.96301 17.2355 7.94577C17.4129 7.8943 17.5893 7.83869 17.7659 7.78423C17.921 7.73644 18.0794 7.71116 18.2419 7.70491C18.5367 7.69336 18.824 7.72716 19.1 7.83411C19.1463 7.85204 19.1915 7.85375 19.2386 7.85311C19.4042 7.85062 19.5696 7.84879 19.734 7.87535C19.8912 7.90076 20.0368 7.94354 20.1653 8.04896C20.3909 8.23364 20.6262 8.40634 20.8575 8.58435C20.9847 8.68228 20.9846 8.68254 21.1457 8.67898C21.3903 8.67351 21.6344 8.67351 21.8753 8.72544C21.8854 8.72767 21.8972 8.72232 21.9154 8.71928C21.9128 8.68694 21.9141 8.6558 21.9073 8.62658C21.8824 8.51894 21.8542 8.41161 21.8001 8.31475C21.76 8.24288 21.7175 8.17062 21.665 8.10778C21.5572 7.97845 21.4173 7.90393 21.2465 7.89255C21.1994 7.88943 21.1523 7.88314 21.1058 7.87475C20.9719 7.85054 20.8733 7.77854 20.8245 7.64973C20.8023 7.5912 20.7923 7.52823 20.775 7.46791C20.769 7.44695 20.7577 7.42744 20.7478 7.40481C20.7316 7.4146 20.7198 7.41867 20.7124 7.42693C20.6913 7.45037 20.6716 7.47484 20.6525 7.49987C20.6285 7.53114 20.6076 7.56494 20.5821 7.59475C20.4991 7.69191 20.4324 7.68575 20.3725 7.57602C20.3593 7.55193 20.3482 7.52639 20.3385 7.50072C20.3245 7.46397 20.3132 7.42611 20.2996 7.38919C20.2805 7.33751 20.2633 7.28485 20.24 7.2351C20.1948 7.13863 20.1523 7.13392 20.0874 7.21465C20.0751 7.22996 20.0648 7.24712 20.0514 7.26154C20.03 7.28459 20.0089 7.30855 19.9842 7.32776C19.8991 7.39454 19.8114 7.39454 19.7239 7.3296C19.7082 7.31796 19.6944 7.30355 19.6798 7.29033C19.6395 7.25405 19.62 7.21101 19.6221 7.15458C19.6248 7.08391 19.6229 7.01242 19.6158 6.94214C19.6114 6.9 19.5965 6.85794 19.5803 6.81841C19.567 6.78607 19.5288 6.77769 19.5003 6.79797C19.4716 6.81811 19.4457 6.8422 19.4139 6.86838C19.3783 6.85345 19.3421 6.83929 19.3068 6.82321C19.1527 6.75317 18.9993 6.68156 18.8446 6.61285C18.7915 6.58928 18.7421 6.5622 18.6974 6.50291C18.6143 6.7803 18.6067 7.05324 18.5672 7.32635C18.5381 7.3355 18.5091 7.34637 18.4792 7.35398C18.3496 7.38697 18.2187 7.41512 18.0901 7.45217C17.8801 7.51279 17.694 7.4709 17.5243 7.33747C17.4014 7.24087 17.3063 7.12092 17.2296 6.98637C17.1321 6.81525 17.0376 6.64233 16.9423 6.46992C16.9311 6.44977 16.9228 6.42817 16.9124 6.40567C16.9561 6.35724 17.0133 6.33837 17.0636 6.30945C17.2939 6.17722 17.538 6.0991 17.8076 6.12554C17.8406 6.12883 17.8696 6.1228 17.8966 6.10291C17.9156 6.08888 17.9367 6.07801 17.9567 6.06535C18.0564 6.00199 18.1669 5.9504 18.2528 5.87189C18.3417 5.79061 18.4076 5.68379 18.4815 5.5865C18.5119 5.54642 18.5497 5.51044 18.5684 5.45979C18.5337 5.37889 18.5027 5.29786 18.4647 5.22022C18.4337 5.15686 18.4276 5.09324 18.4387 5.02531C18.452 4.94377 18.4645 4.8618 18.4748 4.77983C18.4787 4.75014 18.4916 4.71767 18.4621 4.68623C18.3336 4.66869 18.2016 4.64589 18.0689 4.63438C18.0053 4.6289 17.9682 4.60255 17.9392 4.55006C17.8991 4.47767 17.8524 4.40893 17.8138 4.3359C17.7865 4.28448 17.7466 4.26262 17.6916 4.25697C17.6173 4.24935 17.5433 4.23511 17.4688 4.23092C17.4084 4.22749 17.3645 4.20123 17.3263 4.15815C17.2676 4.09192 17.2313 4.01376 17.2043 3.93077C17.166 3.81376 17.1531 3.69227 17.1436 3.57025C17.1316 3.41265 17.1383 3.25569 17.163 3.09257C17.1937 3.08653 17.2236 3.07896 17.254 3.07528C17.2852 3.07152 17.317 3.07255 17.3484 3.06968C17.3757 3.0672 17.4029 3.06181 17.4303 3.05881C17.4616 3.05526 17.4932 3.05368 17.5244 3.04966C17.5531 3.04598 17.5857 3.05569 17.612 3.03092C17.612 3.03092 17.8767 3.06994 17.9223 2.75443C17.927 2.72157 17.9385 2.68974 17.9535 2.65903C21.0347 4.62984 23.0832 8.07929 23.0832 12.0003C23.0836 16.0117 20.9413 19.5323 17.7405 21.4782Z" fill="white"/>
</svg>
