<svg width="280" height="65" viewBox="0 0 280 65" fill="none" xmlns="http://www.w3.org/2000/svg">
<g clip-path="url(#clip0_1_3411)">
<path d="M135.071 1.25803C130.037 3.14512 126.419 7.91529 126 13.2096C125.633 17.3508 126.419 20.2863 128.621 23.1693C132.187 27.7822 138.374 29.879 144.037 28.3588C149.333 26.9435 153.58 21.7016 154 16.1451C154.367 12.004 153.58 9.06851 151.378 6.18545C148.651 2.62093 145.453 0.94351 140.891 0.681414C138.479 0.576574 136.382 0.786251 135.071 1.25803ZM144.981 4.61287C148.914 6.55238 151.116 10.1169 151.116 14.6774C151.116 21.1774 146.502 25.7903 140 25.7903C133.498 25.7903 128.884 21.1774 128.884 14.6774C128.884 6.23787 137.43 0.89109 144.981 4.61287Z" fill="black"/>
<path d="M138.164 8.54438C138.007 8.91131 137.902 11.1129 138.007 13.4194L138.164 17.5605L141.206 17.7178C143.041 17.8226 144.561 17.6129 145.033 17.246C146.239 16.25 144.876 15.2016 142.307 15.2016H140.052L139.895 11.6895C139.79 9.48792 139.475 8.12502 139.108 7.96776C138.741 7.86292 138.322 8.12502 138.164 8.54438Z" fill="black"/>
<path d="M38.0145 38.4758C34.816 39.996 33.4527 41.4113 31.9321 44.8186C29.7299 49.7984 30.7786 56.9799 34.2393 60.754C37.2805 64.0565 44.3067 65.4718 48.6587 63.6371C51.1232 62.6411 53.7973 60.125 55.2131 57.3992C56.8385 54.4113 56.8385 47.2823 55.2131 44.2944C53.7973 41.5686 51.1232 39.0524 48.6587 38.0565C45.7224 36.7984 41.1606 37.0081 38.0145 38.4758ZM49.3404 41.1492C52.3816 43.1411 53.7449 46.0766 53.7449 50.8468C53.7449 53.8871 53.4827 55.25 52.5389 56.9799C49.6026 62.5363 41.9996 63.9516 37.1756 59.9153C32.4565 55.9315 32.2992 46.2339 36.861 42.0403C40.0595 39.0524 45.6175 38.6855 49.3404 41.1492Z" fill="black"/>
<path d="M153.371 37.9515C150.959 38.9999 148.914 41.6733 148.914 43.8225C148.914 47.9112 150.959 49.641 158.3 51.8426C162.809 53.2055 164.644 54.7781 164.644 57.2943C164.644 62.2217 157.513 63.8467 151.798 60.2297C149.805 58.9717 149.176 58.762 148.862 59.3386C148.18 60.387 148.285 60.5967 149.963 62.0644C151.903 63.6894 154.577 64.4757 158.247 64.4757C163.701 64.4757 166.794 62.0644 167.161 57.3991C167.371 54.6209 167.319 54.4636 165.378 52.5241C163.805 50.9515 162.285 50.2176 158.614 49.0644C153.266 47.387 151.536 46.1289 151.536 43.9273C151.536 39.5241 158.562 37.9515 163.386 41.2539C165.169 42.4072 165.378 42.4596 166.165 41.6733C166.951 40.887 166.899 40.7297 165.483 39.6813C164.644 39.0523 163.229 38.266 162.337 37.8991C160.135 37.0604 155.311 37.1128 153.371 37.9515Z" fill="black"/>
<path d="M228.09 38.0564C225.731 39.1048 223.057 41.6734 221.641 44.2943C220.749 45.9718 220.487 47.2823 220.487 50.8468C220.487 55.879 221.379 58.1855 224.525 61.1734C228.195 64.6855 233.963 65.5242 238.839 63.2177C242.038 61.75 243.401 60.2823 244.922 56.875C247.176 51.8952 246.128 44.7661 242.615 40.9395C239.573 37.6371 232.39 36.2218 228.09 38.0564ZM236.06 39.8387C244.083 42.0927 246.233 54.3589 239.626 59.9153C234.959 63.8468 227.933 62.6411 224.682 57.3992C223.266 55.1452 223.109 54.4113 223.109 50.8992C223.109 47.8064 223.371 46.4435 224.315 44.7137C226.57 40.3629 231.131 38.4758 236.06 39.8387Z" fill="black"/>
<path d="M12.5842 47.4395C12.5842 58.4476 12.2172 60.1774 9.38574 61.5928C7.28836 62.6936 4.50933 62.3266 2.77899 60.7016C1.62544 59.6533 1.46813 59.6008 0.681615 60.4395C-0.0524675 61.1734 -0.0524675 61.3831 0.576746 62.1694C2.46439 64.4758 7.8127 65.1573 11.0112 63.5323C14.5243 61.8024 14.9438 60.3347 15.1011 48.3307L15.3108 37.742H13.9475H12.5842V47.4395Z" fill="black"/>
<path d="M72.3594 50.7943V63.9516H73.6702H74.9811L75.086 52.9435L75.2433 41.9879L79.7002 52.8387C82.4268 59.4435 84.4717 63.6895 84.8912 63.6895C85.3107 63.6895 87.3556 59.3911 90.1347 52.6814L94.644 41.6734L94.8013 52.7863L94.9062 63.9516H96.2171H97.5279V50.8468V37.7419H95.5878H93.5953L89.4006 48.2258C87.0935 53.9919 85.1009 58.7097 84.9436 58.7097C84.7863 58.7097 82.7414 54.0443 80.4343 48.3306L76.1871 38.004L74.247 37.8468L72.3594 37.6895V50.7943Z" fill="black"/>
<path d="M121.701 38.8951C121.438 39.5766 119.079 45.2903 116.457 51.6855C113.835 58.0282 111.686 63.375 111.686 63.6371C111.686 63.8468 112.315 63.9516 113.049 63.8468C114.15 63.7419 114.622 63.1653 115.566 60.8064L116.719 57.9234L123.798 57.7661L130.824 57.6089L132.03 60.8064C133.131 63.6371 133.446 63.9516 134.757 63.9516H136.225L130.877 51.004C125.528 38.1089 125.476 38.004 123.85 37.8468C122.487 37.6895 122.068 37.8992 121.701 38.8951ZM126.839 47.8589C128.307 51.5282 129.513 54.7782 129.513 55.0403C129.513 55.3548 127.154 55.5645 123.745 55.5645C120.599 55.5645 117.978 55.3548 117.978 55.0927C117.978 54.6734 123.064 42.0927 123.588 41.254C123.955 40.625 123.955 40.5201 126.839 47.8589Z" fill="black"/>
<path d="M182.996 50.8468V63.9516H184.307H185.618V57.6613V51.371H193.745H201.872V57.6613V63.9516H203.183H204.494V50.8468V37.7419H203.183H201.872V43.508V49.2742H193.745H185.618V43.508V37.7419H184.307H182.996V50.8468Z" fill="black"/>
<path d="M262.172 50.8468C262.172 63.5322 262.224 63.9516 263.221 63.9516C264.164 63.9516 264.269 63.5322 264.374 58.5524L264.531 53.2056L270.037 52.9435C276.224 52.629 277.745 52 279.161 49.0121C280.891 45.3951 279.737 40.7298 276.591 38.7903C275.123 37.8992 274.022 37.7419 268.516 37.7419H262.172V50.8468ZM275.123 40.8871C278.164 42.7218 278.112 47.9637 275.123 49.8508C273.812 50.6371 272.449 50.8468 268.883 50.8468H264.269V45.3427V39.8387H268.883C272.501 39.8387 273.812 40.0484 275.123 40.8871Z" fill="black"/>
</g>
<defs>
<clipPath id="clip0_1_3411">
<rect width="280" height="65" fill="white"/>
</clipPath>
</defs>
</svg>
