<svg width="279" height="47" viewBox="0 0 279 47" fill="none" xmlns="http://www.w3.org/2000/svg">
<path d="M29.5361 21.9962L34.0801 28.8077L41.9866 16.9539V44.7308H49.7114V2.80005H41.8957L29.5361 21.9962Z" fill="#121314"/>
<path d="M1.81738 2.80005V44.7308H9.45126V16.9539L25.6278 41.5462L30.1718 34.7347L9.54214 2.80005H1.81738Z" fill="#121314"/>
<path d="M78.3388 2.80005H78.157L89.1534 24.7385H75.5215L78.8841 18.4577L74.5218 10.1424L55.9824 44.7308H64.7977L71.7046 31.8154H93.0612L99.9681 44.7308H108.783L86.3362 2.80005H78.3388Z" fill="#121314"/>
<path d="M149.042 22.7039L156.767 29.7808V2.80005H149.042V22.7039Z" fill="#121314"/>
<path d="M113.963 2.80005V44.7308H121.688V14.1231L150.951 44.7308H156.858V39.4231L121.597 2.80005H113.963Z" fill="#121314"/>
<path d="M192.211 9.16921C198.209 9.16921 203.843 11.2923 207.297 14.7423L213.113 9.52306C208.024 4.92306 201.117 1.8269 192.302 1.8269C178.306 1.8269 165.674 10.4077 165.492 21.7308H174.035C175.671 14.3884 182.759 9.16921 192.211 9.16921Z" fill="#121314"/>
<path d="M191.392 28.8961H206.751V31.9038C206.751 35.4423 201.298 37.0346 198.027 37.7423C196.118 38.0961 194.119 38.3615 192.12 38.3615H191.392C183.395 38.1846 177.488 34.2038 174.58 28.7192H166.037C168.854 38.9808 179.487 45.6154 191.847 45.6154C194.937 45.6154 197.936 45.35 200.935 44.6423C207.206 43.1385 214.658 39.1577 214.658 32.8769V21.5538H191.302L191.392 28.8961Z" fill="#121314"/>
<path d="M274.729 23.2347C274.729 10.6731 262.46 1.47314 248.464 1.47314H248.374C234.378 1.47314 222.109 10.6731 222.109 23.2347C222.109 34.6462 232.015 43.8462 244.647 45.527V38.0078C236.468 36.2385 230.289 30.9308 230.289 23.677C230.289 15.2731 238.195 8.72699 248.283 8.72699H248.555C258.643 8.72699 266.549 15.2731 266.549 23.677C266.549 30.9308 260.37 36.327 252.1 38.0078V45.527C264.732 43.9347 274.729 34.7347 274.729 23.2347Z" fill="#121314"/>
</svg>
