<svg width="280" height="40" viewBox="0 0 280 40" fill="none" xmlns="http://www.w3.org/2000/svg">
<g clip-path="url(#clip0_1_3506)">
<path d="M105.652 12.4717C105.337 13.6995 106.408 14.8627 107.541 14.7334C109.556 14.2811 109.556 11.1147 107.1 11.1147C106.345 11.567 105.904 11.6963 105.652 12.4717ZM268.042 13.3118C267.727 14.5396 268.797 15.832 269.931 15.5735C272.26 15.2504 272.134 11.8255 269.616 11.8255C268.797 12.2779 268.356 12.4717 268.042 13.3118ZM247.767 22.0355C247.767 20.6785 247.641 17.706 248.081 16.9305C248.837 15.8966 251.859 16.1551 253.371 16.0258H254.378C256.393 16.0258 256.141 17.3829 256.141 19.1922V23.3926C255.826 25.0727 256.141 26.6882 255.826 28.1745C255.511 29.5315 254.819 30.5654 254.063 31.5994C253.496 32.3748 252.426 33.4087 250.978 32.9564C247.011 31.9225 247.767 26.8174 247.767 22.0355ZM222.328 25.6543C221.573 29.4023 221.888 33.9257 224.217 35.6704C224.658 35.9935 225.099 36.4459 225.665 36.5751C228.121 37.4798 229.884 35.9935 231.206 34.895C231.962 34.3134 232.844 33.538 234.103 33.8611C235.992 34.3134 236.559 36.252 238.636 36.7044C239.644 36.8336 240.525 36.3813 241.281 36.1228C242.477 35.3473 243.296 34.6365 244.807 34.3134C245.689 34.1842 246.444 34.6365 246.822 34.895C248.018 35.4766 249.026 36.3813 250.474 36.7044C251.356 36.8336 252.111 36.3813 252.489 36.252C253.685 35.4766 254.504 34.5719 256.015 34.3134C256.771 34.1842 257.463 34.6365 257.904 34.7658C258.912 35.3473 259.667 36.4459 261.115 36.7044C263.571 37.2859 266.09 35.0242 267.664 34.3134C268.419 33.9903 269.301 33.9903 269.994 34.3134C270.56 34.7658 271.19 35.2181 271.757 35.6704C272.764 36.4459 274.842 37.0275 276.731 36.5751C277.298 36.4459 277.738 36.252 278.179 35.9935C278.62 35.6704 279.942 34.9596 279.816 34.1842C279.816 34.1842 279.816 34.0549 279.69 34.0549C279.124 33.9257 277.801 34.5073 277.046 34.5073C274.59 34.9596 272.827 33.021 272.197 31.5347C271.757 30.5008 271.442 29.273 271.19 27.916C271.19 27.1406 271.064 26.559 271.064 25.8481C270.749 24.3619 271.064 22.8756 269.742 22.5525C267.727 22.1002 268.105 25.7189 267.853 27.2052C267.412 30.1777 266.845 31.8578 264.327 32.8918C263.004 33.4733 261.556 33.4733 260.549 32.5687C258.786 31.0824 258.786 28.3683 258.786 25.0727V20.5493C258.786 19.3215 258.471 16.8013 259.1 16.0258C259.856 14.9919 261.871 15.5735 263.067 15.1212C263.382 14.9919 263.823 14.6688 263.823 14.0872C263.508 12.4071 260.486 13.6349 259.415 12.7302C258.093 11.6963 259.856 7.3021 257.967 6.59128C257.4 6.26817 256.771 6.72052 256.519 7.04362C255.952 7.81906 256.078 9.56381 256.078 10.9208C256.078 11.5024 256.078 11.9548 255.952 12.4071C255.826 12.7302 255.511 12.9887 255.197 13.1826C254.756 13.3118 254.189 13.1826 253.434 13.3118C252.426 13.3118 251.545 13.3118 250.537 13.441C249.97 13.441 249.215 13.5703 248.648 13.441C246.192 12.8595 249.089 6.72052 246.004 6.72052C245.437 7.04362 245.122 7.17286 244.807 7.75444C244.366 9.11147 244.933 11.5024 244.492 12.8595C243.926 14.2165 241.407 13.3118 240.525 14.6688C240.4 14.7981 240.211 15.1212 240.4 15.5735C240.84 17.5121 243.611 16.349 244.366 17.5121C244.807 18.2876 244.681 20.6785 244.681 22.0355C244.681 25.9128 244.555 28.7561 243.233 31.2116C242.918 31.7932 242.666 32.2456 242.037 32.6979C241.596 33.021 241.281 33.2795 240.714 33.6026C240.148 33.9257 239.266 33.9257 238.699 33.7318C236.37 32.8271 236.496 29.6607 236.055 27.0113C235.74 25.525 236.37 23.2633 234.859 22.9402C233.221 22.6171 233.095 25.7835 232.844 27.1406C232.277 30.1131 231.395 33.1502 228.436 33.7318C226.673 34.1842 225.665 32.6979 225.351 31.3409C225.225 30.7593 225.225 29.9838 225.225 29.273C225.099 28.2391 225.225 27.0113 225.351 25.9774C225.477 24.6204 225.036 22.5525 223.714 22.811C222.643 22.6171 222.454 24.4265 222.328 25.6543ZM180.141 4.52343C180.267 5.29887 181.463 4.97577 182.03 4.84653C183.667 4.39418 185.682 3.4895 186.123 5.75121C186.249 9.62843 186.438 13.6995 186.564 17.5767C186.564 18.8045 186.564 19.9677 186.689 21.1955C186.689 22.6817 186.689 24.3619 186.815 25.8481V27.1406C187.13 28.8207 186.689 31.4701 188.012 32.1163C188.767 32.4394 189.208 31.7932 189.334 31.2116C189.775 30.1777 189.775 28.6914 189.901 27.3344V26.1066C189.901 24.7496 189.901 23.3926 190.027 22.0355C190.027 19.3215 190.153 16.4782 190.153 13.7641V8.52989V6.00969V4.32956C190.279 3.87722 190.467 3.42488 190.908 3.29564C191.79 2.8433 195.442 2.52019 196.89 2.8433C198.086 2.97254 199.094 3.1664 200.101 3.29564C203.753 4.20032 206.965 6.00969 209.042 8.72375C210.239 10.21 211.057 11.8901 211.813 13.8288C212.128 14.8627 212.254 16.0905 212.569 17.4475C213.009 20.2908 212.443 23.7157 211.687 25.8481C209.357 32.1163 204.824 35.0242 197.834 36.5105C196.827 36.8336 195.631 36.6397 194.497 36.9628H191.412C190.845 36.9628 190.09 36.9628 189.523 36.8336C188.767 36.8336 187.886 36.7044 187.193 36.7044C186.186 36.5751 185.178 36.3813 183.982 36.252C183.415 36.1228 182.66 35.9289 182.093 36.1228V36.252C182.408 36.8336 183.1 36.8336 183.73 37.1567C185.178 37.7383 186.815 38.0614 188.39 38.5137C196.701 40.4523 205.768 37.7383 210.743 34.3134C214.269 31.7932 216.724 28.6268 218.047 23.6511C218.361 22.4233 218.802 20.2262 218.487 18.6753V17.6414C218.361 16.6074 218.361 15.5735 218.047 14.6688C217.606 12.8595 217.039 11.0501 216.158 9.69305C212.569 3.42488 206.272 0 196.764 0C196.323 0 195.883 0 195.316 0.129241C194.434 0.258481 193.553 0.452343 192.671 0.452343C189.586 1.03393 186.375 1.48627 183.73 2.71405C182.849 3.03716 181.841 3.29564 181.086 3.74798C180.393 3.74798 179.952 4.07108 180.141 4.52343ZM80.6546 31.0178C82.5436 31.0178 83.5511 34.1842 81.5361 34.7658C80.2139 35.2181 77.8841 34.3134 78.3249 32.8271C78.4508 31.5994 79.6472 31.3409 80.6546 31.0178ZM95.1368 30.7593C95.4516 30.7593 95.7035 30.7593 96.0183 30.8885C96.7739 31.2116 97.7814 32.5687 97.3406 33.6026C97.0258 34.1842 96.4591 34.5073 95.7035 34.6365C94.3812 34.9596 92.3663 33.8611 92.933 32.3748C93.2478 31.3409 94.2553 31.0178 95.1368 30.7593ZM43.6935 26.1066C42.3712 29.273 44.2602 32.8271 46.0233 34.378C48.2271 36.1874 51.6902 37.0921 55.3423 36.0582C57.1053 35.4766 58.5535 34.378 60.4425 34.1195C60.8833 33.9903 61.45 34.1195 61.7648 34.2488C63.5278 34.8304 65.2909 36.9628 67.6206 36.1874C68.3762 35.8643 69.0689 35.6058 69.6356 35.1535C71.2727 33.9257 72.532 32.3102 73.4135 30.3716C73.9802 29.1438 74.421 27.6575 75.0506 26.4943C75.4914 25.9128 76.3729 25.4604 77.2544 25.9128C77.6952 26.042 78.01 26.3651 78.2619 26.6882C78.5767 27.0113 78.8286 27.2698 79.0175 27.5929C79.3323 28.0452 79.1434 28.6268 78.8916 28.9499C78.5767 29.273 78.136 29.5315 77.6952 29.8546C76.9396 30.3069 76.3729 31.0824 75.8062 31.664C74.6099 33.3441 74.7988 34.8304 76.5618 35.8643C79.0175 37.3506 85.1882 37.6737 85.8808 34.378C86.1956 33.1502 85.566 31.9871 85.3141 31.0824C85.1882 30.63 84.7474 30.1777 84.8734 29.4023C84.9993 28.6268 85.7549 28.3683 86.1956 27.916C87.2031 27.0113 88.2106 26.1066 89.4069 25.2019C89.8477 24.8788 90.4144 24.7496 91.044 25.0727C91.4848 25.2019 91.9256 25.6543 92.2404 25.9774C92.6811 26.3005 93.6886 27.2052 93.5627 27.916C93.4367 28.4976 92.996 28.8207 92.5552 29.1438C91.3589 29.9192 88.4624 32.4394 90.0995 34.378C90.4144 34.7011 90.8551 34.9596 91.2959 35.2827C92.0515 35.7351 93.0589 36.0582 93.9405 36.3166C96.8369 37.0921 100.237 36.1874 100.804 33.7964C101.37 31.5347 98.474 29.7254 100.678 28.2391C101.119 28.1099 101.433 27.7868 101.874 27.6575C102.315 27.5283 103.071 27.0759 103.763 27.2052C105.211 27.5283 105.211 29.1438 105.778 30.3716C106.534 32.3102 107.793 35.6058 109.745 36.1874C110.752 36.5105 111.634 35.8643 112.075 35.412C113.523 34.1842 114.53 32.4394 115.727 30.7593C116.167 30.1777 116.923 28.9499 117.931 29.0792C119.568 29.4023 119.694 32.8271 120.26 34.5073C120.386 35.2827 120.701 35.9935 121.457 36.1874C122.338 36.5105 123.094 34.9596 123.346 34.378C124.101 32.5687 125.109 28.8207 126.872 28.2391C127.627 27.916 128.194 28.5622 128.509 29.0145C129.39 30.3716 129.076 33.0856 129.705 34.8304C129.831 35.412 130.461 36.5105 131.342 36.1874C132.539 35.8643 132.665 34.378 133.105 33.3441C133.672 31.5347 134.302 29.273 136.002 28.6914C137.324 28.2391 137.765 29.5961 138.017 30.3716C138.772 32.3102 139.213 35.1535 141.102 36.0582C142.11 36.5105 143.306 36.0582 143.998 35.7351C145.762 34.8304 146.643 33.2149 148.847 32.8918C149.414 32.7625 150.043 33.021 150.484 33.2149C151.491 33.7964 152.373 34.5719 153.38 35.1535C156.277 36.9628 160.244 36.0582 162.573 34.5719C164.337 33.3441 165.785 31.5994 166.54 29.3376C167.737 25.5897 165.218 22.7464 162.762 21.7124C160.999 20.937 157.914 20.937 156.025 21.7124C155.71 21.8417 154.388 22.4879 154.703 22.9402C154.829 23.2633 155.458 23.0695 155.71 23.0695C156.592 22.9402 157.725 22.6171 158.921 22.7464C161.566 23.1987 163.896 25.1373 162.888 28.5622C162.762 29.0145 162.448 29.5961 162.133 30.0485C161.125 31.7286 157.725 33.6672 154.703 32.7625C152.94 32.1809 151.491 30.9531 151.051 29.1438C150.61 27.7868 150.61 25.525 150.925 24.0388C151.051 23.2633 150.799 22.3586 150.043 22.5525C149.162 22.6817 148.595 25.525 148.28 26.4297C147.399 28.8207 145.95 31.5347 143.18 31.9871C141.858 32.1163 141.291 30.9532 140.85 30.0485C140.095 28.1099 139.843 25.7189 139.402 23.5864C139.087 22.3586 139.087 21.1955 137.954 21.0662C137.072 20.937 136.317 21.5186 136.065 21.9709C135.057 23.3279 134.428 25.1373 133.42 26.4943C132.979 26.9467 132.413 27.8514 131.405 27.7221C129.642 27.399 129.39 24.8788 128.761 23.1987C128.446 22.6171 128.005 21.1309 127.124 21.3893C125.361 21.7124 124.794 25.2666 124.038 26.9467C123.723 27.5283 123.031 28.7561 121.834 28.1745C119.82 27.2698 120.953 22.1648 118.749 21.5832C117.427 21.2601 116.545 23.0695 116.105 23.9742C115.097 25.7835 114.341 28.0452 113.208 29.6607C112.767 30.4362 112.201 31.3409 111.193 31.4701C109.997 31.5994 109.43 30.4362 109.178 29.6607C108.612 27.9806 108.297 26.2359 107.856 24.2326C107.73 23.0048 107.73 21.9709 106.849 21.3893C105.652 20.6139 104.834 21.9709 104.078 22.6171C102.63 23.6511 101.182 24.5557 99.5444 25.5897C99.1037 25.9128 98.2222 26.4943 97.3406 26.3651C96.4591 26.2359 95.8924 25.4604 95.3257 25.0081C94.1294 24.1034 93.1219 23.0695 92.1144 22.0355C91.5478 21.454 90.9181 20.3554 89.9106 20.3554C89.7847 20.4847 89.4699 20.4847 89.3439 20.4847C88.5883 20.937 88.3365 21.9709 87.8957 22.7464C87.1401 23.9742 84.9993 26.3651 83.4881 26.6236C82.6066 26.7528 81.851 25.7189 81.4732 25.3958C80.025 23.9095 78.8286 22.5525 76.9396 21.6478C76.184 21.3247 74.9247 20.6139 74.0432 21.1955C73.2876 21.6478 73.2876 23.9095 73.0357 24.8142C72.1542 27.3344 70.706 30.2423 68.817 31.8578C68.0614 32.4394 67.0539 33.3441 65.7317 33.0856C63.276 32.504 62.8352 29.3376 62.2056 26.8174C61.8907 25.5897 61.7648 23.1987 60.7573 23.0695C59.8758 22.9402 59.7499 23.6511 59.561 24.4265C59.4351 25.2019 59.561 25.9128 59.561 26.8174V28.1745C59.4351 29.0792 59.4351 29.8546 59.1202 30.5654C58.2387 32.6333 55.3423 34.7658 52.131 34.1842C51.3754 34.0549 50.8087 34.0549 50.242 33.8611C48.479 33.0856 47.4715 31.7932 47.0307 29.5315C46.9048 28.7561 47.1567 28.1745 47.3456 27.5929C48.1012 25.2019 50.1161 24.7496 52.8866 24.2973C53.7681 24.168 56.5386 24.6204 56.8534 23.9742C57.1683 23.3926 55.9719 22.9402 55.6571 22.7464C54.2089 21.9709 51.8791 21.5186 49.8012 21.9709C46.9048 22.0355 44.701 23.7157 43.6935 26.1066ZM0.183979 36.252C0.0580473 37.1567 0.183979 38.0614 0.624742 38.5137C1.19144 38.9661 2.38779 38.9661 2.95449 38.5137C3.83601 37.7383 3.96194 35.5412 4.27677 34.1842C5.28423 29.2084 6.29169 21.5832 7.36211 16.6721C7.67694 15.4443 7.92881 12.1486 9.37703 12.3425C11.0141 12.4717 11.1401 16.5428 11.5808 18.1583C12.3364 21.9063 12.9031 25.525 13.5958 29.273C14.0365 31.2116 14.0365 33.3441 14.918 34.8304C15.6736 35.8643 17.3737 37.2213 19.3257 36.5105C21.3406 35.6058 21.9702 32.8918 22.6629 30.8239L28.3298 15.5089C28.8965 13.6995 29.6521 11.8901 30.2188 10.2746C30.5336 9.69305 30.7855 8.78837 31.667 8.91761C33.8708 9.24071 32.8634 14.1519 33.3041 16.4136C33.619 23.0048 33.7449 27.9806 34.0597 34.378C34.5005 37.0921 33.3041 40.0646 36.3895 40.0646C36.7043 40.0646 36.9562 40.0646 37.1451 39.9354C38.7822 39.483 38.7822 36.9628 38.4674 34.9596C38.4674 33.9257 38.3414 33.021 38.3414 31.9871C38.3414 31.2116 38.2155 30.5008 38.2155 29.7254C37.7118 22.0355 37.271 16.0258 36.8302 8.40065C36.5154 6.3328 36.9562 2.71405 35.9487 1.35703C35.382 0.581583 34.3116 0.452343 33.0523 0.452343H32.1707C31.4152 0.581583 30.8485 0.581583 30.4077 0.904685C29.4002 1.68013 28.5187 5.10501 28.078 6.59128C26.3149 11.567 24.5518 16.4782 22.7888 21.454C22.0332 23.3926 21.4665 25.3312 20.7739 27.2698C20.4591 28.1745 20.0183 29.2084 19.1368 29.3376C18.2552 29.4669 17.8145 28.7561 17.6885 28.1099C16.933 26.4297 16.933 24.2326 16.6811 22.4233C15.9255 17.6414 15.044 12.6656 14.3513 7.88368C14.0365 6.20355 13.9106 3.23102 12.9031 2.32633C12.1475 1.74475 9.81779 1.42165 8.4955 1.87399C6.60652 2.45557 6.48059 6.20355 5.85093 8.33603C4.40271 14.9273 2.95449 24.1034 1.4433 30.6947C0.876606 32.6979 0.49881 34.5073 0.183979 36.252Z" fill="#1D1D1B"/>
</g>
<defs>
<clipPath id="clip0_1_3506">
<rect width="280" height="40" fill="white"/>
</clipPath>
</defs>
</svg>
