<svg width="280" height="164" viewBox="0 0 280 164" fill="none" xmlns="http://www.w3.org/2000/svg">
<g clip-path="url(#clip0_1_3524)">
<mask id="mask0_1_3524" style="mask-type:luminance" maskUnits="userSpaceOnUse" x="0" y="-145" width="280" height="444">
<path d="M280 -144.32H0V298.48H280V-144.32Z" fill="white"/>
</mask>
<g mask="url(#mask0_1_3524)">
<path d="M32.5212 111.424C21.8084 113.496 12.8447 99.3233 14.1569 82.7272C15.0305 71.3177 20.9329 61.9835 28.1476 60.599C38.8604 58.5267 47.8241 72.6992 46.5119 89.2954C45.6383 100.705 39.9543 110.039 32.5212 111.424ZM33.6132 38.1284C14.1569 35.017 -1.80306 60.599 0.164408 91.0252C1.69507 113.496 13.2815 131.822 27.4924 133.894C46.7303 137.009 62.9087 111.424 60.9412 80.9973C59.4105 58.5267 47.8241 40.2007 33.6132 38.1284Z" fill="#0054FF"/>
<path d="M77.1194 39.8553C72.7458 39.8553 69.2495 46.0781 70.1231 53.34C70.7783 58.5267 74.0581 62.3289 77.3378 62.3289H97.2327L66.4066 126.981C65.3127 129.056 66.4066 132.167 67.9373 132.167H116.471C119.969 132.167 123.03 128.365 123.685 123.178C124.561 115.917 121.063 109.694 116.689 109.694H92.4223L123.248 45.042C124.34 42.9667 123.248 39.8553 121.499 39.8553H77.1194Z" fill="#0054FF"/>
<path d="M271.036 39.5099C267.756 40.5461 265.57 45.3873 265.57 50.9194V88.2592L226.874 39.8553C225.562 38.1284 223.595 39.8553 223.595 42.2759V119.722C223.595 124.905 225.782 129.747 229.279 131.131C233.871 132.513 238.024 126.981 238.024 120.067V82.3818L276.72 130.783C278.032 132.513 280 130.783 280 128.365V50.574C279.781 43.6604 275.628 38.1284 271.036 39.5099Z" fill="#0054FF"/>
<path d="M170.69 37.4346C147.078 37.4346 128.059 59.2175 128.059 85.8386C128.059 112.46 147.296 133.894 170.908 133.894C194.519 133.894 213.539 112.114 213.539 85.4932C213.32 58.8721 194.299 37.4346 170.69 37.4346ZM170.69 59.9082C187.086 59.9082 199.11 73.3929 199.11 85.4932C199.11 97.5934 186.866 111.424 170.69 111.424C154.293 111.424 142.268 97.9388 142.268 85.8386C142.268 73.393 154.511 59.9082 170.69 59.9082Z" fill="#0054FF"/>
<path d="M200.859 39.5099L199.328 71.6631C199.11 75.1199 198.455 78.5767 197.361 81.691L182.276 125.599L156.261 123.869L177.466 64.4041C178.56 61.2927 180.091 58.5267 182.058 56.4514L198.892 38.1284C199.765 36.7439 200.859 37.78 200.859 39.5099Z" fill="#0B845F"/>
<path d="M182.058 56.106L198.892 37.78C199.765 36.7439 201.077 37.78 200.859 39.5099L199.328 71.6631C199.11 75.1199 198.455 78.5767 197.361 81.691L197.143 82.3818C197.143 82.3818 196.924 82.3818 196.924 82.0364C196.049 81.3427 195.175 79.9612 194.957 78.5767C192.771 80.9973 189.709 81.691 187.305 79.2704C184.681 76.8497 183.37 72.3538 183.807 67.8609C182.713 68.2063 181.401 68.2063 180.091 67.1701C179.215 66.4764 178.341 65.0949 178.123 63.7104C178.778 60.599 180.309 58.1783 182.058 56.106Z" fill="#F7E36F"/>
<path d="M195.612 49.5378C194.3 48.4987 193.208 46.4235 192.553 44.6966L198.674 38.1284C199.547 37.0893 200.859 38.1284 200.641 39.8553L199.986 50.9194C198.674 50.9194 197.143 50.574 195.612 49.5378Z" fill="#0B845F"/>
<path d="M171.127 21.8776L174.625 53.6854C175.062 57.1422 174.843 60.599 174.406 64.0587L163.912 127.326L142.486 113.496L152.326 54.7216C152.981 51.2648 154.075 47.808 155.603 45.042L168.941 20.4961C169.596 19.457 170.908 20.1477 171.127 21.8776Z" fill="#FF0050"/>
<path d="M155.385 45.3873L168.723 20.8414C169.378 19.457 170.908 20.1477 170.908 21.8776L174.407 53.6854C174.843 57.1422 174.625 60.599 174.188 64.0587L173.968 64.7495H173.75C172.658 64.4041 171.782 63.365 171.127 61.9835C169.378 65.4403 166.535 66.8218 163.694 65.7857C160.632 64.4041 158.665 60.599 158.447 56.106C157.353 57.1422 156.042 57.4876 154.73 56.7968C153.636 56.4514 152.763 55.4153 152.107 54.0308C152.981 50.9194 154.075 47.808 155.385 45.3873Z" fill="#F7E36F"/>
<path d="M167.629 33.2871C166.098 32.5963 165.006 31.2118 163.912 29.4849L168.723 20.8414C169.378 19.457 170.908 20.1477 170.908 21.8776L172 32.9417C170.908 33.6325 169.378 33.9778 167.629 33.2871Z" fill="#FF0050"/>
<path d="M198.455 90.6799C195.612 101.05 184.681 111.078 170.69 111.078C156.697 111.078 145.766 101.05 142.925 90.6799H128.277C130.463 114.88 148.827 133.894 170.908 133.549C192.989 133.549 210.915 114.535 213.321 90.6799H198.455Z" fill="#0054FF"/>
</g>
</g>
<defs>
<clipPath id="clip0_1_3524">
<rect width="280" height="164" fill="white"/>
</clipPath>
</defs>
</svg>
