<svg width="280" height="270" viewBox="0 0 280 270" fill="none" xmlns="http://www.w3.org/2000/svg">
<g clip-path="url(#clip0_78_2239)">
<path d="M225.731 165.317C220.392 165.971 214.63 164.417 212.681 159.508C211.579 156.889 211.41 153.78 212.257 150.999C214.206 144.371 216.409 137.58 218.274 130.953C219.375 127.271 220.477 123.508 221.409 119.826C221.579 118.926 221.664 118.108 221.579 117.208C221.579 116.553 221.155 115.98 220.477 115.98C220.308 115.98 220.053 115.98 219.969 116.144C218.867 116.553 217.935 117.044 216.918 117.862C214.206 120.808 211.833 123.999 209.884 127.435C206.325 133.408 202.766 139.38 199.037 145.189C197.681 147.153 195.986 149.035 194.207 150.671C193.359 151.326 192.427 151.899 191.325 152.144C189.715 152.799 187.766 151.899 187.088 150.262C187.088 150.099 186.919 149.853 186.919 149.771C186.495 148.053 186.41 146.335 186.665 144.617C187.173 139.462 189.037 134.635 190.393 129.726C190.817 128.171 191.241 126.535 191.495 124.817C191.664 123.999 191.325 123.262 190.817 122.689C189.97 122.444 189.207 122.526 188.444 122.935C186.834 124.244 185.309 125.553 183.868 127.189C180.055 132.508 176.58 138.235 173.529 144.044C171.496 147.889 169.377 151.735 167.343 155.58C167.174 155.989 166.919 156.235 166.835 156.48C165.987 157.544 165.733 159.262 164.208 159.426C161.581 159.835 159.123 158.935 157.343 157.053C155.818 155.335 155.394 152.962 156.072 150.671C157.174 146.662 158.699 142.817 160.055 138.971C161.665 134.553 163.784 130.38 164.631 125.717C164.886 124.244 165.055 122.689 164.886 121.217C164.886 118.844 163.276 116.717 160.733 116.062C158.276 115.408 155.649 115.408 153.191 116.062C153.615 117.617 154.039 119.253 154.123 120.726C154.632 125.144 153.869 129.48 151.92 133.489C147.683 143.144 140.48 151.244 131.327 156.726C128.616 158.608 125.395 159.508 122.09 159.508C117.938 159.671 114.379 156.562 114.125 152.471C113.616 148.462 114.379 144.371 116.328 140.689C119.887 133.408 125.226 127.189 131.836 122.117C134.039 120.399 136.497 118.762 138.7 117.208L139.547 116.717C138.192 115.817 136.497 115.408 134.887 115.817C132.005 116.471 129.378 117.699 127.175 119.662C121.412 124.162 117.175 129.889 113.023 135.862C107.345 144.371 103.701 153.78 100.396 163.353C97.5149 171.862 94.4641 180.371 91.4981 188.799C90.8202 190.68 89.888 192.399 89.0406 194.117C88.6169 194.935 87.6847 195.426 86.6678 195.18C85.9898 195.017 85.3119 195.017 84.7187 194.935C80.1425 193.871 78.1087 190.517 79.4646 186.18C80.8205 181.844 82.5153 177.426 84.1255 173.008C88.5321 161.635 93.0235 150.344 97.4301 138.889C99.6335 133.08 101.413 127.108 102.684 121.135C103.362 118.189 103.532 115.162 102.938 112.217C102.769 111.562 102.515 110.744 102.26 110.089C106.243 109.189 110.481 110.989 112.26 114.589C113.786 117.78 114.294 121.462 113.616 124.98L113.447 126.044L113.701 126.208L114.633 124.98C118.107 120.726 122.175 117.044 126.836 114.099C131.412 111.317 136.751 109.844 142.259 110.008C144.632 110.008 146.92 110.662 148.954 111.889C149.378 112.053 149.886 112.053 150.479 111.889C154.208 110.58 158.191 109.926 162.259 110.008C167.343 110.171 171.496 111.889 173.784 116.471C174.885 118.844 175.563 121.38 175.563 123.999C175.733 126.126 175.563 128.253 175.563 130.462L176.495 128.989C178.699 125.308 181.75 121.953 185.139 119.171C187.597 117.289 190.648 116.226 193.783 116.144C196.241 115.98 198.613 117.371 199.546 119.58C200.901 122.608 201.495 126.044 201.156 129.399C201.156 130.053 201.156 130.708 201.325 131.28L203.105 128.253C205.478 123.753 208.444 119.499 211.918 115.817C214.376 112.871 217.85 111.071 221.664 110.089C227.68 109.026 232.087 112.462 232.256 118.435C232.087 122.035 231.409 125.635 230.223 128.908C228.273 134.635 226.409 140.28 224.545 146.008C223.443 149.444 222.765 153.044 222.765 156.644C222.85 159.917 223.867 162.944 225.731 165.317ZM142.344 120.726C141.92 120.889 141.836 120.971 141.666 121.135C133.87 125.88 127.344 132.508 122.684 140.28C120.904 143.062 119.802 146.089 119.548 149.28C119.294 150.589 119.802 151.899 120.819 152.635C122.09 153.289 123.531 153.289 124.633 152.471C126.158 151.571 127.683 150.344 129.039 149.117C134.802 143.389 139.039 136.271 141.242 128.58C141.92 126.044 142.344 123.426 142.344 120.726Z" fill="#AF4444"/>
<path d="M103.023 85.4621C97.0063 85.7076 91.2438 87.3439 85.9897 90.1257C77.3459 94.6257 69.8038 101.171 64.126 108.944C61.6685 112.135 59.7194 115.735 57.5161 119.171C57.2618 119.58 57.0923 120.071 56.8381 120.48L57.0924 120.726C57.3466 120.48 57.6008 120.071 57.9398 119.826C62.5159 115.08 68.3632 111.726 74.9731 110.417C77.6002 109.926 80.312 109.926 82.939 110.417C87.8541 111.644 90.6506 114.917 91.5828 119.58C92.4302 124.326 91.837 129.235 89.6337 133.653C85.2271 144.289 76.8375 152.88 66.2446 157.953C62.0922 159.917 57.3466 160.326 52.9399 159.017C46.33 157.135 42.7708 152.635 41.1606 146.58C39.8048 140.608 39.8895 134.471 41.6691 128.662C44.9741 115.817 51.8383 103.953 61.5837 94.5439C66.6683 89.3894 72.8546 85.1348 79.7188 82.353C83.8712 80.6348 88.3625 79.8167 92.9387 79.8167C96.4131 79.8167 99.6334 81.2894 101.837 83.9076C102.176 84.2348 102.43 84.8076 103.023 85.4621ZM51.4993 145.026C51.4993 147.153 52.0078 149.28 53.1094 151.244C54.2111 153.126 56.4144 154.026 58.6177 153.535C61.0753 153.044 63.4481 151.817 65.3124 150.098C70.9902 145.353 75.2274 139.217 77.6849 132.426C79.295 128.826 80.0577 124.898 79.634 120.889C79.2103 116.88 76.7527 115.08 72.7698 115.817C71.2444 116.062 69.7191 116.635 68.3632 117.371C63.9565 119.908 60.2278 123.508 57.5161 127.762C53.9569 132.998 51.7535 138.971 51.4993 145.026Z" fill="#AF4444"/>
</g>
<defs>
<clipPath id="clip0_78_2239">
<rect width="280" height="270" fill="white"/>
</clipPath>
</defs>
</svg>
