<svg width="280" height="270" viewBox="0 0 280 270" fill="none" xmlns="http://www.w3.org/2000/svg">
<g clip-path="url(#clip0_78_2513)">
<mask id="mask0_78_2513" style="mask-type:luminance" maskUnits="userSpaceOnUse" x="0" y="0" width="280" height="270">
<path d="M280 0H0V270H280V0Z" fill="white"/>
</mask>
<g mask="url(#mask0_78_2513)">
<path d="M23.5614 88.5026C23.5614 92.3438 19.9644 95.4578 15.5273 95.4578C11.0902 95.4578 7.49316 92.3438 7.49316 88.5026C7.49316 84.6614 11.0902 81.5474 15.5273 81.5474C19.9644 81.5474 23.5614 84.6614 23.5614 88.5026Z" fill="#FF4200"/>
<path d="M3.83413 105.934L8.764 98.5393C8.764 98.5393 15.7024 103.732 17.8024 105.495C19.9024 107.255 23.6469 110.248 23.5536 115.089C23.4621 119.931 22.0024 124.157 20.8152 127.062C19.628 129.967 11.8683 145.284 11.8683 145.284L0 138.154C0 138.154 11.4147 127.973 15.7939 121.779C17.164 119.842 18.8067 114.738 14.1512 112.095C9.49387 109.455 3.83413 105.934 3.83413 105.934Z" fill="#FF4200"/>
<path d="M19.0811 101.531C19.0811 101.531 25.5621 97.4827 31.9536 80.5789C33.7792 81.1945 42.9987 83.5723 42.9987 83.5723L39.9859 88.9417C39.9859 88.9417 53.7731 84.8935 65.6395 84.8935C65.6395 84.8935 72.1224 84.6289 77.1437 86.2147C82.1651 87.7987 87.2797 91.0567 88.5565 96.3379C89.8352 101.619 91.2035 119.227 88.648 135.16C88.648 135.16 88.0992 138.859 84.5395 142.115C80.9797 145.372 76.6883 146.957 69.1115 146.957C61.5328 146.957 57.5157 145.548 57.5157 145.548L59.0688 139.385C59.0688 139.385 63.7243 141.059 67.3755 141.059C71.0267 141.059 74.1309 139.563 75.7755 137.714C75.7755 137.714 77.2371 135.601 77.3267 133.839C77.4181 132.079 77.5096 98.2747 77.1437 97.1299C76.7797 95.9851 76.3224 91.6723 70.6627 90.6157C65.0029 89.5591 60.5285 90.2629 59.1584 90.5275C57.7901 90.7921 49.2091 92.8153 44.9176 94.4875C46.5603 95.0167 49.756 95.8087 49.756 95.8087C49.756 95.8087 48.2963 98.7139 45.6475 101.531C49.3005 101.444 73.584 101.531 73.584 101.531V106.814H57.9731V113.855H73.4011V119.138H57.9731V130.318C57.9731 130.318 60.5285 130.318 64.2712 127.501C63.9987 125.564 64.0883 125.3 63.1773 122.483C65.5499 121.955 70.2987 120.371 70.2987 120.371L76.2328 134.545L67.3755 137.889L65.7328 132.167C65.7328 132.167 63.0859 135.072 56.6029 136.921C47.5776 139.496 41.8152 139.387 40.2621 139.298C40.2621 139.298 35.8811 139.473 33.2323 138.328C30.5835 137.185 26.7493 134.545 26.7493 126.972C26.7493 124.421 27.3896 122.308 27.3896 122.308L38.5261 122.395C38.5261 122.395 37.9792 126.182 37.9792 127.148C37.9792 128.117 37.1579 132.255 45.1901 132.167C45.1901 126.621 45.1005 119.05 45.1005 119.05L29.2152 118.962V113.679H45.0091V106.988H40.992C40.992 106.988 36.6109 110.952 34.1451 113.328L29.5811 109.454C29.5811 109.454 34.8488 104.173 38.4365 96.5143C36.3365 97.3063 32.6853 98.8903 32.6853 98.8903C32.6853 98.8903 30.128 102.06 26.9323 105.316C24.6512 104.085 19.0811 101.531 19.0811 101.531Z" fill="#FF4200"/>
<path d="M115.305 96.9534L115.214 101.974H166.43C166.43 101.974 171.998 98.7156 171.998 95.5458C171.998 92.376 167.708 91.4958 164.785 91.3212C161.864 91.1448 153.649 91.0566 146.891 91.8486C140.138 92.6406 124.616 94.401 115.305 96.9534ZM102.614 109.103V87.5358H115.123V90.2646C115.123 90.2646 133.016 87.8868 134.932 87.8868V81.7236H149.083V86.391C149.083 86.391 158.121 85.5972 164.055 85.5972C169.989 85.5972 176.926 86.5656 179.575 87.4458C182.224 88.3278 185.419 90.5274 185.419 95.1066C185.419 99.684 181.858 104.438 174.736 109.015C172.545 106.902 170.904 105.406 170.904 105.406L170.994 107.429H149.268V114.561H174.189V120.195H149.268V137.009H183.136V143.964H102.524V137.009H134.659V120.371H112.474V114.561H134.751V107.518H115.305V109.103H102.614Z" fill="#FF4200"/>
<path d="M173.099 128.734C173.099 132.527 169.543 135.601 165.157 135.601C160.772 135.601 157.216 132.527 157.216 128.734C157.216 124.944 160.772 121.869 165.157 121.869C169.543 121.869 173.099 124.944 173.099 128.734Z" fill="#FF4200"/>
<path d="M220.11 112.009C216.825 107.255 212.168 104.261 212.168 104.261C212.168 104.261 214.633 101.621 215.912 99.5958C218.561 101.356 221.389 103.293 224.402 105.406C227.049 101.093 230.517 93.5226 230.517 93.5226C230.517 93.5226 239.1 97.659 240.744 98.4528C239.923 101.005 239.189 101.885 239.189 101.885C239.189 101.885 244.577 105.318 247.864 107.343C251.607 100.476 253.251 92.466 253.251 92.466L264.479 99.0684C264.479 99.0684 264.479 95.0184 264.298 93.3462C264.115 87.4476 257.451 86.7438 253.889 86.832C250.33 86.9184 242.477 88.3278 233.623 90.1764C224.768 92.025 210.797 98.0118 210.797 98.0118V120.461C215.727 117.554 217.646 115.267 220.11 112.009ZM210.889 122.837V143.878H196.831V85.2462H210.797V90.3528C210.797 90.3528 224.402 85.3362 233.623 83.4858C242.843 81.6372 248.138 81.6372 250.33 81.6372C252.519 81.6372 261.56 82.6056 266.671 84.4542C271.783 86.3028 275.435 90 276.896 93.9618C278.356 97.9236 278.447 108.751 278.447 113.769C278.447 118.787 278.083 134.194 277.535 137.185C276.988 140.18 275.707 143.613 272.969 145.55C270.232 147.487 266.305 147.046 262.745 146.342C259.183 145.638 254.985 144.142 251.424 142.294V136.481C251.424 136.481 254.892 138.859 258.362 138.859C261.832 138.859 264.572 136.834 264.572 132.345C264.572 127.856 265.026 108.576 264.662 100.652C262.381 104.173 257.632 110.423 255.532 112.712C258.362 114.649 261.741 117.644 263.749 119.932C261.1 122.22 253.981 127.856 253.981 127.856C253.981 127.856 249.781 121.693 248.777 120.548C247.681 121.781 240.925 128.999 230.336 134.986C228.51 132.433 225.953 129.263 225.953 129.263C225.953 129.263 233.896 126.623 243.572 114.21C241.474 112.097 238.37 108.223 235.632 106.463C234.534 107.96 231.338 111.217 231.338 111.217C231.338 111.217 234.261 113.33 236.361 117.027C234.534 118.787 228.874 124.421 228.874 124.421L224.31 117.644C224.31 117.644 219.289 122.749 214.632 126.005C212.351 123.894 210.889 122.837 210.889 122.837Z" fill="#FF4200"/>
<path d="M6.0293 163.872C6.0293 163.872 7.38823 159.088 12.712 159.28C18.0357 159.473 21.9576 159.743 25.0394 159.743C28.1213 159.743 35.125 159.088 35.8848 158.818C35.5245 160.245 33.8445 162.985 31.3618 162.985H25.7189C25.7189 162.985 24.3992 162.947 24.3992 164.529V183.4C24.3992 183.4 24.7594 185.987 27.3597 185.369C26.5197 187.569 24.3581 188.843 21.8362 188.843C19.3162 188.843 16.8354 187.299 16.8354 185.175V164.221C16.8354 163.139 16.6749 162.869 14.6738 162.792C13.4736 162.745 11.1589 162.637 9.15036 162.869C7.85303 163.019 6.8301 163.48 6.0293 163.872Z" fill="#FF4200"/>
<path d="M43.8496 175.18C41.3296 175.18 39.2875 177.496 39.2875 180.353C39.2875 183.208 41.3296 185.522 43.8496 185.522C46.3696 185.522 48.4136 183.208 48.4136 180.353C48.4136 177.496 46.3696 175.18 43.8496 175.18ZM34.3259 168.851C34.5629 168.053 35.0053 166.691 36.7656 165.724C38.7181 164.655 41.6077 164.606 42.6493 164.606C43.6909 164.606 46.9725 164.801 47.9731 165.069C48.9717 165.339 54.6949 166.19 54.6949 172.247V183.67C54.6949 183.67 54.9357 186.064 57.4576 185.292C57.0973 187.646 54.6949 188.843 52.9757 188.843C51.2546 188.843 48.4528 187.839 48.4528 185.794C48.4528 185.794 47.3309 189.227 41.3296 189.189C35.3264 189.151 32.084 185.677 32.084 180.506C32.084 175.334 35.9648 171.747 41.6898 171.747C43.6107 171.747 47.0117 172.48 48.4528 174.679C48.4659 171.979 47.9488 168.304 43.6424 167.917C41.4322 167.782 37.0083 167.872 34.3259 168.851Z" fill="#FF4200"/>
<path d="M130.757 175.18C128.237 175.18 126.195 177.496 126.195 180.353C126.195 183.208 128.237 185.522 130.757 185.522C133.277 185.522 135.319 183.208 135.319 180.353C135.319 177.496 133.277 175.18 130.757 175.18ZM121.231 168.851C121.468 168.053 121.912 166.691 123.673 165.724C125.623 164.655 128.515 164.606 129.556 164.606C130.596 164.606 133.88 164.801 134.878 165.069C135.879 165.339 141.602 166.19 141.602 172.247V183.67C141.602 183.67 141.843 186.064 144.363 185.292C144.004 187.646 141.602 188.843 139.881 188.843C138.16 188.843 135.36 187.839 135.36 185.794C135.36 185.794 134.238 189.227 128.235 189.189C122.232 189.151 118.989 185.677 118.989 180.506C118.989 175.334 122.872 171.747 128.595 171.747C130.516 171.747 133.919 172.48 135.36 174.679C135.373 171.979 134.854 168.304 130.55 167.917C128.338 167.782 123.915 167.872 121.231 168.851Z" fill="#FF4200"/>
<path d="M72.5066 168.273C69.7888 168.273 67.5842 172.159 67.5842 176.956C67.5842 181.751 69.7888 185.638 72.5066 185.638C75.2264 185.638 77.429 181.751 77.429 176.956C77.429 172.159 75.2264 168.273 72.5066 168.273ZM84.9928 176.956C84.9928 183.841 79.4021 189.421 72.5066 189.421C65.6112 189.421 60.0205 183.841 60.0205 176.956C60.0205 170.071 65.6112 164.49 72.5066 164.49C79.4021 164.49 84.9928 170.071 84.9928 176.956Z" fill="#FF4200"/>
<path d="M159.165 168.273C156.447 168.273 154.244 172.159 154.244 176.956C154.244 181.751 156.447 185.638 159.165 185.638C161.885 185.638 164.087 181.751 164.087 176.956C164.087 172.159 161.885 168.273 159.165 168.273ZM171.653 176.956C171.653 183.841 166.062 189.421 159.165 189.421C152.269 189.421 146.679 183.841 146.679 176.956C146.679 170.071 152.269 164.49 159.165 164.49C166.062 164.49 171.653 170.071 171.653 176.956Z" fill="#FF4200"/>
<path d="M223.358 168.273C220.638 168.273 218.436 172.159 218.436 176.956C218.436 181.751 220.638 185.638 223.358 185.638C226.076 185.638 228.281 181.751 228.281 176.956C228.281 172.159 226.076 168.273 223.358 168.273ZM235.844 176.956C235.844 183.841 230.254 189.421 223.358 189.421C216.461 189.421 210.87 183.841 210.87 176.956C210.87 170.071 216.461 164.49 223.358 164.49C230.254 164.49 235.844 170.071 235.844 176.956Z" fill="#FF4200"/>
<path d="M97.0853 172.051C96.3368 174.264 96.7363 180.326 97.0853 181.482C97.4363 182.635 98.7317 185.523 102.075 185.523C105.418 185.523 106.566 182.347 106.814 181.289C107.065 180.231 107.563 177.439 106.665 172.627C105.767 167.818 101.976 168.203 101.976 168.203C99.232 168.252 97.8339 169.839 97.0853 172.051ZM87.0576 159.831C87.0576 159.831 87.556 156.271 91.7971 156.271C96.0381 156.271 96.8875 158.87 96.8875 159.543V167.528C96.8875 167.528 98.6832 164.931 104.171 164.931C109.659 164.931 114.697 168.685 114.697 175.756C114.697 175.756 115.845 188.986 103.873 188.986C99.9805 188.986 97.735 187.735 96.5869 185.908C95.8384 187.783 94.0912 188.842 91.9968 188.842C89.9024 188.842 87.4067 187.591 87.4067 185.33C88.3046 185.425 90.0013 185.377 90.0013 183.26V161.516C90.0013 161.516 89.8016 159.831 87.0576 159.831Z" fill="#FF4200"/>
<path d="M181.848 185.762C181.848 187.596 180.286 189.081 178.356 189.081C176.428 189.081 174.865 187.596 174.865 185.762C174.865 183.929 176.428 182.444 178.356 182.444C180.286 182.444 181.848 183.929 181.848 185.762Z" fill="#FF4200"/>
<path d="M207.343 185.425C207.343 185.425 206.097 184.127 204.949 184.176C203.802 184.223 203.203 184.608 202.554 184.849C201.906 185.089 200.508 185.569 199.261 185.569C198.014 185.569 195.72 185.089 194.023 182.587C192.309 180.059 192.324 175.129 192.875 173.061C193.424 170.991 194.721 169.405 196.216 168.491C197.713 167.578 200.558 167.915 201.557 168.683C202.554 169.454 203.003 170.896 204.85 170.896C206.696 170.896 207.741 168.781 207.444 167.335C207.444 167.335 204.45 164.981 198.264 164.93C192.475 164.884 189.185 167.913 188.135 169.115C187.086 170.318 185.093 173.205 185.093 177.053C185.093 180.904 187.088 184.801 189.483 186.581C191.861 188.348 195.371 189.227 197.963 189.227C200.558 189.227 204.551 188.361 207.343 185.425Z" fill="#FF4200"/>
<path d="M238.18 168.588C238.18 168.588 238.728 164.979 243.018 164.979C246.561 164.979 247.509 167.53 247.509 167.53C247.509 167.53 249.704 164.738 254.295 164.738C258.885 164.738 260.981 166.855 261.828 167.962C263.324 166.567 264.871 164.786 269.062 164.786C273.252 164.786 276.795 166.183 277.195 170.224C277.594 174.263 277.445 184.174 277.445 184.174C277.445 184.174 277.792 186.1 279.989 185.281C280.187 187.447 277.843 188.842 275.498 188.842C273.154 188.842 270.809 187.495 270.809 184.657V171.139C270.809 171.139 270.859 168.01 267.018 168.01C263.174 168.01 262.775 171.425 262.775 172.485V188.698H255.941V171.185C255.941 171.185 255.891 167.962 252.35 167.962C248.807 167.962 247.858 170.8 247.858 172.195V188.554H241.073V170.608C241.073 170.608 241.222 168.637 238.18 168.588Z" fill="#FF4200"/>
</g>
</g>
<defs>
<clipPath id="clip0_78_2513">
<rect width="280" height="270" fill="white"/>
</clipPath>
</defs>
</svg>
