<svg width="280" height="128" viewBox="0 0 280 128" fill="none" xmlns="http://www.w3.org/2000/svg">
<g clip-path="url(#clip0_1_3516)">
<path d="M0 1.61499H17.6348L25.8107 28.7842C26.0756 29.5936 26.3444 30.4832 26.6169 31.453C26.8894 32.4228 27.2112 33.4728 27.5821 34.6029C30.1995 42.7028 32.2858 50.9677 33.8276 59.3438C34.789 52.6623 35.5914 48.0004 36.2349 45.3583L38.8012 34.202L39.7664 29.838L46.6477 1.61499H64.0441L42.469 72.7681V126.454H25.8107V72.7681L0 1.61499Z" fill="#333333"/>
<path d="M134.106 67.1098C134.106 89.1552 131.676 104.809 126.816 114.072C121.956 123.334 113.803 127.962 102.357 127.954C90.3352 127.954 81.8679 122.991 76.9548 113.064C72.0871 103.29 69.6533 85.948 69.6533 61.0391C69.6533 38.8333 72.0569 23.1183 76.864 13.8939C81.6711 4.66947 89.9037 0.0381805 101.562 0C111.925 0 119.621 3.58515 124.647 10.7554C127.963 15.5509 130.367 22.3699 131.858 31.2125C133.357 39.4061 134.106 51.3718 134.106 67.1098ZM116.63 68.8852C116.63 47.2674 115.669 32.9306 113.746 25.8749C111.823 18.8191 107.894 15.2607 101.959 15.1996C96.0242 15.1996 92.0688 18.4603 90.0929 24.9815C88.1171 31.5027 87.1557 44.7093 87.2087 64.6013C87.2087 82.8745 88.2231 95.5428 90.2519 102.606C92.3337 109.288 96.2362 112.629 101.959 112.629C107.682 112.629 111.532 109.502 113.508 103.248C115.589 97.0547 116.63 85.6006 116.63 68.8852Z" fill="#333333"/>
<path d="M212.583 67.1098C212.583 89.1552 210.153 104.809 205.293 114.072C200.433 123.334 192.28 127.962 180.834 127.954C168.812 127.954 160.345 122.991 155.432 113.064C150.572 103.305 148.142 85.9748 148.142 61.0735C148.142 38.8677 150.545 23.1526 155.352 13.9282C160.159 4.70383 168.403 0.0610887 180.084 0C190.448 0 198.143 3.58515 203.17 10.7554C206.485 15.5509 208.889 22.3699 210.38 31.2125C211.849 39.4061 212.583 51.3718 212.583 67.1098ZM195.107 68.8852C195.107 47.2674 194.146 32.9306 192.223 25.8749C190.3 18.8191 186.371 15.2607 180.436 15.1996C174.501 15.1996 170.546 18.4603 168.57 24.9815C166.594 31.5027 165.633 44.7093 165.686 64.6013C165.686 82.8745 166.7 95.5428 168.729 102.606C170.811 109.288 174.713 112.629 180.436 112.629C186.159 112.629 190.009 109.502 191.985 103.248C194.066 97.0547 195.107 85.6006 195.107 68.8852Z" fill="#333333"/>
<path d="M219.079 1.61507H235.272L243.845 25.7948C247.214 35.3322 249.216 42.3116 249.852 46.7329C250.442 43.9839 251.097 41.3113 251.816 38.715C252.535 36.1188 253.292 33.5301 254.087 30.9491L255.223 27.3067L263.172 1.59216H280.012L257.074 63.0665L280.012 126.454H263.16L255.03 102.686C253.372 97.9444 252.036 93.6873 251.021 89.915C250.093 86.6053 249.357 83.2434 248.818 79.8468C248.408 83.3425 247.682 86.793 246.65 90.1556L243.845 99.044L242.403 103.729L235.272 126.374H217.637L241.04 62.9863L219.079 1.61507Z" fill="#333333"/>
</g>
<defs>
<clipPath id="clip0_1_3516">
<rect width="280" height="128" fill="white"/>
</clipPath>
</defs>
</svg>
