<svg width="280" height="270" viewBox="0 0 280 270" fill="none" xmlns="http://www.w3.org/2000/svg">
<g clip-path="url(#clip0_78_1121)">
<mask id="mask0_78_1121" style="mask-type:luminance" maskUnits="userSpaceOnUse" x="0" y="0" width="280" height="270">
<path d="M280 0H0V270H280V0Z" fill="white"/>
</mask>
<g mask="url(#mask0_78_1121)">
<path fill-rule="evenodd" clip-rule="evenodd" d="M122.901 121.158C120.88 120.06 117.835 119.538 113.652 119.538C107.933 119.538 102.613 120.719 100.621 121.459C100.074 121.601 99.6818 122.065 99.652 122.611V122.776L100.221 125.548V125.602C100.421 126.151 100.905 126.425 101.36 126.425L101.702 126.371L102.641 126.151C105.144 125.548 108.901 124.614 113.113 124.614C115.674 124.614 117.38 124.834 118.518 125.3C120.396 126.015 120.424 127.194 120.454 129.141V132.079H119.315C117.238 132.079 113.197 132.16 109.213 132.792C103.124 133.697 98.1157 135.124 98.1157 143.327C98.1157 153.754 107.99 153.754 112.743 153.781C115.957 153.781 118.916 153.315 120.88 152.932C125.291 151.917 126.429 150.545 126.371 146.236V128.895C126.371 126.261 126.371 122.969 122.901 121.158ZM120.482 147.937C117.998 148.695 115.405 149.065 112.799 149.035C108.446 149.035 104.177 148.542 104.177 143.08C104.177 138.746 106.568 138.224 109.555 137.594L109.754 137.538C112.401 136.989 119.088 136.879 120.482 136.852V147.937ZM175.685 128.895V146.236C175.769 150.545 174.632 151.917 170.193 152.905C168.258 153.315 165.299 153.781 162.083 153.781C157.33 153.781 147.457 153.754 147.457 143.327C147.429 135.124 152.436 133.697 158.555 132.792C162.538 132.16 166.579 132.05 168.627 132.05H169.766V129.17C169.766 127.221 169.738 126.042 167.86 125.329C166.721 124.861 165.013 124.643 162.452 124.643C158.241 124.643 154.485 125.575 151.982 126.178L151.013 126.398C150.717 126.492 150.392 126.461 150.117 126.315C149.841 126.171 149.641 125.923 149.563 125.629V125.575L148.994 122.803V122.64C148.994 122.008 149.477 121.596 149.933 121.459C151.952 120.746 157.274 119.565 162.994 119.565C167.177 119.565 170.193 120.114 172.241 121.212C175.713 122.996 175.713 126.288 175.685 128.923V128.895ZM169.822 136.852C168.399 136.852 161.741 136.989 159.096 137.538L158.868 137.594C155.88 138.224 153.518 138.746 153.489 143.08C153.489 148.542 157.758 149.035 162.141 149.062V149.31V149.035C164.745 149.065 167.339 148.695 169.822 147.937V136.852ZM265.061 119.538C251.317 119.538 250.15 128.401 250.15 136.687C250.15 144.947 251.317 153.754 265.061 153.781C278.805 153.754 279.972 144.974 280 136.687C280 128.016 278.805 119.565 265.061 119.538ZM265.061 148.925C256.724 148.925 256.297 144.7 256.241 136.687C256.325 128.621 256.724 124.423 265.061 124.368C273.398 124.423 273.825 128.621 273.883 136.687C273.825 144.7 273.398 148.898 265.061 148.925ZM240.391 152.547L240.05 152.656C238.114 153.123 235.497 153.754 230.858 153.754C218.139 153.754 215.635 147.471 215.635 136.633C215.635 124.175 219.675 119.565 230.488 119.538C234.302 119.538 236.947 120.033 238.825 120.471V110.457C238.797 110.018 238.997 109.44 240.05 109.249L243.436 108.398H243.635C244.403 108.398 244.688 109.084 244.688 109.66V147.307C244.716 149.694 244.431 151.724 240.419 152.547H240.391ZM238.797 125.3C237.658 125.026 234.53 124.314 230.972 124.314C224.485 124.368 221.725 126.096 221.667 136.687C221.753 148.322 225.281 148.952 231.058 149.008V149.254V148.981C234.644 148.981 237.716 148.266 238.797 147.966V125.3ZM208.464 152.986H205.447C204.663 152.986 204.025 152.372 204.025 151.614V129.224C203.969 125.466 202.802 124.395 198.619 124.341C193.952 124.341 189.172 125.493 187.607 125.932V151.56C187.607 152.383 187.038 152.959 186.269 152.959H183.169C182.383 152.959 181.744 152.345 181.744 151.587V126.535C181.716 124.231 181.916 122.64 185.302 121.569C188.516 120.471 194.691 119.538 198.761 119.538C206.53 119.538 209.858 122.283 209.858 128.731V151.614C209.858 152.372 209.222 152.986 208.436 152.986H208.464ZM140.002 153.591C141.766 153.562 143.046 153.232 143.53 152.656C143.703 152.491 143.795 152.262 143.786 152.026C143.786 151.834 143.786 151.834 143.302 149.64V149.584C143.16 149.035 142.763 148.761 142.421 148.761H141.51C140.258 148.732 139.233 148.542 139.233 146.785V109.66C139.233 109.057 138.835 108.398 138.096 108.398H137.896L134.482 109.249C133.913 109.303 133.343 109.716 133.343 110.457V146.895C133.343 151.202 135.733 153.591 140.002 153.591ZM92.1984 152.986H67.9541C67.1682 152.986 66.5317 152.372 66.5317 151.614V148.705C66.5317 147.993 66.7594 147.663 67.2149 147.114L86.5069 125.163H67.5845C66.7986 125.163 66.1621 124.549 66.1621 123.792V121.705C66.1621 120.91 66.7874 120.334 67.5845 120.334H92.0845C92.9096 120.334 93.5069 120.939 93.5069 121.705V124.67C93.5069 125.219 93.3352 125.658 92.9096 126.151L73.5597 148.156H92.2264C93.0234 148.156 93.6488 148.761 93.6488 149.53V151.614C93.6488 152.372 93.0122 152.986 92.2264 152.986H92.1984Z" fill="#1D1D1B"/>
<path fill-rule="evenodd" clip-rule="evenodd" d="M11.2429 162.205C9.16531 162.205 8.02851 161.712 7.43117 161.383C6.57624 160.888 5.01197 159.682 3.61757 156.087C1.14797 149.33 -0.0765616 142.206 0.00370503 135.042V135.015C0.059705 126.727 1.39811 119.675 3.61757 113.913C5.06797 110.347 6.57624 109.084 7.43117 108.618C8.02851 108.261 9.16531 107.795 11.2149 107.795C12.012 107.795 12.9229 107.878 14.0037 108.042C20.2346 109.03 27.0928 111.417 34.4904 115.504C40.9005 119.04 46.605 123.648 51.337 129.114C53.8122 132.133 54.096 134.053 54.096 134.986C54.096 135.947 53.8122 137.868 51.337 140.859C46.605 146.326 40.9005 150.934 34.4904 154.467H34.4624C28.1642 158.13 21.2352 160.668 14.0037 161.959C12.9229 162.123 12.012 162.178 11.2429 162.178" fill="#FF6900"/>
</g>
</g>
<defs>
<clipPath id="clip0_78_1121">
<rect width="280" height="270" fill="white"/>
</clipPath>
</defs>
</svg>
