<svg width="24" height="14" viewBox="0 0 24 14" fill="none" xmlns="http://www.w3.org/2000/svg">
<path d="M22.9995 5.99996H3.41357L7.20652 2.20701C7.38935 2.01854 7.49071 1.76571 7.48871 1.50314C7.48672 1.24056 7.38152 0.989309 7.19585 0.803635C7.01017 0.617962 6.75892 0.512768 6.49635 0.510771C6.23377 0.508774 5.98095 0.610135 5.79247 0.792963L0.293121 6.29231C0.246432 6.33912 0.204478 6.39042 0.167871 6.44546C0.151521 6.46986 0.140371 6.49631 0.126421 6.52176C0.107874 6.55275 0.0910489 6.58473 0.0760207 6.61756C0.0637657 6.65063 0.0533006 6.68432 0.0446707 6.71851C0.0362208 6.74716 0.0251708 6.77451 0.0192708 6.80416C-0.00642358 6.93345 -0.00642358 7.06653 0.0192708 7.19581C0.0251708 7.22546 0.0362208 7.25281 0.0446707 7.28146C0.0533006 7.31565 0.0637657 7.34935 0.0760207 7.38241C0.0910489 7.41525 0.107874 7.44723 0.126421 7.47821C0.140371 7.50366 0.151421 7.53011 0.167871 7.55451C0.204478 7.60956 0.246432 7.66086 0.293121 7.70766L5.79247 13.207C5.98095 13.3898 6.23377 13.4912 6.49635 13.4892C6.75892 13.4872 7.01017 13.382 7.19585 13.1963C7.38152 13.0107 7.48672 12.7594 7.48871 12.4968C7.49071 12.2343 7.38935 11.9814 7.20652 11.793L3.41357 7.99996H22.9995C23.2647 7.99996 23.5191 7.89461 23.7066 7.70707C23.8942 7.51953 23.9995 7.26518 23.9995 6.99996C23.9995 6.73475 23.8942 6.48039 23.7066 6.29286C23.5191 6.10532 23.2647 5.99996 22.9995 5.99996Z" fill="#848484"/>
</svg>
