<svg width="24" height="24" viewBox="0 0 24 24" fill="none" xmlns="http://www.w3.org/2000/svg">
<g clip-path="url(#clip0_109_4974)">
<path d="M13.7467 12.017L23.6104 2.20727C24.0833 1.73915 24.0833 0.98135 23.6104 0.514429C23.1387 0.0463126 22.3725 0.0463126 21.9008 0.514429L12.0456 10.3158L2.09926 0.368341C1.62756 -0.104551 0.861397 -0.104551 0.389699 0.368341C-0.0819999 0.842428 -0.0819999 1.60978 0.389699 2.08268L10.3288 12.023L0.353774 21.9429C-0.117925 22.411 -0.117925 23.1688 0.353774 23.6357C0.825472 24.1038 1.59163 24.1038 2.06333 23.6357L12.0299 13.7242L21.9367 23.6321C22.4084 24.105 23.1745 24.105 23.6462 23.6321C24.1179 23.158 24.1179 22.3907 23.6462 21.9178L13.7467 12.017Z" fill="#848484"/>
</g>
<defs>
<clipPath id="clip0_109_4974">
<rect width="24" height="24" fill="white"/>
</clipPath>
</defs>
</svg>
