<svg width="30" height="30" viewBox="0 0 30 30" fill="none" xmlns="http://www.w3.org/2000/svg">
<path d="M15 0.248535C6.72903 0.248535 0 6.90521 0 15.0872C0 23.2687 6.72903 29.926 15 29.926C23.2704 29.926 30 23.2687 30 15.0872C30 6.90521 23.2716 0.248535 15 0.248535ZM18.7304 15.6096H16.29V24.2143H12.6738C12.6738 24.2143 12.6738 19.5127 12.6738 15.6096H10.9548V12.5685H12.6738V10.6014C12.6738 9.19264 13.3505 6.99128 16.3232 6.99128L19.0029 7.00145V9.95353C19.0029 9.95353 17.3745 9.95353 17.0579 9.95353C16.7413 9.95353 16.2912 10.1101 16.2912 10.782V12.5691H19.0464L18.7304 15.6096Z" fill="white"/>
</svg>
