<svg width="30" height="30" viewBox="0 0 30 30" fill="none" xmlns="http://www.w3.org/2000/svg">
<g clip-path="url(#clip0_28_1057)">
<path d="M15 18.1304C16.6989 18.1304 18.0762 16.7679 18.0762 15.0873C18.0762 13.4066 16.6989 12.0442 15 12.0442C13.3011 12.0442 11.9238 13.4066 11.9238 15.0873C11.9238 16.7679 13.3011 18.1304 15 18.1304Z" fill="white"/>
<path d="M15 0.596436C6.9099 0.596436 0.351562 7.08426 0.351562 15.0874C0.351562 23.0905 6.9099 29.5783 15 29.5783C23.0901 29.5783 29.6484 23.0905 29.6484 15.0874C29.6484 7.08426 23.0901 0.596436 15 0.596436ZM24.0503 18.7704C23.98 20.1481 23.5886 21.5066 22.5737 22.4999C21.549 23.5027 20.1691 23.8763 18.7631 23.9452H11.237C9.83074 23.8763 8.45109 23.5029 7.42635 22.4999C6.41139 21.5066 6.0201 20.1481 5.94979 18.7704V11.4043C6.0201 10.0267 6.41145 8.66811 7.42635 7.67473C8.45109 6.67196 9.83092 6.29833 11.237 6.22952H18.763C20.1693 6.29833 21.5489 6.67179 22.5737 7.67473C23.5886 8.66811 23.9799 10.0267 24.0502 11.4043L24.0503 18.7704Z" fill="white"/>
<path d="M18.668 7.90766C16.8348 7.85793 13.1657 7.85793 11.3325 7.90766C10.3786 7.93357 9.2971 8.1685 8.61741 8.88667C7.91112 9.63318 7.64422 10.5351 7.61715 11.5441C7.56958 13.315 7.61715 18.6303 7.61715 18.6303C7.64815 19.6391 7.91112 20.5411 8.61741 21.2877C9.2971 22.0061 10.3786 22.2408 11.3325 22.2667C13.1657 22.3164 16.8348 22.3164 18.668 22.2667C19.622 22.2408 20.7034 22.0058 21.3831 21.2877C22.0894 20.5411 22.3563 19.6392 22.3834 18.6303V11.5441C22.3563 10.5351 22.0894 9.63318 21.3831 8.88667C20.7032 8.16827 19.6217 7.93357 18.668 7.90766ZM15 19.804C14.057 19.804 13.1351 19.5273 12.351 19.009C11.5669 18.4907 10.9558 17.7541 10.5949 16.8922C10.234 16.0303 10.1396 15.0819 10.3236 14.167C10.5076 13.252 10.9617 12.4115 11.6285 11.7519C12.2953 11.0922 13.1449 10.643 14.0698 10.461C14.9947 10.279 15.9534 10.3724 16.8247 10.7294C17.6959 11.0864 18.4406 11.691 18.9645 12.4667C19.4884 13.2423 19.7681 14.1543 19.7681 15.0872C19.7681 16.3381 19.2657 17.5379 18.3716 18.4224C17.4774 19.307 16.2646 19.804 15 19.804ZM19.7884 11.344C19.5998 11.3439 19.4154 11.2886 19.2586 11.1849C19.1018 11.0812 18.9796 10.9339 18.9075 10.7615C18.8354 10.5891 18.8165 10.3994 18.8533 10.2164C18.8902 10.0335 18.981 9.86539 19.1144 9.73348C19.2478 9.60158 19.4177 9.51175 19.6026 9.47537C19.7876 9.43899 19.9794 9.45769 20.1536 9.52909C20.3278 9.6005 20.4767 9.72141 20.5815 9.87654C20.6863 10.0317 20.7422 10.2141 20.7422 10.4006C20.7422 10.5245 20.7175 10.6472 20.6696 10.7617C20.6217 10.8762 20.5514 10.9802 20.4628 11.0678C20.3742 11.1554 20.2691 11.2248 20.1534 11.2722C20.0376 11.3196 19.9136 11.344 19.7884 11.344Z" fill="white"/>
</g>
<defs>
<clipPath id="clip0_28_1057">
<rect width="30" height="29.6774" fill="white" transform="translate(0 0.248535)"/>
</clipPath>
</defs>
</svg>
