<svg width="148" height="195" viewBox="0 0 148 195" fill="none" xmlns="http://www.w3.org/2000/svg">
<path d="M26.8855 153.163C26.8855 159.144 22.2664 163.538 15.8952 163.538C9.5241 163.538 4.90503 159.167 4.90503 153.163C4.90503 147.182 9.5241 142.901 15.8952 142.901C22.2664 142.901 26.8855 147.215 26.8855 153.163ZM11.7062 153.191C11.7062 156.01 13.7036 158.097 15.986 158.097C18.2685 158.097 20.0954 156.01 20.0954 153.191C20.0954 150.372 18.2685 148.342 15.986 148.342C13.6749 148.342 11.7062 150.372 11.7062 153.191Z" fill="white"/>
<path d="M45.6278 153.248V163.087H39.2088V155.08C39.2088 153.783 38.4666 152.966 37.3532 152.966C36.0981 152.966 35.3002 153.953 35.3002 155.447V163.087H28.8796V147.662H35.3002V149.866C36.3546 148.292 37.9808 147.385 40.0355 147.385C43.3166 147.383 45.6278 149.696 45.6278 153.248Z" fill="white"/>
<path d="M63.8284 156.8H53.6712C54.0997 158.012 55.0124 158.633 56.2675 158.633C57.3522 158.633 58.4639 158.16 59.4355 157.251L62.7804 160.493C61.1255 162.298 58.7299 163.313 55.7052 163.313C50.3694 163.313 47.2029 160.211 47.2029 155.444C47.2029 150.564 50.5127 147.437 55.5348 147.437C60.9757 147.439 64.1709 151.106 63.8284 156.8ZM55.5826 151.669C54.4676 151.669 53.7859 152.571 53.5295 153.873H57.4095C57.4939 152.6 56.6959 151.669 55.5826 151.669Z" fill="white"/>
<path d="M105.822 143.324L99.0609 163.087H92.2708L89.2748 151.274L86.1944 163.087H79.4043L72.6987 143.324H79.7738L82.9992 156.292L86.1944 143.324H92.6419L95.9008 156.292L99.0672 143.324H105.822Z" fill="white"/>
<path d="M120.028 153.105V163.085H113.724V161.422C112.811 162.664 111.335 163.367 109.33 163.367C106.021 163.367 104.108 161.45 104.108 158.518C104.108 155.474 106.192 153.867 110.161 153.81H113.724C113.695 152.74 112.869 152.118 111.298 152.118C110.129 152.118 108.331 152.456 106.563 153.105L105.129 148.876C107.783 147.919 110.523 147.382 112.834 147.382C117.348 147.384 120.028 149.471 120.028 153.105ZM113.724 158.153V156.736H111.494C110.609 156.736 110.124 157.159 110.124 157.976C110.124 158.822 110.637 159.33 111.55 159.33C111.982 159.325 112.407 159.216 112.786 159.011C113.165 158.806 113.487 158.511 113.724 158.154V158.153Z" fill="white"/>
<path d="M125.99 168.844C123.937 168.844 122.282 168.281 120.598 167.041L123.281 162.863C123.966 163.483 124.593 163.765 125.362 163.765C126.105 163.765 126.589 163.512 126.903 162.978L127.132 162.611L120.656 147.668H127.245L130.327 156.465L132.866 147.668H139.256L132.837 164.162C131.525 167.373 129.329 168.844 125.99 168.844Z" fill="white"/>
<path d="M36.5536 186.075C36.0361 186.082 35.5295 185.927 35.1057 185.634C34.6677 185.326 34.3248 184.903 34.115 184.414C33.8681 183.846 33.747 183.232 33.7598 182.613V171.213C33.7598 171.012 33.8409 170.818 33.9852 170.676C34.1294 170.533 34.3251 170.453 34.5291 170.453C34.7332 170.453 34.9289 170.533 35.0731 170.676C35.2174 170.818 35.2985 171.012 35.2985 171.213V182.613C35.2767 183.104 35.3995 183.591 35.6521 184.014C35.7405 184.175 35.8706 184.31 36.029 184.405C36.1874 184.499 36.3684 184.551 36.5536 184.554H37.0585C37.149 184.552 37.239 184.569 37.3217 184.606C37.4044 184.642 37.4777 184.697 37.5363 184.765C37.6641 184.919 37.7293 185.115 37.7195 185.314C37.7229 185.419 37.7019 185.523 37.6579 185.618C37.614 185.714 37.5484 185.798 37.4662 185.864C37.2798 186.01 37.0462 186.085 36.8084 186.075H36.5536Z" fill="white"/>
<path d="M44.3057 186.173C43.2936 186.191 42.295 185.943 41.4116 185.454C40.5752 184.988 39.8826 184.307 39.4079 183.482C38.929 182.599 38.6784 181.613 38.6784 180.612C38.6784 179.61 38.929 178.624 39.4079 177.742C39.881 176.914 40.5738 176.229 41.4116 175.762C42.2994 175.289 43.2923 175.041 44.301 175.041C45.3096 175.041 46.3025 175.289 47.1903 175.762C48.0231 176.232 48.7117 176.916 49.1828 177.742C49.6797 178.622 49.9376 179.614 49.9314 180.622C49.9487 181.623 49.6941 182.611 49.194 183.482C48.7158 184.306 48.0242 184.989 47.1903 185.462C46.3098 185.948 45.3141 186.194 44.3057 186.173ZM44.3057 184.774C45.0435 184.785 45.7706 184.599 46.4098 184.234C47.0237 183.882 47.5278 183.369 47.8672 182.753C48.2264 182.097 48.408 181.36 48.3944 180.614C48.4074 179.865 48.2259 179.125 47.8672 178.464C47.53 177.844 47.0255 177.328 46.4098 176.974C45.7661 176.62 45.0416 176.434 44.3049 176.434C43.5682 176.434 42.8437 176.62 42.2001 176.974C41.583 177.329 41.0758 177.845 40.7331 178.464C40.3684 179.123 40.1834 179.864 40.1964 180.614C40.1828 181.361 40.3679 182.099 40.7331 182.753C41.0779 183.369 41.5848 183.88 42.2001 184.234C42.8398 184.599 43.5674 184.785 44.3057 184.774Z" fill="white"/>
<path d="M57.8461 186.173C56.8542 186.192 55.8754 185.947 55.0125 185.464C54.196 184.997 53.5266 184.315 53.0789 183.495C52.6025 182.609 52.3624 181.617 52.3812 180.614C52.3603 179.601 52.612 178.6 53.1107 177.713C53.5823 176.887 54.2757 176.205 55.1144 175.743C56.008 175.277 57.003 175.033 58.0133 175.033C59.0236 175.033 60.0186 175.277 60.9122 175.743C61.7454 176.206 62.4324 176.888 62.8968 177.713C63.3879 178.603 63.6417 179.601 63.6342 180.614L62.7248 181.086C62.7417 182.001 62.5259 182.906 62.0972 183.716C61.7005 184.467 61.1012 185.094 60.3658 185.528C59.6018 185.968 58.73 186.191 57.8461 186.173ZM58.0483 190.395C57.0772 190.415 56.1145 190.213 55.2355 189.805C54.4492 189.43 53.7629 188.879 53.2318 188.194C53.1625 188.127 53.1092 188.046 53.0759 187.956C53.0425 187.866 53.03 187.77 53.039 187.675C53.0498 187.581 53.0818 187.491 53.1325 187.411C53.1832 187.332 53.2514 187.264 53.3321 187.214C53.4166 187.155 53.5123 187.114 53.6134 187.094C53.7145 187.073 53.8188 187.073 53.9198 187.094C54.1214 187.125 54.3026 187.233 54.4247 187.395C54.8344 187.887 55.3496 188.283 55.9331 188.555C56.6023 188.859 57.3326 189.009 58.069 188.994C58.7876 189.004 59.495 188.817 60.1126 188.454C60.7265 188.087 61.2271 187.561 61.5604 186.934C61.9314 186.224 62.116 185.433 62.0972 184.634V181.593L62.6833 180.433L63.639 180.614V184.694C63.6555 185.71 63.4047 186.713 62.9111 187.604C62.4444 188.447 61.7602 189.153 60.9281 189.65C60.0568 190.158 59.0596 190.416 58.0483 190.395ZM58.0085 184.774C58.749 184.789 59.4797 184.605 60.1237 184.244C60.7334 183.894 61.2339 183.386 61.57 182.774C61.9308 182.111 62.1124 181.367 62.0972 180.614C62.1117 179.858 61.9302 179.111 61.57 178.444C61.2357 177.828 60.735 177.316 60.1237 176.964C59.4797 176.603 58.749 176.419 58.0085 176.434C57.2646 176.42 56.5305 176.603 55.8821 176.964C55.2663 177.313 54.7615 177.826 54.4247 178.444C54.0657 179.111 53.8848 179.858 53.8991 180.614C53.8843 181.367 54.0652 182.11 54.4247 182.774C54.7635 183.388 55.268 183.896 55.8821 184.244C56.5305 184.605 57.2646 184.788 58.0085 184.774Z" fill="white"/>
<path d="M67.7642 173.053C67.621 173.056 67.4788 173.029 67.3465 172.975C67.2141 172.921 67.0945 172.84 66.9949 172.738C66.89 172.636 66.8076 172.513 66.7528 172.378C66.698 172.242 66.6719 172.097 66.6763 171.951C66.6697 171.804 66.6963 171.657 66.7541 171.521C66.812 171.385 66.8996 171.263 67.0108 171.164C67.2248 170.975 67.5026 170.872 67.7897 170.875C68.0706 170.874 68.3416 170.978 68.5495 171.164C68.6606 171.263 68.7483 171.385 68.8061 171.521C68.864 171.657 68.8906 171.804 68.8839 171.951C68.885 172.096 68.8569 172.24 68.8012 172.374C68.7456 172.508 68.6635 172.63 68.5597 172.733C68.456 172.835 68.3327 172.916 68.1969 172.971C68.0612 173.026 67.9157 173.054 67.769 173.053H67.7642ZM67.7833 186.074C67.6764 186.084 67.5686 186.07 67.4677 186.034C67.3667 185.997 67.2751 185.94 67.1991 185.865C67.1232 185.79 67.0648 185.699 67.0282 185.599C66.9915 185.5 66.9774 185.393 66.9869 185.287V175.907C66.9768 175.801 66.9905 175.694 67.027 175.594C67.0634 175.494 67.1218 175.403 67.1978 175.328C67.2739 175.253 67.3658 175.195 67.467 175.159C67.5682 175.123 67.6762 175.11 67.7833 175.12C67.8858 175.115 67.9881 175.132 68.0839 175.168C68.1798 175.204 68.2672 175.259 68.3408 175.329C68.4133 175.405 68.4695 175.495 68.506 175.592C68.5424 175.69 68.5583 175.795 68.5526 175.899V185.28C68.5585 185.384 68.5428 185.488 68.5064 185.586C68.4699 185.684 68.4136 185.774 68.3408 185.849C68.2685 185.923 68.1817 185.98 68.0858 186.019C67.9899 186.058 67.8869 186.077 67.7833 186.074Z" fill="white"/>
<path d="M76.386 186.173C75.5794 186.172 74.7788 186.037 74.0175 185.774C73.2898 185.542 72.6347 185.129 72.1158 184.574C72.0451 184.504 71.9917 184.419 71.96 184.326C71.9282 184.232 71.9188 184.132 71.9326 184.034C71.9633 183.829 72.072 183.642 72.2368 183.513C72.3983 183.391 72.6005 183.334 72.8031 183.352C73.0057 183.371 73.1937 183.464 73.3295 183.614C73.6772 184.004 74.1195 184.299 74.6148 184.474C75.1818 184.68 75.782 184.781 76.386 184.774C77.3842 184.774 78.1062 184.604 78.5522 184.264C78.7556 184.126 78.9237 183.943 79.0431 183.729C79.1625 183.515 79.23 183.277 79.2403 183.033C79.2403 182.553 79.0109 182.156 78.5522 181.843C78.0935 181.531 77.3374 181.29 76.2841 181.121C74.9217 180.911 73.9236 180.538 73.2896 180.002C72.6557 179.466 72.3372 178.832 72.334 178.101C72.312 177.488 72.5056 176.888 72.8819 176.401C73.2633 175.934 73.7676 175.582 74.3393 175.381C74.9808 175.148 75.6598 175.033 76.343 175.041C77.1467 175.021 77.9448 175.178 78.6796 175.5C79.3034 175.782 79.8496 176.207 80.2724 176.741C80.335 176.815 80.3815 176.901 80.4089 176.994C80.4363 177.087 80.444 177.185 80.4317 177.281C80.4167 177.376 80.3803 177.467 80.3252 177.547C80.2701 177.627 80.1976 177.693 80.1131 177.742C79.9445 177.836 79.7475 177.868 79.5573 177.831C79.3498 177.799 79.16 177.697 79.0205 177.542C78.7036 177.17 78.301 176.878 77.8466 176.692C77.3566 176.503 76.8338 176.411 76.308 176.421C75.5647 176.421 74.9711 176.571 74.5272 176.871C74.0813 177.172 73.8599 177.548 73.8599 178.001C73.8529 178.288 73.9413 178.569 74.1115 178.801C74.3432 179.073 74.6439 179.28 74.9828 179.401C75.54 179.614 76.1206 179.761 76.7125 179.841C77.7256 180.002 78.5251 180.239 79.1113 180.551C79.6238 180.798 80.058 181.179 80.3664 181.653C80.6148 182.068 80.7442 182.542 80.7407 183.024C80.751 183.62 80.5549 184.202 80.1848 184.673C79.7795 185.169 79.2486 185.549 78.6462 185.775C77.9267 186.054 77.1586 186.189 76.386 186.173Z" fill="white"/>
<path d="M82.7205 176.872C82.6279 176.874 82.5356 176.859 82.449 176.827C82.3624 176.794 82.283 176.745 82.2156 176.683C82.15 176.623 82.0979 176.549 82.0627 176.468C82.0276 176.387 82.0102 176.299 82.0117 176.21C82.0086 176.119 82.0252 176.028 82.0604 175.944C82.0955 175.86 82.1484 175.784 82.2156 175.721C82.2828 175.658 82.362 175.608 82.4487 175.576C82.5354 175.543 82.6278 175.528 82.7205 175.531H87.8827C87.9755 175.528 88.0679 175.543 88.1545 175.576C88.2412 175.608 88.3205 175.658 88.3876 175.721C88.4548 175.784 88.5077 175.86 88.5428 175.944C88.578 176.028 88.5946 176.119 88.5915 176.21C88.593 176.299 88.5756 176.387 88.5405 176.468C88.5054 176.549 88.4533 176.623 88.3876 176.683C88.3202 176.745 88.2409 176.794 88.1542 176.827C88.0676 176.859 87.9753 176.874 87.8827 176.872H82.7205ZM87.7601 186.073C87.0986 186.085 86.4464 185.917 85.8751 185.588C85.3039 185.258 84.8357 184.779 84.5219 184.203C84.1932 183.591 84.0287 182.905 84.0441 182.212V172.433C84.0378 172.226 84.1145 172.024 84.2575 171.873C84.3294 171.8 84.4161 171.742 84.5119 171.705C84.6076 171.667 84.7104 171.65 84.8134 171.654C84.9194 171.649 85.0253 171.665 85.1243 171.703C85.2233 171.741 85.3132 171.799 85.3882 171.873C85.4632 171.947 85.5217 172.036 85.5599 172.134C85.5981 172.231 85.6151 172.336 85.6098 172.441V182.221C85.5847 182.835 85.8023 183.434 86.2167 183.891C86.4134 184.104 86.6545 184.273 86.9234 184.385C87.1924 184.497 87.4827 184.551 87.7744 184.541H88.3223C88.4209 184.538 88.5189 184.556 88.6097 184.594C88.7004 184.632 88.7817 184.69 88.8479 184.762C88.9858 184.916 89.0582 185.117 89.0502 185.322C89.054 185.426 89.034 185.529 88.9918 185.624C88.9496 185.719 88.8863 185.804 88.8065 185.871C88.6382 186.014 88.4216 186.09 88.1997 186.082L87.7601 186.073Z" fill="white"/>
<path d="M92.6595 173.053C92.5163 173.056 92.3741 173.029 92.2417 172.975C92.1094 172.921 91.9897 172.84 91.8902 172.738C91.7853 172.636 91.7028 172.513 91.648 172.378C91.5932 172.242 91.5672 172.097 91.5716 171.951C91.565 171.804 91.5916 171.657 91.6494 171.521C91.7072 171.385 91.7949 171.263 91.9061 171.164C92.12 170.975 92.3979 170.872 92.685 170.875C92.9659 170.874 93.2369 170.978 93.4447 171.164C93.5559 171.263 93.6436 171.385 93.7014 171.521C93.7593 171.657 93.7858 171.804 93.7792 171.951C93.7803 172.096 93.7522 172.24 93.6965 172.374C93.6408 172.508 93.5588 172.63 93.455 172.733C93.3513 172.835 93.2279 172.916 93.0922 172.971C92.9564 173.026 92.811 173.054 92.6643 173.053H92.6595ZM92.6786 186.074C92.5723 186.083 92.4654 186.068 92.3654 186.031C92.2655 185.994 92.1748 185.936 92.0998 185.862C92.0248 185.787 91.9671 185.696 91.9309 185.597C91.8947 185.498 91.8808 185.392 91.8902 185.287V175.907C91.8803 175.802 91.8938 175.696 91.9298 175.596C91.9658 175.497 92.0234 175.406 92.0985 175.331C92.1737 175.256 92.2646 175.199 92.3648 175.162C92.465 175.125 92.5721 175.111 92.6786 175.12C92.781 175.115 92.8833 175.132 92.9792 175.168C93.075 175.204 93.1625 175.259 93.2361 175.329C93.3086 175.405 93.3648 175.495 93.4012 175.592C93.4376 175.69 93.4535 175.795 93.4479 175.899V185.28C93.4538 185.384 93.4381 185.488 93.4016 185.586C93.3652 185.684 93.3089 185.774 93.2361 185.849C93.1637 185.923 93.0769 185.98 92.981 186.019C92.8851 186.058 92.7822 186.077 92.6786 186.074Z" fill="white"/>
<path d="M102.353 186.174C101.356 186.192 100.373 185.94 99.51 185.445C98.688 184.965 98.0102 184.278 97.5461 183.454C97.0608 182.588 96.8132 181.611 96.8278 180.621C96.8104 179.625 97.047 178.641 97.5159 177.759C97.9549 176.942 98.6071 176.255 99.4049 175.77C100.234 175.274 101.188 175.021 102.157 175.04C102.942 175.029 103.72 175.19 104.435 175.512C105.149 175.847 105.776 176.34 106.267 176.952C106.334 177.017 106.385 177.098 106.413 177.187C106.44 177.276 106.445 177.37 106.426 177.462C106.375 177.656 106.252 177.825 106.082 177.934C106.012 177.986 105.931 178.023 105.845 178.042C105.76 178.061 105.671 178.062 105.585 178.044C105.395 178.008 105.225 177.904 105.107 177.753C104.745 177.33 104.291 176.991 103.78 176.763C103.268 176.535 102.712 176.423 102.151 176.434C101.448 176.42 100.756 176.607 100.158 176.974C99.5828 177.335 99.1201 177.847 98.822 178.453C98.4938 179.127 98.3301 179.867 98.3441 180.614C98.3307 181.358 98.5048 182.093 98.8506 182.753C99.175 183.368 99.6658 183.88 100.268 184.235C100.899 184.6 101.62 184.787 102.352 184.774C102.842 184.78 103.331 184.708 103.799 184.563C104.229 184.429 104.625 184.207 104.964 183.913C105.104 183.789 105.281 183.713 105.469 183.695C105.643 183.683 105.814 183.739 105.946 183.852C106.098 183.979 106.195 184.158 106.22 184.353C106.23 184.441 106.217 184.53 106.184 184.612C106.15 184.695 106.097 184.768 106.028 184.825C105.05 185.725 103.825 186.175 102.353 186.174Z" fill="white"/>
<path d="M113.324 186.173C112.518 186.172 111.717 186.037 110.956 185.774C110.227 185.543 109.572 185.129 109.052 184.574C108.982 184.504 108.929 184.419 108.898 184.325C108.866 184.232 108.857 184.132 108.871 184.034C108.901 183.829 109.01 183.642 109.175 183.513C109.336 183.391 109.539 183.334 109.741 183.352C109.944 183.371 110.132 183.464 110.268 183.614C110.615 184.004 111.058 184.299 111.553 184.474C112.12 184.68 112.72 184.782 113.324 184.774C114.322 184.774 115.044 184.604 115.489 184.264C115.692 184.126 115.86 183.943 115.98 183.729C116.099 183.515 116.167 183.277 116.177 183.033C116.177 182.553 115.948 182.156 115.489 181.843C115.03 181.531 114.275 181.29 113.222 181.121C111.859 180.911 110.86 180.538 110.226 180.002C109.592 179.466 109.274 178.832 109.271 178.101C109.249 177.489 109.442 176.888 109.817 176.401C110.199 175.935 110.703 175.582 111.274 175.381C111.916 175.148 112.595 175.033 113.278 175.041C114.082 175.021 114.881 175.178 115.616 175.5C116.24 175.782 116.786 176.208 117.209 176.741C117.272 176.815 117.318 176.901 117.345 176.994C117.373 177.087 117.381 177.185 117.368 177.281C117.353 177.376 117.316 177.467 117.261 177.546C117.206 177.626 117.134 177.693 117.05 177.742C116.881 177.836 116.684 177.867 116.494 177.831C116.286 177.799 116.097 177.697 115.957 177.542C115.64 177.17 115.238 176.878 114.783 176.692C114.293 176.503 113.77 176.411 113.245 176.421C112.501 176.421 111.908 176.571 111.464 176.871C111.02 177.171 110.797 177.548 110.795 178.001C110.789 178.288 110.877 178.569 111.048 178.801C111.28 179.073 111.58 179.28 111.919 179.401C112.477 179.614 113.057 179.761 113.649 179.841C114.66 180.002 115.46 180.239 116.048 180.551C116.56 180.798 116.994 181.179 117.303 181.653C117.55 182.068 117.68 182.542 117.677 183.024C117.687 183.62 117.49 184.202 117.12 184.673C116.715 185.169 116.185 185.549 115.583 185.775C114.864 186.053 114.096 186.189 113.324 186.173Z" fill="white"/>
<path d="M91.2403 83.6101C74.4045 83.6101 91.2403 103.643 91.2403 103.643C91.2403 103.643 108.074 83.6101 91.2403 83.6101ZM91.2403 96.282C90.1149 96.2823 89.0148 95.9528 88.079 95.3353C87.1431 94.7177 86.4136 93.8397 85.9828 92.8124C85.5519 91.7851 85.439 90.6547 85.6584 89.564C85.8777 88.4733 86.4195 87.4714 87.2151 86.6849C88.0107 85.8985 89.0245 85.3629 90.1281 85.1458C91.2318 84.9288 92.3759 85.04 93.4156 85.4655C94.4553 85.891 95.3439 86.6116 95.9691 87.5362C96.5944 88.4608 96.9281 89.5478 96.9281 90.6598C96.9287 91.3983 96.7821 92.1297 96.4965 92.8122C96.211 93.4946 95.7921 94.1148 95.2639 94.6372C94.7356 95.1597 94.1084 95.5741 93.418 95.8568C92.7276 96.1396 91.9876 96.2851 91.2403 96.2851V96.282Z" fill="white"/>
<path d="M91.2403 85.8074C90.2686 85.8071 89.3187 86.0915 88.5107 86.6248C87.7026 87.158 87.0728 87.9161 86.7008 88.8031C86.3288 89.6902 86.2314 90.6663 86.4209 91.608C86.6104 92.5498 87.0782 93.4148 87.7653 94.0938C88.4524 94.7727 89.3278 95.2351 90.2808 95.4223C91.2338 95.6096 92.2216 95.5133 93.1192 95.1457C94.0169 94.7781 94.7841 94.1557 95.3237 93.3572C95.8633 92.5587 96.1512 91.62 96.1509 90.6599C96.1509 89.3729 95.6335 88.1387 94.7126 87.2286C93.7917 86.3186 92.5427 85.8074 91.2403 85.8074ZM91.2403 94.7317C90.4254 94.7314 89.6289 94.4923 88.9515 94.0447C88.2741 93.5971 87.7462 92.961 87.4346 92.217C87.1229 91.4729 87.0416 90.6543 87.2007 89.8645C87.3599 89.0748 87.7525 88.3494 88.3288 87.7801C88.9051 87.2108 89.6393 86.8232 90.4386 86.6662C91.2379 86.5092 92.0663 86.5899 92.8191 86.8981C93.572 87.2064 94.2154 87.7283 94.6681 88.3978C95.1208 89.0674 95.3624 89.8546 95.3624 90.6599C95.362 91.7399 94.9275 92.7756 94.1545 93.5392C93.3815 94.3027 92.3333 94.7317 91.2403 94.7317Z" fill="white"/>
<path d="M93.1501 107.555C93.1501 107.928 93.038 108.293 92.828 108.604C92.6179 108.915 92.3194 109.157 91.9702 109.3C91.6209 109.443 91.2366 109.48 90.8659 109.407C90.4951 109.334 90.1545 109.154 89.8872 108.89C89.6199 108.626 89.4379 108.29 89.3641 107.923C89.2904 107.557 89.3282 107.177 89.4729 106.832C89.6175 106.487 89.8625 106.192 90.1769 105.984C90.4912 105.777 90.8607 105.666 91.2387 105.666C91.7457 105.666 92.2318 105.865 92.5903 106.219C92.9487 106.573 93.1501 107.054 93.1501 107.555Z" fill="white"/>
<path d="M76.1789 89.1033C77.0567 88.1819 77.6739 87.0485 77.9686 85.817C78.2632 84.5854 78.225 83.299 77.8576 82.0866L70.2298 56.9223C69.969 56.0637 69.9394 55.1528 70.1439 54.2794C70.3483 53.406 70.7798 52.6005 71.3957 51.9423L78.275 44.5825C79.9898 42.7491 81.2633 40.5566 82.0005 38.1687L82.4783 36.6183C82.5656 36.3389 82.5717 36.0408 82.496 35.7581C82.4202 35.4754 82.2656 35.2194 82.0498 35.0193C81.834 34.8191 81.5657 34.6829 81.2753 34.6261C80.985 34.5694 80.6844 34.5943 80.4077 34.6981L78.8707 35.2632C76.5038 36.1357 74.3664 37.5243 72.6174 39.3255L65.5996 46.5657C64.9717 47.2126 64.1841 47.6867 63.3143 47.9412C62.4446 48.1956 61.5227 48.2217 60.6397 48.0169L34.7665 42.0123C33.5198 41.7227 32.2179 41.7624 30.9917 42.1273C29.7654 42.4923 28.658 43.1697 27.7805 44.0915C38.7914 46.9655 50.0174 53.2078 54.5966 55.926C54.7427 56.0129 54.8671 56.1313 54.9606 56.2723C55.0541 56.4132 55.1142 56.5732 55.1365 56.7403C55.1589 56.9074 55.1428 57.0773 55.0896 57.2374C55.0364 57.3975 54.9474 57.5437 54.8292 57.6652L52.8955 56.6217C52.4417 56.3753 51.9103 56.3077 51.4081 56.4324C50.9059 56.557 50.47 56.8647 50.1878 57.2938L48.6157 59.6877C48.4029 60.0112 48.3048 60.3955 48.337 60.7801C48.3704 61.1809 48.2623 61.5807 48.0312 61.9117L47.4434 62.7554L48.3752 62.0675C48.6647 61.8534 49.0141 61.733 49.3755 61.7229L49.9855 61.704L50.9635 61.6567L49.4758 63.1898C48.5204 64.1752 47.6951 65.2763 47.0198 66.4667L43.6239 72.4572L36.4739 69.4667C35.7299 69.1571 34.9017 69.105 34.1239 69.319C33.3462 69.5331 32.6644 70.0005 32.1893 70.6456L30.7096 72.6539L41.0707 76.9524L40.1262 78.6208C40.0922 78.6793 40.0792 78.7475 40.0892 78.8142C40.0992 78.881 40.1316 78.9425 40.1812 78.9888C40.2309 79.0352 40.2949 79.0637 40.3629 79.0697C40.4309 79.0758 40.499 79.059 40.5562 79.0221L42.1841 77.9881L47.152 87.9433L49.1063 86.3489C49.7255 85.8438 50.1548 85.1476 50.3253 84.3723C50.4957 83.5969 50.3974 82.7875 50.046 82.074L46.6375 75.1487L52.4177 71.4829C53.5796 70.7451 54.642 69.8646 55.5794 68.8623L57.0384 67.3009L57.0495 68.2689L57.0686 68.8717C57.08 69.2289 56.9793 69.5807 56.7803 69.8791L56.1432 70.8408L56.9603 70.2112C57.2809 69.9638 57.6782 69.8337 58.0848 69.8429C58.4752 69.851 58.8573 69.7309 59.1711 69.5013L61.4966 67.7967C61.9129 67.4923 62.1973 67.0436 62.2927 66.5406C62.3881 66.0376 62.2875 65.5175 62.011 65.0848L60.834 63.2417C60.9492 63.1175 61.0914 63.0205 61.2499 62.9582C61.4083 62.8958 61.579 62.8696 61.7491 62.8816C61.9193 62.8935 62.0845 62.9433 62.2325 63.0272C62.3804 63.1111 62.5073 63.2269 62.6036 63.3661C65.6235 67.7228 72.6094 78.4162 76.1789 89.1033Z" fill="white"/>
<path d="M38.6003 107.157C38.5621 107.286 38.5175 107.416 38.4681 107.542C38.4464 107.596 38.404 107.64 38.3499 107.663C38.2959 107.686 38.2347 107.688 38.1798 107.666C38.1525 107.656 38.1276 107.64 38.1065 107.62C38.0854 107.6 38.0685 107.576 38.0568 107.55C38.0451 107.523 38.0388 107.495 38.0383 107.466C38.0379 107.437 38.0432 107.408 38.054 107.382C38.2243 106.953 38.3233 106.499 38.3471 106.039C38.3483 106.01 38.3553 105.982 38.3676 105.956C38.3799 105.93 38.3972 105.907 38.4187 105.887C38.4401 105.868 38.4652 105.853 38.4926 105.843C38.5199 105.833 38.5489 105.828 38.578 105.83C38.6071 105.831 38.6356 105.838 38.662 105.85C38.6884 105.862 38.7121 105.879 38.7318 105.9C38.7514 105.922 38.7667 105.946 38.7767 105.973C38.7866 106 38.7911 106.029 38.7899 106.058C38.7724 106.43 38.7088 106.799 38.6003 107.157ZM37.745 108.781C37.7371 108.808 37.7241 108.833 37.7068 108.855C37.3925 109.255 37.0162 109.604 36.5918 109.889C36.5677 109.905 36.5405 109.916 36.512 109.922C36.4835 109.927 36.4541 109.927 36.4256 109.922C36.397 109.916 36.3699 109.905 36.3456 109.889C36.3214 109.873 36.3006 109.853 36.2844 109.829C36.2682 109.805 36.2569 109.778 36.2512 109.75C36.2454 109.722 36.2454 109.693 36.251 109.665C36.2566 109.637 36.2678 109.61 36.2839 109.586C36.3 109.562 36.3208 109.541 36.3449 109.525C36.7327 109.265 37.0767 108.947 37.3643 108.581C37.3826 108.558 37.4055 108.538 37.4315 108.524C37.4576 108.509 37.4862 108.5 37.5159 108.497C37.5456 108.493 37.5756 108.496 37.6043 108.504C37.6329 108.512 37.6597 108.526 37.6829 108.545C37.7158 108.574 37.7393 108.611 37.7503 108.653C37.7614 108.695 37.7595 108.74 37.745 108.781ZM38.5748 104.689C38.5644 104.722 38.5459 104.753 38.521 104.778C38.496 104.803 38.4653 104.822 38.4315 104.833C38.4039 104.843 38.3747 104.847 38.3456 104.845C38.3165 104.843 38.288 104.835 38.2619 104.822C38.2358 104.809 38.2126 104.791 38.1936 104.77C38.1746 104.748 38.1601 104.722 38.1511 104.695C38.004 104.257 37.789 103.844 37.514 103.47C37.4969 103.447 37.4845 103.421 37.4777 103.393C37.4709 103.365 37.4697 103.336 37.4742 103.307C37.4787 103.279 37.4888 103.252 37.504 103.227C37.5192 103.203 37.5391 103.181 37.5626 103.164C37.5861 103.147 37.6128 103.135 37.6411 103.128C37.6694 103.122 37.6988 103.12 37.7276 103.125C37.7563 103.129 37.7839 103.139 37.8088 103.154C37.8336 103.169 37.8553 103.189 37.8724 103.212C38.1766 103.621 38.4146 104.075 38.578 104.556C38.5882 104.597 38.5871 104.64 38.5748 104.681V104.689ZM35.3351 110.355C35.3254 110.393 35.3055 110.427 35.2774 110.455C35.2494 110.483 35.2143 110.503 35.1758 110.512C34.7312 110.61 34.2718 110.624 33.822 110.553C33.7551 110.542 33.6898 110.531 33.6245 110.517C33.5959 110.511 33.5688 110.5 33.5447 110.483C33.5206 110.467 33.5 110.446 33.484 110.422C33.468 110.398 33.457 110.371 33.4516 110.343C33.4462 110.315 33.4465 110.285 33.4524 110.257C33.4584 110.229 33.4699 110.202 33.4864 110.178C33.5028 110.155 33.5238 110.134 33.5482 110.118C33.5726 110.103 33.5999 110.092 33.6286 110.086C33.6572 110.081 33.6867 110.081 33.7152 110.087L33.892 110.12C34.2869 110.182 34.69 110.17 35.0803 110.084C35.1087 110.078 35.1381 110.077 35.1668 110.082C35.1955 110.087 35.223 110.098 35.2475 110.113C35.2721 110.129 35.2933 110.149 35.31 110.173C35.3267 110.196 35.3384 110.223 35.3447 110.251C35.3494 110.283 35.3461 110.316 35.3351 110.347V110.355ZM36.8801 102.362C36.8716 102.389 36.8587 102.414 36.8419 102.436C36.8236 102.46 36.8007 102.479 36.7746 102.494C36.7485 102.508 36.7197 102.517 36.69 102.52C36.6603 102.524 36.6302 102.521 36.6016 102.512C36.573 102.504 36.5463 102.49 36.5233 102.471C36.1522 102.181 35.7474 101.935 35.3176 101.739C35.2687 101.712 35.232 101.667 35.2148 101.614C35.1977 101.562 35.2013 101.504 35.2251 101.454C35.2488 101.404 35.2909 101.364 35.3429 101.343C35.3949 101.322 35.453 101.321 35.5055 101.341C35.9664 101.552 36.4005 101.816 36.7989 102.128C36.8333 102.154 36.8594 102.189 36.8738 102.229C36.8883 102.269 36.8904 102.313 36.8801 102.354V102.362ZM25.385 134.576C25.3689 134.632 25.331 134.68 25.2797 134.708C25.2283 134.736 25.1676 134.743 25.111 134.727C25.0544 134.712 25.0065 134.674 24.9778 134.623C24.9492 134.573 24.9421 134.513 24.9581 134.457C25.0792 134.016 25.1891 133.545 25.2767 133.057C25.2883 133.001 25.3219 132.95 25.3704 132.918C25.419 132.885 25.4785 132.873 25.5363 132.883C25.565 132.888 25.5924 132.899 25.6168 132.915C25.6412 132.93 25.6623 132.951 25.6787 132.975C25.6951 132.999 25.7066 133.025 25.7125 133.054C25.7184 133.082 25.7186 133.111 25.7131 133.139C25.6159 133.638 25.5044 134.12 25.3802 134.572L25.385 134.576ZM24.9342 135.96V135.974C24.7585 136.436 24.5559 136.887 24.3274 137.326C24.2983 137.374 24.2515 137.41 24.1968 137.425C24.142 137.441 24.0833 137.435 24.0328 137.409C23.9823 137.383 23.9438 137.339 23.9251 137.286C23.9064 137.232 23.909 137.174 23.9324 137.123C24.1533 136.7 24.349 136.265 24.5185 135.82C24.5396 135.765 24.5815 135.721 24.6353 135.698C24.689 135.674 24.7501 135.672 24.8052 135.692C24.857 135.712 24.8991 135.751 24.9231 135.801C24.947 135.851 24.951 135.907 24.9342 135.96ZM25.9472 131.726C25.9412 131.754 25.9296 131.781 25.9131 131.804C25.8966 131.828 25.8755 131.848 25.8511 131.864C25.8267 131.88 25.7994 131.89 25.7708 131.895C25.7422 131.901 25.7129 131.9 25.6844 131.894C25.656 131.888 25.629 131.877 25.605 131.861C25.5811 131.844 25.5606 131.823 25.5448 131.799C25.529 131.775 25.5181 131.748 25.5128 131.72C25.5075 131.692 25.5079 131.663 25.514 131.635C25.5474 131.388 25.5777 131.131 25.6064 130.87C25.6287 130.649 25.651 130.424 25.6717 130.199C25.6811 130.145 25.711 130.095 25.7555 130.062C25.7999 130.028 25.8556 130.012 25.9115 130.017C25.9673 130.022 26.0193 130.047 26.0569 130.088C26.0945 130.129 26.1151 130.183 26.1145 130.239C26.0938 130.465 26.0715 130.693 26.0476 130.917C26.0189 131.18 25.9871 131.441 25.9536 131.693C25.9523 131.704 25.9501 131.715 25.9472 131.726ZM32.527 109.794C32.5206 109.814 32.512 109.833 32.5015 109.851C32.4693 109.9 32.419 109.934 32.3615 109.946C32.304 109.959 32.2439 109.948 32.1941 109.917C31.7641 109.641 31.3772 109.303 31.0457 108.916C31.0115 108.871 30.9959 108.815 31.0022 108.759C31.0085 108.703 31.0361 108.652 31.0794 108.616C31.1228 108.579 31.1786 108.561 31.2354 108.564C31.2922 108.566 31.3457 108.591 31.385 108.631C31.687 108.986 32.0408 109.295 32.4346 109.547C32.4749 109.573 32.5057 109.611 32.5223 109.656C32.539 109.7 32.5406 109.749 32.527 109.794ZM23.5756 138.529C23.5679 138.551 23.5572 138.573 23.5437 138.593C23.3972 138.795 23.2443 138.993 23.085 139.182C22.9257 139.371 22.7553 139.556 22.5753 139.733C22.5548 139.754 22.5301 139.771 22.5027 139.783C22.4753 139.794 22.4458 139.8 22.416 139.8C22.3862 139.8 22.3568 139.794 22.3294 139.783C22.302 139.771 22.2773 139.754 22.2568 139.733C22.2356 139.712 22.2187 139.688 22.2072 139.661C22.1957 139.634 22.1898 139.604 22.1898 139.575C22.1898 139.546 22.1957 139.517 22.2072 139.49C22.2187 139.463 22.2356 139.438 22.2568 139.418C22.4247 139.252 22.5842 139.078 22.7346 138.897C22.8859 138.717 23.0324 138.527 23.171 138.333C23.2018 138.291 23.2466 138.261 23.2976 138.248C23.3486 138.236 23.4025 138.241 23.4497 138.264C23.497 138.287 23.5346 138.325 23.5558 138.373C23.5771 138.42 23.5807 138.474 23.566 138.524L23.5756 138.529ZM26.2069 128.831C26.1928 128.884 26.1592 128.93 26.1128 128.959C26.0664 128.989 26.0105 129 25.956 128.991C25.9015 128.982 25.8525 128.953 25.8184 128.91C25.7844 128.867 25.7678 128.813 25.772 128.759C25.7959 128.287 25.8118 127.794 25.8166 127.314C25.8213 127.259 25.8468 127.208 25.8879 127.17C25.9291 127.133 25.9829 127.112 26.0388 127.112C26.0947 127.112 26.1485 127.133 26.1897 127.17C26.2308 127.208 26.2563 127.259 26.261 127.314C26.261 127.799 26.2403 128.29 26.2164 128.775C26.2154 128.794 26.2122 128.813 26.2069 128.831ZM34.2393 101.13C34.2246 101.184 34.1895 101.23 34.1412 101.26C34.0929 101.289 34.0351 101.299 33.9796 101.287C33.517 101.19 33.0445 101.147 32.5716 101.158C32.5127 101.159 32.4558 101.138 32.4131 101.098C32.3704 101.057 32.3455 101.002 32.3439 100.944C32.3428 100.915 32.3475 100.887 32.3578 100.86C32.3681 100.833 32.3837 100.808 32.4037 100.787C32.4237 100.766 32.4477 100.749 32.4744 100.738C32.501 100.726 32.5297 100.72 32.5589 100.719C33.0671 100.706 33.575 100.753 34.072 100.859C34.1006 100.865 34.1277 100.876 34.1518 100.893C34.1758 100.909 34.1964 100.93 34.2123 100.954C34.2281 100.978 34.239 101.005 34.2441 101.033C34.2493 101.062 34.2488 101.091 34.2425 101.119C34.242 101.124 34.241 101.129 34.2393 101.135V101.13ZM26.2419 125.926C26.2277 125.977 26.1953 126.021 26.1508 126.05C26.1062 126.079 26.0525 126.092 25.9995 126.085C25.9465 126.078 25.8979 126.052 25.8625 126.013C25.8271 125.973 25.8074 125.922 25.8071 125.869C25.7943 125.389 25.772 124.903 25.7402 124.426C25.7365 124.396 25.7391 124.366 25.7478 124.337C25.7564 124.308 25.7709 124.282 25.7903 124.258C25.8098 124.235 25.8338 124.217 25.8609 124.203C25.888 124.189 25.9177 124.182 25.948 124.18C25.9783 124.178 26.0087 124.182 26.0373 124.192C26.0659 124.203 26.0921 124.218 26.1142 124.239C26.1364 124.26 26.154 124.284 26.1661 124.312C26.1782 124.339 26.1845 124.369 26.1846 124.399C26.2148 124.881 26.2371 125.372 26.2499 125.858C26.2513 125.881 26.2487 125.904 26.2419 125.926ZM21.5018 140.564C21.4865 140.611 21.4557 140.653 21.4142 140.682C20.999 140.964 20.5593 141.209 20.1001 141.414C20.0496 141.425 19.9966 141.418 19.9504 141.395C19.9041 141.372 19.8675 141.334 19.8467 141.287C19.826 141.24 19.8225 141.187 19.8367 141.138C19.851 141.089 19.8822 141.046 19.9249 141.017C20.36 140.824 20.7763 140.592 21.1689 140.324C21.1929 140.308 21.22 140.296 21.2485 140.29C21.2771 140.284 21.3066 140.284 21.3353 140.289C21.364 140.294 21.3914 140.305 21.4159 140.321C21.4404 140.337 21.4614 140.357 21.4779 140.381C21.4956 140.409 21.5069 140.44 21.511 140.472C21.5151 140.504 21.512 140.537 21.5018 140.568V140.564ZM26.054 123.027C26.039 123.075 26.0076 123.117 25.965 123.145C25.9225 123.174 25.8714 123.186 25.8203 123.182C25.7693 123.177 25.7214 123.155 25.6848 123.12C25.6481 123.084 25.6249 123.038 25.6191 122.987C25.6016 122.809 25.5809 122.632 25.5602 122.454C25.5267 122.164 25.4885 121.87 25.4439 121.552C25.4359 121.494 25.4513 121.436 25.4869 121.39C25.5224 121.343 25.5752 121.313 25.6335 121.305C25.6918 121.297 25.7508 121.312 25.7977 121.347C25.8446 121.382 25.8755 121.434 25.8835 121.492C25.9281 121.807 25.9663 122.111 26.0014 122.403C26.0221 122.583 26.0428 122.762 26.0603 122.942C26.0639 122.97 26.0617 122.999 26.054 123.027ZM30.6252 107.618C30.612 107.66 30.5864 107.697 30.5517 107.724C30.5169 107.752 30.4747 107.768 30.4303 107.772C30.3859 107.776 30.3415 107.766 30.3027 107.744C30.2639 107.723 30.2326 107.69 30.2127 107.651C30.0803 107.384 29.9674 107.109 29.875 106.826C29.8129 106.636 29.7572 106.437 29.7158 106.236C29.7072 106.181 29.72 106.125 29.7516 106.079C29.7831 106.033 29.8311 106 29.8859 105.988C29.9406 105.975 29.9982 105.984 30.047 106.011C30.0958 106.039 30.1322 106.084 30.149 106.137C30.1936 106.325 30.2462 106.513 30.3083 106.692C30.3959 106.955 30.5024 107.211 30.6268 107.459C30.646 107.51 30.6455 107.567 30.6252 107.618ZM38.062 81.8269C38.0549 81.85 38.0442 81.8718 38.0301 81.8915C37.7482 82.2818 37.4694 82.6784 37.2018 83.0829C37.1693 83.1314 37.1187 83.165 37.061 83.1766C37.0034 83.1881 36.9434 83.1765 36.8944 83.1443C36.8454 83.1122 36.8114 83.0621 36.7997 83.0052C36.7881 82.9482 36.7998 82.889 36.8323 82.8406C37.1031 82.4361 37.3834 82.0316 37.6685 81.6365C37.6986 81.5932 37.7434 81.562 37.7948 81.5487C37.8462 81.5353 37.9008 81.5407 37.9485 81.5638C37.9962 81.5869 38.0339 81.6262 38.0548 81.6745C38.0756 81.7228 38.0781 81.7769 38.062 81.8269ZM25.6589 120.148C25.6449 120.196 25.6147 120.238 25.5734 120.266C25.532 120.295 25.482 120.309 25.4316 120.305C25.3812 120.302 25.3334 120.282 25.2963 120.248C25.2591 120.214 25.2348 120.169 25.2273 120.12C25.1572 119.68 25.0824 119.241 25.0091 118.802L24.99 118.687C24.9849 118.659 24.9857 118.63 24.9921 118.602C24.9985 118.573 25.0105 118.547 25.0274 118.523C25.0443 118.5 25.0657 118.48 25.0904 118.464C25.1152 118.449 25.1427 118.439 25.1715 118.434C25.2298 118.425 25.2893 118.439 25.3373 118.472C25.3853 118.506 25.4178 118.557 25.428 118.615L25.4471 118.73C25.5204 119.17 25.5952 119.61 25.6653 120.05C25.6712 120.083 25.669 120.116 25.6589 120.148ZM36.4389 84.254C36.434 84.273 36.4259 84.2911 36.415 84.3075C36.1602 84.7151 35.9085 85.1338 35.6664 85.5493C35.6373 85.5998 35.589 85.6368 35.5322 85.6522C35.4755 85.6675 35.4149 85.66 35.3638 85.6312C35.3127 85.6024 35.2752 85.5547 35.2597 85.4986C35.2442 85.4425 35.2518 85.3826 35.2809 85.3321C35.5262 84.9103 35.7795 84.4885 36.0375 84.073C36.0653 84.0268 36.1092 83.9923 36.161 83.9761C36.2128 83.9599 36.2689 83.9631 36.3184 83.9851C36.368 84.0071 36.4077 84.0463 36.4299 84.0953C36.4521 84.1443 36.4553 84.1996 36.4389 84.2508V84.254ZM31.3277 101.215C31.3167 101.251 31.2962 101.284 31.2683 101.311C31.2403 101.337 31.2059 101.355 31.1684 101.364C30.8004 101.463 30.4413 101.591 30.0948 101.748C30.0948 101.794 30.0821 101.84 30.0773 101.885C30.0687 101.939 30.0405 101.988 29.9979 102.022C29.9553 102.056 29.9015 102.074 29.8467 102.071C29.7918 102.069 29.7399 102.046 29.7007 102.008C29.6616 101.97 29.638 101.919 29.6345 101.865C29.5953 101.844 29.5636 101.811 29.5437 101.772C29.5176 101.72 29.5131 101.661 29.5313 101.606C29.5495 101.551 29.5889 101.506 29.6409 101.479L29.6871 101.456L29.6966 101.393C29.7428 101.059 29.7954 100.719 29.8559 100.385C29.8661 100.328 29.8984 100.277 29.946 100.244C29.9937 100.21 30.0528 100.196 30.1108 100.204C30.1396 100.209 30.1672 100.219 30.192 100.234C30.2168 100.249 30.2383 100.269 30.2553 100.293C30.2723 100.316 30.2845 100.343 30.2911 100.371C30.2978 100.399 30.2987 100.428 30.2939 100.456C30.2509 100.716 30.2095 100.979 30.1713 101.243C30.4603 101.126 30.7567 101.026 31.0585 100.946C31.0966 100.935 31.1369 100.935 31.175 100.945C31.2132 100.956 31.2479 100.976 31.2756 101.004C31.3032 101.032 31.3228 101.066 31.3322 101.104C31.3416 101.142 31.3406 101.182 31.3293 101.22L31.3277 101.215ZM29.9324 104.819C29.9167 104.868 29.8843 104.91 29.8408 104.938C29.7973 104.965 29.7454 104.977 29.694 104.971C29.6425 104.965 29.5948 104.942 29.559 104.905C29.5232 104.868 29.5014 104.82 29.4976 104.769C29.4681 104.277 29.4681 103.783 29.4976 103.291C29.5009 103.233 29.5275 103.179 29.5714 103.14C29.6153 103.101 29.673 103.081 29.7317 103.085C29.7904 103.088 29.8454 103.114 29.8845 103.158C29.9236 103.201 29.9437 103.258 29.9403 103.316C29.9125 103.791 29.9125 104.267 29.9403 104.742C29.9417 104.768 29.939 104.794 29.9324 104.819ZM34.9751 86.7754C34.9712 86.7896 34.9659 86.8033 34.9592 86.8164C34.7314 87.2398 34.5069 87.6726 34.2934 88.1039C34.2677 88.156 34.222 88.196 34.1664 88.2149C34.1108 88.2337 34.05 88.23 33.9972 88.2046C33.9444 88.1791 33.904 88.134 33.8848 88.0791C33.8657 88.0242 33.8695 87.964 33.8952 87.9118C34.1103 87.4758 34.3364 87.0383 34.5658 86.6102C34.59 86.5595 34.6329 86.5199 34.6857 86.4995C34.7386 86.4792 34.7973 86.4796 34.8498 86.5008C34.9023 86.522 34.9446 86.5623 34.9679 86.6134C34.9912 86.6645 34.9938 86.7225 34.9751 86.7754ZM33.6818 89.385C33.6788 89.3947 33.675 89.4042 33.6706 89.4134C33.4715 89.8494 33.2772 90.2964 33.0909 90.7402C33.0798 90.7668 33.0635 90.7909 33.043 90.8113C33.0225 90.8316 32.9981 90.8478 32.9712 90.8588C32.9444 90.8698 32.9156 90.8755 32.8865 90.8756C32.8575 90.8756 32.8287 90.87 32.8018 90.8591C32.7749 90.8481 32.7505 90.832 32.7299 90.8117C32.7093 90.7915 32.6929 90.7674 32.6818 90.7408C32.6706 90.7143 32.6648 90.6859 32.6648 90.6571C32.6648 90.6284 32.6704 90.5999 32.6815 90.5734C32.8679 90.1248 33.0654 89.6731 33.2661 89.2324C33.2895 89.1812 33.3319 89.1409 33.3845 89.1195C33.437 89.0982 33.4959 89.0975 33.549 89.1176C33.602 89.1377 33.6453 89.177 33.67 89.2276C33.6947 89.2782 33.6989 89.3362 33.6818 89.3898V89.385ZM25.1811 117.279C25.1701 117.319 25.1474 117.356 25.1157 117.384C25.084 117.412 25.0447 117.43 25.0027 117.436C24.9739 117.44 24.9446 117.439 24.9163 117.433C24.888 117.426 24.8613 117.414 24.8378 117.397C24.8142 117.38 24.7943 117.358 24.7792 117.334C24.764 117.309 24.7539 117.282 24.7495 117.253C24.6635 116.718 24.5902 116.246 24.536 115.812C24.5322 115.783 24.534 115.754 24.5415 115.726C24.549 115.699 24.5619 115.672 24.5796 115.65C24.5972 115.627 24.6193 115.607 24.6445 115.593C24.6697 115.579 24.6975 115.569 24.7264 115.565C24.7552 115.562 24.7846 115.563 24.8127 115.571C24.8409 115.578 24.8673 115.591 24.8904 115.608C24.9136 115.626 24.933 115.648 24.9476 115.673C24.9622 115.697 24.9718 115.725 24.9756 115.753C25.0346 116.185 25.1031 116.654 25.1875 117.186C25.1929 117.217 25.1907 117.249 25.1811 117.279ZM30.5472 99.0523C30.533 99.1086 30.4968 99.1571 30.4465 99.1871C30.3962 99.217 30.3358 99.226 30.2788 99.212C30.2218 99.198 30.1727 99.1622 30.1424 99.1125C30.1121 99.0628 30.103 99.0031 30.1171 98.9468C30.2111 98.4746 30.3162 97.993 30.4277 97.5192C30.4343 97.4912 30.4464 97.4648 30.4634 97.4414C30.4803 97.418 30.5017 97.3981 30.5264 97.3829C30.5511 97.3677 30.5786 97.3575 30.6073 97.3528C30.636 97.3481 30.6654 97.349 30.6937 97.3555C30.7221 97.362 30.7488 97.374 30.7725 97.3907C30.7962 97.4075 30.8163 97.4287 30.8316 97.4531C30.847 97.4775 30.8574 97.5046 30.8622 97.533C30.8669 97.5614 30.866 97.5904 30.8594 97.6184C30.7495 98.0906 30.6459 98.5627 30.552 99.0349L30.5472 99.0523ZM32.5589 92.0718V92.0859C32.3885 92.5361 32.2228 92.9941 32.0683 93.449C32.0493 93.5041 32.0089 93.5495 31.956 93.5751C31.9032 93.6008 31.8421 93.6047 31.7864 93.5859C31.7306 93.5671 31.6847 93.5272 31.6587 93.475C31.6327 93.4227 31.6288 93.3624 31.6478 93.3073C31.8071 92.8493 31.9664 92.3866 32.1432 91.9317C32.162 91.8766 32.2021 91.8311 32.2549 91.8053C32.3076 91.7795 32.3685 91.7754 32.4243 91.794C32.4801 91.8126 32.5261 91.8523 32.5522 91.9044C32.5783 91.9565 32.5825 92.0167 32.5637 92.0718H32.5589ZM31.213 96.2223C31.1969 96.2782 31.159 96.3256 31.1077 96.3539C31.0563 96.3822 30.9956 96.3893 30.939 96.3734C30.8824 96.3575 30.8345 96.3201 30.8058 96.2693C30.7772 96.2186 30.7701 96.1586 30.7861 96.1027C30.9135 95.6305 31.0489 95.1583 31.1907 94.6987C31.2076 94.643 31.2462 94.5962 31.298 94.5686C31.3498 94.541 31.4106 94.5348 31.467 94.5515C31.5234 94.5682 31.5708 94.6064 31.5987 94.6576C31.6267 94.7088 31.6328 94.7689 31.616 94.8246C31.4758 95.2842 31.3404 95.7501 31.2146 96.2144L31.213 96.2223ZM28.7123 102.507C28.6989 102.552 28.6716 102.591 28.6343 102.619C28.2541 102.904 27.8982 103.22 27.5703 103.563C27.5513 103.587 27.5274 103.607 27.5001 103.622C27.4728 103.636 27.4427 103.645 27.4118 103.647C27.3809 103.649 27.3499 103.645 27.3207 103.635C27.2916 103.625 27.2649 103.608 27.2425 103.587C27.2201 103.566 27.2024 103.541 27.1907 103.512C27.1789 103.484 27.1732 103.453 27.1741 103.423C27.175 103.392 27.1823 103.362 27.1957 103.335C27.2091 103.307 27.2282 103.282 27.2517 103.263C27.5949 102.9 27.9679 102.566 28.3667 102.265C28.4041 102.237 28.4493 102.222 28.4959 102.221C28.5425 102.221 28.5882 102.234 28.6265 102.261C28.6648 102.287 28.6939 102.324 28.7095 102.368C28.7252 102.411 28.7267 102.458 28.7139 102.502L28.7123 102.507ZM24.8004 114.398C24.7877 114.44 24.7626 114.478 24.7283 114.506C24.694 114.534 24.652 114.551 24.6077 114.556C24.5787 114.558 24.5495 114.555 24.5218 114.547C24.494 114.538 24.4682 114.524 24.4459 114.506C24.4235 114.487 24.4051 114.465 24.3916 114.439C24.3781 114.414 24.3698 114.386 24.3672 114.357L24.3544 114.22C24.313 113.769 24.2828 113.323 24.2668 112.895C24.2654 112.866 24.2697 112.838 24.2796 112.811C24.2895 112.784 24.3047 112.759 24.3245 112.738C24.3442 112.717 24.368 112.7 24.3945 112.688C24.421 112.676 24.4496 112.669 24.4787 112.669C24.5078 112.667 24.537 112.671 24.5644 112.681C24.5918 112.691 24.6171 112.706 24.6385 112.725C24.66 112.745 24.6774 112.768 24.6896 112.795C24.7018 112.821 24.7086 112.849 24.7096 112.878C24.7256 113.298 24.7558 113.737 24.7956 114.181L24.8084 114.316C24.8117 114.344 24.8095 114.372 24.802 114.398H24.8004ZM24.6905 111.494C24.675 111.545 24.6415 111.588 24.5962 111.616C24.5509 111.644 24.4969 111.655 24.4441 111.647C24.3913 111.639 24.3433 111.612 24.3089 111.571C24.2746 111.531 24.2563 111.479 24.2573 111.427C24.2716 110.923 24.3051 110.429 24.3576 109.958C24.3609 109.93 24.3698 109.902 24.3839 109.877C24.398 109.851 24.4169 109.829 24.4397 109.811C24.4625 109.793 24.4886 109.78 24.5166 109.772C24.5446 109.764 24.574 109.761 24.6029 109.765C24.6319 109.768 24.6599 109.777 24.6855 109.79C24.711 109.804 24.7335 109.823 24.7517 109.846C24.7699 109.868 24.7834 109.894 24.7915 109.922C24.7996 109.949 24.8021 109.978 24.7988 110.007C24.7479 110.465 24.7144 110.951 24.7001 111.439C24.7008 111.458 24.6981 111.477 24.6921 111.494H24.6905ZM26.699 104.61C26.6929 104.632 26.6826 104.653 26.6688 104.671C26.397 105.062 26.1548 105.472 25.9441 105.897C25.9183 105.95 25.8726 105.989 25.817 106.008C25.7615 106.027 25.7006 106.024 25.6478 105.998C25.595 105.973 25.5546 105.927 25.5355 105.873C25.5163 105.818 25.5201 105.758 25.5459 105.705C25.7653 105.259 26.0187 104.831 26.304 104.423C26.3337 104.379 26.3783 104.347 26.4296 104.334C26.4809 104.32 26.5355 104.325 26.5834 104.348C26.6314 104.37 26.6694 104.409 26.6907 104.457C26.7119 104.506 26.7148 104.56 26.699 104.61ZM25.0218 108.611C25.0075 108.667 24.971 108.716 24.9206 108.745C24.8701 108.775 24.8097 108.784 24.7526 108.77C24.6956 108.756 24.6466 108.72 24.6165 108.67C24.5863 108.62 24.5774 108.56 24.5918 108.504C24.6666 108.151 24.7511 107.805 24.8562 107.471C24.896 107.339 24.939 107.207 24.982 107.078C24.9913 107.051 25.006 107.025 25.0251 107.004C25.0443 106.982 25.0676 106.964 25.0937 106.951C25.1198 106.939 25.1482 106.931 25.1773 106.929C25.2064 106.927 25.2355 106.931 25.2631 106.94C25.2907 106.949 25.3162 106.964 25.3382 106.983C25.3601 107.002 25.3781 107.025 25.391 107.05C25.404 107.076 25.4117 107.104 25.4136 107.133C25.4156 107.162 25.4118 107.191 25.4025 107.218C25.3611 107.342 25.3197 107.47 25.2815 107.599C25.1843 107.914 25.0999 108.255 25.0266 108.595L25.0218 108.611Z" fill="white" stroke="white" stroke-width="0.126249" stroke-miterlimit="10"/>
<path d="M39.3983 80.0734C39.3901 80.0996 39.3771 80.1242 39.3601 80.1458C39.2088 80.3347 39.0575 80.5283 38.9093 80.7203C38.8928 80.7461 38.871 80.7681 38.8453 80.7851C38.8197 80.8021 38.7908 80.8136 38.7604 80.819C38.73 80.8244 38.6988 80.8234 38.6688 80.8163C38.6388 80.8091 38.6107 80.7959 38.5861 80.7774C38.5615 80.7589 38.5411 80.7356 38.5262 80.7089C38.5112 80.6823 38.502 80.6528 38.4991 80.6225C38.4963 80.5921 38.4998 80.5615 38.5096 80.5325C38.5193 80.5036 38.535 80.477 38.5557 80.4543C38.7054 80.2607 38.86 80.0656 39.0113 79.8735C39.0437 79.8343 39.0889 79.8073 39.1392 79.7972C39.1894 79.787 39.2417 79.7943 39.2871 79.8178C39.3326 79.8413 39.3685 79.8795 39.3887 79.9261C39.409 79.9726 39.4124 80.0247 39.3983 80.0734Z" fill="white" stroke="white" stroke-width="0.126249" stroke-miterlimit="10"/>
<path d="M47.7987 38.9508L49.8693 38.1104C52.2585 36.3601 50.8552 35.2064 49.5699 33.5553C50.4427 31.7642 53.2715 31.9342 53.6283 29.5764C51.9606 28.3534 46.8478 31.9169 46.7793 28.8791C46.7395 26.8739 50.7836 23.9999 52.4146 23.3971C54.0456 22.7942 58.5866 22.7171 60.1714 23.4978C61.4058 24.1069 62.07 25.2559 61.8439 26.5308C61.597 27.9206 60.2909 28.525 59.614 29.8361C61.2943 30.4657 62.1481 28.3833 62.7454 27.3603C63.7409 25.6525 64.5277 26.3466 66.1699 25.7218C67.6639 25.152 68.6084 24.003 70.2697 23.5938C71.563 23.279 73.0172 22.9989 74.3393 22.7927C75.8492 22.555 76.8543 23.3262 78.2368 23.331C80.3409 23.331 79.6018 20.2932 81.6645 21.842C82.3971 22.3929 81.7011 22.6148 82.867 23.0539C83.3624 23.2397 84.4216 23.3687 84.9934 23.4836C87.604 24.0093 86.2963 22.832 86.0765 21.1384C85.7977 18.9853 87.3316 20.3404 88.7078 20.9464C89.716 21.3918 89.7224 20.9747 90.1636 22.0246C90.5538 22.9516 89.724 23.2995 90.7688 23.9353C92.763 25.1426 92.7152 22.3346 92.7152 21.4107C92.7152 19.8368 93.0338 18.9428 91.4951 17.8709C91.973 17.4759 92.4317 16.84 92.532 16.2214C91.0985 15.5273 91.5079 14.4303 90.7593 13.4009C89.5025 11.6696 88.8559 13.2042 87.545 13.6795C86.1912 14.1706 84.9504 13.116 83.6443 13.9423C82.2872 14.8001 82.1773 16.0687 80.4253 14.4366C81.1866 13.8825 81.7234 12.8846 82.198 12.0756C81.6963 11.6327 81.2377 11.1442 80.8283 10.6166C82.1455 8.66646 84.4439 9.93978 86.0558 10.7315C87.862 11.6192 89.5344 10.3018 91.2116 10.9991C92.7773 11.6475 92.2772 14.5231 94.8559 14.361C96.3276 14.2681 96.1652 13.541 96.2894 12.5966C96.3213 12.3448 96.1158 11.5956 96.1031 11.3374C96.1014 11.3107 96.1014 11.2839 96.1031 11.2572C97.6019 11.8757 99.0752 12.5636 100.531 13.3033C100.294 14.2005 100.251 15.4455 100.212 16.149C100.182 16.6653 100.432 17.1878 100.333 17.7119C100.222 18.3069 99.3619 18.5713 99.7442 19.2749C100.335 20.3609 105.118 18.9601 106.103 18.8735C107.351 18.7586 108.098 18.7366 108.332 17.9811C112.483 20.8854 116.26 24.2787 119.579 28.0859C119.632 28.6934 119.686 29.3198 119.711 29.9903C119.765 31.4305 119.624 32.6031 120.613 33.878C121.185 34.6146 123.582 36.1256 121.473 37.1518C119.525 38.0962 119.88 35.4205 119.751 34.6335C119.568 33.5443 118.195 31.5611 117.214 33.1461C115.753 35.507 121.245 38.5778 118.42 40.3642C118.802 41.1418 119.632 42.5678 118.819 43.3343C117.816 44.2787 116.824 42.6071 115.892 44.0536C114.571 46.0997 115.685 49.2366 118.249 49.8772C120.982 50.554 121.36 46.4255 124.103 47.7791C125.184 48.3127 125.579 48.9879 126.001 50.277C126.347 51.3268 125.944 52.9291 127.016 53.4894C127.537 52.9417 127.361 52.1925 127.662 51.5724C128.312 52.2743 129.23 54.2638 129.225 55.2255C129.225 56.6814 128.167 58.0932 130.695 57.8729C130.584 57.5093 130.76 56.9804 130.735 56.7318C132.841 58.1263 133.736 59.9536 133.425 62.3602C132.728 67.7337 129.921 61.2584 128.252 63.2007C127.285 62.0124 127.396 60.6824 126.726 59.3996C126.407 58.7921 125.375 58.3277 125.178 57.7926C124.905 57.0591 125.507 56.4437 125.296 55.7575C124.459 53.0582 118.646 52.7087 116.309 52.5592C115.672 52.5183 115.169 52.2255 114.525 52.5104C113.425 52.9968 114.033 53.7082 113.337 54.3819C112.345 55.342 110.519 54.8871 109.468 55.4836C106.947 56.9316 107.05 61.4473 105.147 63.6446C104.091 64.8644 101.675 65.3507 101.483 66.8271C101.401 67.4567 101.961 68.4183 101.901 69.188C101.847 69.8916 101.519 70.6439 101.542 71.4262C101.624 73.9618 102.117 77.0467 102.487 79.6107C102.699 81.0666 103.648 82.0598 105.064 82.6248C106.232 83.097 108.02 83.7754 109.275 83.9501C110.953 84.1862 111.693 83.448 112.644 84.8945C113.399 86.0513 113.441 88.0062 115.424 87.7134C115.782 89.3755 113.487 90.3514 112.517 91.302C111.273 92.5218 111.013 94.1194 111.083 95.8964C111.168 98.0291 111.242 98.4462 109.734 100.228C108.555 101.618 107.248 102.735 105.921 104.005C104.647 105.222 103.009 105.699 102.044 107.237C101.155 108.653 101.01 110.172 99.8238 111.54C98.7757 112.746 97.6417 114.257 96.4296 115.317C95.1872 116.399 93.4622 116.948 92.1577 118.034C90.9185 119.07 89.9071 120.799 90.1046 122.441C90.3101 124.16 91.6719 124.149 93.3396 124.046C96.6287 123.843 99.4973 121.715 102.438 120.459C105.44 119.174 108.323 118.099 110.879 116.405C111.422 116.046 112.007 115.723 112.593 115.404C104.301 122.357 94.3157 127.052 83.6251 129.025C72.9345 130.998 61.9079 130.181 51.6346 126.654C41.3614 123.128 32.1968 117.014 25.0463 108.917C17.8958 100.819 13.0067 91.0185 10.862 80.4827C7.56973 64.3088 10.8509 47.8374 20.1002 34.0999C24.6286 27.3321 30.4703 21.519 37.2872 16.9969C44.1042 12.4748 51.761 9.33365 59.8147 7.75514C60.1985 7.67959 60.584 7.6245 60.9694 7.55525C60.4309 8.00648 59.8323 8.3825 59.1903 8.67275C57.6501 9.30233 56.0509 8.91199 54.5218 9.44871C53.1281 9.93821 51.5433 11.0227 50.5319 11.9356C49.4377 12.9224 48.6492 14.4791 47.4339 15.3825C45.8889 16.5299 44.3169 16.7817 43.3277 18.639C45.0241 20.6489 46.6057 16.3347 48.517 17.3137C48.1475 19.0718 46.0418 21.406 44.8648 22.81C43.2449 24.7412 42.4899 24.9852 42.5425 27.5948C42.5855 29.6614 42.2781 30.823 44.0525 32.3166C45.6771 33.6828 45.8794 34.9514 45.486 37.114C46.3572 37.9671 45.6882 38.0191 48.1937 38.9524M108.509 14.2697C78.3085 -5.58095 37.5412 2.5186 17.4514 32.3623C-2.63843 62.206 5.56123 102.491 35.7684 122.342C65.9755 142.193 106.732 134.095 126.817 104.251C146.902 74.4072 138.708 34.122 108.509 14.2697Z" stroke="white" stroke-width="0.5" stroke-miterlimit="10"/>
</svg>
