<svg width="54" height="70" viewBox="0 0 54 70" fill="none" xmlns="http://www.w3.org/2000/svg">
<path d="M9.80895 54.9817C9.80895 57.1287 8.12361 58.7062 5.799 58.7062C3.4744 58.7062 1.78906 57.1372 1.78906 54.9817C1.78906 52.8347 3.4744 51.2979 5.799 51.2979C8.12361 51.2979 9.80895 52.8465 9.80895 54.9817ZM4.27058 54.9919C4.27058 56.0038 4.99934 56.753 5.83213 56.753C6.66492 56.753 7.3315 56.0038 7.3315 54.9919C7.3315 53.9799 6.66492 53.2511 5.83213 53.2511C4.98888 53.2511 4.27058 53.9799 4.27058 54.9919Z" fill="white"/>
<path d="M16.6499 55.0119V58.5437H14.3078V55.6696C14.3078 55.204 14.037 54.9107 13.6308 54.9107C13.1728 54.9107 12.8817 55.265 12.8817 55.8012V58.5437H10.5391V53.0067H12.8817V53.7977C13.2664 53.2327 13.8598 52.9072 14.6094 52.9072C15.8066 52.9067 16.6499 53.7367 16.6499 55.0119Z" fill="white"/>
<path d="M23.2887 56.2873H19.5827C19.739 56.7223 20.072 56.9449 20.53 56.9449C20.9257 56.9449 21.3314 56.7754 21.6859 56.4488L22.9063 57.6128C22.3025 58.2608 21.4284 58.6253 20.3248 58.6253C18.378 58.6253 17.2227 57.5116 17.2227 55.8002C17.2227 54.0487 18.4303 52.926 20.2627 52.926C22.2479 52.9266 23.4137 54.2431 23.2887 56.2873ZM20.2801 54.4453C19.8733 54.4453 19.6246 54.7691 19.531 55.2363H20.9467C20.9775 54.7793 20.6863 54.4453 20.2801 54.4453Z" fill="white"/>
<path d="M38.6091 51.4497L36.1421 58.544H33.6646L32.5715 54.3036L31.4475 58.544H28.9701L26.5234 51.4497H29.1049L30.2817 56.1048L31.4475 51.4497H33.8L34.9891 56.1048L36.1444 51.4497H38.6091Z" fill="white"/>
<path d="M43.793 54.9606V58.5433H41.4928V57.9461C41.1598 58.3919 40.6211 58.6445 39.8894 58.6445C38.6823 58.6445 37.9844 57.9563 37.9844 56.9037C37.9844 55.811 38.7445 55.2341 40.1927 55.2137H41.4928C41.4823 54.8295 41.1807 54.6064 40.6077 54.6064C40.1811 54.6064 39.525 54.7278 38.8799 54.9606L38.3569 53.4424C39.3251 53.0989 40.3247 52.9062 41.1679 52.9062C42.8149 52.9068 43.793 53.656 43.793 54.9606ZM41.4928 56.7726V56.2641H40.6792C40.3561 56.2641 40.1794 56.4161 40.1794 56.7093C40.1794 57.0127 40.3665 57.1952 40.6995 57.1952C40.8572 57.1936 41.0121 57.1542 41.1504 57.0806C41.2888 57.007 41.4064 56.9014 41.4928 56.7732V56.7726Z" fill="white"/>
<path d="M45.9711 60.6109C45.222 60.6109 44.6182 60.4086 44.0039 59.9634L44.9826 58.4639C45.2325 58.6865 45.4614 58.7876 45.7421 58.7876C46.0129 58.7876 46.1896 58.6966 46.3041 58.5051L46.3878 58.3735L44.0248 53.0093H46.429L47.5536 56.1671L48.4799 53.0093H50.8115L48.4695 58.93C47.9906 60.0826 47.1892 60.6109 45.9711 60.6109Z" fill="white"/>
<path d="M13.3361 66.7957C13.1473 66.7982 12.9624 66.7429 12.8078 66.6375C12.648 66.5268 12.5229 66.3753 12.4463 66.1996C12.3563 65.9956 12.3121 65.7752 12.3167 65.5532V61.4609C12.3167 61.3885 12.3463 61.3191 12.399 61.2679C12.4516 61.2167 12.523 61.188 12.5974 61.188C12.6719 61.188 12.7433 61.2167 12.7959 61.2679C12.8486 61.3191 12.8781 61.3885 12.8781 61.4609V65.5532C12.8702 65.7295 12.915 65.9042 13.0071 66.0561C13.0394 66.1138 13.0869 66.1622 13.1447 66.1962C13.2025 66.2303 13.2685 66.2488 13.3361 66.2499H13.5203C13.5533 66.249 13.5862 66.2554 13.6163 66.2685C13.6465 66.2816 13.6733 66.3011 13.6947 66.3256C13.7413 66.381 13.7651 66.4513 13.7615 66.5228C13.7627 66.5604 13.7551 66.5977 13.739 66.6319C13.723 66.6661 13.6991 66.6963 13.6691 66.72C13.6011 66.7725 13.5158 66.7994 13.4291 66.7957H13.3361Z" fill="white"/>
<path d="M16.1665 66.8313C15.7972 66.8375 15.4328 66.7484 15.1105 66.5731C14.8053 66.4059 14.5526 66.1612 14.3795 65.8651C14.2047 65.5483 14.1133 65.1943 14.1133 64.8348C14.1133 64.4753 14.2047 64.1214 14.3795 63.8045C14.5521 63.5073 14.8048 63.2616 15.1105 63.0938C15.4345 62.9239 15.7967 62.835 16.1648 62.835C16.5328 62.835 16.895 62.9239 17.219 63.0938C17.5228 63.2625 17.7741 63.5082 17.946 63.8045C18.1273 64.1205 18.2214 64.4767 18.2191 64.8385C18.2254 65.1979 18.1325 65.5525 17.95 65.8651C17.7756 66.1609 17.5232 66.4063 17.219 66.5759C16.8977 66.7504 16.5344 66.8385 16.1665 66.8313ZM16.1665 66.329C16.4357 66.333 16.701 66.266 16.9342 66.1352C17.1582 66.0087 17.3421 65.8247 17.4659 65.6035C17.597 65.368 17.6633 65.1035 17.6583 64.8357C17.6631 64.5667 17.5968 64.3009 17.4659 64.0639C17.3429 63.8412 17.1589 63.656 16.9342 63.5288C16.6993 63.4017 16.435 63.335 16.1662 63.335C15.8974 63.335 15.6331 63.4017 15.3982 63.5288C15.1731 63.6565 14.988 63.8415 14.863 64.0639C14.7299 64.3003 14.6624 64.5662 14.6671 64.8357C14.6622 65.1039 14.7297 65.3686 14.863 65.6035C14.9888 65.8245 15.1737 66.0082 15.3982 66.1352C15.6316 66.266 15.8971 66.333 16.1665 66.329Z" fill="white"/>
<path d="M21.1077 66.8315C20.7458 66.8383 20.3886 66.7503 20.0738 66.5767C19.7759 66.4091 19.5316 66.1644 19.3683 65.8698C19.1945 65.5518 19.1069 65.196 19.1137 64.8359C19.1061 64.472 19.1979 64.1126 19.3799 63.7946C19.552 63.4978 19.805 63.2531 20.111 63.0872C20.437 62.9199 20.8001 62.8325 21.1687 62.8325C21.5373 62.8325 21.9003 62.9199 22.2264 63.0872C22.5304 63.2533 22.781 63.4982 22.9505 63.7946C23.1297 64.1138 23.2223 64.4722 23.2196 64.8359L22.8877 65.0054C22.8939 65.3338 22.8152 65.6584 22.6587 65.9495C22.514 66.2189 22.2954 66.444 22.027 66.5998C21.7483 66.7576 21.4302 66.8378 21.1077 66.8315ZM21.1815 68.3468C20.8271 68.3541 20.4759 68.2816 20.1551 68.135C19.8683 68.0006 19.6179 67.8026 19.4241 67.557C19.3988 67.5329 19.3794 67.5037 19.3672 67.4715C19.355 67.4392 19.3504 67.4047 19.3537 67.3705C19.3577 67.3369 19.3693 67.3046 19.3878 67.2759C19.4063 67.2473 19.4312 67.223 19.4607 67.205C19.4915 67.1839 19.5264 67.1693 19.5633 67.1619C19.6002 67.1545 19.6382 67.1545 19.6751 67.162C19.7486 67.1732 19.8148 67.212 19.8593 67.2699C20.0088 67.4467 20.1968 67.5889 20.4097 67.6863C20.6538 67.7956 20.9203 67.8495 21.189 67.844C21.4512 67.8476 21.7093 67.7805 21.9346 67.6502C22.1586 67.5185 22.3413 67.3297 22.4629 67.1044C22.5983 66.8495 22.6656 66.5657 22.6587 66.2789V65.1873L22.8726 64.7709L23.2213 64.8359V66.3004C23.2273 66.6651 23.1358 67.0251 22.9557 67.3451C22.7854 67.6477 22.5358 67.9011 22.2322 68.0796C21.9143 68.2618 21.5504 68.3544 21.1815 68.3468ZM21.1669 66.3292C21.4371 66.3343 21.7037 66.2686 21.9387 66.1388C22.1612 66.0134 22.3437 65.8308 22.4664 65.6111C22.598 65.3731 22.6643 65.1061 22.6587 64.8359C22.664 64.5645 22.5978 64.2962 22.4664 64.0567C22.3444 63.8356 22.1617 63.6518 21.9387 63.5256C21.7037 63.3958 21.4371 63.3301 21.1669 63.3352C20.8955 63.3304 20.6276 63.3961 20.3911 63.5256C20.1664 63.651 19.9822 63.835 19.8593 64.0567C19.7283 64.2964 19.6623 64.5645 19.6676 64.8359C19.6621 65.106 19.7282 65.3729 19.8593 65.6111C19.9829 65.8314 20.167 66.0141 20.3911 66.1388C20.6276 66.2683 20.8955 66.334 21.1669 66.3292Z" fill="white"/>
<path d="M24.7254 62.1218C24.6732 62.1227 24.6213 62.1131 24.573 62.0937C24.5247 62.0743 24.481 62.0454 24.4447 62.0088C24.4064 61.972 24.3764 61.9279 24.3564 61.8793C24.3364 61.8307 24.3269 61.7787 24.3285 61.7263C24.3261 61.6734 24.3358 61.6206 24.3569 61.5718C24.378 61.5229 24.41 61.4792 24.4505 61.4438C24.5286 61.3759 24.63 61.3388 24.7347 61.3399C24.8372 61.3397 24.9361 61.3768 25.0119 61.4438C25.0525 61.4792 25.0845 61.5229 25.1056 61.5718C25.1267 61.6206 25.1364 61.6734 25.134 61.7263C25.1343 61.7784 25.1241 61.83 25.1038 61.8781C25.0835 61.9263 25.0535 61.97 25.0157 62.0068C24.9778 62.0436 24.9328 62.0728 24.8833 62.0925C24.8338 62.1122 24.7807 62.1222 24.7272 62.1218H24.7254ZM24.7324 66.7961C24.6934 66.7995 24.654 66.7945 24.6172 66.7815C24.5804 66.7685 24.5469 66.7478 24.5192 66.7209C24.4915 66.6939 24.4702 66.6614 24.4569 66.6256C24.4435 66.5898 24.4383 66.5516 24.4418 66.5136V63.1462C24.4381 63.1082 24.4431 63.0699 24.4564 63.034C24.4697 62.9981 24.491 62.9655 24.5188 62.9385C24.5465 62.9115 24.5801 62.8908 24.617 62.8779C24.6539 62.865 24.6933 62.8601 24.7324 62.8637C24.7698 62.8621 24.8071 62.8679 24.8421 62.8809C24.877 62.8938 24.9089 62.9135 24.9358 62.9388C24.9623 62.9661 24.9828 62.9982 24.9961 63.0334C25.0093 63.0685 25.0151 63.106 25.0131 63.1434V66.5108C25.0152 66.5482 25.0095 66.5857 24.9962 66.6209C24.9829 66.656 24.9623 66.6882 24.9358 66.7154C24.9094 66.7417 24.8777 66.7624 24.8427 66.7763C24.8077 66.7902 24.7702 66.797 24.7324 66.7961Z" fill="white"/>
<path d="M27.8693 66.8314C27.575 66.831 27.2829 66.7824 27.0052 66.6879C26.7396 66.6048 26.5006 66.4565 26.3113 66.2573C26.2855 66.2322 26.266 66.2017 26.2544 66.168C26.2428 66.1344 26.2394 66.0986 26.2444 66.0635C26.2556 65.9897 26.2953 65.9228 26.3554 65.8765C26.4144 65.8326 26.4881 65.8119 26.5621 65.8186C26.636 65.8253 26.7046 65.8589 26.7541 65.9127C26.881 66.0525 27.0424 66.1587 27.2231 66.2212C27.4299 66.2951 27.649 66.3317 27.8693 66.3291C28.2335 66.3291 28.497 66.268 28.6597 66.146C28.7339 66.0963 28.7952 66.0305 28.8388 65.9539C28.8824 65.8772 28.907 65.7917 28.9108 65.7042C28.9108 65.5317 28.8271 65.3893 28.6597 65.277C28.4923 65.1648 28.2165 65.0783 27.8321 65.0177C27.3351 64.9424 26.9709 64.8084 26.7396 64.616C26.5083 64.4235 26.392 64.196 26.3909 63.9334C26.3829 63.7137 26.4535 63.498 26.5908 63.3232C26.73 63.1559 26.914 63.0292 27.1226 62.9571C27.3566 62.8736 27.6043 62.8322 27.8536 62.8351C28.1469 62.828 28.4381 62.8844 28.7062 63C28.9338 63.1011 29.1331 63.2538 29.2873 63.4453C29.3102 63.472 29.3271 63.503 29.3371 63.5363C29.3471 63.5696 29.35 63.6046 29.3455 63.6391C29.34 63.6733 29.3267 63.706 29.3066 63.7346C29.2865 63.7633 29.2601 63.7872 29.2292 63.8046C29.1677 63.8384 29.0958 63.8498 29.0264 63.8368C28.9507 63.8253 28.8815 63.7885 28.8306 63.7329C28.7149 63.5993 28.5681 63.4947 28.4023 63.4278C28.2235 63.36 28.0327 63.327 27.8409 63.3306C27.5697 63.3306 27.3531 63.3844 27.1911 63.4922C27.0284 63.6001 26.9476 63.7351 26.9476 63.8978C26.9451 64.0007 26.9774 64.1015 27.0395 64.1849C27.124 64.2827 27.2337 64.3569 27.3573 64.4001C27.5607 64.4766 27.7725 64.5297 27.9885 64.5583C28.3581 64.616 28.6498 64.7009 28.8637 64.8132C29.0507 64.9017 29.2091 65.0385 29.3216 65.2087C29.4123 65.3576 29.4595 65.5277 29.4582 65.7008C29.462 65.9149 29.3904 66.1238 29.2554 66.2929C29.1075 66.4707 28.9138 66.6071 28.694 66.6884C28.4315 66.7884 28.1512 66.837 27.8693 66.8314Z" fill="white"/>
<path d="M30.1806 63.4925C30.1468 63.4935 30.1132 63.4881 30.0816 63.4764C30.0499 63.4648 30.021 63.4472 29.9964 63.4247C29.9724 63.4031 29.9534 63.3768 29.9406 63.3476C29.9278 63.3184 29.9215 63.2869 29.922 63.2552C29.9209 63.2224 29.9269 63.1898 29.9398 63.1595C29.9526 63.1292 29.9719 63.1019 29.9964 63.0794C30.0209 63.0567 30.0498 63.039 30.0814 63.0273C30.1131 63.0155 30.1468 63.01 30.1806 63.0111H32.0641C32.098 63.01 32.1317 63.0155 32.1633 63.0273C32.1949 63.039 32.2238 63.0567 32.2484 63.0794C32.2729 63.1019 32.2922 63.1292 32.305 63.1595C32.3178 63.1898 32.3239 63.2224 32.3227 63.2552C32.3233 63.2869 32.3169 63.3184 32.3041 63.3476C32.2913 63.3768 32.2723 63.4031 32.2484 63.4247C32.2237 63.4472 32.1948 63.4648 32.1632 63.4764C32.1316 63.4881 32.0979 63.4935 32.0641 63.4925H30.1806ZM32.0194 66.7955C31.778 66.8 31.5401 66.7397 31.3316 66.6213C31.1232 66.5029 30.9524 66.3309 30.8379 66.1243C30.718 65.9044 30.6579 65.6584 30.6636 65.4095V61.8992C30.6612 61.8247 30.6892 61.7525 30.7414 61.698C30.7677 61.6718 30.7993 61.6512 30.8342 61.6377C30.8692 61.6242 30.9067 61.6179 30.9443 61.6195C30.9829 61.6176 31.0216 61.6236 31.0577 61.6372C31.0938 61.6507 31.1266 61.6715 31.154 61.6981C31.1813 61.7247 31.2027 61.7566 31.2166 61.7917C31.2305 61.8268 31.2367 61.8644 31.2348 61.902V65.4129C31.2257 65.6331 31.3051 65.8482 31.4562 66.0124C31.528 66.0889 31.616 66.1494 31.7141 66.1896C31.8122 66.2299 31.9182 66.2491 32.0246 66.2458H32.2245C32.2605 66.2446 32.2963 66.2511 32.3294 66.2648C32.3625 66.2785 32.3921 66.2989 32.4163 66.3249C32.4666 66.3802 32.493 66.4522 32.4901 66.526C32.4915 66.5632 32.4842 66.6003 32.4688 66.6345C32.4534 66.6686 32.4303 66.6989 32.4012 66.7232C32.3398 66.7745 32.2607 66.8015 32.1798 66.7989L32.0194 66.7955Z" fill="white"/>
<path d="M33.8074 62.1218C33.7552 62.1227 33.7033 62.1131 33.655 62.0937C33.6067 62.0743 33.5631 62.0454 33.5267 62.0088C33.4885 61.972 33.4584 61.9279 33.4384 61.8793C33.4184 61.8307 33.4089 61.7787 33.4105 61.7263C33.4081 61.6734 33.4178 61.6206 33.4389 61.5718C33.46 61.5229 33.492 61.4792 33.5326 61.4438C33.6106 61.3759 33.712 61.3388 33.8167 61.3399C33.9192 61.3397 34.0181 61.3768 34.094 61.4438C34.1345 61.4792 34.1665 61.5229 34.1876 61.5718C34.2087 61.6206 34.2184 61.6734 34.216 61.7263C34.2164 61.7784 34.2061 61.83 34.1858 61.8781C34.1655 61.9263 34.1356 61.97 34.0977 62.0068C34.0599 62.0436 34.0149 62.0728 33.9653 62.0925C33.9158 62.1122 33.8627 62.1222 33.8092 62.1218H33.8074ZM33.8144 66.7961C33.7756 66.7991 33.7366 66.7938 33.7002 66.7806C33.6637 66.7674 33.6306 66.7466 33.6032 66.7197C33.5759 66.6928 33.5548 66.6605 33.5416 66.6249C33.5284 66.5893 33.5233 66.5513 33.5267 66.5136V63.1462C33.5231 63.1085 33.5281 63.0704 33.5412 63.0347C33.5543 62.9991 33.5754 62.9666 33.6028 62.9397C33.6302 62.9128 33.6634 62.892 33.6999 62.8789C33.7365 62.8657 33.7756 62.8606 33.8144 62.8637C33.8518 62.8621 33.8891 62.8679 33.9241 62.8809C33.9591 62.8938 33.991 62.9135 34.0178 62.9388C34.0443 62.9661 34.0648 62.9982 34.0781 63.0334C34.0914 63.0685 34.0972 63.106 34.0951 63.1434V66.5108C34.0973 66.5482 34.0915 66.5857 34.0782 66.6209C34.0649 66.656 34.0444 66.6882 34.0178 66.7154C33.9914 66.7417 33.9598 66.7624 33.9248 66.7763C33.8898 66.7902 33.8522 66.797 33.8144 66.7961Z" fill="white"/>
<path d="M37.3445 66.8317C36.9806 66.8381 36.6219 66.7477 36.3071 66.5701C36.0072 66.398 35.7599 66.1512 35.5906 65.8553C35.4135 65.5444 35.3231 65.1938 35.3285 64.8383C35.3221 64.4809 35.4084 64.1276 35.5795 63.8111C35.7397 63.5176 35.9777 63.2711 36.2688 63.097C36.5713 62.9191 36.9195 62.8282 37.273 62.8348C37.5595 62.8311 37.8432 62.889 38.104 63.0043C38.3646 63.1246 38.5932 63.3015 38.7724 63.5213C38.7971 63.5446 38.8154 63.5736 38.8256 63.6056C38.8357 63.6376 38.8374 63.6716 38.8305 63.7044C38.812 63.7742 38.7672 63.8347 38.7049 63.8739C38.6793 63.8925 38.6499 63.9057 38.6186 63.9125C38.5874 63.9194 38.555 63.9196 38.5236 63.9134C38.4544 63.9003 38.3924 63.8631 38.3493 63.8089C38.2171 63.6569 38.0517 63.5355 37.865 63.4536C37.6784 63.3716 37.4754 63.3313 37.2707 63.3354C37.0141 63.3302 36.7616 63.3975 36.5436 63.5292C36.3336 63.6589 36.1648 63.8428 36.0561 64.0603C35.9363 64.3021 35.8766 64.5678 35.8817 64.8361C35.8768 65.103 35.9403 65.3668 36.0665 65.6039C36.1849 65.8244 36.3639 66.0084 36.5837 66.1356C36.814 66.2668 37.077 66.3339 37.3439 66.3294C37.523 66.3312 37.7012 66.3057 37.8722 66.2537C38.0289 66.2053 38.1735 66.1259 38.297 66.0203C38.3483 65.9758 38.4128 65.9483 38.4812 65.9418C38.5447 65.9376 38.6073 65.9579 38.6555 65.9983C38.7107 66.044 38.7464 66.108 38.7555 66.178C38.759 66.2097 38.7544 66.2417 38.7421 66.2713C38.7298 66.3008 38.7103 66.327 38.6852 66.3475C38.3284 66.6707 37.8814 66.8321 37.3445 66.8317Z" fill="white"/>
<path d="M41.3498 66.8314C41.0555 66.831 40.7634 66.7825 40.4856 66.6879C40.2198 66.6049 39.9806 66.4566 39.7911 66.2573C39.7656 66.2321 39.7463 66.2015 39.7348 66.1679C39.7233 66.1343 39.7199 66.0986 39.7249 66.0635C39.7358 65.9897 39.7756 65.9227 39.8359 65.8765C39.8948 65.8326 39.9686 65.8119 40.0425 65.8186C40.1164 65.8253 40.185 65.8589 40.2345 65.9127C40.3614 66.0525 40.5228 66.1587 40.7035 66.2212C40.9104 66.2952 41.1294 66.3317 41.3498 66.3291C41.714 66.3291 41.9772 66.2681 42.1396 66.146C42.2138 66.0963 42.2751 66.0305 42.3187 65.9539C42.3622 65.8772 42.3869 65.7917 42.3906 65.7042C42.3906 65.5317 42.3069 65.3893 42.1396 65.277C41.9722 65.1648 41.6965 65.0783 41.3126 65.0177C40.8151 64.9424 40.4507 64.8085 40.2194 64.616C39.9881 64.4235 39.8719 64.196 39.8707 63.9334C39.8628 63.7138 39.9332 63.4982 40.0701 63.3232C40.2095 63.1561 40.3934 63.0295 40.6018 62.9571C40.8359 62.8736 41.0836 62.8323 41.3329 62.8351C41.6264 62.828 41.9177 62.8843 42.1861 63.0001C42.4135 63.1013 42.6128 63.254 42.7672 63.4453C42.79 63.472 42.807 63.503 42.817 63.5363C42.827 63.5696 42.8298 63.6046 42.8253 63.6391C42.8197 63.6733 42.8064 63.7059 42.7863 63.7345C42.7662 63.7632 42.7398 63.7871 42.7091 63.8046C42.6475 63.8383 42.5757 63.8498 42.5063 63.8368C42.4306 63.8253 42.3613 63.7885 42.3104 63.7329C42.1948 63.5993 42.0479 63.4947 41.8821 63.4278C41.7033 63.36 41.5126 63.327 41.3207 63.3306C41.0495 63.3306 40.8329 63.3844 40.671 63.4922C40.509 63.5999 40.4277 63.7351 40.4269 63.8979C40.4246 64.0008 40.457 64.1016 40.5193 64.1849C40.6039 64.2827 40.7135 64.3569 40.8372 64.4001C41.0405 64.4766 41.2523 64.5297 41.4683 64.5583C41.8372 64.616 42.1289 64.7009 42.3435 64.8132C42.5305 64.9019 42.6888 65.0387 42.8015 65.2087C42.8918 65.3578 42.939 65.5278 42.9381 65.7008C42.9416 65.9149 42.8698 66.1238 42.7347 66.2929C42.587 66.4707 42.3935 66.6071 42.1738 66.6884C41.9115 66.7883 41.6315 66.8369 41.3498 66.8314Z" fill="white"/>
<path d="M33.2887 30.0137C27.1459 30.0137 33.2887 37.2051 33.2887 37.2051C33.2887 37.2051 39.4309 30.0137 33.2887 30.0137ZM33.2887 34.5626C32.8781 34.5627 32.4767 34.4444 32.1353 34.2227C31.7938 34.001 31.5276 33.6858 31.3704 33.3171C31.2132 32.9483 31.172 32.5425 31.2521 32.151C31.3321 31.7594 31.5298 31.3998 31.8201 31.1175C32.1104 30.8351 32.4802 30.6429 32.8829 30.565C33.2856 30.487 33.703 30.527 34.0824 30.6797C34.4617 30.8324 34.786 31.0911 35.0141 31.423C35.2422 31.7549 35.364 32.1452 35.364 32.5443C35.3642 32.8094 35.3107 33.072 35.2065 33.317C35.1023 33.562 34.9495 33.7846 34.7568 33.9721C34.564 34.1597 34.3352 34.3084 34.0833 34.4099C33.8314 34.5114 33.5614 34.5637 33.2887 34.5637V34.5626Z" fill="white"/>
<path d="M33.2889 30.8027C32.9344 30.8026 32.5878 30.9047 32.293 31.0962C31.9982 31.2876 31.7684 31.5597 31.6326 31.8781C31.4969 32.1966 31.4614 32.547 31.5305 32.885C31.5996 33.2231 31.7704 33.5336 32.021 33.7773C32.2717 34.0211 32.5911 34.187 32.9389 34.2542C33.2866 34.3215 33.647 34.2869 33.9745 34.155C34.302 34.023 34.5819 33.7996 34.7788 33.5129C34.9757 33.2263 35.0807 32.8893 35.0806 32.5447C35.0806 32.0827 34.8919 31.6396 34.5559 31.3129C34.2199 30.9863 33.7641 30.8027 33.2889 30.8027ZM33.2889 34.0063C32.9916 34.0062 32.701 33.9204 32.4538 33.7597C32.2067 33.599 32.0141 33.3707 31.9004 33.1036C31.7867 32.8365 31.757 32.5427 31.815 32.2592C31.8731 31.9757 32.0164 31.7153 32.2266 31.5109C32.4369 31.3065 32.7048 31.1674 32.9964 31.111C33.2881 31.0547 33.5903 31.0836 33.865 31.1943C34.1397 31.3049 34.3745 31.4923 34.5396 31.7326C34.7048 31.973 34.793 32.2556 34.793 32.5447C34.7928 32.9324 34.6343 33.3041 34.3522 33.5782C34.0702 33.8524 33.6877 34.0063 33.2889 34.0063Z" fill="white"/>
<path d="M33.9885 38.6097C33.9885 38.7437 33.9476 38.8748 33.871 38.9863C33.7944 39.0978 33.6854 39.1847 33.558 39.2361C33.4306 39.2874 33.2904 39.3008 33.1551 39.2746C33.0198 39.2485 32.8955 39.1839 32.798 39.0891C32.7005 38.9943 32.6341 38.8734 32.6072 38.7419C32.5802 38.6104 32.5941 38.4741 32.6468 38.3502C32.6996 38.2263 32.789 38.1204 32.9037 38.0459C33.0184 37.9714 33.1532 37.9316 33.2911 37.9316C33.4761 37.9316 33.6535 38.0031 33.7843 38.1302C33.915 38.2574 33.9885 38.4298 33.9885 38.6097Z" fill="white"/>
<path d="M27.7956 31.986C28.1159 31.6552 28.3411 31.2484 28.4486 30.8063C28.5561 30.3642 28.5421 29.9024 28.4081 29.4672L25.625 20.4338C25.5298 20.1256 25.519 19.7986 25.5936 19.4851C25.6682 19.1716 25.8257 18.8824 26.0504 18.6462L28.5604 16.0042C29.1861 15.346 29.6507 14.559 29.9197 13.7018L30.094 13.1452C30.1259 13.0449 30.1281 12.9379 30.1005 12.8364C30.0728 12.735 30.0164 12.6431 29.9377 12.5712C29.8589 12.4994 29.761 12.4505 29.6551 12.4301C29.5492 12.4097 29.4395 12.4187 29.3385 12.4559L28.7777 12.6588C27.9141 12.972 27.1343 13.4704 26.4961 14.1171L23.9356 16.7161C23.7065 16.9483 23.4191 17.1185 23.1018 17.2098C22.7844 17.3012 22.4481 17.3106 22.1259 17.237L12.6856 15.0815C12.2308 14.9776 11.7558 14.9918 11.3084 15.1228C10.861 15.2538 10.4569 15.497 10.1367 15.8279C14.1542 16.8596 18.2502 19.1004 19.921 20.0762C19.9743 20.1074 20.0197 20.1499 20.0538 20.2005C20.0879 20.2511 20.1098 20.3085 20.118 20.3685C20.1261 20.4285 20.1203 20.4895 20.1009 20.547C20.0814 20.6044 20.049 20.6569 20.0058 20.7005L19.3003 20.3259C19.1347 20.2375 18.9408 20.2132 18.7576 20.258C18.5744 20.3027 18.4153 20.4132 18.3124 20.5672L17.7388 21.4266C17.6611 21.5427 17.6253 21.6806 17.6371 21.8187C17.6492 21.9626 17.6098 22.1061 17.5255 22.2249L17.311 22.5278L17.651 22.2809C17.7566 22.204 17.8841 22.1608 18.016 22.1571L18.2385 22.1503L18.5954 22.1334L18.0526 22.6837C17.704 23.0375 17.4029 23.4327 17.1564 23.8601L15.9174 26.0105L13.3086 24.937C13.0372 24.8258 12.735 24.8071 12.4512 24.884C12.1674 24.9608 11.9187 25.1286 11.7453 25.3602L11.2055 26.0811L14.9858 27.6241L14.6412 28.223C14.6288 28.2441 14.6241 28.2685 14.6277 28.2925C14.6314 28.3165 14.6432 28.3385 14.6613 28.3552C14.6794 28.3718 14.7028 28.382 14.7276 28.3842C14.7524 28.3864 14.7773 28.3804 14.7981 28.3671L15.3921 27.9959L17.2047 31.5696L17.9178 30.9972C18.1437 30.8159 18.3003 30.566 18.3625 30.2877C18.4247 30.0094 18.3888 29.7188 18.2606 29.4627L17.017 26.9766L19.126 25.6607C19.5499 25.3959 19.9375 25.0798 20.2795 24.72L20.8119 24.1595L20.816 24.507L20.8229 24.7234C20.8271 24.8516 20.7903 24.9779 20.7177 25.085L20.4853 25.4302L20.7834 25.2042C20.9004 25.1154 21.0453 25.0687 21.1937 25.072C21.3361 25.0749 21.4755 25.0318 21.59 24.9494L22.4385 24.3375C22.5904 24.2282 22.6942 24.0671 22.729 23.8866C22.7638 23.706 22.7271 23.5193 22.6262 23.364L22.1968 22.7024C22.2388 22.6577 22.2907 22.623 22.3485 22.6006C22.4063 22.5782 22.4686 22.5688 22.5307 22.5731C22.5928 22.5774 22.653 22.5952 22.707 22.6254C22.761 22.6555 22.8073 22.697 22.8424 22.747C23.9443 24.3109 26.4932 28.1496 27.7956 31.986Z" fill="white"/>
<path d="M14.0837 38.4664C14.0697 38.5127 14.0535 38.5596 14.0354 38.6048C14.0275 38.6243 14.012 38.6399 13.9923 38.6482C13.9726 38.6566 13.9503 38.657 13.9303 38.6494C13.9203 38.6457 13.9112 38.6401 13.9035 38.6329C13.8958 38.6257 13.8896 38.6171 13.8854 38.6076C13.8811 38.5981 13.8788 38.5879 13.8786 38.5775C13.8785 38.5671 13.8804 38.5568 13.8844 38.5472C13.9465 38.3932 13.9826 38.2304 13.9913 38.0652C13.9917 38.0549 13.9943 38.0448 13.9988 38.0354C14.0032 38.0261 14.0096 38.0177 14.0174 38.0107C14.0252 38.0037 14.0344 37.9983 14.0444 37.9948C14.0543 37.9912 14.0649 37.9896 14.0755 37.9901C14.0862 37.9905 14.0966 37.993 14.1062 37.9974C14.1158 38.0017 14.1245 38.0079 14.1316 38.0155C14.1388 38.0231 14.1444 38.032 14.148 38.0417C14.1517 38.0514 14.1533 38.0617 14.1528 38.072C14.1465 38.2057 14.1233 38.3382 14.0837 38.4664ZM13.7716 39.0495C13.7687 39.0591 13.764 39.0681 13.7577 39.076C13.643 39.2198 13.5057 39.3451 13.3509 39.4472C13.342 39.453 13.3321 39.457 13.3217 39.459C13.3113 39.4611 13.3006 39.4611 13.2902 39.4591C13.2798 39.4571 13.2699 39.4531 13.261 39.4474C13.2522 39.4417 13.2446 39.4343 13.2387 39.4258C13.2328 39.4172 13.2287 39.4076 13.2266 39.3975C13.2245 39.3873 13.2245 39.3769 13.2265 39.3668C13.2286 39.3567 13.2326 39.347 13.2385 39.3384C13.2444 39.3298 13.252 39.3225 13.2608 39.3167C13.4023 39.2234 13.5278 39.109 13.6327 38.9777C13.6394 38.9693 13.6477 38.9624 13.6572 38.9572C13.6667 38.952 13.6772 38.9487 13.688 38.9475C13.6988 38.9463 13.7098 38.9472 13.7203 38.9501C13.7307 38.9531 13.7405 38.9581 13.7489 38.9647C13.7609 38.9751 13.7695 38.9886 13.7736 39.0037C13.7776 39.0188 13.7769 39.0347 13.7716 39.0495ZM14.0744 37.5804C14.0706 37.5925 14.0638 37.6036 14.0547 37.6126C14.0456 37.6217 14.0344 37.6285 14.0221 37.6324C14.012 37.6358 14.0014 37.6372 13.9907 37.6365C13.9801 37.6358 13.9697 37.633 13.9602 37.6284C13.9507 37.6238 13.9422 37.6174 13.9353 37.6095C13.9283 37.6017 13.9231 37.5925 13.9198 37.5827C13.8661 37.4254 13.7877 37.2771 13.6873 37.1431C13.6811 37.1348 13.6766 37.1253 13.6741 37.1153C13.6716 37.1052 13.6711 37.0948 13.6728 37.0846C13.6744 37.0744 13.6781 37.0646 13.6837 37.0558C13.6892 37.047 13.6965 37.0393 13.7051 37.0332C13.7137 37.0272 13.7234 37.0228 13.7337 37.0203C13.744 37.0179 13.7548 37.0175 13.7653 37.0191C13.7758 37.0207 13.7858 37.0243 13.7949 37.0297C13.804 37.0351 13.8118 37.0421 13.8181 37.0505C13.9291 37.1974 14.0159 37.3602 14.0755 37.533C14.0793 37.5477 14.0789 37.5631 14.0744 37.5776V37.5804ZM12.8923 39.6145C12.8888 39.6281 12.8815 39.6406 12.8713 39.6505C12.861 39.6605 12.8482 39.6675 12.8342 39.671C12.672 39.706 12.5044 39.711 12.3402 39.6857C12.3158 39.6817 12.292 39.6778 12.2682 39.6727C12.2578 39.6706 12.2479 39.6665 12.2391 39.6606C12.2303 39.6548 12.2228 39.6474 12.2169 39.6387C12.2111 39.63 12.2071 39.6204 12.2051 39.6102C12.2031 39.6 12.2032 39.5896 12.2054 39.5794C12.2076 39.5693 12.2118 39.5597 12.2178 39.5512C12.2238 39.5426 12.2314 39.5353 12.2404 39.5296C12.2493 39.524 12.2592 39.5201 12.2697 39.5181C12.2801 39.5162 12.2909 39.5163 12.3013 39.5184L12.3658 39.5303C12.5099 39.5524 12.6569 39.548 12.7993 39.5173C12.8097 39.515 12.8205 39.5148 12.8309 39.5166C12.8414 39.5184 12.8514 39.5222 12.8604 39.5278C12.8693 39.5333 12.8771 39.5406 12.8832 39.549C12.8892 39.5575 12.8935 39.5671 12.8958 39.5772C12.8975 39.5888 12.8963 39.6006 12.8923 39.6116V39.6145ZM13.456 36.7454C13.4529 36.7549 13.4482 36.7639 13.4421 36.7719C13.4354 36.7803 13.4271 36.7873 13.4175 36.7925C13.408 36.7977 13.3975 36.8009 13.3867 36.8021C13.3758 36.8032 13.3649 36.8023 13.3544 36.7992C13.344 36.7962 13.3343 36.7911 13.3259 36.7843C13.1905 36.6801 13.0428 36.5919 12.8859 36.5216C12.8681 36.5118 12.8547 36.4959 12.8484 36.4769C12.8422 36.4579 12.8435 36.4373 12.8522 36.4193C12.8608 36.4012 12.8762 36.387 12.8952 36.3795C12.9141 36.372 12.9353 36.3717 12.9545 36.3787C13.1227 36.4545 13.2811 36.5493 13.4264 36.6612C13.439 36.6704 13.4485 36.6831 13.4538 36.6975C13.459 36.712 13.4598 36.7276 13.456 36.7425V36.7454ZM9.26188 48.3094C9.25602 48.3295 9.2422 48.3465 9.22345 48.3566C9.20471 48.3668 9.18257 48.3693 9.16192 48.3636C9.14127 48.3579 9.12378 48.3445 9.11332 48.3263C9.10286 48.308 9.10027 48.2865 9.10613 48.2664C9.1503 48.1082 9.1904 47.9393 9.22236 47.7641C9.22658 47.7437 9.23886 47.7257 9.25657 47.714C9.27427 47.7023 9.296 47.6978 9.31709 47.7014C9.32756 47.7033 9.33754 47.7072 9.34646 47.7129C9.35537 47.7185 9.36305 47.7259 9.36905 47.7344C9.37504 47.743 9.37924 47.7526 9.38139 47.7628C9.38354 47.7729 9.38361 47.7834 9.38159 47.7935C9.34614 47.9726 9.30546 48.1455 9.26013 48.3077L9.26188 48.3094ZM9.09741 48.806V48.8111C9.03329 48.9769 8.95936 49.139 8.87599 49.2964C8.86537 49.3138 8.84832 49.3266 8.82834 49.3321C8.80836 49.3376 8.78696 49.3355 8.76853 49.3262C8.7501 49.3169 8.73603 49.301 8.72921 49.282C8.7224 49.2629 8.72335 49.242 8.73187 49.2236C8.81248 49.0718 8.88389 48.9156 8.94573 48.7557C8.95341 48.7362 8.96873 48.7205 8.98833 48.7119C9.00793 48.7033 9.03022 48.7026 9.05034 48.71C9.06924 48.7172 9.08461 48.7311 9.09334 48.749C9.10208 48.7668 9.10354 48.7872 9.09741 48.806ZM9.46702 47.2861C9.46481 47.2962 9.46057 47.3058 9.45456 47.3143C9.44854 47.3228 9.44086 47.3301 9.43196 47.3357C9.42305 47.3413 9.4131 47.3452 9.40266 47.347C9.39223 47.3489 9.38151 47.3488 9.37113 47.3466C9.36075 47.3445 9.35091 47.3403 9.34217 47.3345C9.33343 47.3286 9.32596 47.3212 9.32018 47.3125C9.31441 47.3039 9.31044 47.2942 9.30852 47.284C9.30659 47.2739 9.30674 47.2635 9.30895 47.2534C9.32115 47.1647 9.3322 47.0726 9.34266 46.9788C9.35079 46.8997 9.35893 46.8189 9.36648 46.7381C9.36992 46.7185 9.38084 46.7008 9.39705 46.6887C9.41327 46.6766 9.43359 46.6708 9.45397 46.6726C9.47436 46.6744 9.4933 46.6836 9.50703 46.6983C9.52075 46.7131 9.52826 46.7323 9.52804 46.7522C9.52049 46.8336 9.51235 46.9155 9.50364 46.9957C9.49318 47.0901 9.48155 47.1839 9.46935 47.2743C9.46885 47.2783 9.46808 47.2823 9.46702 47.2861ZM11.8678 39.4133C11.8654 39.4204 11.8623 39.4272 11.8585 39.4337C11.8467 39.4511 11.8283 39.4634 11.8074 39.4678C11.7864 39.4723 11.7645 39.4685 11.7463 39.4574C11.5894 39.3581 11.4482 39.237 11.3273 39.0981C11.3148 39.0819 11.3091 39.0618 11.3114 39.0417C11.3137 39.0217 11.3238 39.0032 11.3396 38.9902C11.3554 38.9771 11.3758 38.9704 11.3965 38.9715C11.4172 38.9725 11.4367 38.9812 11.4511 38.9958C11.5613 39.1232 11.6903 39.2341 11.8341 39.3246C11.8487 39.3339 11.86 39.3476 11.866 39.3635C11.8721 39.3795 11.8727 39.397 11.8678 39.4133ZM8.60169 49.7281C8.59888 49.7363 8.59498 49.7441 8.59007 49.7513C8.5366 49.8236 8.48081 49.8948 8.42269 49.9626C8.36458 50.0304 8.3024 50.0971 8.23673 50.1603C8.22924 50.168 8.22022 50.1741 8.21023 50.1783C8.20024 50.1824 8.18948 50.1846 8.17861 50.1846C8.16774 50.1846 8.15698 50.1824 8.14699 50.1783C8.137 50.1741 8.12799 50.168 8.1205 50.1603C8.11277 50.153 8.10662 50.1442 8.10243 50.1345C8.09824 50.1248 8.09608 50.1144 8.09608 50.1038C8.09608 50.0933 8.09824 50.0829 8.10243 50.0732C8.10662 50.0635 8.11277 50.0547 8.1205 50.0473C8.18177 49.9879 8.23996 49.9254 8.29484 49.8603C8.35005 49.7959 8.40352 49.7276 8.45408 49.6581C8.46529 49.6429 8.48165 49.6321 8.50025 49.6276C8.51886 49.623 8.53852 49.625 8.55577 49.6332C8.57301 49.6414 8.58672 49.6552 8.59449 49.6723C8.60225 49.6893 8.60357 49.7085 8.5982 49.7264L8.60169 49.7281ZM9.56175 46.2471C9.55661 46.266 9.54437 46.2824 9.52743 46.2931C9.5105 46.3037 9.49009 46.3078 9.47022 46.3045C9.45035 46.3013 9.43245 46.2909 9.42003 46.2755C9.40761 46.26 9.40157 46.2406 9.4031 46.2211C9.41181 46.0516 9.41762 45.8748 9.41937 45.7024C9.42109 45.6827 9.43038 45.6643 9.44539 45.6509C9.4604 45.6375 9.48005 45.63 9.50044 45.63C9.52083 45.63 9.54047 45.6375 9.55549 45.6509C9.5705 45.6643 9.57979 45.6827 9.58151 45.7024C9.58151 45.8765 9.57395 46.0527 9.56524 46.2268C9.56485 46.2336 9.56368 46.2405 9.56175 46.2471ZM12.4925 36.303C12.4871 36.3224 12.4743 36.3391 12.4567 36.3496C12.4391 36.3601 12.418 36.3636 12.3978 36.3595C12.229 36.3246 12.0565 36.309 11.884 36.3131C11.8625 36.3136 11.8418 36.3058 11.8262 36.2914C11.8106 36.277 11.8015 36.2572 11.8009 36.2363C11.8005 36.226 11.8023 36.2157 11.806 36.206C11.8098 36.1963 11.8155 36.1874 11.8228 36.1799C11.8301 36.1724 11.8388 36.1664 11.8485 36.1622C11.8583 36.158 11.8687 36.1557 11.8794 36.1555C12.0648 36.151 12.2501 36.1678 12.4315 36.2058C12.4419 36.2079 12.4518 36.2119 12.4606 36.2178C12.4693 36.2236 12.4769 36.2311 12.4826 36.2397C12.4884 36.2484 12.4924 36.2581 12.4943 36.2683C12.4962 36.2785 12.496 36.2889 12.4937 36.299C12.4935 36.3009 12.4931 36.3028 12.4925 36.3047V36.303ZM9.57454 45.2041C9.56935 45.2224 9.55755 45.2382 9.54129 45.2487C9.52504 45.2592 9.50543 45.2636 9.4861 45.2611C9.46676 45.2586 9.44901 45.2494 9.4361 45.2352C9.42319 45.221 9.41601 45.2027 9.41588 45.1838C9.41123 45.0114 9.4031 44.8368 9.39147 44.6656C9.39015 44.6549 9.39109 44.6441 9.39424 44.6338C9.39739 44.6234 9.40267 44.6138 9.40977 44.6055C9.41687 44.5973 9.42564 44.5905 9.43553 44.5856C9.44543 44.5808 9.45624 44.5779 9.4673 44.5773C9.47837 44.5766 9.48946 44.5781 9.49989 44.5818C9.51031 44.5855 9.51986 44.5912 9.52794 44.5985C9.53603 44.6059 9.54247 44.6148 9.54689 44.6247C9.5513 44.6346 9.55359 44.6453 9.55361 44.656C9.56466 44.8289 9.57279 45.0052 9.57744 45.1798C9.57798 45.188 9.577 45.1962 9.57454 45.2041ZM7.84503 50.4587C7.83945 50.4758 7.82822 50.4907 7.81307 50.501C7.66159 50.6023 7.50114 50.6902 7.33362 50.7638C7.31517 50.7678 7.29585 50.7655 7.27898 50.7572C7.2621 50.7489 7.24874 50.7351 7.24117 50.7183C7.2336 50.7014 7.23231 50.6825 7.23752 50.6648C7.24272 50.6472 7.2541 50.6318 7.26969 50.6214C7.42843 50.5521 7.58034 50.4689 7.72357 50.3728C7.73233 50.3669 7.74221 50.3627 7.75263 50.3606C7.76306 50.3584 7.77382 50.3582 7.7843 50.3601C7.79478 50.362 7.80477 50.3659 7.8137 50.3716C7.82262 50.3772 7.83031 50.3846 7.83631 50.3931C7.84276 50.403 7.84689 50.4142 7.84839 50.4258C7.8499 50.4374 7.84875 50.4492 7.84503 50.4604V50.4587ZM9.50596 44.1634C9.5005 44.1807 9.48904 44.1958 9.47352 44.2059C9.45799 44.2161 9.43935 44.2207 9.42072 44.219C9.4021 44.2174 9.38463 44.2095 9.37126 44.1968C9.35788 44.1841 9.34943 44.1673 9.34731 44.1492C9.34091 44.0854 9.33336 44.0215 9.3258 43.9577C9.3136 43.8537 9.29965 43.7481 9.28338 43.6339C9.28045 43.6133 9.28609 43.5923 9.29906 43.5757C9.31203 43.559 9.33127 43.5481 9.35254 43.5452C9.37381 43.5424 9.39537 43.5479 9.41248 43.5605C9.42959 43.5731 9.44085 43.5918 9.44378 43.6125C9.46005 43.7255 9.474 43.8345 9.48678 43.9396C9.49434 44.004 9.50189 44.0684 9.50828 44.1328C9.50959 44.1431 9.5088 44.1534 9.50596 44.1634ZM11.1739 38.6319C11.169 38.647 11.1597 38.6603 11.147 38.6702C11.1343 38.6801 11.1189 38.6861 11.1027 38.6873C11.0865 38.6886 11.0703 38.6851 11.0562 38.6774C11.042 38.6696 11.0306 38.6579 11.0233 38.6438C10.975 38.5481 10.9339 38.4492 10.9001 38.3477C10.8775 38.2794 10.8571 38.2082 10.842 38.1358C10.8389 38.1161 10.8436 38.096 10.8551 38.0795C10.8666 38.063 10.8841 38.0513 10.9041 38.0468C10.9241 38.0423 10.9451 38.0453 10.9629 38.0552C10.9807 38.0651 10.994 38.0812 11.0001 38.1003C11.0164 38.1681 11.0355 38.2353 11.0582 38.2997C11.0902 38.394 11.129 38.4859 11.1744 38.5749C11.1815 38.5933 11.1812 38.6136 11.1739 38.6319ZM13.8873 29.3737C13.8847 29.382 13.8808 29.3898 13.8756 29.3969C13.7728 29.537 13.6711 29.6794 13.5734 29.8246C13.5616 29.842 13.5431 29.854 13.522 29.8582C13.501 29.8623 13.4792 29.8582 13.4613 29.8466C13.4434 29.8351 13.431 29.8171 13.4267 29.7967C13.4225 29.7762 13.4267 29.755 13.4386 29.7376C13.5374 29.5924 13.6397 29.4472 13.7437 29.3053C13.7547 29.2898 13.771 29.2786 13.7898 29.2738C13.8085 29.269 13.8284 29.271 13.8459 29.2792C13.8633 29.2875 13.877 29.3016 13.8846 29.319C13.8922 29.3363 13.8932 29.3558 13.8873 29.3737ZM9.36183 43.13C9.35672 43.1472 9.3457 43.1622 9.33061 43.1724C9.31552 43.1827 9.29727 43.1877 9.27888 43.1865C9.26049 43.1853 9.24307 43.1781 9.22951 43.1659C9.21595 43.1538 9.20707 43.1375 9.20434 43.1198C9.17877 42.9621 9.15146 42.8045 9.12473 42.6469L9.11775 42.6056C9.11592 42.5954 9.11618 42.585 9.11852 42.5749C9.12087 42.5647 9.12524 42.5552 9.1314 42.5467C9.13756 42.5383 9.14538 42.5311 9.15441 42.5256C9.16343 42.5201 9.17349 42.5164 9.184 42.5147C9.20525 42.5114 9.22697 42.5164 9.24447 42.5285C9.26198 42.5407 9.27387 42.559 9.27757 42.5796L9.28454 42.6209C9.31128 42.7791 9.33859 42.9367 9.36416 43.0949C9.36631 43.1066 9.36551 43.1186 9.36183 43.13ZM13.2951 30.2449C13.2933 30.2518 13.2903 30.2583 13.2863 30.2642C13.1934 30.4105 13.1015 30.5608 13.0132 30.7099C13.0026 30.7281 12.985 30.7414 12.9643 30.7469C12.9435 30.7524 12.9214 30.7497 12.9028 30.7393C12.8841 30.729 12.8705 30.7119 12.8648 30.6917C12.8591 30.6716 12.8619 30.6501 12.8726 30.632C12.9621 30.4806 13.0545 30.3291 13.1486 30.18C13.1587 30.1634 13.1748 30.151 13.1937 30.1452C13.2126 30.1394 13.233 30.1405 13.2511 30.1484C13.2692 30.1563 13.2837 30.1704 13.2918 30.188C13.2999 30.2056 13.3011 30.2254 13.2951 30.2438V30.2449ZM11.4302 36.3335C11.4262 36.3466 11.4187 36.3585 11.4085 36.3679C11.3983 36.3773 11.3857 36.3839 11.372 36.3871C11.2378 36.4225 11.1068 36.4686 10.9803 36.525C10.9803 36.5414 10.9757 36.5578 10.9739 36.5742C10.9708 36.5934 10.9605 36.6108 10.945 36.6231C10.9294 36.6354 10.9098 36.6417 10.8898 36.6408C10.8698 36.6399 10.8508 36.6319 10.8365 36.6182C10.8223 36.6046 10.8137 36.5863 10.8124 36.5668C10.7981 36.5593 10.7865 36.5476 10.7793 36.5335C10.7697 36.515 10.7681 36.4935 10.7747 36.4738C10.7814 36.4542 10.7957 36.4378 10.8147 36.4284L10.8316 36.4199L10.8351 36.3973C10.8519 36.2775 10.8711 36.1555 10.8932 36.0357C10.8969 36.0152 10.9087 35.997 10.926 35.9848C10.9434 35.9727 10.965 35.9676 10.9862 35.9707C10.9967 35.9724 11.0067 35.976 11.0158 35.9815C11.0248 35.9869 11.0327 35.994 11.0389 36.0024C11.0451 36.0108 11.0495 36.0203 11.052 36.0304C11.0544 36.0405 11.0547 36.0509 11.053 36.0611C11.0373 36.1544 11.0222 36.2487 11.0082 36.3436C11.1137 36.3014 11.2218 36.2657 11.3319 36.2369C11.3458 36.2331 11.3605 36.2331 11.3745 36.2368C11.3884 36.2404 11.4011 36.2477 11.4111 36.2577C11.4212 36.2677 11.4284 36.2802 11.4318 36.2938C11.4353 36.3075 11.4349 36.3217 11.4307 36.3352L11.4302 36.3335ZM10.9211 37.6273C10.9153 37.6448 10.9035 37.6599 10.8876 37.6698C10.8718 37.6798 10.8528 37.684 10.8341 37.6819C10.8153 37.6798 10.7979 37.6713 10.7848 37.6581C10.7717 37.6448 10.7638 37.6276 10.7624 37.6093C10.7517 37.4326 10.7517 37.2554 10.7624 37.0787C10.7636 37.0579 10.7733 37.0384 10.7894 37.0245C10.8054 37.0106 10.8264 37.0035 10.8478 37.0047C10.8693 37.0059 10.8893 37.0153 10.9036 37.0309C10.9179 37.0465 10.9252 37.0669 10.924 37.0878C10.9138 37.2582 10.9138 37.4292 10.924 37.5997C10.9245 37.609 10.9235 37.6183 10.9211 37.6273ZM12.761 31.1501C12.7596 31.1552 12.7576 31.1601 12.7552 31.1648C12.6721 31.3168 12.5901 31.4721 12.5123 31.627C12.5029 31.6457 12.4862 31.66 12.4659 31.6668C12.4456 31.6736 12.4234 31.6723 12.4042 31.6631C12.3849 31.654 12.3702 31.6378 12.3632 31.6181C12.3562 31.5984 12.3576 31.5768 12.367 31.558C12.4454 31.4015 12.5279 31.2444 12.6116 31.0908C12.6204 31.0726 12.6361 31.0583 12.6554 31.051C12.6747 31.0437 12.6961 31.0439 12.7153 31.0515C12.7344 31.0591 12.7498 31.0736 12.7584 31.0919C12.7669 31.1103 12.7678 31.1311 12.761 31.1501ZM12.2891 32.0869C12.288 32.0904 12.2866 32.0938 12.285 32.097C12.2124 32.2536 12.1415 32.414 12.0735 32.5733C12.0694 32.5829 12.0635 32.5915 12.056 32.5988C12.0485 32.6062 12.0396 32.6119 12.0298 32.6159C12.02 32.6199 12.0095 32.6219 11.9989 32.6219C11.9883 32.622 11.9778 32.6199 11.968 32.616C11.9582 32.6121 11.9493 32.6063 11.9418 32.599C11.9343 32.5917 11.9283 32.5831 11.9242 32.5736C11.9201 32.564 11.918 32.5538 11.918 32.5435C11.918 32.5332 11.9201 32.523 11.9241 32.5135C11.9921 32.3524 12.0642 32.1903 12.1374 32.0321C12.146 32.0137 12.1614 31.9992 12.1806 31.9916C12.1998 31.9839 12.2213 31.9836 12.2406 31.9909C12.26 31.9981 12.2758 32.0122 12.2848 32.0304C12.2938 32.0485 12.2953 32.0693 12.2891 32.0886V32.0869ZM9.18749 42.0999C9.18347 42.1145 9.17518 42.1276 9.16362 42.1376C9.15205 42.1477 9.13773 42.1542 9.1224 42.1564C9.11191 42.1581 9.10119 42.1576 9.09086 42.1552C9.08053 42.1528 9.0708 42.1484 9.06221 42.1423C9.05363 42.1362 9.04637 42.1285 9.04084 42.1197C9.03531 42.1109 9.03163 42.1011 9.03 42.0909C8.99862 41.8988 8.97188 41.7293 8.95212 41.5734C8.95071 41.5631 8.95139 41.5527 8.95411 41.5427C8.95684 41.5327 8.96156 41.5234 8.96801 41.5152C8.97446 41.507 8.98251 41.5001 8.9917 41.4949C9.00089 41.4897 9.01104 41.4863 9.02157 41.4849C9.0321 41.4836 9.04281 41.4842 9.05308 41.4869C9.06335 41.4895 9.07298 41.4941 9.08143 41.5004C9.08987 41.5066 9.09697 41.5145 9.1023 41.5234C9.10764 41.5323 9.11111 41.5422 9.11252 41.5525C9.13402 41.7073 9.15901 41.8756 9.18981 42.0666C9.19179 42.0777 9.191 42.0892 9.18749 42.0999ZM11.1454 35.5572C11.1402 35.5774 11.127 35.5948 11.1086 35.6055C11.0903 35.6163 11.0683 35.6195 11.0475 35.6145C11.0267 35.6095 11.0088 35.5966 10.9977 35.5788C10.9866 35.5609 10.9833 35.5395 10.9885 35.5193C11.0228 35.3498 11.0611 35.1769 11.1018 35.0068C11.1042 34.9968 11.1086 34.9873 11.1148 34.9789C11.121 34.9705 11.1288 34.9634 11.1378 34.9579C11.1468 34.9525 11.1568 34.9488 11.1673 34.9471C11.1778 34.9454 11.1885 34.9457 11.1989 34.9481C11.2092 34.9504 11.219 34.9547 11.2276 34.9607C11.2362 34.9667 11.2436 34.9743 11.2492 34.9831C11.2548 34.9918 11.2586 35.0016 11.2603 35.0118C11.262 35.022 11.2617 35.0324 11.2593 35.0424C11.2192 35.2119 11.1814 35.3814 11.1471 35.5509L11.1454 35.5572ZM11.8794 33.0513V33.0564C11.8172 33.218 11.7568 33.3824 11.7004 33.5457C11.6934 33.5655 11.6787 33.5818 11.6594 33.591C11.6401 33.6002 11.6179 33.6016 11.5975 33.5949C11.5772 33.5881 11.5604 33.5738 11.5509 33.5551C11.5415 33.5363 11.54 33.5147 11.547 33.4949C11.6051 33.3305 11.6632 33.1643 11.7277 33.0011C11.7346 32.9813 11.7492 32.965 11.7685 32.9557C11.7877 32.9464 11.8099 32.9449 11.8303 32.9516C11.8506 32.9583 11.8674 32.9725 11.8769 32.9912C11.8865 33.0099 11.888 33.0316 11.8811 33.0513H11.8794ZM11.3883 34.5413C11.3825 34.5613 11.3686 34.5783 11.3499 34.5885C11.3311 34.5987 11.309 34.6012 11.2883 34.5955C11.2677 34.5898 11.2502 34.5764 11.2398 34.5581C11.2293 34.5399 11.2267 34.5184 11.2326 34.4983C11.2791 34.3288 11.3285 34.1593 11.3802 33.9943C11.3863 33.9743 11.4004 33.9575 11.4193 33.9476C11.4382 33.9377 11.4604 33.9355 11.481 33.9415C11.5016 33.9475 11.5189 33.9612 11.5291 33.9796C11.5392 33.998 11.5415 34.0195 11.5353 34.0395C11.4842 34.2045 11.4348 34.3718 11.3889 34.5384L11.3883 34.5413ZM10.4759 36.7973C10.471 36.8133 10.4611 36.8274 10.4474 36.8375C10.3087 36.9399 10.1789 37.0533 10.0592 37.1765C10.0523 37.1851 10.0436 37.1923 10.0336 37.1975C10.0236 37.2027 10.0127 37.2058 10.0014 37.2066C9.99012 37.2074 9.9788 37.2059 9.96816 37.2022C9.95752 37.1985 9.9478 37.1927 9.93962 37.1851C9.93145 37.1775 9.925 37.1683 9.9207 37.1582C9.91641 37.148 9.91435 37.1371 9.91467 37.1261C9.91498 37.1151 9.91767 37.1043 9.92255 37.0944C9.92742 37.0845 9.93439 37.0757 9.94299 37.0685C10.0682 36.9385 10.2043 36.8186 10.3498 36.7103C10.3635 36.7005 10.3799 36.695 10.3969 36.6948C10.414 36.6945 10.4306 36.6994 10.4446 36.7088C10.4586 36.7183 10.4692 36.7317 10.4749 36.7473C10.4806 36.7628 10.4812 36.7798 10.4765 36.7956L10.4759 36.7973ZM9.04859 41.066C9.04395 41.0811 9.03479 41.0946 9.02227 41.1046C9.00975 41.1147 8.99444 41.1209 8.97827 41.1225C8.9677 41.1234 8.95705 41.1223 8.94692 41.1192C8.93678 41.1162 8.92737 41.1112 8.91922 41.1046C8.91107 41.098 8.90434 41.0898 8.89942 41.0807C8.89449 41.0716 8.89147 41.0616 8.89052 41.0513L8.88587 41.0021C8.87076 40.84 8.85972 40.6801 8.85391 40.5264C8.85336 40.5161 8.85494 40.5058 8.85855 40.4961C8.86216 40.4864 8.86773 40.4775 8.87493 40.4699C8.88213 40.4623 8.89082 40.4562 8.90049 40.4519C8.91015 40.4477 8.92059 40.4453 8.9312 40.445C8.94183 40.4445 8.95246 40.446 8.96248 40.4495C8.97249 40.453 8.98169 40.4584 8.98953 40.4654C8.99737 40.4724 9.00371 40.4809 9.00816 40.4903C9.01261 40.4997 9.0151 40.5098 9.01547 40.5202C9.02128 40.671 9.03232 40.8287 9.04685 40.988L9.0515 41.0366C9.0527 41.0464 9.05191 41.0564 9.04918 41.066H9.04859ZM9.0085 40.0235C9.00284 40.0417 8.99062 40.0572 8.97409 40.0673C8.95756 40.0774 8.93784 40.0813 8.91857 40.0783C8.8993 40.0754 8.88179 40.0657 8.86926 40.0512C8.85674 40.0367 8.85005 40.0182 8.85042 39.9992C8.85565 39.8184 8.86786 39.641 8.88703 39.4721C8.88822 39.4618 8.89147 39.4519 8.89661 39.4428C8.90175 39.4338 8.90867 39.4258 8.91698 39.4193C8.92529 39.4129 8.93483 39.4081 8.94504 39.4052C8.95526 39.4023 8.96596 39.4014 8.97653 39.4026C8.9871 39.4037 8.99733 39.4069 9.00665 39.4119C9.01596 39.4169 9.02417 39.4236 9.03081 39.4317C9.03745 39.4398 9.04238 39.4491 9.04533 39.459C9.04829 39.4689 9.0492 39.4793 9.04801 39.4896C9.02942 39.654 9.01721 39.8286 9.01198 40.0038C9.01223 40.0105 9.01124 40.0172 9.00908 40.0235H9.0085ZM9.74133 37.5522C9.73908 37.5601 9.73533 37.5676 9.73028 37.5742C9.63112 37.7144 9.54274 37.8615 9.46586 38.0144C9.45646 38.0331 9.43979 38.0474 9.41952 38.0542C9.39925 38.061 9.37703 38.0597 9.35777 38.0505C9.3385 38.0414 9.32376 38.0252 9.31678 38.0055C9.30981 37.9858 9.31117 37.9642 9.32057 37.9454C9.40064 37.7853 9.49311 37.6314 9.5972 37.485C9.60804 37.4693 9.6243 37.458 9.64302 37.453C9.66174 37.4481 9.68166 37.4499 9.69915 37.458C9.71664 37.4662 9.73053 37.4802 9.73827 37.4975C9.74601 37.5148 9.7471 37.5342 9.74133 37.5522ZM9.12937 38.9884C9.12413 39.0087 9.11084 39.0261 9.09242 39.0368C9.074 39.0475 9.05197 39.0506 9.03116 39.0455C9.01035 39.0404 8.99248 39.0275 8.98147 39.0096C8.97046 38.9917 8.96722 38.9703 8.97246 38.95C8.99978 38.8235 9.03058 38.6992 9.06893 38.5794C9.08346 38.5319 9.09915 38.4845 9.11485 38.4381C9.11824 38.4283 9.12359 38.4193 9.13058 38.4115C9.13757 38.4037 9.14608 38.3973 9.1556 38.3928C9.16513 38.3882 9.17549 38.3854 9.18609 38.3847C9.1967 38.384 9.20735 38.3854 9.21742 38.3887C9.22749 38.392 9.2368 38.3972 9.24481 38.404C9.25281 38.4108 9.25937 38.4191 9.26409 38.4283C9.26881 38.4376 9.27161 38.4476 9.27233 38.458C9.27304 38.4683 9.27167 38.4786 9.26827 38.4884C9.25316 38.533 9.23805 38.5788 9.2241 38.6251C9.18865 38.7381 9.15785 38.8608 9.13112 38.9828L9.12937 38.9884Z" fill="white" stroke="white" stroke-width="0.126249" stroke-miterlimit="10"/>
<path d="M14.3753 28.7443C14.3723 28.7537 14.3676 28.7625 14.3614 28.7703C14.3061 28.8381 14.2509 28.9076 14.1969 28.9765C14.1908 28.9858 14.1829 28.9937 14.1735 28.9998C14.1642 29.0059 14.1536 29.01 14.1426 29.012C14.1315 29.0139 14.1201 29.0136 14.1091 29.011C14.0982 29.0084 14.0879 29.0037 14.079 28.997C14.07 28.9904 14.0625 28.982 14.0571 28.9725C14.0516 28.9629 14.0483 28.9523 14.0472 28.9414C14.0462 28.9305 14.0475 28.9195 14.051 28.9091C14.0546 28.8987 14.0603 28.8892 14.0679 28.8811C14.1225 28.8116 14.1789 28.7415 14.2341 28.6726C14.2459 28.6585 14.2624 28.6488 14.2808 28.6452C14.2991 28.6415 14.3182 28.6441 14.3347 28.6526C14.3513 28.661 14.3644 28.6747 14.3718 28.6914C14.3792 28.7081 14.3804 28.7268 14.3753 28.7443Z" fill="white" stroke="white" stroke-width="0.126249" stroke-miterlimit="10"/>
<path d="M17.4414 13.9824L18.1969 13.6807C19.0687 13.0524 18.5567 12.6383 18.0877 12.0456C18.4061 11.4026 19.4383 11.4636 19.5684 10.6173C18.96 10.1782 17.0945 11.4574 17.0695 10.367C17.055 9.64714 18.5305 8.61544 19.1256 8.39904C19.7207 8.18264 21.3776 8.15496 21.9558 8.4352C22.4062 8.65386 22.6485 9.06631 22.566 9.52397C22.4759 10.0229 21.9994 10.2398 21.7524 10.7105C22.3655 10.9365 22.677 10.189 22.895 9.82173C23.2582 9.20869 23.5453 9.45786 24.1444 9.23355C24.6896 9.02902 25.0342 8.61657 25.6403 8.46966C26.1122 8.35666 26.6428 8.25609 27.1252 8.18208C27.6761 8.09676 28.0428 8.37361 28.5472 8.37531C29.3149 8.37531 29.0453 7.28484 29.7979 7.84081C30.0652 8.03856 29.8112 8.11823 30.2366 8.27587C30.4174 8.34254 30.8038 8.38887 31.0125 8.43011C31.965 8.61883 31.4879 8.1962 31.4077 7.58825C31.306 6.81532 31.8656 7.30179 32.3677 7.51932C32.7356 7.67922 32.7379 7.52949 32.8989 7.90635C33.0413 8.23914 32.7385 8.36401 33.1197 8.59227C33.8473 9.02563 33.8299 8.01766 33.8299 7.686C33.8299 7.12099 33.9461 6.80007 33.3847 6.4153C33.5591 6.27348 33.7264 6.04522 33.7631 5.82317C33.24 5.574 33.3894 5.18019 33.1162 4.81067C32.6577 4.18916 32.4218 4.74005 31.9435 4.91068C31.4495 5.08696 30.9968 4.70841 30.5202 5.00504C30.0251 5.31296 29.985 5.76836 29.3457 5.18245C29.6235 4.98357 29.8194 4.62535 29.9926 4.33494C29.8095 4.17592 29.6422 4.00057 29.4928 3.81117C29.9734 3.11113 30.812 3.56822 31.4001 3.85242C32.0591 4.17108 32.6693 3.69817 33.2813 3.94847C33.8526 4.18125 33.6701 5.21352 34.611 5.15533C35.1479 5.12199 35.0887 4.86096 35.134 4.52195C35.1456 4.43155 35.0706 4.16261 35.066 4.06995C35.0654 4.06035 35.0654 4.05073 35.066 4.04113C35.6129 4.26318 36.1504 4.51009 36.6816 4.77564C36.595 5.0977 36.5793 5.54462 36.5654 5.79718C36.5543 5.9825 36.6456 6.17008 36.6095 6.35823C36.5689 6.5718 36.255 6.66672 36.3945 6.91928C36.6101 7.30914 38.3553 6.80628 38.7145 6.77521C39.1701 6.73396 39.4426 6.72605 39.5281 6.45485C41.0424 7.49741 42.4204 8.71551 43.6316 10.0822C43.6508 10.3003 43.6705 10.5252 43.6798 10.7659C43.6996 11.2828 43.6479 11.7038 44.0087 12.1614C44.2174 12.4258 45.092 12.9683 44.3226 13.3366C43.6118 13.6756 43.7414 12.7151 43.6943 12.4326C43.6275 12.0416 43.1266 11.3297 42.7686 11.8987C42.2357 12.7462 44.2395 13.8485 43.2085 14.4898C43.348 14.7689 43.6508 15.2808 43.3544 15.556C42.9882 15.895 42.6262 15.295 42.2862 15.8142C41.8044 16.5487 42.2107 17.6748 43.1463 17.9047C44.1436 18.1477 44.2813 16.6657 45.2821 17.1516C45.6767 17.3431 45.8208 17.5855 45.9748 18.0482C46.1009 18.4251 45.9539 19.0003 46.345 19.2014C46.535 19.0048 46.4711 18.7359 46.5809 18.5132C46.818 18.7652 47.1528 19.4794 47.151 19.8246C47.151 20.3473 46.7651 20.8541 47.6874 20.775C47.6468 20.6445 47.7113 20.4546 47.702 20.3653C48.4702 20.8659 48.7968 21.5219 48.6835 22.3858C48.429 24.3147 47.405 21.9903 46.7959 22.6875C46.4432 22.2609 46.4839 21.7835 46.2392 21.323C46.123 21.1049 45.7464 20.9383 45.6743 20.7462C45.575 20.4829 45.7946 20.2619 45.7173 20.0156C45.4122 19.0466 43.291 18.9212 42.4385 18.8675C42.206 18.8528 42.0224 18.7477 41.7876 18.85C41.386 19.0246 41.608 19.28 41.3541 19.5218C40.992 19.8664 40.326 19.7032 39.9424 19.9173C39.0225 20.4371 39.0602 22.0581 38.3658 22.8469C37.9805 23.2847 37.0989 23.4593 37.0291 23.9893C36.9989 24.2153 37.2035 24.5605 37.1814 24.8368C37.1616 25.0894 37.0419 25.3594 37.0506 25.6403C37.0803 26.5505 37.2604 27.6579 37.3952 28.5783C37.4725 29.1009 37.8189 29.4574 38.3356 29.6603C38.7615 29.8298 39.4142 30.0733 39.8721 30.136C40.4841 30.2208 40.7543 29.9558 41.1013 30.475C41.3767 30.8903 41.3918 31.592 42.1154 31.487C42.2461 32.0836 41.4087 32.4339 41.0548 32.7752C40.6009 33.2131 40.5062 33.7865 40.5317 34.4244C40.5625 35.19 40.5898 35.3397 40.0395 35.9793C39.6094 36.4782 39.1323 36.8794 38.6482 37.3354C38.1833 37.7721 37.5859 37.9433 37.2337 38.4953C36.9094 39.0038 36.8565 39.5491 36.4236 40.04C36.0412 40.4728 35.6274 41.0153 35.1851 41.3961C34.7318 41.7842 34.1024 41.9814 33.6265 42.3713C33.1744 42.743 32.8053 43.364 32.8774 43.9533C32.9523 44.5703 33.4492 44.5663 34.0577 44.5296C35.2578 44.4567 36.3044 43.6928 37.3772 43.242C38.4727 42.7803 39.5246 42.3944 40.4573 41.7865C40.6555 41.6577 40.8688 41.5418 41.0827 41.4271C38.057 43.9231 34.4139 45.6085 30.5132 46.3167C26.6126 47.025 22.5894 46.7317 18.841 45.4658C15.0927 44.1999 11.7489 42.0051 9.13988 39.0984C6.53091 36.1916 4.74706 32.6734 3.96454 28.8913C2.7633 23.0853 3.96047 17.1725 7.33522 12.2411C8.98747 9.81162 11.1189 7.72485 13.6062 6.10154C16.0934 4.47824 18.8872 3.35063 21.8256 2.78399C21.9657 2.75687 22.1063 2.73709 22.247 2.71223C22.0505 2.87422 21.8321 3.0092 21.5978 3.11339C21.0359 3.33939 20.4524 3.19927 19.8945 3.39194C19.386 3.56766 18.8077 3.95695 18.4387 4.28465C18.0394 4.63891 17.7518 5.1977 17.3084 5.52202C16.7446 5.93391 16.171 6.02431 15.8101 6.69102C16.4291 7.41253 17.0062 5.86385 17.7035 6.21528C17.5687 6.8464 16.8004 7.6843 16.371 8.18829C15.7799 8.88155 15.5045 8.96913 15.5236 9.90591C15.5393 10.6478 15.4272 11.0647 16.0746 11.6009C16.6673 12.0914 16.7411 12.5468 16.5976 13.3231C16.9155 13.6293 16.6714 13.648 17.5856 13.983M39.5926 5.12256C28.5734 -2.00332 13.6988 0.904208 6.36876 11.6173C-0.961295 22.3304 2.03047 36.7918 13.052 43.9177C24.0735 51.0436 38.944 48.1366 46.2723 37.4235C53.6006 26.7104 50.6112 12.249 39.5926 5.12256Z" stroke="white" stroke-width="0.5" stroke-miterlimit="10"/>
</svg>
