<svg width="40" height="26" viewBox="0 0 40 26" fill="none" xmlns="http://www.w3.org/2000/svg">
<g clip-path="url(#clip0_3_379)">
<path opacity="0.07" d="M36.8421 0.296753H3.15789C1.36842 0.296753 0 1.65092 0 3.42175V22.1718C0 23.9426 1.47368 25.2968 3.15789 25.2968H36.8421C38.6316 25.2968 40 23.9426 40 22.1718V3.42175C40 1.65092 38.5263 0.296753 36.8421 0.296753Z" fill="#263238"/>
<path d="M36.8421 1.33826C38 1.33826 38.9473 2.27576 38.9473 3.42159V22.1716C38.9473 23.3174 38 24.2549 36.8421 24.2549H3.15788C1.99998 24.2549 1.05261 23.3174 1.05261 22.1716V3.42159C1.05261 2.27576 1.99998 1.33826 3.15788 1.33826H36.8421Z" fill="white"/>
<path d="M15.7894 20.0886C19.8589 20.0886 23.1579 16.824 23.1579 12.7969C23.1579 8.76984 19.8589 5.50525 15.7894 5.50525C11.72 5.50525 8.42102 8.76984 8.42102 12.7969C8.42102 16.824 11.72 20.0886 15.7894 20.0886Z" fill="#EB001B"/>
<path d="M24.2105 20.0886C28.28 20.0886 31.5789 16.824 31.5789 12.7969C31.5789 8.76984 28.28 5.50525 24.2105 5.50525C20.1411 5.50525 16.8421 8.76984 16.8421 12.7969C16.8421 16.824 20.1411 20.0886 24.2105 20.0886Z" fill="#F79E1B"/>
<path d="M23.1579 12.7968C23.1579 10.2968 21.8947 8.10925 20 6.85925C18.1053 8.21342 16.8421 10.4009 16.8421 12.7968C16.8421 15.1926 18.1053 17.4843 20 18.7343C21.8947 17.4843 23.1579 15.2968 23.1579 12.7968Z" fill="#FF5F00"/>
</g>
<defs>
<clipPath id="clip0_3_379">
<rect width="40" height="25" fill="white" transform="translate(0 0.296753)"/>
</clipPath>
</defs>
</svg>
