<svg width="40" height="40" viewBox="0 0 40 40" fill="none" xmlns="http://www.w3.org/2000/svg">
<path d="M17.5 1.44338C19.047 0.550211 20.953 0.550212 22.5 1.44338L34.8205 8.55662C36.3675 9.44979 37.3205 11.1004 37.3205 12.8868V27.1132C37.3205 28.8996 36.3675 30.5502 34.8205 31.4434L22.5 38.5566C20.953 39.4498 19.047 39.4498 17.5 38.5566L5.17949 31.4434C3.63249 30.5502 2.67949 28.8996 2.67949 27.1132V12.8868C2.67949 11.1004 3.63249 9.44979 5.17949 8.55662L17.5 1.44338Z" fill="#1DA99D"/>
<path d="M21.6045 12.3379V28H18.5V16.0225L14.8047 17.1719V14.6582L21.2715 12.3379H21.6045Z" fill="#FEFEFE"/>
</svg>
