<svg width="40" height="40" viewBox="0 0 40 40" fill="none" xmlns="http://www.w3.org/2000/svg">
<path d="M17.5 1.44338C19.047 0.550211 20.953 0.550212 22.5 1.44338L34.8205 8.55662C36.3675 9.44979 37.3205 11.1004 37.3205 12.8868V27.1132C37.3205 28.8996 36.3675 30.5502 34.8205 31.4434L22.5 38.5566C20.953 39.4498 19.047 39.4498 17.5 38.5566L5.17949 31.4434C3.63249 30.5502 2.67949 28.8996 2.67949 27.1132V12.8868C2.67949 11.1004 3.63249 9.44979 5.17949 8.55662L17.5 1.44338Z" fill="#1DA99D"/>
<path d="M24.7842 25.4971V28H14.0742V25.873L19.1338 20.4805C19.8786 19.6569 20.4014 18.973 20.7021 18.4287C21.0101 17.8773 21.1641 17.3617 21.1641 16.8818C21.1641 16.18 20.9886 15.6322 20.6377 15.2383C20.2868 14.8372 19.7891 14.6367 19.1445 14.6367C18.6647 14.6367 18.2529 14.7513 17.9092 14.9805C17.5654 15.2025 17.304 15.514 17.125 15.915C16.9531 16.3161 16.8672 16.7708 16.8672 17.2793H13.7627C13.7627 16.334 13.9847 15.471 14.4287 14.6904C14.8727 13.9027 15.5065 13.2796 16.3301 12.8213C17.1536 12.363 18.1097 12.1338 19.1982 12.1338C20.2796 12.1338 21.1999 12.3128 21.959 12.6709C22.7181 13.0218 23.2946 13.5303 23.6885 14.1963C24.0824 14.8623 24.2793 15.6536 24.2793 16.5703C24.2793 17.2292 24.1468 17.8737 23.8818 18.5039C23.6169 19.1341 23.2409 19.7643 22.7539 20.3945C22.2669 21.0176 21.6331 21.7409 20.8525 22.5645L18.0596 25.4971H24.7842Z" fill="#FEFEFE"/>
</svg>
