<svg width="16" height="16" viewBox="0 0 16 16" fill="none" xmlns="http://www.w3.org/2000/svg">
<path d="M6.52469 0C2.93038 0 0 2.93037 0 6.52469C0 10.119 2.93038 13.0494 6.52469 13.0494C8.03466 13.0494 9.42656 12.5317 10.5345 11.6654L14.6348 15.7658C14.9472 16.0781 15.4535 16.0781 15.7658 15.7658C16.078 15.4535 16.078 14.9472 15.7658 14.6349L11.6654 10.5345C12.532 9.42691 13.0509 8.03469 13.0509 6.52472C13.0509 2.93041 10.119 0 6.52469 0ZM6.52469 1.59956C9.25453 1.59956 11.4514 3.79484 11.4514 6.52472C11.4514 9.25456 9.25456 11.4499 6.52469 11.4499C3.79481 11.4499 1.5995 9.25456 1.59953 6.52472C1.59953 3.79484 3.79481 1.59956 6.52469 1.59956Z" fill="#636363"/>
</svg>
