<svg width="30" height="20" viewBox="0 0 30 20" fill="none" xmlns="http://www.w3.org/2000/svg">
<g clip-path="url(#clip0_197_11563)">
<path d="M30 0H0V20H30V0Z" fill="#B22234"/>
<path fill-rule="evenodd" clip-rule="evenodd" d="M30 2.90974H0V1.33398H30V2.90974ZM0 4.4855H30V6.06126H0V4.4855ZM30 9.21277H0V7.63701H30V9.21277ZM0 10.7885H30V12.3643H0V10.7885ZM30 15.5158H0V13.94H30V15.5158ZM0 17.0916H30V18.6673H0V17.0916Z" fill="white"/>
<path d="M13.68 0H0V10.7692H13.68V0Z" fill="#3C3B6E"/>
<path d="M1.13953 0.369141L1.46507 1.48238L0.612793 0.794361H1.66627L0.813989 1.48238L1.13953 0.369141Z" fill="white"/>
<path d="M3.41149 0.369141L3.73703 1.48238L2.88475 0.794361H3.93823L3.08595 1.48238L3.41149 0.369141Z" fill="white"/>
<path d="M5.68345 0.369141L6.00899 1.48238L5.15671 0.794361H6.21019L5.35791 1.48238L5.68345 0.369141Z" fill="white"/>
<path d="M12.4993 0.369141L12.8249 1.48238L11.9726 0.794361H13.0261L12.1738 1.48238L12.4993 0.369141Z" fill="white"/>
<path d="M10.2274 0.369141L10.5529 1.48238L9.70063 0.794361H10.7541L9.90182 1.48238L10.2274 0.369141Z" fill="white"/>
<path d="M7.95541 0.369141L8.28095 1.48238L7.42867 0.794361H8.48215L7.62987 1.48238L7.95541 0.369141Z" fill="white"/>
<path d="M1.13953 2.59564L1.46507 3.70888L0.612793 3.02086H1.66627L0.813989 3.70888L1.13953 2.59564Z" fill="white"/>
<path d="M3.41149 2.59564L3.73703 3.70888L2.88475 3.02086H3.93823L3.08595 3.70888L3.41149 2.59564Z" fill="white"/>
<path d="M5.68345 2.59564L6.00899 3.70888L5.15671 3.02086H6.21019L5.35791 3.70888L5.68345 2.59564Z" fill="white"/>
<path d="M12.4993 2.59564L12.8249 3.70888L11.9726 3.02086H13.0261L12.1738 3.70888L12.4993 2.59564Z" fill="white"/>
<path d="M10.2274 2.59564L10.5529 3.70888L9.70063 3.02086H10.7541L9.90182 3.70888L10.2274 2.59564Z" fill="white"/>
<path d="M7.95541 2.59564L8.28095 3.70888L7.42867 3.02086H8.48215L7.62987 3.70888L7.95541 2.59564Z" fill="white"/>
<path d="M1.13953 4.82214L1.46507 5.93539L0.612793 5.24737H1.66627L0.813989 5.93539L1.13953 4.82214Z" fill="white"/>
<path d="M3.41149 4.82214L3.73703 5.93539L2.88475 5.24737H3.93823L3.08595 5.93539L3.41149 4.82214Z" fill="white"/>
<path d="M5.68345 4.82214L6.00899 5.93539L5.15671 5.24737H6.21019L5.35791 5.93539L5.68345 4.82214Z" fill="white"/>
<path d="M12.4993 4.82214L12.8249 5.93539L11.9726 5.24737H13.0261L12.1738 5.93539L12.4993 4.82214Z" fill="white"/>
<path d="M10.2274 4.82214L10.5529 5.93539L9.70063 5.24737H10.7541L9.90182 5.93539L10.2274 4.82214Z" fill="white"/>
<path d="M7.95541 4.82214L8.28095 5.93539L7.42867 5.24737H8.48215L7.62987 5.93539L7.95541 4.82214Z" fill="white"/>
<path d="M1.13953 7.04865L1.46507 8.16189L0.612793 7.47387H1.66627L0.813989 8.16189L1.13953 7.04865Z" fill="white"/>
<path d="M3.41149 7.04865L3.73703 8.16189L2.88475 7.47387H3.93823L3.08595 8.16189L3.41149 7.04865Z" fill="white"/>
<path d="M5.68345 7.04865L6.00899 8.16189L5.15671 7.47387H6.21019L5.35791 8.16189L5.68345 7.04865Z" fill="white"/>
<path d="M12.4993 7.04865L12.8249 8.16189L11.9726 7.47387H13.0261L12.1738 8.16189L12.4993 7.04865Z" fill="white"/>
<path d="M10.2274 7.04865L10.5529 8.16189L9.70063 7.47387H10.7541L9.90182 8.16189L10.2274 7.04865Z" fill="white"/>
<path d="M7.95541 7.04865L8.28095 8.16189L7.42867 7.47387H8.48215L7.62987 8.16189L7.95541 7.04865Z" fill="white"/>
<path d="M1.13953 9.27515L1.46507 10.3884L0.612793 9.70037H1.66627L0.813989 10.3884L1.13953 9.27515Z" fill="white"/>
<path d="M3.41149 9.27515L3.73703 10.3884L2.88475 9.70037H3.93823L3.08595 10.3884L3.41149 9.27515Z" fill="white"/>
<path d="M5.68345 9.27515L6.00899 10.3884L5.15671 9.70037H6.21019L5.35791 10.3884L5.68345 9.27515Z" fill="white"/>
<path d="M12.4993 9.27515L12.8249 10.3884L11.9726 9.70037H13.0261L12.1738 10.3884L12.4993 9.27515Z" fill="white"/>
<path d="M10.2274 9.27515L10.5529 10.3884L9.70063 9.70037H10.7541L9.90182 10.3884L10.2274 9.27515Z" fill="white"/>
<path d="M7.95541 9.27515L8.28095 10.3884L7.42867 9.70037H8.48215L7.62987 10.3884L7.95541 9.27515Z" fill="white"/>
<path d="M2.27086 1.48239L2.5964 2.59563L1.74412 1.90761H2.7976L1.94532 2.59563L2.27086 1.48239Z" fill="white"/>
<path d="M4.54282 1.48239L4.86836 2.59563L4.01608 1.90761H5.06956L4.21728 2.59563L4.54282 1.48239Z" fill="white"/>
<path d="M6.81478 1.48239L7.14032 2.59563L6.28804 1.90761H7.34152L6.48923 2.59563L6.81478 1.48239Z" fill="white"/>
<path d="M11.3587 1.48239L11.6842 2.59563L10.832 1.90761H11.8854L11.0332 2.59563L11.3587 1.48239Z" fill="white"/>
<path d="M9.08674 1.48239L9.41228 2.59563L8.56 1.90761H9.61347L8.76119 2.59563L9.08674 1.48239Z" fill="white"/>
<path d="M2.27086 3.70889L2.5964 4.82214L1.74412 4.13411H2.7976L1.94532 4.82214L2.27086 3.70889Z" fill="white"/>
<path d="M4.54282 3.70889L4.86836 4.82214L4.01608 4.13411H5.06956L4.21728 4.82214L4.54282 3.70889Z" fill="white"/>
<path d="M6.81478 3.70889L7.14032 4.82214L6.28804 4.13411H7.34152L6.48923 4.82214L6.81478 3.70889Z" fill="white"/>
<path d="M11.3587 3.70889L11.6842 4.82214L10.832 4.13411H11.8854L11.0332 4.82214L11.3587 3.70889Z" fill="white"/>
<path d="M9.08674 3.70889L9.41228 4.82214L8.56 4.13411H9.61347L8.76119 4.82214L9.08674 3.70889Z" fill="white"/>
<path d="M2.27086 5.9354L2.5964 7.04864L1.74412 6.36062H2.7976L1.94532 7.04864L2.27086 5.9354Z" fill="white"/>
<path d="M4.54282 5.9354L4.86836 7.04864L4.01608 6.36062H5.06956L4.21728 7.04864L4.54282 5.9354Z" fill="white"/>
<path d="M6.81478 5.9354L7.14032 7.04864L6.28804 6.36062H7.34152L6.48923 7.04864L6.81478 5.9354Z" fill="white"/>
<path d="M11.3587 5.9354L11.6842 7.04864L10.832 6.36062H11.8854L11.0332 7.04864L11.3587 5.9354Z" fill="white"/>
<path d="M9.08674 5.9354L9.41228 7.04864L8.56 6.36062H9.61347L8.76119 7.04864L9.08674 5.9354Z" fill="white"/>
<path d="M2.27086 8.1619L2.5964 9.27514L1.74412 8.58712H2.7976L1.94532 9.27514L2.27086 8.1619Z" fill="white"/>
<path d="M4.54282 8.1619L4.86836 9.27514L4.01608 8.58712H5.06956L4.21728 9.27514L4.54282 8.1619Z" fill="white"/>
<path d="M6.81478 8.1619L7.14032 9.27514L6.28804 8.58712H7.34152L6.48923 9.27514L6.81478 8.1619Z" fill="white"/>
<path d="M11.3587 8.1619L11.6842 9.27514L10.832 8.58712H11.8854L11.0332 9.27514L11.3587 8.1619Z" fill="white"/>
<path d="M9.08674 8.1619L9.41228 9.27514L8.56 8.58712H9.61347L8.76119 9.27514L9.08674 8.1619Z" fill="white"/>
</g>
<defs>
<clipPath id="clip0_197_11563">
<rect width="30" height="20" fill="white"/>
</clipPath>
</defs>
</svg>
