<svg width="40" height="26" viewBox="0 0 40 26" fill="none" xmlns="http://www.w3.org/2000/svg">
<g clip-path="url(#clip0_3_375)">
<path opacity="0.07" d="M36.8421 0.296753H3.15789C1.36842 0.296753 0 1.65092 0 3.42175V22.1718C0 23.9426 1.47368 25.2968 3.15789 25.2968H36.8421C38.6316 25.2968 40 23.9426 40 22.1718V3.42175C40 1.65092 38.5263 0.296753 36.8421 0.296753Z" fill="#263238"/>
<path d="M36.8421 1.33826C38 1.33826 38.9473 2.27576 38.9473 3.42159V22.1716C38.9473 23.3174 38 24.2549 36.8421 24.2549H3.15788C1.99998 24.2549 1.05261 23.3174 1.05261 22.1716V3.42159C1.05261 2.27576 1.99998 1.33826 3.15788 1.33826H36.8421Z" fill="white"/>
<path d="M29.7895 10.8177H29.4737C29.0527 11.8594 28.7369 12.3802 28.4211 13.9427H30.4211C30.1053 12.3802 30.1053 11.6511 29.7895 10.8177ZM32.8421 16.9636H31.0527C30.9474 16.9636 30.9474 16.9636 30.8421 16.8594L30.6316 15.9219L30.5263 15.7136H28C27.8948 15.7136 27.7895 15.7136 27.7895 15.9219L27.4737 16.8594C27.4737 16.9636 27.3684 16.9636 27.3684 16.9636H25.1579L25.3684 16.4427L28.4211 9.35942C28.4211 8.83858 28.7369 8.63025 29.2632 8.63025H30.8421C30.9474 8.63025 31.0527 8.63025 31.0527 8.83858L32.5263 15.6094C32.6316 16.0261 32.7369 16.3386 32.7369 16.7552C32.8421 16.8594 32.8421 16.8594 32.8421 16.9636ZM18.7369 16.6511L19.1579 14.7761C19.2632 14.7761 19.3684 14.8802 19.3684 14.8802C20.1053 15.1927 20.8421 15.4011 21.579 15.2969C21.7895 15.2969 22.1053 15.1927 22.3158 15.0886C22.8421 14.8802 22.8421 14.3594 22.4211 13.9427C22.2106 13.7344 21.8948 13.6302 21.579 13.4219C21.1579 13.2136 20.7369 13.0052 20.4211 12.6927C19.1579 11.6511 19.579 10.1927 20.3158 9.46358C20.9474 9.04692 21.2632 8.63025 22.1053 8.63025C23.3684 8.63025 24.7369 8.63025 25.3684 8.83858H25.4737C25.3684 9.46358 25.2632 9.98442 25.0527 10.6094C24.5263 10.4011 24 10.1927 23.4737 10.1927C23.1579 10.1927 22.8421 10.1927 22.5263 10.2969C22.3158 10.2969 22.2106 10.4011 22.1053 10.5052C21.8948 10.7136 21.8948 11.0261 22.1053 11.2344L22.6316 11.6511C23.0527 11.8594 23.4737 12.0677 23.7895 12.2761C24.3158 12.5886 24.8421 13.1094 24.9474 13.7344C25.1579 14.6719 24.8421 15.5052 24 16.1302C23.4737 16.5469 23.2632 16.7552 22.5263 16.7552C21.0527 16.7552 19.8948 16.8594 18.9474 16.5469C18.8421 16.7552 18.8421 16.7552 18.7369 16.6511ZM15.0527 16.9636C15.1579 16.2344 15.1579 16.2344 15.2632 15.9219C15.7895 13.6302 16.3158 11.2344 16.7369 8.94275C16.8421 8.73442 16.8421 8.63025 17.0527 8.63025H18.9474C18.7369 9.88025 18.5263 10.8177 18.2106 11.9636C17.8948 13.5261 17.579 15.0886 17.1579 16.6511C17.1579 16.8594 17.0527 16.8594 16.8421 16.8594L15.0527 16.9636ZM5.26318 8.83858C5.26318 8.73442 5.47371 8.63025 5.57897 8.63025H9.15792C9.68424 8.63025 10.1053 8.94275 10.2106 9.46358L11.1579 14.0469C11.1579 14.1511 11.1579 14.1511 11.2632 14.2552C11.2632 14.1511 11.3684 14.1511 11.3684 14.1511L13.579 8.83858C13.4737 8.73442 13.579 8.63025 13.6842 8.63025H15.8948C15.8948 8.73442 15.8948 8.73442 15.7895 8.83858L12.5263 16.4427C12.4211 16.6511 12.4211 16.7552 12.3158 16.8594C12.2106 16.9636 12 16.8594 11.7895 16.8594H10.2106C10.1053 16.8594 10 16.8594 10 16.6511L8.31582 10.1927C8.10529 9.98442 7.7895 9.67192 7.36845 9.56775C6.73687 9.25525 5.57897 9.04692 5.36845 9.04692L5.26318 8.83858Z" fill="#142688"/>
</g>
<defs>
<clipPath id="clip0_3_375">
<rect width="40" height="25" fill="white" transform="translate(0 0.296753)"/>
</clipPath>
</defs>
</svg>
