<svg width="24" height="24" viewBox="0 0 24 24" fill="none" xmlns="http://www.w3.org/2000/svg">
<path d="M20.6463 8.76367C18.7444 5.49365 15.6781 2 12.7764 2C9.87662 2 6.81229 5.49072 4.91045 8.75732C3.06931 11.9199 1.59934 16.1675 2.99391 18.603C4.42763 21.106 8.98346 21.999 12.7686 22H12.7744C16.5634 22 21.1222 21.1079 22.5588 18.6035C23.9544 16.1699 22.4854 11.9248 20.6463 8.76367ZM11.7736 8C11.7736 7.73478 11.8792 7.48043 12.0673 7.29289C12.2554 7.10536 12.5104 7 12.7764 7C13.0424 7 13.2974 7.10536 13.4855 7.29289C13.6736 7.48043 13.7792 7.73478 13.7792 8V13C13.7792 13.2652 13.6736 13.5196 13.4855 13.7071C13.2974 13.8946 13.0424 14 12.7764 14C12.5104 14 12.2554 13.8946 12.0673 13.7071C11.8792 13.5196 11.7736 13.2652 11.7736 13V8ZM12.7764 17.25C12.5285 17.25 12.2861 17.1767 12.08 17.0393C11.8738 16.902 11.7132 16.7068 11.6183 16.4784C11.5234 16.2499 11.4986 15.9986 11.5469 15.7561C11.5953 15.5137 11.7147 15.2909 11.89 15.1161C12.0653 14.9413 12.2887 14.8222 12.5318 14.774C12.775 14.7258 13.0271 14.7505 13.2561 14.8452C13.4852 14.9398 13.6809 15.1 13.8187 15.3055C13.9564 15.5111 14.0299 15.7528 14.0299 16C14.0299 16.1642 13.9975 16.3267 13.9345 16.4784C13.8715 16.63 13.7792 16.7678 13.6628 16.8839C13.5464 17 13.4082 17.092 13.2561 17.1549C13.104 17.2177 12.941 17.25 12.7764 17.25Z" fill="#FF6400"/>
</svg>
