<svg width="10" height="16" viewBox="0 0 10 16" fill="none" xmlns="http://www.w3.org/2000/svg">
<path d="M7.7723 13.375C5.85043 14.5219 6.21293 13.1344 6.18168 15.5594C6.18168 15.8938 6.07543 16 5.74105 16C5.19105 16 4.63793 16 4.0848 16C3.79418 16 3.6848 15.8906 3.6848 15.6C3.6848 15.1344 3.6848 14.6688 3.6848 14.225C3.16918 14.125 2.6598 14.0625 2.1723 13.9281C1.67855 13.7906 1.20355 13.5906 0.728553 13.4C0.491053 13.3031 0.447303 13.1781 0.512928 12.925C0.687928 12.2438 0.862928 11.5625 1.04105 10.8781C1.11605 10.5844 1.29105 10.4938 1.5598 10.6313C2.66605 11.1875 3.95043 11.5688 5.19105 11.3125C5.84105 11.1812 6.30668 10.5844 5.77855 10.0125C5.45043 9.67188 5.01293 9.5125 4.58793 9.34062C3.95355 9.08437 3.30355 8.85625 2.68793 8.55937C0.412928 7.60312 -0.133947 4.55937 1.70668 2.89375C2.2473 2.40937 2.8723 2.0875 3.5723 1.90937C3.72855 1.86875 3.78793 1.80625 3.78168 1.6375C3.76605 1.23438 3.77543 0.828125 3.77855 0.425C3.78168 0.115625 3.89418 0.003125 4.1973 0H5.83168C6.15043 0 6.25668 0.109375 6.25355 0.4375C6.25355 0.79375 6.25668 1.15 6.25043 1.50312C6.2473 1.63437 6.28168 1.68438 6.4223 1.69375C7.21918 1.74688 8.00043 1.94375 8.72855 2.27187C8.98168 2.38437 9.04105 2.49688 8.9723 2.7625C8.80355 3.40938 8.63168 4.05312 8.4598 4.69688C8.36918 5.03125 8.20668 5.1125 7.88793 4.95625C6.8723 4.475 5.67543 4.19062 4.57855 4.52812C4.01293 4.7375 3.93793 5.3 4.44418 5.62187C4.86293 5.89062 5.32543 6.09687 5.78793 6.2875C6.47855 6.57188 7.17855 6.825 7.82543 7.20937C10.1536 8.59062 10.0254 12.0156 7.7723 13.375Z" fill="black"/>
</svg>
