<svg width="12" height="16" viewBox="0 0 12 16" fill="none" xmlns="http://www.w3.org/2000/svg">
<path d="M11.9924 13.6352C11.9894 14.0852 11.8232 14.4633 11.4696 14.754C9.354 16.4821 6.52216 16.4071 4.47611 14.5634C3.40321 13.5946 2.68392 12.3852 2.24569 10.9914C2.20036 10.8476 2.14294 10.7914 1.99182 10.7976C1.69867 10.8133 1.40551 10.807 1.11235 10.8008C0.480702 10.7883 0.00621023 10.3101 0.000165748 9.68199C-0.00587874 9.06635 0.45048 8.56946 1.06702 8.53196C1.30275 8.51946 1.54151 8.52884 1.79236 8.52884V7.48506C1.71982 7.47881 1.64427 7.47256 1.56871 7.46944C1.34809 7.46006 1.12444 7.47881 0.90986 7.44131C0.314479 7.33819 -0.084457 6.7538 0.015277 6.14128C0.102922 5.61315 0.535103 5.22251 1.05191 5.20064C1.3632 5.18814 1.67751 5.18814 1.9888 5.20064C2.13387 5.20689 2.20036 5.16314 2.24871 5.01313C2.6416 3.71935 3.29139 2.5787 4.25246 1.64431C5.38278 0.544283 6.71861 -0.0526057 8.29017 0.00364552C9.52023 0.0505216 10.6052 0.509907 11.5482 1.31618C12.1345 1.81619 12.1466 2.85996 11.6056 3.40997C11.2278 3.79436 10.714 3.83811 10.2909 3.50372C9.83152 3.14434 9.33587 2.86934 8.76769 2.74746C7.83079 2.54745 6.96945 2.74746 6.17763 3.28497C5.52482 3.72873 5.04429 4.33812 4.6786 5.04751C4.66046 5.08501 4.64837 5.12564 4.62117 5.20064H4.94758C5.92074 5.20064 6.8939 5.19439 7.86404 5.20376C8.34457 5.20689 8.69818 5.45064 8.87649 5.91315C9.05178 6.36629 8.96111 6.78505 8.63471 7.13818C8.41106 7.37881 8.12395 7.47569 7.80359 7.47569H4.77833C4.52748 7.47569 4.27966 7.47569 4.00161 7.47569C4.00161 7.81007 3.99557 8.12258 4.00766 8.43509C4.01068 8.46946 4.11041 8.52571 4.16481 8.52884C5.0322 8.53509 5.9026 8.53196 6.76999 8.53509C7.15986 8.53509 7.55275 8.51946 7.94262 8.54446C8.47453 8.57884 8.87649 8.98822 8.95204 9.52886C9.01853 10.0507 8.72538 10.5508 8.24786 10.7289C8.10884 10.7789 7.96377 10.8039 7.8187 10.8008C6.86368 10.807 5.91167 10.8039 4.95664 10.8039H4.60304C4.68766 10.9664 4.74811 11.0914 4.81762 11.2133C5.1954 11.8633 5.66989 12.4227 6.31061 12.8039C7.6283 13.5915 8.91578 13.5071 10.1458 12.5977C10.5297 12.3133 10.9074 12.1508 11.3487 12.4008C11.8111 12.6602 11.9954 13.1102 11.9924 13.6352Z" fill="black"/>
</svg>
