<svg width="24" height="18" viewBox="0 0 24 18" fill="none" xmlns="http://www.w3.org/2000/svg">
<g clip-path="url(#clip0_417_36889)">
<path d="M21.6923 17.1004H2.30772C1.54299 17.1004 0.923096 16.496 0.923096 15.7504C0.923096 15.0048 1.54299 14.4004 2.30772 14.4004H21.6924C22.4571 14.4004 23.077 15.0048 23.077 15.7504C23.0769 16.496 22.4571 17.1004 21.6923 17.1004Z" fill="#FBFBFB"/>
<path d="M21.6923 10.3504H2.30772C1.54299 10.3504 0.923096 9.74597 0.923096 9.0004C0.923096 8.25483 1.54299 7.65039 2.30772 7.65039H21.6924C22.4571 7.65039 23.077 8.25478 23.077 9.0004C23.077 9.74601 22.4571 10.3504 21.6923 10.3504Z" fill="#FBFBFB"/>
<path d="M21.6923 3.60041H2.30772C1.54299 3.60041 0.923096 2.99601 0.923096 2.2504C0.923096 1.50478 1.54299 0.900391 2.30772 0.900391H21.6924C22.4571 0.900391 23.077 1.50478 23.077 2.2504C23.077 2.99601 22.4571 3.60041 21.6923 3.60041Z" fill="#FBFBFB"/>
</g>
<defs>
<clipPath id="clip0_417_36889">
<rect width="24" height="18" fill="white"/>
</clipPath>
</defs>
</svg>
