<svg width="18" height="18" viewBox="0 0 18 18" fill="none" xmlns="http://www.w3.org/2000/svg">
<path d="M14.6858 16.9953L0.979286 2.93361C0.438556 2.37887 0.434112 1.49735 0.96936 0.964599C1.50461 0.431847 2.37679 0.449671 2.91752 1.00441L16.6241 15.0661C17.1648 15.6208 17.1692 16.5024 16.634 17.0351C16.0987 17.5679 15.2265 17.55 14.6858 16.9953Z" fill="#FBFBFB"/>
<path d="M1.0074 14.6312L15.1104 0.975756C15.6668 0.437041 16.5391 0.444696 17.0589 0.992856C17.5787 1.54102 17.549 2.42203 16.9926 2.96075L2.8896 16.6162C2.33326 17.1549 1.4609 17.1473 0.941117 16.5991C0.421335 16.051 0.45103 15.1699 1.0074 14.6312Z" fill="#FBFBFB"/>
</svg>
