<svg width="40" height="26" viewBox="0 0 40 26" fill="none" xmlns="http://www.w3.org/2000/svg">
<g clip-path="url(#clip0_3_390)">
<path opacity="0.07" d="M36.8421 0.296753H3.15789C1.36842 0.296753 0 1.65092 0 3.42175V22.1718C0 23.9426 1.47368 25.2968 3.15789 25.2968H36.8421C38.6316 25.2968 40 23.9426 40 22.1718V3.42175C40 1.65092 38.5263 0.296753 36.8421 0.296753Z" fill="#263238"/>
<path d="M36.8421 1.33826C38 1.33826 38.9473 2.27576 38.9473 3.42159V22.1716C38.9473 23.3174 38 24.2549 36.8421 24.2549H3.15788C1.99998 24.2549 1.05261 23.3174 1.05261 22.1716V3.42159C1.05261 2.27576 1.99998 1.33826 3.15788 1.33826H36.8421Z" fill="white"/>
<path d="M27.6159 9.96712H25.9194C26.0747 10.3036 26.2048 10.655 26.3052 11.0185C26.4697 11.6115 26.5571 12.2334 26.5571 12.872C26.5571 14.7628 25.7976 16.4788 24.5669 17.7309C23.3352 18.9849 21.6295 19.7732 19.7378 19.8085H11.5994V22.0069C11.5994 22.1194 11.5566 22.2319 11.4702 22.3174C11.2982 22.4894 11.0203 22.4894 10.8483 22.3174L6.62898 18.1036C6.45701 17.9317 6.45701 17.6537 6.62898 17.4827L10.8464 13.2708C10.9264 13.1899 11.037 13.1407 11.1588 13.1407C11.4014 13.1407 11.5985 13.3377 11.5985 13.5794V15.776H13.2949C13.1397 15.4395 13.0095 15.0881 12.9092 14.7247C12.7446 14.1316 12.6572 13.5097 12.6572 12.8711C12.6572 10.9785 13.4176 9.2625 14.6493 8.00944C15.8828 6.75545 17.5905 5.96811 19.4831 5.93464H27.614V3.73621C27.614 3.62373 27.6568 3.51125 27.7432 3.42573C27.9152 3.25376 28.1931 3.25376 28.3651 3.42573L32.5844 7.63947C32.7564 7.81144 32.7564 8.08938 32.5844 8.26043L28.367 12.4723C28.287 12.5532 28.1764 12.6024 28.0546 12.6024C27.812 12.6024 27.615 12.4054 27.615 12.1637V9.96712H27.6159ZM25.1916 9.08867H28.0556C28.2982 9.08867 28.4953 9.28574 28.4953 9.52743V11.1031L31.653 7.94995L28.4953 4.79685V6.37247C28.4953 6.61509 28.2982 6.81123 28.0556 6.81123C28.0426 6.81123 28.0295 6.81123 28.0165 6.80937H19.4979C17.8461 6.83818 16.3541 7.52792 15.2758 8.62389C14.2003 9.71706 13.5375 11.2165 13.5375 12.872C13.5375 13.4363 13.6138 13.9801 13.7551 14.4923C13.9029 15.0249 14.1213 15.5278 14.4002 15.9917C14.5247 16.199 14.4569 16.4676 14.2487 16.5922C14.178 16.634 14.0999 16.6544 14.0237 16.6544L11.1597 16.6554C10.9171 16.6554 10.72 16.4583 10.72 16.2166V14.641L7.56227 17.7941L10.72 20.9472V19.3716C10.72 19.129 10.9171 18.9328 11.1597 18.9328C11.1727 18.9328 11.1857 18.9328 11.1987 18.9347H19.7238C21.3738 18.9031 22.8639 18.2143 23.9413 17.1183C25.0149 16.0261 25.6768 14.5276 25.6768 12.873C25.6768 12.3087 25.6006 11.7649 25.4593 11.2527C25.3115 10.7201 25.093 10.2172 24.8142 9.75332C24.6896 9.54602 24.7575 9.27738 24.9657 9.15281C25.0363 9.11098 25.1144 9.09053 25.1906 9.09053V9.08867H25.1916Z" fill="#167FFC"/>
<path d="M17.611 15.0143C17.888 15.2848 17.8945 15.7282 17.6249 16.0062C17.3554 16.2841 16.9119 16.2897 16.634 16.0201C16.5978 15.9848 16.5615 15.9485 16.5271 15.9132C15.6673 15.0236 15.2378 13.8867 15.2378 12.7499C15.2378 11.613 15.6682 10.4761 16.5271 9.58654C16.5624 9.55029 16.5978 9.51403 16.634 9.47964C17.5608 8.58167 18.7711 8.13269 19.9777 8.13269C21.1843 8.13269 22.3955 8.58167 23.3213 9.47964C23.3576 9.51496 23.3938 9.55121 23.4282 9.58654C24.2881 10.4761 24.7176 11.613 24.7176 12.7499C24.7176 13.8867 24.2872 15.0236 23.4282 15.9132C23.3929 15.9494 23.3576 15.9857 23.3213 16.0201C23.0443 16.2906 22.6009 16.2841 22.3304 16.0062C22.0608 15.7282 22.0664 15.2848 22.3444 15.0143C22.3713 14.9883 22.3983 14.9613 22.4243 14.9344C23.0174 14.3208 23.313 13.5354 23.313 12.7489C23.313 11.9625 23.0164 11.177 22.4243 10.5635C22.3983 10.5366 22.3713 10.5096 22.3444 10.4836C21.8721 10.0262 21.2912 9.73434 20.6795 9.60885V12.7489C20.6795 13.1375 20.3653 13.4526 19.9767 13.4526C19.5882 13.4526 19.274 13.1375 19.274 12.7489V9.60885C18.6623 9.73434 18.0813 10.0262 17.6091 10.4836C17.5822 10.5096 17.5552 10.5366 17.5292 10.5635C16.9361 11.177 16.6405 11.9625 16.6405 12.7489C16.6405 13.5354 16.937 14.3208 17.5292 14.9344C17.5552 14.9613 17.5822 14.9873 17.6091 15.0143H17.611Z" fill="#1E6AC6"/>
</g>
<defs>
<clipPath id="clip0_3_390">
<rect width="40" height="25" fill="white" transform="translate(0 0.296753)"/>
</clipPath>
</defs>
</svg>
