<svg width="40" height="40" viewBox="0 0 40 40" fill="none" xmlns="http://www.w3.org/2000/svg">
<path d="M17.5 1.44338C19.047 0.550211 20.953 0.550212 22.5 1.44338L34.8205 8.55662C36.3675 9.44979 37.3205 11.1004 37.3205 12.8868V27.1132C37.3205 28.8996 36.3675 30.5502 34.8205 31.4434L22.5 38.5566C20.953 39.4498 19.047 39.4498 17.5 38.5566L5.17949 31.4434C3.63249 30.5502 2.67949 28.8996 2.67949 27.1132V12.8868C2.67949 11.1004 3.63249 9.44979 5.17949 8.55662L17.5 1.44338Z" fill="#1DA99D"/>
<path d="M17.2324 21.2324V18.7939H18.8867C19.6458 18.7939 20.2223 18.6042 20.6162 18.2246C21.0101 17.8379 21.207 17.3079 21.207 16.6348C21.207 16.0332 21.0244 15.5498 20.6592 15.1846C20.3011 14.8193 19.7783 14.6367 19.0908 14.6367C18.7113 14.6367 18.3604 14.7083 18.0381 14.8516C17.7158 14.9948 17.458 15.2025 17.2646 15.4746C17.0785 15.7396 16.9854 16.0511 16.9854 16.4092H13.8809C13.8809 15.5713 14.1064 14.8301 14.5576 14.1855C15.016 13.5339 15.6354 13.029 16.416 12.6709C17.1966 12.3128 18.0596 12.1338 19.0049 12.1338C20.0719 12.1338 21.0029 12.3057 21.7979 12.6494C22.5928 12.986 23.2087 13.4909 23.6455 14.1641C24.0895 14.8301 24.3115 15.6393 24.3115 16.5918C24.3115 17.2721 24.1003 17.9202 23.6777 18.5361C23.2552 19.1449 22.6715 19.6211 21.9268 19.9648C22.7861 20.2656 23.4378 20.7311 23.8818 21.3613C24.3258 21.9915 24.5479 22.7399 24.5479 23.6064C24.5479 24.5589 24.3079 25.3825 23.8281 26.0771C23.3555 26.7718 22.7002 27.3018 21.8623 27.667C21.0244 28.0322 20.0719 28.2148 19.0049 28.2148C18.0882 28.2148 17.2288 28.0501 16.4268 27.7207C15.6247 27.3841 14.973 26.8936 14.4717 26.249C13.9489 25.5902 13.6875 24.7451 13.6875 23.7139H16.8027C16.8027 24.0934 16.8994 24.4372 17.0928 24.7451C17.2933 25.0459 17.5654 25.2822 17.9092 25.4541C18.2601 25.626 18.654 25.7119 19.0908 25.7119C19.8213 25.7119 20.3942 25.5186 20.8096 25.1318C21.2321 24.738 21.4434 24.2152 21.4434 23.5635C21.4434 22.0094 20.584 21.2324 18.8652 21.2324H17.2324Z" fill="#FEFEFE"/>
</svg>
