<svg width="20" height="20" viewBox="0 0 20 20" fill="none" xmlns="http://www.w3.org/2000/svg">
<path fill-rule="evenodd" clip-rule="evenodd" d="M6.04102 3.12484C6.04102 1.97424 6.97376 1.0415 8.12435 1.0415H11.8743C13.0249 1.0415 13.9577 1.97424 13.9577 3.12484V3.5415H18.1243C18.5846 3.5415 18.9577 3.9146 18.9577 4.37484C18.9577 4.83507 18.5846 5.20817 18.1243 5.20817H17.0827V15.6248C17.0827 17.4658 15.5903 18.9582 13.7493 18.9582H6.24935C4.4084 18.9582 2.91602 17.4658 2.91602 15.6248V5.20817H1.87435C1.41411 5.20817 1.04102 4.83507 1.04102 4.37484C1.04102 3.9146 1.41411 3.5415 1.87435 3.5415H6.04102V3.12484ZM7.70768 3.5415H12.291V3.12484C12.291 2.89472 12.1045 2.70817 11.8743 2.70817H8.12435C7.89423 2.70817 7.70768 2.89472 7.70768 3.12484V3.5415ZM4.58268 5.20817V15.6248C4.58268 16.5453 5.32887 17.2915 6.24935 17.2915H13.7493C14.6698 17.2915 15.416 16.5453 15.416 15.6248V5.20817H4.58268ZM9.99935 6.6665C10.4596 6.6665 10.8327 7.0396 10.8327 7.49984L10.8327 14.9998C10.8327 15.4601 10.4596 15.8332 9.99935 15.8332C9.53911 15.8332 9.16602 15.4601 9.16602 14.9998L9.16602 7.49984C9.16602 7.0396 9.53911 6.6665 9.99935 6.6665Z" fill="#FF4242"/>
</svg>
