<svg width="14" height="16" viewBox="0 0 14 16" fill="none" xmlns="http://www.w3.org/2000/svg">
<path d="M3.40324 16C2.70949 15.9719 2.16574 15.4 2.16887 14.7063C2.15949 14.0656 2.17824 13.3969 2.16574 12.75C1.95324 12.7594 1.69699 12.7594 1.47512 12.7531C0.300116 12.7656 -0.237384 11.2844 0.606366 10.5063C0.859491 10.2719 1.15324 10.1562 1.47512 10.1625C1.67512 10.1656 1.96574 10.1625 2.16887 10.1625C2.16574 9.95625 2.16887 9.73125 2.16887 9.51562C1.92512 9.50937 1.65949 9.50938 1.42824 9.52188C0.762616 9.52188 0.196991 8.92813 0.190741 8.225C0.175116 7.5625 0.750116 6.9125 1.43449 6.92812C1.67199 6.9375 1.93137 6.93437 2.16574 6.92812C2.17512 5.10938 2.16262 3.14375 2.16887 1.33438C2.15324 0.5125 2.74387 -0.028125 3.50012 0.00625H3.74074C4.71887 0.00625 5.69699 0 6.67512 0C7.70637 0 8.50324 0.00625 9.25637 0.01875C10.4314 0.040625 11.4689 0.484375 12.3376 1.34375C15.2282 4.01875 13.6032 9 9.71262 9.4625C9.10012 9.5375 8.46887 9.51562 7.86887 9.51562C6.98137 9.53125 5.67824 9.5125 4.77512 9.52188C4.77512 9.73438 4.77199 9.95 4.77824 10.1625L4.78762 10.1656C4.82512 10.1719 4.87199 10.1625 4.90949 10.1625H9.17824C9.89387 10.1469 10.4876 10.7156 10.5001 11.4312V11.5063C10.4907 12.1188 9.99699 12.7563 9.19074 12.7563C8.59699 12.75 8.00324 12.7469 7.40949 12.75C6.53137 12.75 5.65637 12.7531 4.77824 12.7531V14.0531C4.77824 14.3 4.77824 14.5531 4.76887 14.8031C4.74074 15.5406 4.05949 16 3.44387 16H3.40324ZM4.79699 6.93125C6.00012 6.92812 7.77199 6.94062 8.95637 6.92812C10.3189 6.98438 11.5345 5.90625 11.3564 4.54688C11.2314 3.47813 10.4032 2.67188 9.39074 2.63125C8.50949 2.59375 7.60949 2.59063 6.76574 2.59063C6.22199 2.59687 5.30637 2.59063 4.77199 2.5875C4.78137 3.0375 4.77199 6.40625 4.77512 6.93125H4.79699Z" fill="black"/>
</svg>
